<svg width="30" height="30" viewBox="0 0 30 30" fill="none" xmlns="http://www.w3.org/2000/svg">
<path d="M17.9167 4.91699V10.7495H23.7492" stroke="#448DE5" stroke-miterlimit="10"/>
<path d="M7.25 24.1358V4.75H17.5008L22.7475 9.99671V24.1358H7.25Z" stroke="#448DE5" stroke-width="2" stroke-miterlimit="10" stroke-linecap="square"/>
<path d="M12.7155 21.25H13.5584L13.5623 20.1318C15.268 19.9805 16.246 18.8281 16.25 17.1924C16.246 15.459 15.0811 14.668 13.8566 14.3115L13.5941 14.2285L13.6101 11.4404C14.2462 11.5771 14.6557 12.0459 14.7193 12.749H16.1387C16.1148 11.1963 15.1209 10.0635 13.618 9.8877L13.622 8.75H12.7791L12.7751 9.8877C11.2842 10.0732 10.2107 11.1963 10.2147 12.8125C10.2147 14.248 11.0456 15.0732 12.3855 15.498L12.7433 15.6104L12.7274 18.5645C12.0157 18.4277 11.5029 17.9297 11.4512 17.0459H10C10.0557 18.877 11.0814 19.9658 12.7195 20.1318L12.7155 21.25ZM13.5703 18.5645L13.5862 15.8838C14.3098 16.1426 14.771 16.4844 14.775 17.1777C14.771 17.9004 14.2979 18.418 13.5703 18.5645ZM12.7513 13.9648C12.2026 13.75 11.7017 13.3936 11.7096 12.7002C11.7136 12.0703 12.0992 11.582 12.7672 11.4404L12.7513 13.9648Z" fill="#448DE5"/>
</svg>
