<svg width="30" height="30" viewBox="0 0 30 30" fill="none" xmlns="http://www.w3.org/2000/svg">
<path d="M23.75 3.75H6.25C4.87125 3.75 3.75 4.87125 3.75 6.25V23.75C3.75 25.1287 4.87125 26.25 6.25 26.25H16.25C16.4142 26.2502 16.5768 26.218 16.7285 26.1551C16.8801 26.0923 17.0179 26.0001 17.1337 25.8838L25.8838 17.1337C25.9865 17.0272 26.0695 16.9032 26.1287 16.7675C26.1462 16.73 26.1563 16.6912 26.17 16.6512C26.2056 16.5467 26.227 16.4378 26.2337 16.3275C26.2362 16.3013 26.25 16.2762 26.25 16.25V6.25C26.25 4.87125 25.1287 3.75 23.75 3.75ZM6.25 6.25H23.75V15H16.25C15.9185 15 15.6005 15.1317 15.3661 15.3661C15.1317 15.6005 15 15.9185 15 16.25V23.75H6.25V6.25ZM17.5 21.9825V17.5H21.9825L17.5 21.9825Z" fill="#828282"/>
</svg>
