<svg width="80" height="80" viewBox="0 0 80 80" fill="none" xmlns="http://www.w3.org/2000/svg">
<path d="M13.3334 22.2221V61.1109C13.3334 64.1804 15.8195 66.6665 18.8889 66.6665H57.7778C60.8473 66.6665 63.3334 64.1804 63.3334 61.1109V22.2221C63.3334 19.1526 60.8473 16.6665 57.7778 16.6665H18.8889C15.8195 16.6665 13.3334 19.1526 13.3334 22.2221ZM46.6667 33.3332C46.6667 37.9443 42.9306 41.6665 38.3334 41.6665C33.7362 41.6665 30 37.9443 30 33.3332C30 28.7359 33.7362 24.9998 38.3334 24.9998C42.9306 24.9998 46.6667 28.7359 46.6667 33.3332ZM21.6667 55.5554C21.6667 49.9998 32.7778 46.9443 38.3334 46.9443C43.8889 46.9443 55 49.9998 55 55.5554V58.3332H21.6667V55.5554Z" fill="white"/>
</svg>
