<svg xmlns="http://www.w3.org/2000/svg" width="80" height="80" viewBox="0 0 80 80" fill="none">
<path d="M10 16C10 12.6863 12.6863 10 16 10H64C67.3137 10 70 12.6863 70 16V64C70 67.3137 67.3137 70 64 70H16C12.6863 70 10 67.3137 10 64V16Z" fill="#DAF2EB"/>
<path fill-rule="evenodd" clip-rule="evenodd" d="M19.6472 21.0613C18.196 22.5411 17.3808 24.5483 17.3808 26.6411V38.8702C19.6946 36.9221 22.5943 35.8433 25.5948 35.8145C28.5952 35.7857 31.5144 36.8085 33.8638 38.7118C36.2133 40.6152 37.8505 43.2836 38.5015 46.2706C39.1526 49.2576 38.7779 52.382 37.4404 55.121L42.3213 60.0985H57.2619C58.2781 60.0985 59.2843 59.8944 60.2231 59.4978C61.162 59.1013 62.015 58.52 62.7336 57.7873C63.4521 57.0545 64.0221 56.1846 64.411 55.2272C64.7999 54.2698 65 53.2437 65 52.2074V26.6411C65 25.6048 64.7999 24.5787 64.411 23.6213C64.0221 22.6639 63.4521 21.794 62.7336 21.0613C62.015 20.3285 61.162 19.7472 60.2231 19.3507C59.2843 18.9541 58.2781 18.75 57.2619 18.75H25.1189C23.0666 18.75 21.0984 19.5814 19.6472 21.0613ZM31.9213 58.0784C30.1095 59.3955 27.9391 60.1018 25.7141 60.0985C23.3123 60.0985 20.9801 59.2754 19.092 57.7615C17.2038 56.2476 15.8693 54.1307 15.3026 51.7505C14.7358 49.3703 14.9697 46.865 15.9668 44.6367C16.9639 42.4083 18.6662 40.5863 20.8006 39.463C22.935 38.3397 25.3776 37.9803 27.7363 38.4425C30.095 38.9048 32.233 40.1618 33.8071 42.0118C35.3811 43.8618 36.3 46.1976 36.4161 48.644C36.5323 51.0905 35.839 53.5058 34.4475 55.5023L40.6666 61.8467C40.842 62.0134 40.9827 62.2145 41.0803 62.4378C41.1779 62.6612 41.2304 62.9023 41.2346 63.1469C41.2389 63.3914 41.1948 63.6342 41.105 63.861C41.0151 64.0877 40.8815 64.2937 40.7119 64.4666C40.5423 64.6396 40.3403 64.7759 40.118 64.8675C39.8956 64.9591 39.6575 65.004 39.4177 64.9997C39.1779 64.9954 38.9415 64.9419 38.7224 64.8424C38.5034 64.7428 38.3062 64.5993 38.1427 64.4204L31.9213 58.0784ZM20.6633 54.323C22.0029 55.689 23.8197 56.4565 25.7141 56.4565C27.6085 56.4565 29.4254 55.689 30.7649 54.323C32.1045 52.957 32.857 51.1042 32.857 49.1724C32.857 47.2405 32.1045 45.3878 30.7649 44.0217C29.4254 42.6557 27.6085 41.8883 25.7141 41.8883C23.8197 41.8883 22.0029 42.6557 20.6633 44.0217C19.3238 45.3878 18.5712 47.2405 18.5712 49.1724C18.5712 51.1042 19.3238 52.957 20.6633 54.323ZM53.5401 45H51.5172L51.5267 42.9873C47.5954 42.6885 45.1336 40.7285 45 37.4326H48.4828C48.6069 39.0234 49.8378 39.9199 51.5458 40.166L51.584 34.8486L50.7252 34.6465C47.5095 33.8818 45.5153 32.3965 45.5153 29.8125C45.5057 26.9033 48.0821 24.8818 51.6603 24.5479L51.6698 22.5H53.6927L53.6832 24.5479C57.2901 24.8643 59.6756 26.9033 59.7328 29.6982H56.3263C56.1737 28.4326 55.1908 27.5889 53.6641 27.3428L53.626 32.3613L54.2557 32.5107C57.1947 33.1523 59.9905 34.5762 60 37.6963C59.9905 40.6406 57.6431 42.7148 53.5496 42.9873L53.5401 45ZM53.6069 35.3408L53.5687 40.166C55.3149 39.9023 56.4504 38.9707 56.4599 37.6699C56.4504 36.4219 55.3435 35.8066 53.6069 35.3408ZM49.1031 29.6104C49.084 30.8584 50.2863 31.5 51.6031 31.8867L51.6412 27.3428C50.0382 27.5977 49.1126 28.4766 49.1031 29.6104Z" fill="#7FD4BA"/>
</svg>