<svg width="80" height="80" viewBox="0 0 80 80" fill="none" xmlns="http://www.w3.org/2000/svg">
<path fill-rule="evenodd" clip-rule="evenodd" d="M7.5722 43.2915L33.43 69.0943C34.6141 70.2784 36.5142 70.3059 37.6708 69.1493L70 36.9028V9.42026C69.9724 7.76801 68.8985 6.69404 67.2462 6.6665H39.7086L7.51712 39.0507C6.36054 40.2073 6.38808 42.1074 7.5722 43.2915ZM42.8507 34.9274C40.2658 31.0769 41.2053 27.3328 43.2149 25.328C44.234 24.3112 45.5011 23.7563 46.7875 23.7454C48.039 23.7348 49.5869 24.2374 51.2018 25.8523L51.2074 25.8579L55.999 30.6219L59.8822 26.7163L55.0962 21.9579L55.0931 21.9548C52.5781 19.4412 49.6593 18.2134 46.7409 18.2381C43.8561 18.2625 41.2491 19.5095 39.3251 21.429C35.4485 25.2965 34.2264 31.9617 38.278 37.9971C40.8629 41.8477 39.9233 45.5917 37.9138 47.5966C36.8947 48.6133 35.6275 49.1683 34.3412 49.1792C33.0897 49.1897 31.5418 48.6871 29.9269 47.0722L26.0991 43.2445L22.2047 47.1389L26.0325 50.9666C28.5482 53.4823 31.4682 54.7112 34.3878 54.6865C37.2726 54.6621 39.8796 53.4151 41.8036 51.4956C45.6802 47.628 46.9023 40.9629 42.8507 34.9274Z" fill="white"/>
</svg>
