<svg width="80" height="80" viewBox="0 0 80 80" fill="none" xmlns="http://www.w3.org/2000/svg">
<path fill-rule="evenodd" clip-rule="evenodd" d="M64.2857 40C64.2857 53.4126 53.4126 64.2857 40 64.2857C36.3959 64.2857 32.9752 63.5006 29.8996 62.0922L36.0302 56.0973L37.2563 54.8712V55.0538C42.4737 56.306 48.0041 54.7668 52.3606 51.4799C60.0302 45.6886 55.4128 33.0103 55.4128 33.0103L46.8302 41.5929C45.7867 42.6103 44.1432 42.6103 43.1259 41.5929L39.4476 37.9146C38.4302 36.8973 38.4302 35.2538 39.4476 34.2364L48.0302 25.6538C42.2389 22.8625 35.0389 23.8799 30.2389 28.7059C26.1432 32.8016 24.7867 38.619 26.1954 43.8103L19.4389 50.5668L18.5535 51.4052C16.7413 48.0046 15.7143 44.1223 15.7143 40C15.7143 26.5874 26.5874 15.7143 40 15.7143C53.4126 15.7143 64.2857 26.5874 64.2857 40ZM40 70C56.5685 70 70 56.5685 70 40C70 23.4315 56.5685 10 40 10C23.4315 10 10 23.4315 10 40C10 56.5685 23.4315 70 40 70Z" fill="white"/>
</svg>
