<svg width="44" height="44" viewBox="0 0 44 44" fill="none" xmlns="http://www.w3.org/2000/svg">
<path d="M7.33325 12.2216V33.6105C7.33325 35.2987 8.70061 36.666 10.3888 36.666H31.7777C33.4659 36.666 34.8333 35.2987 34.8333 33.6105V12.2216C34.8333 10.5334 33.4659 9.16602 31.7777 9.16602H10.3888C8.70061 9.16602 7.33325 10.5334 7.33325 12.2216ZM25.6666 18.3327C25.6666 20.8688 23.6117 22.916 21.0833 22.916C18.5548 22.916 16.4999 20.8688 16.4999 18.3327C16.4999 15.8042 18.5548 13.7493 21.0833 13.7493C23.6117 13.7493 25.6666 15.8042 25.6666 18.3327ZM11.9166 30.5549C11.9166 27.4993 18.0277 25.8188 21.0833 25.8188C24.1388 25.8188 30.2499 27.4993 30.2499 30.5549V32.0827H11.9166V30.5549Z" fill="#7FD4BA"/>
</svg>
