<svg width="22" height="14" viewBox="0 0 22 14" fill="none" xmlns="http://www.w3.org/2000/svg">
<path d="M19 2.8H14V8.4H1V11.2H2C2 11.9426 2.31607 12.6548 2.87868 13.1799C3.44129 13.705 4.20435 14 5 14C5.79565 14 6.55871 13.705 7.12132 13.1799C7.68393 12.6548 8 11.9426 8 11.2H14C14 11.9426 14.3161 12.6548 14.8787 13.1799C15.4413 13.705 16.2044 14 17 14C17.7956 14 18.5587 13.705 19.1213 13.1799C19.6839 12.6548 20 11.9426 20 11.2H22V6.53333L19 2.8ZM5 12.6C4.60218 12.6 4.22064 12.4525 3.93934 12.1899C3.65804 11.9274 3.5 11.5713 3.5 11.2C3.5 10.8287 3.65804 10.4726 3.93934 10.2101C4.22064 9.9475 4.60218 9.8 5 9.8C5.39782 9.8 5.77936 9.9475 6.06066 10.2101C6.34196 10.4726 6.5 10.8287 6.5 11.2C6.5 11.5713 6.34196 11.9274 6.06066 12.1899C5.77936 12.4525 5.39782 12.6 5 12.6ZM17 12.6C16.6022 12.6 16.2206 12.4525 15.9393 12.1899C15.658 11.9274 15.5 11.5713 15.5 11.2C15.5 10.8287 15.658 10.4726 15.9393 10.2101C16.2206 9.9475 16.6022 9.8 17 9.8C17.3978 9.8 17.7794 9.9475 18.0607 10.2101C18.342 10.4726 18.5 10.8287 18.5 11.2C18.5 11.5713 18.342 11.9274 18.0607 12.1899C17.7794 12.4525 17.3978 12.6 17 12.6ZM16 6.53333V4.2H18.5L20.46 6.53333H16ZM17 1.86667H13V7.46667H2L0.57 2.8H0V0.933333H12L13 0H17V1.86667Z" fill="#38BC94"/>
</svg>
