<svg width="25" height="24" viewBox="0 0 25 24" fill="none" xmlns="http://www.w3.org/2000/svg">
<path d="M11.09 4.59C10.71 4.21 10.2 4 9.67 4H4.5C3.4 4 2.51 4.9 2.51 6L2.5 18C2.5 19.1 3.4 20 4.5 20H20.5C21.6 20 22.5 19.1 22.5 18V8C22.5 6.9 21.6 6 20.5 6H12.5L11.09 4.59Z" fill="#38BC94"/>
<path d="M15.7215 15.1382C15.6536 15.2062 15.6154 15.2984 15.6154 15.3945C15.6154 15.4907 15.6536 15.5829 15.7215 15.6509C15.7895 15.7188 15.8817 15.757 15.9779 15.757H20.1445C20.2407 15.757 20.3329 15.7188 20.4009 15.6509C20.4688 15.5829 20.507 15.4907 20.507 15.3945C20.507 15.2984 20.4688 15.2062 20.4009 15.1382C20.3329 15.0702 20.2407 15.032 20.1445 15.032H15.9779C15.8817 15.032 15.7895 15.0702 15.7215 15.1382ZM13.6382 12.6382C13.5702 12.7062 13.532 12.7984 13.532 12.8945C13.532 12.9907 13.5702 13.0829 13.6382 13.1509C13.7062 13.2188 13.7984 13.257 13.8945 13.257H20.1445C20.2407 13.257 20.3329 13.2188 20.4009 13.1509C20.4688 13.0829 20.507 12.9907 20.507 12.8945C20.507 12.7984 20.4688 12.7062 20.4009 12.6382C20.3329 12.5702 20.2407 12.532 20.1445 12.532H13.8945C13.7984 12.532 13.7062 12.5702 13.6382 12.6382ZM12.3882 10.1382C12.3202 10.2062 12.282 10.2984 12.282 10.3945C12.282 10.4907 12.3202 10.5829 12.3882 10.6509C12.4562 10.7188 12.5484 10.757 12.6445 10.757H20.1445C20.2407 10.757 20.3329 10.7188 20.4009 10.6509C20.4688 10.5829 20.507 10.4907 20.507 10.3945C20.507 10.2984 20.4688 10.2062 20.4009 10.1382C20.3329 10.0702 20.2407 10.032 20.1445 10.032H12.6445C12.5484 10.032 12.4562 10.0702 12.3882 10.1382Z" fill="#DAF2EB" stroke="#DAF2EB" stroke-width="0.1"/>
</svg>
