<svg width="24" height="24" viewBox="0 0 24 24" fill="none" xmlns="http://www.w3.org/2000/svg">
<path opacity="0.8" fill-rule="evenodd" clip-rule="evenodd" d="M0 5C0 2.23858 2.23858 0 5 0H17C17.5523 0 18 0.447715 18 1C18 1.55228 17.5523 2 17 2H5C3.34315 2 2 3.34315 2 5V17C2 17.5523 1.55228 18 1 18C0.447715 18 0 17.5523 0 17V5Z" fill="#38BC94"/>
<rect x="4.5" y="4.5" width="16" height="16" rx="2" fill="#38BC94" stroke="#38BC94" stroke-width="2"/>
<path d="M9.15255 6.08337H11.3964V7.02482H9.15255V6.08337Z" fill="#DAF2EB"/>
<path fill-rule="evenodd" clip-rule="evenodd" d="M17.167 10.7688C17.167 9.5792 16.3627 8.54602 15.2545 8.31166L12.7115 7.77427H9.25317C8.79136 7.77427 8.41699 8.16826 8.41699 8.65427V17.4534C8.41699 17.9394 8.79136 18.3334 9.25317 18.3334H12.5979H16.3308C16.7926 18.3334 17.167 17.9394 17.167 17.4534V10.7688ZM15.7837 13.6137C15.7837 14.0087 15.4784 14.3298 15.1032 14.3298H13.8247V9.5584L14.9322 9.75667C15.4257 9.84514 15.7839 10.2916 15.7839 10.8184L15.7837 13.6137Z" fill="#DAF2EB"/>
</svg>
