<svg width="18" height="18" viewBox="0 0 18 18" fill="none" xmlns="http://www.w3.org/2000/svg">
<path fill-rule="evenodd" clip-rule="evenodd" d="M0 1.119L1.119 0L4.56664 2.4618C4.71182 2.56544 4.83013 2.70228 4.91169 2.86092C4.99325 3.01957 5.0357 3.19541 5.0355 3.37379V3.45212C5.03539 3.59924 5.06428 3.74495 5.12054 3.88089C5.1768 4.01683 5.25932 4.14035 5.36337 4.24437L11.7495 10.6305L12.7723 10.2892C12.9694 10.2236 13.1809 10.2142 13.3831 10.2621C13.5853 10.3099 13.7701 10.413 13.917 10.56L17.6724 14.3154C17.8822 14.5252 18 14.8098 18 15.1065C18 15.4032 17.8822 15.6878 17.6724 15.8976L15.8976 17.6724C15.6878 17.8822 15.4032 18 15.1065 18C14.8098 18 14.5252 17.8822 14.3154 17.6724L10.56 13.917C10.413 13.7701 10.3099 13.5853 10.2621 13.3831C10.2142 13.1809 10.2236 12.9694 10.2892 12.7723L10.6305 11.7495L4.24437 5.36337C4.03456 5.1535 3.74999 5.03556 3.45323 5.0355H3.37379C3.1956 5.03552 3.01998 4.99298 2.86155 4.91143C2.70311 4.82988 2.56645 4.71167 2.46292 4.56664L0 1.119ZM12.7051 11.9129C12.6001 11.8078 12.4576 11.7488 12.309 11.7488C12.1604 11.7488 12.0179 11.8078 11.9129 11.9129C11.8078 12.0179 11.7488 12.1604 11.7488 12.309C11.7488 12.4576 11.8078 12.6001 11.9129 12.7051L15.2699 16.0621C15.3749 16.1672 15.5174 16.2262 15.666 16.2262C15.8146 16.2262 15.9571 16.1672 16.0621 16.0621C16.1672 15.9571 16.2262 15.8146 16.2262 15.666C16.2262 15.5174 16.1672 15.3749 16.0621 15.2699L12.7051 11.9129Z" fill="#38BC94"/>
<path fill-rule="evenodd" clip-rule="evenodd" d="M17.886 2.50382C18.0387 3.07637 18.038 3.67899 17.884 4.25117C17.73 4.82336 17.4282 5.34499 17.0088 5.76369C16.5894 6.18239 16.0672 6.48343 15.4946 6.63659C14.922 6.78975 14.3193 6.78964 13.7467 6.63627L6.61237 13.6695C6.825 14.389 6.79175 15.1587 6.51789 15.8571C6.24403 16.5556 5.74517 17.1428 5.10014 17.5262C4.45511 17.9095 3.7007 18.067 2.95612 17.9739C2.21153 17.8807 1.51923 17.5421 0.988622 17.0117C0.458012 16.4812 0.119347 15.7891 0.0261424 15.0448C-0.0670617 14.3004 0.0905104 13.5462 0.473959 12.9014C0.857408 12.2565 1.44487 11.7578 2.1435 11.484C2.84214 11.2103 3.61212 11.177 4.33176 11.3896L11.366 4.25736C11.2106 3.68456 11.2092 3.08094 11.3617 2.50739C11.5142 1.93384 11.8153 1.41064 12.2347 0.990594C12.6541 0.570545 13.1769 0.268499 13.7503 0.114929C14.3237 -0.0386412 14.9275 -0.0383033 15.5008 0.115909L13.0908 2.52519L13.5003 4.50256L15.4772 4.91198L17.886 2.50382ZM2.84323 12.6482L3.37541 12.376L3.90534 12.6482L4.50053 12.6775L4.82344 13.178L5.32411 13.5008L5.35337 14.0958L5.62452 14.6256L5.35224 15.1554L5.32299 15.7504L4.82231 16.0732L4.4994 16.5737L3.90422 16.603L3.37429 16.8752L2.84436 16.603L2.24917 16.5737L1.92626 16.0732L1.42558 15.7504L1.39633 15.1554L1.12405 14.6256L1.39633 14.0958L1.42558 13.5008L1.92626 13.178L2.24917 12.6775L2.84436 12.6482H2.84323Z" fill="#38BC94"/>
</svg>
