<svg width="25" height="24" viewBox="0 0 25 24" fill="none" xmlns="http://www.w3.org/2000/svg">
<path d="M23 13.5V12H18.5V19.5H20V16.5H22.25V15H20V13.5H23Z" fill="#DAF2EB"/>
<path d="M14.75 19.5H11.75V12H14.75C15.3466 12.0006 15.9185 12.2378 16.3403 12.6597C16.7622 13.0815 16.9994 13.6534 17 14.25V17.25C16.9994 17.8466 16.7622 18.4185 16.3403 18.8403C15.9185 19.2622 15.3466 19.4994 14.75 19.5ZM13.25 18H14.75C14.9489 17.9998 15.1395 17.9207 15.2801 17.7801C15.4207 17.6395 15.4998 17.4489 15.5 17.25V14.25C15.4998 14.0511 15.4207 13.8605 15.2801 13.7199C15.1395 13.5793 14.9489 13.5002 14.75 13.5H13.25V18Z" fill="#DAF2EB"/>
<path d="M8.75 12H5V19.5H6.5V17.25H8.75C9.14764 17.2494 9.52883 17.0912 9.81 16.81C10.0912 16.5288 10.2494 16.1476 10.25 15.75V13.5C10.2496 13.1023 10.0914 12.721 9.81022 12.4398C9.529 12.1586 9.1477 12.0004 8.75 12ZM6.5 15.75V13.5H8.75L8.75075 15.75H6.5Z" fill="#DAF2EB"/>
<path d="M17 10.5003V7.50026C17.0026 7.40169 16.9839 7.30372 16.9451 7.21309C16.9062 7.12246 16.8482 7.04132 16.775 6.97526L11.525 1.72526C11.459 1.65201 11.3778 1.59397 11.2872 1.55512C11.1966 1.51628 11.0986 1.49756 11 1.50026H3.5C3.10254 1.50144 2.7217 1.65986 2.44065 1.94091C2.1596 2.22195 2.00119 2.6028 2 3.00026V21.0003C2 21.3981 2.15804 21.7796 2.43934 22.0609C2.72064 22.3422 3.10218 22.5003 3.5 22.5003H15.5V21.0003H3.5V3.00026H9.5V7.50026C9.50119 7.89772 9.6596 8.27856 9.94065 8.5596C10.2217 8.84065 10.6025 8.99907 11 9.00026H15.5V10.5003H17ZM11 7.50026V3.30026L15.2 7.50026H11Z" fill="#DAF2EB"/>
</svg>
