<svg width="35" height="35" viewBox="0 0 35 35" fill="none" xmlns="http://www.w3.org/2000/svg">
<g opacity="0.4">
<path d="M21.0547 15.1074H4.64844C4.49805 15.1074 4.375 14.9844 4.375 14.834V12.9199C4.375 12.7695 4.49805 12.6465 4.64844 12.6465H21.0547C21.2051 12.6465 21.3281 12.7695 21.3281 12.9199V14.834C21.3281 14.9844 21.2051 15.1074 21.0547 15.1074ZM21.3281 22.0801C21.3281 22.2305 21.2051 22.3535 21.0547 22.3535H4.64844C4.49805 22.3535 4.375 22.2305 4.375 22.0801V20.166C4.375 20.0156 4.49805 19.8926 4.64844 19.8926H21.0547C21.2051 19.8926 21.3281 20.0156 21.3281 20.166V22.0801ZM4.10156 5.46875H30.8984C31.0488 5.46875 31.1719 5.5918 31.1719 5.74219V7.65625C31.1719 7.80664 31.0488 7.92969 30.8984 7.92969H4.10156C3.95117 7.92969 3.82812 7.80664 3.82812 7.65625V5.74219C3.82812 5.5918 3.95117 5.46875 4.10156 5.46875ZM4.10156 27.0703H30.8984C31.0488 27.0703 31.1719 27.1934 31.1719 27.3438V29.2578C31.1719 29.4082 31.0488 29.5312 30.8984 29.5312H4.10156C3.95117 29.5312 3.82812 29.4082 3.82812 29.2578V27.3438C3.82812 27.1934 3.95117 27.0703 4.10156 27.0703ZM31.0557 17.7358L25.7134 21.9434C25.5151 22.1006 25.2212 21.9604 25.2212 21.7075V13.2925C25.2212 13.0396 25.5117 12.8994 25.7134 13.0566L31.0557 17.2642C31.0916 17.2921 31.1207 17.3279 31.1406 17.3687C31.1606 17.4096 31.171 17.4545 31.171 17.5C31.171 17.5455 31.1606 17.5904 31.1406 17.6313C31.1207 17.6721 31.0916 17.7079 31.0557 17.7358Z" fill="white"/>
</g>
</svg>
