<svg width="24" height="24" viewBox="0 0 24 24" fill="none" xmlns="http://www.w3.org/2000/svg">
<rect x="2.99927" y="3.89944" width="7.19553" height="7.19553" fill="white"/>
<rect x="13.7926" y="12.8939" width="7.19553" height="7.19553" fill="white"/>
<path fill-rule="evenodd" clip-rule="evenodd" d="M4.99927 16.8914C4.99927 17.9946 5.89359 18.8889 6.99678 18.8889C8.09998 18.8889 8.9943 17.9946 8.9943 16.8914C8.9943 15.7882 8.09998 14.8939 6.99678 14.8939C5.89359 14.8939 4.99927 15.7882 4.99927 16.8914ZM6.99678 12.8939C4.78902 12.8939 2.99927 14.6836 2.99927 16.8914C2.99927 19.0991 4.78902 20.8889 6.99678 20.8889C9.20455 20.8889 10.9943 19.0991 10.9943 16.8914C10.9943 14.6836 9.20455 12.8939 6.99678 12.8939Z" fill="white"/>
<path fill-rule="evenodd" clip-rule="evenodd" d="M15.8931 7.49721C15.8931 8.32409 16.5634 8.99441 17.3903 8.99441C18.2172 8.99441 18.8875 8.32409 18.8875 7.49721C18.8875 6.67032 18.2172 6 17.3903 6C16.5634 6 15.8931 6.67032 15.8931 7.49721ZM17.3903 3C14.9065 3 12.8931 5.01347 12.8931 7.49721C12.8931 9.98095 14.9065 11.9944 17.3903 11.9944C19.874 11.9944 21.8875 9.98095 21.8875 7.49721C21.8875 5.01347 19.874 3 17.3903 3Z" fill="white"/>
<path fill-rule="evenodd" clip-rule="evenodd" d="M5.99536 13.9933L5.99536 10.9951L7.99536 10.9951L7.99536 13.9933L5.99536 13.9933Z" fill="white"/>
<path fill-rule="evenodd" clip-rule="evenodd" d="M14.6918 8.39673H8.39575V6.39673H14.6918V8.39673Z" fill="white"/>
<path fill-rule="evenodd" clip-rule="evenodd" d="M18.2903 10.8952L18.2903 13.8933L16.2903 13.8933L16.2903 10.8952L18.2903 10.8952Z" fill="white"/>
</svg>
