<svg width="24" height="24" viewBox="0 0 24 24" fill="none" xmlns="http://www.w3.org/2000/svg">
<path fill-rule="evenodd" clip-rule="evenodd" d="M19.2857 12C19.2857 16.0238 16.0238 19.2857 12 19.2857C10.9188 19.2857 9.89257 19.0502 8.96987 18.6277L10.8091 16.8292L11.1769 16.4614V16.5161C12.7421 16.8918 14.4012 16.43 15.7082 15.444C18.0091 13.7066 16.6238 9.90309 16.6238 9.90309L14.0491 12.4779C13.736 12.7831 13.243 12.7831 12.9378 12.4779L11.8343 11.3744C11.5291 11.0692 11.5291 10.5761 11.8343 10.2709L14.4091 7.69613C12.6717 6.85874 10.5117 7.16396 9.07167 8.61178C7.84297 9.84048 7.43602 11.5857 7.85862 13.1431L5.83167 15.17L5.56606 15.4216C5.0224 14.4014 4.71429 13.2367 4.71429 12C4.71429 7.97621 7.97621 4.71429 12 4.71429C16.0238 4.71429 19.2857 7.97621 19.2857 12ZM12 21C16.9706 21 21 16.9706 21 12C21 7.02944 16.9706 3 12 3C7.02944 3 3 7.02944 3 12C3 16.9706 7.02944 21 12 21Z" fill="#4F4F4F"/>
</svg>
