<svg width="24" height="24" viewBox="0 0 24 24" fill="none" xmlns="http://www.w3.org/2000/svg">
<path fill-rule="evenodd" clip-rule="evenodd" d="M5.22719 17.7145C5.21022 17.6843 5.19341 17.6539 5.17676 17.6234C5.26287 17.4461 5.40248 17.3032 5.57693 17.2247L10.2008 15.1568C10.3157 15.1053 10.4408 15.0782 10.5676 15.0771L13.4747 15.0519C13.6097 15.0507 13.7432 15.0791 13.8651 15.1349L18.4296 17.2259C18.6017 17.3059 18.7392 17.4478 18.824 17.6233C18.8073 17.654 18.7904 17.6845 18.7733 17.715C17.4073 19.4965 15.3541 20.7236 13.0099 21V19.7807C13.0092 19.7521 13.0006 19.7243 12.9849 19.7L12.9853 19.6983L12.1618 18.3287L12.1595 18.3251C12.1579 18.3225 12.1563 18.3199 12.1549 18.3173L12.1475 18.3048L12.1467 18.3045C12.1168 18.2554 12.0633 18.221 11.9999 18.221C11.9369 18.221 11.8841 18.2554 11.8541 18.3039L11.8524 18.3044L11.8507 18.3048L11.0136 19.6972L11.0146 19.6995L11.0145 19.7005C10.999 19.7246 10.9905 19.7522 10.9898 19.7805V20.9999C8.64587 20.7232 6.59302 19.4961 5.22719 17.7145ZM9.25767 9.9044C8.91151 8.17363 10.2353 6.55884 12.0004 6.55884C13.7654 6.55884 15.0892 8.17363 14.7431 9.9044L14.2449 12.3954C14.0309 13.4653 13.0915 14.2354 12.0004 14.2354C10.9093 14.2354 9.96984 13.4653 9.75586 12.3954L9.25767 9.9044ZM12.8885 15.9414L12.5522 17.2335C12.4889 17.4767 12.2614 17.6473 12.0004 17.6473C11.7394 17.6473 11.5119 17.4767 11.4486 17.2335L11.1122 15.9414H12.8885ZM13.0004 20H11.0004V21H13.0004V20Z" fill="#7FD4BA"/>
<path d="M19.2504 12.5296C19.2504 8.52543 16.0044 5.27943 12.0003 5.27943C7.99613 5.27943 4.75014 8.52543 4.75014 12.5296C4.75014 15.7232 6.81511 18.4346 9.68272 19.4014L9.19941 20.5886C5.86446 19.4297 3.4707 16.2592 3.4707 12.5296C3.4707 7.81881 7.28952 4 12.0003 4C16.711 4 20.5298 7.81881 20.5298 12.5296C20.5298 16.3075 18.0736 19.5118 14.671 20.6326L14.1327 19.461C17.0961 18.5504 19.2504 15.7916 19.2504 12.5296Z" fill="#7FD4BA"/>
</svg>
