<svg width="42" height="42" viewBox="0 0 42 42" fill="none" xmlns="http://www.w3.org/2000/svg">
<path d="M21 4C11.6121 4 4 11.6121 4 21C4 30.3879 11.6121 38 21 38C30.3879 38 38 30.3879 38 21C38 11.6121 30.3879 4 21 4ZM28.3426 15.4484L20.3511 26.5288C20.2394 26.6847 20.0922 26.8117 19.9216 26.8994C19.751 26.987 19.562 27.0327 19.3702 27.0327C19.1784 27.0327 18.9894 26.987 18.8188 26.8994C18.6482 26.8117 18.501 26.6847 18.3893 26.5288L13.6574 19.9717C13.5132 19.7705 13.6574 19.4897 13.904 19.4897H15.6837C16.0708 19.4897 16.4388 19.6757 16.6665 19.9944L19.3683 23.7435L25.3335 15.4712C25.5612 15.1562 25.9254 14.9665 26.3163 14.9665H28.096C28.3426 14.9665 28.4868 15.2473 28.3426 15.4484Z" fill="#7FD4BA"/>
<rect x="12" y="13" width="17" height="16" fill="#7FD4BA"/>
<path d="M20.1875 23.4442H21.9141V23.3295C21.9382 21.9411 22.3366 21.3192 23.3629 20.6854C24.4435 20.0334 25.1076 19.1158 25.1076 17.7575C25.1076 15.7955 23.6225 14.4673 21.407 14.4673C19.3725 14.4673 17.7425 15.6566 17.6641 17.8299H19.4993C19.5717 16.5501 20.4833 15.9886 21.407 15.9886C22.4332 15.9886 23.2663 16.6708 23.2663 17.7393C23.2663 18.6388 22.7049 19.2727 21.9865 19.7195C20.8636 20.4077 20.1996 21.0898 20.1875 23.3295V23.4442ZM21.0991 27.1147C21.7571 27.1147 22.3065 26.5774 22.3065 25.9073C22.3065 25.2493 21.7571 24.706 21.0991 24.706C20.435 24.706 19.8917 25.2493 19.8917 25.9073C19.8917 26.5774 20.435 27.1147 21.0991 27.1147Z" fill="white"/>
</svg>
