<svg width="24" height="24" viewBox="0 0 24 24" fill="none" xmlns="http://www.w3.org/2000/svg">
<path d="M13 10.5624C12.2672 10.5624 11.6732 9.94004 11.6732 9.17228C11.6732 8.40452 12.2672 7.78218 13 7.78218C13.7328 7.78218 14.3268 8.40452 14.3268 9.17228C14.3268 9.94004 13.7328 10.5624 13 10.5624Z" fill="white"/>
<path fill-rule="evenodd" clip-rule="evenodd" d="M20 11.5C20 16.1944 16.1944 20 11.5 20C6.80558 20 3 16.1944 3 11.5C3 9.51016 3.68375 7.68001 4.82911 6.23169C5.60343 6.77419 6.10971 7.67317 6.10971 8.6904L6.10971 13.8475C6.10971 16.0566 7.90057 17.8475 10.1097 17.8475H17.1533C17.8006 17.2707 18.359 16.5963 18.8055 15.8475H10.1097C9.00514 15.8475 8.10971 14.9521 8.10971 13.8475L8.10971 8.6904C8.10971 7.1229 7.38841 5.72387 6.25961 4.80713C7.70349 3.675 9.52292 3 11.5 3C16.1944 3 20 6.80558 20 11.5ZM15.9938 9.13664C15.9938 7.40436 14.6534 6 13 6C11.3466 6 10.0062 7.40436 10.0062 9.13664C10.0062 9.13664 9.8701 10.3307 10.8737 11.6495C10.9556 11.7571 11.0337 11.8595 11.1083 11.9572C11.8932 12.9856 12.2906 13.5062 12.5686 14.251C12.5992 14.3328 12.6242 14.4169 12.6455 14.5021C12.6867 14.6669 12.7952 15 13 15C13.2048 15 13.3133 14.6669 13.3545 14.5021C13.3757 14.4169 13.4008 14.3328 13.4314 14.251C13.7094 13.5062 14.1068 12.9856 14.8917 11.9572C14.9663 11.8595 15.0444 11.7571 15.1263 11.6495C16.1299 10.3307 15.9938 9.13664 15.9938 9.13664Z" fill="white"/>
</svg>
