<svg width="24" height="24" viewBox="0 0 24 24" fill="none" xmlns="http://www.w3.org/2000/svg">
<path fill-rule="evenodd" clip-rule="evenodd" d="M2.27167 12.9875L10.029 20.7283C10.3843 21.0836 10.9543 21.0918 11.3013 20.7449L21 11.0709V2.82613C20.9917 2.33045 20.6695 2.00826 20.1739 2H11.9126L2.25515 11.7153C1.90818 12.0622 1.91644 12.6323 2.27167 12.9875ZM12.8552 10.4783C12.0797 9.3231 12.3616 8.19989 12.9645 7.59843C13.2702 7.29342 13.6504 7.12693 14.0363 7.12367C14.4117 7.12049 14.8761 7.27127 15.3606 7.75575L15.3622 7.75743L16.7997 9.18663L17.9647 8.01495L16.5289 6.58743L16.528 6.5865C15.7735 5.83241 14.8978 5.46407 14.0223 5.47147C13.1568 5.47879 12.3747 5.8529 11.7975 6.42875C10.6346 7.589 10.2679 9.58856 11.4834 11.3992C12.2589 12.5544 11.977 13.6776 11.3741 14.279C11.0684 14.584 10.6883 14.7505 10.3024 14.7538C9.92692 14.757 9.46255 14.6062 8.97807 14.1217L7.82975 12.9734L6.66143 14.1417L7.80975 15.29C8.56447 16.0448 9.44048 16.4134 10.3164 16.406C11.1818 16.3987 11.9639 16.0246 12.5411 15.4487C13.7041 14.2885 14.0707 12.2889 12.8552 10.4783Z" fill="#4F4F4F"/>
</svg>
