<svg width="24" height="24" viewBox="0 0 24 24" fill="none" xmlns="http://www.w3.org/2000/svg">
<path d="M11.991 3C7.023 3 3 7.032 3 12C3 16.968 7.023 21 11.991 21C16.968 21 21 16.968 21 12C21 7.032 16.968 3 11.991 3ZM12 19.2C8.022 19.2 4.8 15.978 4.8 12C4.8 8.022 8.022 4.8 12 4.8C15.978 4.8 19.2 8.022 19.2 12C19.2 15.978 15.978 19.2 12 19.2ZM11.802 7.5H11.748C11.388 7.5 11.1 7.788 11.1 8.148V12.396C11.1 12.711 11.262 13.008 11.541 13.17L15.276 15.411C15.582 15.591 15.978 15.501 16.158 15.195C16.347 14.889 16.248 14.484 15.933 14.304L12.45 12.234V8.148C12.45 7.788 12.162 7.5 11.802 7.5Z" fill="white"/>
</svg>
