<svg width="24" height="24" viewBox="0 0 24 24" fill="none" xmlns="http://www.w3.org/2000/svg">
<path d="M6.30781 8.04726C7.28304 8.04726 8.07363 7.25667 8.07363 6.28144C8.07363 5.30621 7.28304 4.51562 6.30781 4.51562C5.33258 4.51562 4.54199 5.30621 4.54199 6.28144C4.54199 7.25667 5.33258 8.04726 6.30781 8.04726Z" fill="#38BC94"/>
<path d="M6.89612 17.4631V11.5771C6.89612 10.7065 7.16923 9.89955 7.63187 9.23325C7.58302 9.23031 7.53417 9.22266 7.48472 9.22266H5.1303C3.83184 9.22266 2.77588 10.2786 2.77588 11.5771V15.1087H3.95309V19.2289H8.07333V17.4631H6.89612Z" fill="#38BC94"/>
<path d="M18.0798 8.04726C19.055 8.04726 19.8456 7.25667 19.8456 6.28144C19.8456 5.30621 19.055 4.51562 18.0798 4.51562C17.1045 4.51562 16.314 5.30621 16.314 6.28144C16.314 7.25667 17.1045 8.04726 18.0798 8.04726Z" fill="#38BC94"/>
<path d="M17.4912 17.4631V11.5771C17.4912 10.7065 17.2181 9.89955 16.7554 9.23325C16.8043 9.23031 16.8531 9.22266 16.9026 9.22266H19.257C20.5555 9.22266 21.6114 10.2786 21.6114 11.5771V15.1087H20.4342V19.2289H16.314V17.4631H17.4912Z" fill="#38BC94"/>
<path d="M13.3707 8.63672H11.0163C9.39348 8.63672 8.07324 9.95696 8.07324 11.5797V16.2886H9.83906V20.9974H14.5479V16.2886H16.3137V11.5797C16.3137 9.95696 14.9935 8.63672 13.3707 8.63672Z" fill="#38BC94"/>
<path d="M12.1933 7.45884C13.4936 7.45884 14.5477 6.40473 14.5477 5.10442C14.5477 3.80411 13.4936 2.75 12.1933 2.75C10.893 2.75 9.83887 3.80411 9.83887 5.10442C9.83887 6.40473 10.893 7.45884 12.1933 7.45884Z" fill="#38BC94"/>
</svg>
