<svg width="33" height="32" viewBox="0 0 33 32" fill="none" xmlns="http://www.w3.org/2000/svg">
<path d="M1.59326 4.66797C1.59326 3.5634 2.48869 2.66797 3.59326 2.66797H17.2914H23.7804C24.2224 2.66797 24.652 2.81441 25.002 3.0844L30.4669 7.30021C30.9578 7.67889 31.2453 8.26381 31.2453 8.88378V26.2152V28.5758C31.2453 29.6804 30.3499 30.5758 29.2453 30.5758H7.65441C7.12397 30.5758 6.61527 30.3651 6.2402 29.99L2.17905 25.9289C1.80398 25.5538 1.59326 25.0451 1.59326 24.5147V20.9825V4.66797Z" fill="#35A684"/>
<rect x="6.27539" y="7.25781" width="24.9702" height="23.4095" rx="2" fill="#38BC94"/>
<path fill-rule="evenodd" clip-rule="evenodd" d="M12.167 12.7645L13.0373 11.832L15.7188 13.8835C15.8317 13.9699 15.9238 14.0839 15.9872 14.2161C16.0506 14.3483 16.0836 14.4949 16.0835 14.6435V14.7088C16.0834 14.8314 16.1059 14.9528 16.1496 15.0661C16.1934 15.1794 16.2576 15.2823 16.3385 15.369L21.3055 20.6908L22.101 20.4064C22.2543 20.3517 22.4188 20.3439 22.5761 20.3837C22.7333 20.4236 22.8771 20.5096 22.9913 20.632L25.9122 23.7615C26.0753 23.9364 26.167 24.1735 26.167 24.4208C26.167 24.668 26.0753 24.9052 25.9122 25.0801L24.5318 26.559C24.3686 26.7338 24.1473 26.832 23.9165 26.832C23.6857 26.832 23.4644 26.7338 23.3012 26.559L20.3803 23.4295C20.266 23.3072 20.1858 23.1531 20.1486 22.9846C20.1114 22.8161 20.1187 22.6399 20.1697 22.4756L20.4352 21.6233L15.4682 16.3015C15.305 16.1266 15.0836 16.0283 14.8528 16.0283H14.791C14.6525 16.0283 14.5159 15.9928 14.3926 15.9249C14.2694 15.8569 14.1631 15.7584 14.0826 15.6376L12.167 12.7645ZM22.0488 21.7594C21.967 21.6719 21.8562 21.6227 21.7407 21.6227C21.6251 21.6227 21.5143 21.6719 21.4326 21.7594C21.3509 21.847 21.3049 21.9657 21.3049 22.0895C21.3049 22.2133 21.3509 22.3321 21.4326 22.4196L24.0436 25.2171C24.1253 25.3047 24.2361 25.3539 24.3517 25.3539C24.4672 25.3539 24.578 25.3047 24.6598 25.2171C24.7415 25.1296 24.7874 25.0108 24.7874 24.887C24.7874 24.7632 24.7415 24.6445 24.6598 24.5569L22.0488 21.7594Z" fill="white" stroke="white" stroke-width="0.25" stroke-linejoin="round"/>
<path fill-rule="evenodd" clip-rule="evenodd" d="M26.0784 13.9185C26.1971 14.3957 26.1965 14.8979 26.0768 15.3747C25.957 15.8515 25.7222 16.2862 25.396 16.6351C25.0698 16.984 24.6637 17.2349 24.2184 17.3625C23.773 17.4902 23.3042 17.4901 22.8589 17.3623L17.3099 23.2233C17.4753 23.8228 17.4495 24.4643 17.2365 25.0463C17.0235 25.6283 16.6355 26.1177 16.1338 26.4372C15.6321 26.7566 15.0453 26.8879 14.4662 26.8103C13.8871 26.7326 13.3486 26.4505 12.9359 26.0084C12.5232 25.5664 12.2598 24.9896 12.1873 24.3693C12.1148 23.749 12.2374 23.1205 12.5356 22.5832C12.8339 22.0458 13.2908 21.6302 13.8342 21.4021C14.3775 21.1739 14.9764 21.1462 15.5361 21.3234L21.0072 15.3798C20.8864 14.9025 20.8852 14.3995 21.0039 13.9215C21.1225 13.4436 21.3567 13.0076 21.6829 12.6575C22.0091 12.3075 22.4157 12.0558 22.8617 11.9278C23.3077 11.7998 23.7773 11.8001 24.2232 11.9286L22.3487 13.9364L22.6673 15.5842L24.2048 15.9253L26.0784 13.9185ZM14.3784 22.3722L14.7923 22.1454L15.2045 22.3722L15.6674 22.3966L15.9186 22.8137L16.308 23.0827L16.3307 23.5785L16.5416 24.02L16.3298 24.4615L16.3071 24.9573L15.9177 25.2264L15.6665 25.6435L15.2036 25.6678L14.7914 25.8947L14.3793 25.6678L13.9163 25.6435L13.6652 25.2264L13.2758 24.9573L13.253 24.4615L13.0413 24.02L13.253 23.5785L13.2758 23.0827L13.6652 22.8137L13.9163 22.3966L14.3793 22.3722H14.3784Z" fill="white" stroke="white" stroke-width="0.25" stroke-linejoin="round"/>
</svg>
