<svg width="24" height="24" viewBox="0 0 24 24" fill="none" xmlns="http://www.w3.org/2000/svg">
<path opacity="0.8" fill-rule="evenodd" clip-rule="evenodd" d="M0 5C0 2.23858 2.23858 0 5 0L17 0C17.5523 0 18 0.447715 18 1C18 1.55228 17.5523 2 17 2H5C3.34315 2 2 3.34315 2 5V17C2 17.5523 1.55228 18 1 18C0.447715 18 0 17.5523 0 17L0 5Z" fill="#38BC94"/>
<rect x="4.5" y="4.5" width="16" height="16" rx="2" fill="#38BC94" stroke="#38BC94" stroke-width="2"/>
<path d="M16.7437 10.5167H14.0922V13.55H7.19827V15.0667H7.72857C7.72857 15.4689 7.89619 15.8547 8.19454 16.1391C8.49289 16.4235 8.89755 16.5833 9.31948 16.5833C9.74142 16.5833 10.1461 16.4235 10.4444 16.1391C10.7428 15.8547 10.9104 15.4689 10.9104 15.0667H14.0922C14.0922 15.4689 14.2598 15.8547 14.5582 16.1391C14.8565 16.4235 15.2612 16.5833 15.6831 16.5833C16.1051 16.5833 16.5097 16.4235 16.8081 16.1391C17.1064 15.8547 17.274 15.4689 17.274 15.0667H18.3346V12.5389L16.7437 10.5167ZM9.31948 15.825C9.10852 15.825 8.90619 15.7451 8.75701 15.6029C8.60784 15.4607 8.52403 15.2678 8.52403 15.0667C8.52403 14.8655 8.60784 14.6727 8.75701 14.5304C8.90619 14.3882 9.10852 14.3083 9.31948 14.3083C9.53045 14.3083 9.73278 14.3882 9.88196 14.5304C10.0311 14.6727 10.1149 14.8655 10.1149 15.0667C10.1149 15.2678 10.0311 15.4607 9.88196 15.6029C9.73278 15.7451 9.53045 15.825 9.31948 15.825ZM15.6831 15.825C15.4722 15.825 15.2698 15.7451 15.1207 15.6029C14.9715 15.4607 14.8877 15.2678 14.8877 15.0667C14.8877 14.8655 14.9715 14.6727 15.1207 14.5304C15.2698 14.3882 15.4722 14.3083 15.6831 14.3083C15.8941 14.3083 16.0964 14.3882 16.2456 14.5304C16.3948 14.6727 16.4786 14.8655 16.4786 15.0667C16.4786 15.2678 16.3948 15.4607 16.2456 15.6029C16.0964 15.7451 15.8941 15.825 15.6831 15.825ZM15.1528 12.5389V11.275H16.4786L17.518 12.5389H15.1528ZM15.6831 10.0111H13.5619V13.0444H7.72857L6.97024 10.5167H6.66797V9.50556H13.0316L13.5619 9H15.6831V10.0111Z" fill="#DAF2EB"/>
</svg>
