<svg width="975" height="340" viewBox="0 0 975 340" fill="none" xmlns="http://www.w3.org/2000/svg">
<path d="M169.858 282.436L48.5308 212.045V240.195L169.858 310.555L291.185 240.195V155.775L169.858 226.135L72.8086 169.835V113.566L169.858 57.2654L266.938 113.566L169.858 169.835L121.333 141.685L145.58 127.625L169.858 141.685L218.382 113.566L169.858 85.4156L97.0554 127.625V155.775L169.858 197.985L291.185 127.625V99.4751L169.858 29.1152L48.5308 99.4751V183.926L169.858 254.285L266.938 197.985V226.135L169.858 282.436Z" fill="#7FD4BA"/>
<path d="M406.958 276.59H430.692V272.42H411.659V259.228H429.176V255.058H411.659V241.941H430.389V237.771H406.958V276.59Z" fill="#F9FBFB"/>
<path d="M479.356 237.771H474.73V268.326H474.351L453.119 237.771H448.569V276.59H453.27V246.111H453.649L474.806 276.59H479.356V237.771Z" fill="#F9FBFB"/>
<path d="M500.062 237.771H495.133L509.389 276.59H514.242L528.498 237.771H523.569L512.043 270.449H511.588L500.062 237.771Z" fill="#F9FBFB"/>
<path d="M548.953 237.771H544.251V276.59H548.953V237.771Z" fill="#F9FBFB"/>
<path d="M568.085 276.59H572.787V261.426H581.28C581.621 261.426 581.943 261.426 582.266 261.408L590.455 276.59H595.915L587.138 260.555C592.085 258.868 594.398 254.83 594.398 249.675C594.398 242.813 590.303 237.771 581.204 237.771H568.085V276.59ZM572.787 257.181V241.941H581.052C587.346 241.941 589.773 245.012 589.773 249.675C589.773 254.337 587.346 257.181 581.128 257.181H572.787Z" fill="#F9FBFB"/>
<path d="M644.697 257.181C644.697 244.898 637.493 237.24 627.559 237.24C617.626 237.24 610.422 244.898 610.422 257.181C610.422 269.463 617.626 277.121 627.559 277.121C637.493 277.121 644.697 269.463 644.697 257.181ZM640.147 257.181C640.147 267.265 634.612 272.723 627.559 272.723C620.507 272.723 614.972 267.265 614.972 257.181C614.972 247.097 620.507 241.638 627.559 241.638C634.612 241.638 640.147 247.097 640.147 257.181Z" fill="#F9FBFB"/>
<path d="M693.095 237.771H688.469V268.326H688.09L666.858 237.771H662.308V276.59H667.01V246.111H667.389L688.545 276.59H693.095V237.771Z" fill="#F9FBFB"/>
<path d="M712.209 237.771V276.59H716.607V247.097H716.986L729.119 276.59H733.365L745.498 247.097H745.877V276.59H750.275V237.771H744.664L731.469 269.994H731.014L717.82 237.771H712.209Z" fill="#F9FBFB"/>
<path d="M769.408 276.59H793.142V272.42H774.109V259.228H791.626V255.058H774.109V241.941H792.839V237.771H769.408V276.59Z" fill="#F9FBFB"/>
<path d="M841.806 237.771H837.18V268.326H836.801L815.569 237.771H811.019V276.59H815.72V246.111H816.1L837.256 276.59H841.806V237.771Z" fill="#F9FBFB"/>
<path d="M858.796 241.941H871.005V276.59H875.706V241.941H887.915V237.771H858.796V241.941Z" fill="#F9FBFB"/>
<path d="M901.934 276.59L905.839 265.596H921.536L925.441 276.59H930.37L916.114 237.771H911.261L897.005 276.59H901.934ZM907.318 261.426L913.536 243.912H913.839L920.057 261.426H907.318Z" fill="#F9FBFB"/>
<path d="M946.123 276.59H968.872V272.42H950.825V237.771H946.123V276.59Z" fill="#F9FBFB"/>
<path d="M402.303 198.949H473.859V180.494H424.69V155.215H469.981V136.76H424.69V111.533H473.652V93.0783H402.303V198.949Z" fill="#F9FBFB"/>
<path d="M513.289 198.949H535.676V161.419H552.014L572.074 198.949H596.788L574.297 157.8C586.344 152.631 593.013 142.137 593.013 127.662C593.013 106.622 579.105 93.0783 555.064 93.0783H513.289V198.949ZM535.676 143.429V111.378H550.773C563.698 111.378 569.954 117.116 569.954 127.662C569.954 138.156 563.698 143.429 550.876 143.429H535.676Z" fill="#F9FBFB"/>
<path d="M668.208 198.949C700.47 198.949 720.014 178.995 720.014 145.91C720.014 112.929 700.47 93.0783 668.519 93.0783H630.673V198.949H668.208ZM653.06 179.77V112.257H667.33C687.183 112.257 697.678 122.389 697.678 145.91C697.678 169.535 687.183 179.77 667.278 179.77H653.06Z" fill="#F9FBFB"/>
<path d="M855.739 146.014C855.739 111.378 834.231 91.6309 806.157 91.6309C777.928 91.6309 756.575 111.378 756.575 146.014C756.575 180.494 777.928 200.396 806.157 200.396C834.231 200.396 855.739 180.649 855.739 146.014ZM833.042 146.014C833.042 168.449 822.391 180.597 806.157 180.597C789.871 180.597 779.272 168.449 779.272 146.014C779.272 123.578 789.871 111.43 806.157 111.43C822.391 111.43 833.042 123.578 833.042 146.014Z" fill="#F9FBFB"/>
<path d="M951.602 123.526H973.058C972.748 104.658 957.237 91.6309 933.661 91.6309C910.447 91.6309 893.437 104.451 893.541 123.682C893.489 139.293 904.501 148.237 922.39 152.527L933.92 155.422C945.449 158.214 951.86 161.522 951.912 168.656C951.86 176.41 944.519 181.683 933.144 181.683C921.511 181.683 913.136 176.307 912.412 165.709H890.749C891.317 188.61 907.707 200.448 933.403 200.448C959.254 200.448 974.454 188.093 974.506 168.708C974.454 151.08 961.167 141.723 942.761 137.587L933.248 135.313C924.045 133.193 916.341 129.782 916.496 122.182C916.496 115.359 922.545 110.344 933.506 110.344C944.208 110.344 950.775 115.204 951.602 123.526Z" fill="#F9FBFB"/>
</svg>
