<svg width="162" height="70" viewBox="0 0 162 70" fill="none" xmlns="http://www.w3.org/2000/svg">
<g filter="url(#filter0_d_3879_272208)">
<path d="M35.2441 58.2051L10.2441 43.6987V49.5L35.2441 64L60.2441 49.5V32.1026L35.2441 46.6026L15.2467 35V23.4038L35.2441 11.8013L55.248 23.4038L35.2441 35L25.2454 29.1987L30.2416 26.3013L35.2441 29.1987L45.2429 23.4038L35.2441 17.6026L20.2429 26.3013V32.1026L35.2441 40.8013L60.2441 26.3013V20.5L35.2441 6L10.2441 20.5V37.9038L35.2441 52.4038L55.248 40.8013V46.6026L35.2441 58.2051Z" fill="#7FD4BA"/>
</g>
<path d="M81.5488 35.2752V17.8207H93.3102V20.8633H85.2392V25.0224H92.7051V28.065H85.2392V32.2326H93.3443V35.2752H81.5488Z" fill="white"/>
<path d="M96.2441 35.2752V17.8207H103.131C104.449 17.8207 105.574 18.0565 106.506 18.5281C107.443 18.994 108.156 19.6559 108.645 20.5139C109.139 21.3661 109.386 22.369 109.386 23.5224C109.386 24.6815 109.136 25.6786 108.636 26.5138C108.136 27.3434 107.412 27.9798 106.463 28.4229C105.52 28.8661 104.378 29.0877 103.037 29.0877H98.426V26.1218H102.44C103.145 26.1218 103.73 26.0252 104.196 25.832C104.662 25.6388 105.008 25.3491 105.236 24.9627C105.469 24.5763 105.585 24.0962 105.585 23.5224C105.585 22.9428 105.469 22.4542 105.236 22.0565C105.008 21.6587 104.659 21.3576 104.187 21.1531C103.721 20.9428 103.133 20.8377 102.423 20.8377H99.9345V35.2752H96.2441ZM105.67 27.332L110.008 35.2752H105.934L101.69 27.332H105.67Z" fill="white"/>
<path d="M118.182 35.2752H111.994V17.8207H118.233C119.988 17.8207 121.5 18.1701 122.767 18.869C124.034 19.5621 125.008 20.5593 125.69 21.8604C126.378 23.1616 126.721 24.7184 126.721 26.5309C126.721 28.3491 126.378 29.9116 125.69 31.2184C125.008 32.5252 124.028 33.5281 122.75 34.2269C121.477 34.9258 119.954 35.2752 118.182 35.2752ZM115.684 32.1133H118.028C119.119 32.1133 120.037 31.9201 120.781 31.5337C121.531 31.1417 122.094 30.5366 122.469 29.7184C122.849 28.8945 123.04 27.832 123.04 26.5309C123.04 25.2411 122.849 24.1871 122.469 23.369C122.094 22.5508 121.534 21.9485 120.79 21.5621C120.045 21.1758 119.128 20.9826 118.037 20.9826H115.684V32.1133Z" fill="white"/>
<path d="M145.495 26.5479C145.495 28.4514 145.134 30.0707 144.412 31.4059C143.697 32.7411 142.719 33.761 141.481 34.4656C140.248 35.1644 138.861 35.5138 137.322 35.5138C135.77 35.5138 134.378 35.1616 133.145 34.457C131.912 33.7525 130.938 32.7326 130.222 31.3974C129.506 30.0621 129.148 28.4457 129.148 26.5479C129.148 24.6445 129.506 23.0252 130.222 21.69C130.938 20.3548 131.912 19.3377 133.145 18.6389C134.378 17.9343 135.77 17.582 137.322 17.582C138.861 17.582 140.248 17.9343 141.481 18.6389C142.719 19.3377 143.697 20.3548 144.412 21.69C145.134 23.0252 145.495 24.6445 145.495 26.5479ZM141.753 26.5479C141.753 25.315 141.569 24.2752 141.199 23.4286C140.836 22.582 140.322 21.94 139.657 21.5025C138.992 21.065 138.214 20.8462 137.322 20.8462C136.43 20.8462 135.651 21.065 134.986 21.5025C134.322 21.94 133.805 22.582 133.435 23.4286C133.072 24.2752 132.89 25.315 132.89 26.5479C132.89 27.7809 133.072 28.8207 133.435 29.6673C133.805 30.5139 134.322 31.1559 134.986 31.5934C135.651 32.0309 136.43 32.2496 137.322 32.2496C138.214 32.2496 138.992 32.0309 139.657 31.5934C140.322 31.1559 140.836 30.5139 141.199 29.6673C141.569 28.8207 141.753 27.7809 141.753 26.5479Z" fill="white"/>
<path d="M157.697 22.8406C157.629 22.1531 157.336 21.619 156.819 21.2383C156.302 20.8576 155.601 20.6673 154.714 20.6673C154.112 20.6673 153.604 20.7525 153.189 20.9229C152.774 21.0877 152.456 21.3178 152.234 21.6133C152.018 21.9087 151.91 22.244 151.91 22.619C151.899 22.9315 151.964 23.2042 152.106 23.4371C152.254 23.6701 152.456 23.8718 152.711 24.0423C152.967 24.207 153.263 24.3519 153.598 24.4769C153.933 24.5962 154.291 24.6985 154.672 24.7837L156.24 25.1587C157.001 25.3292 157.7 25.5565 158.336 25.8406C158.973 26.1246 159.524 26.4741 159.99 26.8888C160.456 27.3036 160.817 27.7923 161.072 28.3548C161.334 28.9173 161.467 29.5621 161.473 30.2894C161.467 31.3576 161.194 32.2837 160.655 33.0678C160.121 33.8462 159.348 34.4513 158.336 34.8832C157.331 35.3093 156.118 35.5224 154.697 35.5224C153.288 35.5224 152.061 35.3065 151.015 34.8746C149.976 34.4428 149.163 33.8036 148.578 32.957C147.998 32.1048 147.694 31.0508 147.666 29.7951H151.237C151.277 30.3803 151.444 30.869 151.74 31.261C152.041 31.6474 152.442 31.94 152.942 32.1388C153.447 32.332 154.018 32.4286 154.655 32.4286C155.28 32.4286 155.822 32.3377 156.282 32.1559C156.748 31.9741 157.109 31.7212 157.365 31.3974C157.621 31.0735 157.748 30.7013 157.748 30.2809C157.748 29.8888 157.632 29.5593 157.399 29.2923C157.172 29.0252 156.836 28.7979 156.393 28.6104C155.956 28.4229 155.419 28.2525 154.782 28.0991L152.882 27.6218C151.41 27.2638 150.248 26.7042 149.396 25.9428C148.544 25.1815 148.121 24.1559 148.126 22.8661C148.121 21.8093 148.402 20.886 148.97 20.0962C149.544 19.3065 150.331 18.69 151.331 18.2468C152.331 17.8036 153.467 17.582 154.74 17.582C156.035 17.582 157.166 17.8036 158.132 18.2468C159.104 18.69 159.859 19.3065 160.399 20.0962C160.939 20.886 161.217 21.8008 161.234 22.8406H157.697Z" fill="white"/>
<path d="M81.1582 42.3487V40.5774H90.5982V42.3487H86.9412V52.2414H84.8152V42.3487H81.1582Z" fill="white"/>
<path d="M95.4684 52.2414V40.5774H99.9053C100.814 40.5774 101.577 40.7331 102.193 41.0445C102.813 41.3558 103.281 41.7924 103.597 42.3544C103.917 42.9125 104.076 43.5637 104.076 44.3079C104.076 45.0558 103.915 45.7051 103.591 46.2557C103.271 46.8024 102.8 47.2258 102.176 47.5257C101.552 47.8219 100.785 47.9699 99.8764 47.9699H96.7162V46.2158H99.5875C100.119 46.2158 100.554 46.1436 100.893 45.9994C101.232 45.8513 101.482 45.6368 101.644 45.3558C101.81 45.071 101.893 44.7217 101.893 44.3079C101.893 43.894 101.81 43.5409 101.644 43.2485C101.479 42.9524 101.226 42.7284 100.887 42.5765C100.548 42.4208 100.111 42.343 99.576 42.343H97.6117V52.2414H95.4684ZM101.581 46.9562L104.51 52.2414H102.118L99.2409 46.9562H101.581Z" fill="white"/>
<path d="M110.619 52.2414H108.331L112.497 40.5774H115.143L119.314 52.2414H117.026L113.866 42.9695H113.773L110.619 52.2414ZM110.694 47.6681H116.934V49.3653H110.694V47.6681Z" fill="white"/>
<path d="M133.494 44.5129H131.333C131.272 44.1636 131.158 43.8541 130.992 43.5846C130.827 43.3112 130.621 43.0796 130.374 42.8897C130.128 42.6999 129.847 42.5575 129.531 42.4626C129.219 42.3639 128.882 42.3145 128.52 42.3145C127.877 42.3145 127.307 42.474 126.81 42.7929C126.313 43.1081 125.924 43.5713 125.643 44.1826C125.362 44.7901 125.221 45.5323 125.221 46.4094C125.221 47.3017 125.362 48.0535 125.643 48.6648C125.928 49.2723 126.317 49.7317 126.81 50.043C127.307 50.3506 127.875 50.5043 128.514 50.5043C128.868 50.5043 129.2 50.4588 129.508 50.3677C129.82 50.2727 130.099 50.1342 130.345 49.9519C130.596 49.7697 130.806 49.5456 130.975 49.2799C131.148 49.0141 131.268 48.7103 131.333 48.3686L133.494 48.38C133.413 48.9343 133.238 49.4545 132.968 49.9405C132.703 50.4265 132.354 50.8556 131.923 51.2277C131.491 51.5959 130.987 51.8845 130.409 52.0933C129.831 52.2984 129.19 52.4009 128.485 52.4009C127.445 52.4009 126.517 52.1636 125.701 51.689C124.884 51.2144 124.241 50.529 123.771 49.633C123.301 48.7369 123.066 47.6624 123.066 46.4094C123.066 45.1527 123.303 44.0781 123.777 43.1859C124.25 42.2898 124.896 41.6045 125.712 41.1299C126.529 40.6553 127.453 40.418 128.485 40.418C129.144 40.418 129.756 40.5091 130.322 40.6913C130.888 40.8736 131.393 41.1413 131.836 41.4944C132.279 41.8437 132.643 42.2727 132.928 42.7815C133.217 43.2865 133.405 43.8636 133.494 44.5129Z" fill="white"/>
<path d="M138.507 52.2414V40.5774H140.651V45.9367H140.795L145.411 40.5774H148.028L143.452 45.8114L148.068 52.2414H145.492L141.962 47.2409L140.651 48.7673V52.2414H138.507Z" fill="white"/>
<path d="M158.934 43.7839C158.88 43.2865 158.653 42.8992 158.252 42.622C157.856 42.3449 157.339 42.2063 156.704 42.2063C156.257 42.2063 155.874 42.2727 155.554 42.4056C155.235 42.5385 154.99 42.7189 154.821 42.9467C154.651 43.1745 154.564 43.4346 154.561 43.7269C154.561 43.9699 154.616 44.1807 154.728 44.3591C154.844 44.5376 155 44.6894 155.196 44.8147C155.393 44.9362 155.61 45.0388 155.849 45.1223C156.088 45.2058 156.328 45.2761 156.571 45.333L157.68 45.6064C158.127 45.7089 158.557 45.8475 158.969 46.0221C159.385 46.1968 159.756 46.417 160.084 46.6828C160.415 46.9486 160.677 47.2694 160.869 47.6453C161.062 48.0212 161.158 48.4616 161.158 48.9666C161.158 49.6501 160.981 50.2519 160.627 50.772C160.272 51.2884 159.76 51.6928 159.09 51.9851C158.424 52.2737 157.617 52.418 156.669 52.418C155.749 52.418 154.95 52.2775 154.272 51.9965C153.598 51.7155 153.07 51.3055 152.689 50.7663C152.311 50.2272 152.107 49.5703 152.076 48.7958H154.185C154.216 49.202 154.343 49.5399 154.566 49.8095C154.79 50.0791 155.081 50.2803 155.439 50.4132C155.801 50.5461 156.205 50.6126 156.652 50.6126C157.118 50.6126 157.526 50.5442 157.877 50.4075C158.231 50.267 158.508 50.0734 158.709 49.8266C158.909 49.576 159.011 49.2837 159.015 48.9495C159.011 48.6458 158.92 48.3952 158.743 48.1978C158.566 47.9965 158.318 47.8295 157.998 47.6966C157.682 47.5599 157.313 47.4384 156.889 47.3321L155.543 46.9903C154.568 46.7435 153.798 46.3696 153.232 45.8684C152.67 45.3634 152.388 44.6932 152.388 43.8579C152.388 43.1707 152.577 42.5689 152.955 42.0525C153.336 41.5361 153.854 41.1356 154.509 40.8508C155.163 40.5623 155.905 40.418 156.733 40.418C157.572 40.418 158.308 40.5623 158.94 40.8508C159.575 41.1356 160.074 41.5324 160.436 42.0411C160.798 42.5461 160.985 43.127 160.996 43.7839H158.934Z" fill="white"/>
<defs>
<filter id="filter0_d_3879_272208" x="4.24414" y="0" width="62" height="70" filterUnits="userSpaceOnUse" color-interpolation-filters="sRGB">
<feFlood flood-opacity="0" result="BackgroundImageFix"/>
<feColorMatrix in="SourceAlpha" type="matrix" values="0 0 0 0 0 0 0 0 0 0 0 0 0 0 0 0 0 0 127 0" result="hardAlpha"/>
<feOffset/>
<feGaussianBlur stdDeviation="3"/>
<feColorMatrix type="matrix" values="0 0 0 0 0 0 0 0 0 0 0 0 0 0 0 0 0 0 0.25 0"/>
<feBlend mode="normal" in2="BackgroundImageFix" result="effect1_dropShadow_3879_272208"/>
<feBlend mode="normal" in="SourceGraphic" in2="effect1_dropShadow_3879_272208" result="shape"/>
</filter>
</defs>
</svg>
