<svg width="24" height="24" viewBox="0 0 24 24" fill="none" xmlns="http://www.w3.org/2000/svg">
<path fill-rule="evenodd" clip-rule="evenodd" d="M7.5 6.19922C6.67157 6.19922 6 6.87079 6 7.69922V18.5651C6 19.3935 6.67157 20.0651 7.5 20.0651H15.2846C16.113 20.0651 16.7846 19.3935 16.7846 18.5651V7.69922C16.7846 6.87079 16.113 6.19922 15.2846 6.19922H7.5ZM11.416 18.0008H10.6069L10.6107 17.1063C9.03817 16.9735 8.05344 16.1024 8 14.6375H9.39313C9.44275 15.3446 9.93511 15.743 10.6183 15.8524L10.6336 13.4891L10.2901 13.3993C9.00382 13.0594 8.20611 12.3993 8.20611 11.2508C8.20229 9.95786 9.23282 9.05942 10.6641 8.91098L10.6679 8.00082H11.4771L11.4733 8.91098C12.916 9.05161 13.8702 9.95786 13.8931 11.2H12.5305C12.4695 10.6375 12.0763 10.2625 11.4656 10.1532L11.4504 12.3836L11.7023 12.45C12.8779 12.7352 13.9962 13.368 14 14.7547C13.9962 16.0633 13.0573 16.9852 11.4198 17.1063L11.416 18.0008ZM11.4427 13.7079L11.4275 15.8524C12.126 15.7352 12.5802 15.3211 12.584 14.743C12.5802 14.1883 12.1374 13.9149 11.4427 13.7079ZM9.64122 11.161C9.63359 11.7157 10.1145 12.0008 10.6412 12.1727L10.6565 10.1532C10.0153 10.2664 9.64504 10.6571 9.64122 11.161Z" fill="#828282"/>
<path d="M9 4H17C18.1046 4 19 4.89543 19 6V16" stroke="#828282" stroke-width="1.5" stroke-linecap="round"/>
</svg>
