<svg width="24" height="25" viewBox="0 0 24 25" fill="none" xmlns="http://www.w3.org/2000/svg">
<path d="M0 4.5C0 2.29086 1.79086 0.5 4 0.5H20C22.2091 0.5 24 2.29086 24 4.5V20.5C24 22.7091 22.2091 24.5 20 24.5H4C1.79086 24.5 0 22.7091 0 20.5V4.5Z" fill="#F2F2F2"/>
<path fill-rule="evenodd" clip-rule="evenodd" d="M9 7.5C7.89543 7.5 7 8.39543 7 9.5V17.5C7 18.6046 7.89543 19.5 9 19.5H17C18.1046 19.5 19 18.6046 19 17.5V9.5C19 8.39543 18.1046 7.5 17 7.5H9ZM11.7843 13.0258C11.2694 13.2523 10.6309 13.1493 10.2087 12.7271C9.83801 12.3564 9.71443 11.8415 9.83801 11.3678C9.8483 11.306 9.92039 11.2854 9.96158 11.3266L10.8163 12.1813L11.6813 11.3163L10.8266 10.4616C10.7854 10.4204 10.806 10.3483 10.8678 10.338C11.3415 10.2144 11.8564 10.338 12.2271 10.7087C12.6493 11.1309 12.7523 11.7591 12.5258 12.2843L16.2124 15.5899C16.3875 15.7444 16.3978 16.0121 16.233 16.1769L15.6769 16.733C15.5121 16.8875 15.2444 16.8875 15.0899 16.7124L11.7843 13.0258ZM12.0727 13.8599L12.9789 14.8691L11.1973 16.6506C10.9914 16.8566 10.703 16.8978 10.4559 16.7948C10.3735 16.7639 10.3014 16.7124 10.2396 16.6506C10.1778 16.5888 10.1264 16.5167 10.0955 16.4344C9.99248 16.1872 10.0337 15.8886 10.2396 15.6929L12.0727 13.8599ZM15.3062 12.274L16.1094 11.2545L15.6254 10.7808L14.6162 11.5841L14.5133 11.893L14.575 11.9548L13.6688 12.861L14.0499 13.2008L14.9355 12.3152L14.9973 12.3667L15.3062 12.274Z" fill="#4F4F4F"/>
<path d="M13.167 6.16602H8.66699C7.01014 6.16602 5.66699 7.50916 5.66699 9.16602V16.8327" stroke="#4F4F4F" stroke-width="1.25" stroke-linecap="round"/>
<path d="M11.5 4.5H8.5C6.01472 4.5 4 6.51472 4 9V15.1667" stroke="#4F4F4F" stroke-width="0.75" stroke-linecap="round"/>
</svg>
