<svg width="24" height="24" viewBox="0 0 24 24" fill="none" xmlns="http://www.w3.org/2000/svg">
<path d="M9.34758 10.9653L16.5598 19.0089C16.8969 19.3908 17.481 19.3908 17.8405 19.0538L19.0538 17.8405C19.4133 17.481 19.3908 16.8969 19.0089 16.5598L10.9653 9.34758C11.4596 8.2017 11.2349 6.83115 10.3137 5.90996C9.50485 5.10111 8.38145 4.83149 7.34792 5.10111C7.21311 5.12357 7.16817 5.28085 7.25804 5.37072L9.1229 7.23558L7.23558 9.1229L5.37072 7.25804C5.28085 7.16817 5.12357 7.21311 5.10111 7.34792C4.83149 8.38145 5.10111 9.50485 5.90996 10.3137C6.83115 11.2349 8.22417 11.4596 9.34758 10.9653Z" fill="#828282"/>
<path d="M9.9767 12.7852L11.9539 14.987L8.06691 18.874C7.61755 19.3234 6.98844 19.4132 6.44921 19.1886C6.26946 19.1212 6.11219 19.0088 5.97738 18.874C5.84257 18.7392 5.73023 18.5819 5.66283 18.4022C5.43814 17.8629 5.52802 17.2114 5.97738 16.7845L9.9767 12.7852Z" fill="#828282"/>
<path d="M18.7844 7.09994L17.0319 9.32428L16.3579 9.52649L16.223 9.41415L14.2908 11.3464L13.4595 10.605L15.4367 8.62777L15.3019 8.49296L15.5265 7.81892L17.7284 6.06641L18.7844 7.09994Z" fill="#828282"/>
</svg>
