<svg width="80" height="80" viewBox="0 0 80 80" fill="none" xmlns="http://www.w3.org/2000/svg">
<path d="M17.5 34.5C17.5 22.3497 27.3497 12.5 39.5 12.5H49.25C61.4003 12.5 71.25 22.3497 71.25 34.5V44.25C71.25 56.4003 61.4003 66.25 49.25 66.25H39.5C27.3497 66.25 17.5 56.4003 17.5 44.25V34.5Z" fill="#E0E0E0"/>
<path d="M53.3346 24.1252H41.8763V36.9585H12.0846V43.3752H14.3763C14.3763 45.077 15.1006 46.7091 16.3899 47.9124C17.6793 49.1158 19.4279 49.7918 21.2513 49.7918C23.0747 49.7918 24.8233 49.1158 26.1127 47.9124C27.402 46.7091 28.1263 45.077 28.1263 43.3752H41.8763C41.8763 45.077 42.6006 46.7091 43.8899 47.9124C45.1793 49.1158 46.9279 49.7918 48.7513 49.7918C50.5747 49.7918 52.3233 49.1158 53.6127 47.9124C54.902 46.7091 55.6263 45.077 55.6263 43.3752H60.2096V32.6807L53.3346 24.1252ZM21.2513 46.5835C20.3396 46.5835 19.4653 46.2455 18.8206 45.6438C18.176 45.0421 17.8138 44.2261 17.8138 43.3752C17.8138 42.5243 18.176 41.7082 18.8206 41.1065C19.4653 40.5049 20.3396 40.1668 21.2513 40.1668C22.163 40.1668 23.0373 40.5049 23.682 41.1065C24.3266 41.7082 24.6888 42.5243 24.6888 43.3752C24.6888 44.2261 24.3266 45.0421 23.682 45.6438C23.0373 46.2455 22.163 46.5835 21.2513 46.5835ZM48.7513 46.5835C47.8396 46.5835 46.9653 46.2455 46.3206 45.6438C45.676 45.0421 45.3138 44.2261 45.3138 43.3752C45.3138 42.5243 45.676 41.7082 46.3206 41.1065C46.9653 40.5049 47.8396 40.1668 48.7513 40.1668C49.663 40.1668 50.5373 40.5049 51.182 41.1065C51.8266 41.7082 52.1888 42.5243 52.1888 43.3752C52.1888 44.2261 51.8266 45.0421 51.182 45.6438C50.5373 46.2455 49.663 46.5835 48.7513 46.5835ZM46.4596 32.6807V27.3335H52.1888L56.6805 32.6807H46.4596ZM48.7513 21.9863H39.5846V34.8196H14.3763L11.0992 24.1252H9.79297V19.8474H37.293L39.5846 17.7085H48.7513V21.9863Z" fill="#BDBDBD"/>
<path d="M7.5 6.25V5.25H6.5V6.25H7.5ZM62.5 6.25H63.5V5.25H62.5V6.25ZM62.5 61.25V62.25H63.5V61.25H62.5ZM7.5 61.25H6.5V62.25H7.5V61.25ZM7.5 7.25H62.5V5.25H7.5V7.25ZM61.5 6.25V61.25H63.5V6.25H61.5ZM62.5 60.25H7.5V62.25H62.5V60.25ZM8.5 61.25V6.25H6.5V61.25H8.5Z" fill="#BDBDBD"/>
<circle cx="37.5" cy="56.25" r="3.25" fill="#BDBDBD" stroke="#BDBDBD"/>
<circle cx="52.5" cy="56.25" r="3.25" fill="#BDBDBD" stroke="#BDBDBD"/>
<path fill-rule="evenodd" clip-rule="evenodd" d="M65 57.5H37.5V55H65V57.5Z" fill="#BDBDBD" stroke="#BDBDBD" stroke-width="2"/>
<circle cx="67.5" cy="56.25" r="4" stroke="#BDBDBD" stroke-width="2"/>
</svg>
