<svg width="80" height="80" viewBox="0 0 80 80" fill="none" xmlns="http://www.w3.org/2000/svg">
<path d="M13.75 20.75C13.75 16.884 16.884 13.75 20.75 13.75H56.75C60.616 13.75 63.75 16.884 63.75 20.75V61.75C63.75 65.616 60.616 68.75 56.75 68.75H20.75C16.884 68.75 13.75 65.616 13.75 61.75V20.75Z" fill="#E0E0E0"/>
<path d="M25.2188 36.6348L27.3777 29.6086C27.5216 28.721 28.1453 28.0014 28.9849 27.7375L33.3988 26.2742C34.2624 25.9863 35.222 26.2022 35.8696 26.8739L40.8113 31.8635L45.7529 26.8499C46.4006 26.2022 47.3601 25.9623 48.2237 26.2502L52.6376 27.7135C53.4772 28.0014 54.1009 28.721 54.2448 29.5846L56.4038 36.6108" fill="#BDBDBD"/>
<path d="M46.8107 15.1912C46.8107 11.7129 44.1239 8.90625 40.8135 8.90625C37.5031 8.90625 34.8164 11.7369 34.8164 15.1912V16.9904C34.8164 20.4687 37.5031 23.2994 40.8135 23.2994C44.1239 23.2994 46.8107 20.4687 46.8107 17.0144V15.1912Z" fill="#BDBDBD"/>
<path d="M15.623 40.1868V44.9845C15.623 47.6232 17.782 49.7822 20.4207 49.7822L22.8196 59.3776H58.8023L61.2012 49.7822C63.8399 49.7822 65.9989 47.6232 65.9989 44.9845V40.1868H15.623Z" fill="#BDBDBD"/>
</svg>
