<svg width="80" height="80" viewBox="0 0 80 80" fill="none" xmlns="http://www.w3.org/2000/svg">
<path d="M11.25 33.25C11.25 21.0997 21.0997 11.25 33.25 11.25H45.5C57.6503 11.25 67.5 21.0997 67.5 33.25V45.5C67.5 57.6503 57.6503 67.5 45.5 67.5H33.25C21.0997 67.5 11.25 57.6503 11.25 45.5V33.25Z" fill="#E0E0E0"/>
<path fill-rule="evenodd" clip-rule="evenodd" d="M59.4866 39.375C59.4866 50.4823 50.4823 59.4866 39.375 59.4866C36.3903 59.4866 33.5575 58.8364 31.0104 57.67L36.0866 52.7063L37.1019 51.6909V51.8421C41.4226 52.8791 46.0025 51.6045 49.6102 48.8825C55.9616 44.0866 52.1378 33.5874 52.1378 33.5874L45.0303 40.6948C44.1662 41.5374 42.8052 41.5374 41.9627 40.6948L38.9166 37.6488C38.0741 36.8063 38.0741 35.4452 38.9166 34.6027L46.0241 27.4952C41.2282 25.1837 35.2656 26.0262 31.2906 30.0228C27.8989 33.4145 26.7756 38.2321 27.9421 42.5311L22.3469 48.1264L21.6146 48.8198C20.1139 46.0037 19.2634 42.7887 19.2634 39.375C19.2634 28.2677 28.2677 19.2634 39.375 19.2634C50.4823 19.2634 59.4866 28.2677 59.4866 39.375ZM39.375 64.2188C53.0958 64.2188 64.2188 53.0958 64.2188 39.375C64.2188 25.6542 53.0958 14.5312 39.375 14.5312C25.6542 14.5312 14.5312 25.6542 14.5312 39.375C14.5312 53.0958 25.6542 64.2188 39.375 64.2188Z" fill="#BDBDBD"/>
</svg>
