<svg width="28" height="28" viewBox="0 0 28 28" fill="none" xmlns="http://www.w3.org/2000/svg">
<path d="M4.66699 7.77794V21.3891C4.66699 22.4634 5.53713 23.3335 6.61144 23.3335H20.2225C21.2969 23.3335 22.167 22.4634 22.167 21.3891V7.77794C22.167 6.70363 21.2969 5.8335 20.2225 5.8335H6.61144C5.53713 5.8335 4.66699 6.70363 4.66699 7.77794ZM16.3337 11.6668C16.3337 13.2807 15.026 14.5835 13.417 14.5835C11.808 14.5835 10.5003 13.2807 10.5003 11.6668C10.5003 10.0578 11.808 8.75016 13.417 8.75016C15.026 8.75016 16.3337 10.0578 16.3337 11.6668ZM7.58366 19.4446C7.58366 17.5002 11.4725 16.4307 13.417 16.4307C15.3614 16.4307 19.2503 17.5002 19.2503 19.4446V20.4168H7.58366V19.4446Z" fill="#4F4F4F"/>
</svg>
