<svg width="80" height="80" viewBox="0 0 80 80" fill="none" xmlns="http://www.w3.org/2000/svg">
<path d="M63.3333 10H16.6667C13 10 10 13 10 16.6667V63.3333C10 67 13 70 16.6667 70H63.3333C67 70 70 67 70 63.3333V16.6667C70 13 67 10 63.3333 10ZM45.2 21.7667C46.1667 20.8 47.7667 20.8 48.7333 21.7667L51.6667 24.7L54.6 21.7667C55.5667 20.8 57.1667 20.8 58.1333 21.7667C59.1 22.7333 59.1 24.3333 58.1333 25.3L55.2 28.2333L58.1333 31.1667C59.1 32.1333 59.1 33.7333 58.1333 34.7C57.1667 35.6667 55.5667 35.6667 54.6 34.7L51.6667 31.8L48.7333 34.7333C47.7667 35.7 46.1667 35.7 45.2 34.7333C44.2333 33.7667 44.2333 32.1667 45.2 31.2L48.1333 28.2667L45.2 25.3333C44.2 24.3333 44.2 22.7333 45.2 21.7667ZM23.3333 25.7333H35C36.3667 25.7333 37.5 26.8667 37.5 28.2333C37.5 29.6 36.3667 30.7333 35 30.7333H23.3333C21.9667 30.7333 20.8333 29.6 20.8333 28.2333C20.8333 26.8667 21.9667 25.7333 23.3333 25.7333ZM35.8333 53.3333H31.6667V57.5C31.6667 58.8667 30.5333 60 29.1667 60C27.8 60 26.6667 58.8667 26.6667 57.5V53.3333H22.5C21.1333 53.3333 20 52.2 20 50.8333C20 49.4667 21.1333 48.3333 22.5 48.3333H26.6667V44.1667C26.6667 42.8 27.8 41.6667 29.1667 41.6667C30.5333 41.6667 31.6667 42.8 31.6667 44.1667V48.3333H35.8333C37.2 48.3333 38.3333 49.4667 38.3333 50.8333C38.3333 52.2 37.2 53.3333 35.8333 53.3333ZM57.5 57.5H45.8333C44.4667 57.5 43.3333 56.3667 43.3333 55C43.3333 53.6333 44.4667 52.5 45.8333 52.5H57.5C58.8667 52.5 60 53.6333 60 55C60 56.3667 58.8667 57.5 57.5 57.5ZM57.5 49.1667H45.8333C44.4667 49.1667 43.3333 48.0333 43.3333 46.6667C43.3333 45.3 44.4667 44.1667 45.8333 44.1667H57.5C58.8667 44.1667 60 45.3 60 46.6667C60 48.0333 58.8667 49.1667 57.5 49.1667Z" fill="white"/>
</svg>
