<svg width="40" height="40" viewBox="0 0 40 40" fill="none" xmlns="http://www.w3.org/2000/svg">
<path d="M33.334 6.66797H6.66732C4.81732 6.66797 3.35065 8.1513 3.35065 10.0013L3.33398 30.0013C3.33398 31.8513 4.81732 33.3346 6.66732 33.3346H33.334C35.184 33.3346 36.6673 31.8513 36.6673 30.0013V10.0013C36.6673 8.1513 35.184 6.66797 33.334 6.66797ZM33.334 28.3346C33.334 29.2513 32.584 30.0013 31.6673 30.0013H8.33398C7.41732 30.0013 6.66732 29.2513 6.66732 28.3346V11.668C6.66732 10.7513 7.41732 10.0013 8.33398 10.0013H31.6673C32.584 10.0013 33.334 10.7513 33.334 11.668V28.3346ZM23.334 16.668C24.2507 16.668 25.0007 15.918 25.0007 15.0013C25.0007 14.0846 24.2507 13.3346 23.334 13.3346H21.6673V13.318C21.6673 12.4013 20.9173 11.6513 20.0007 11.6513C19.084 11.6513 18.334 12.4013 18.334 13.318V13.3346H16.6673C15.7507 13.3346 15.0007 14.0846 15.0007 15.0013V20.0013C15.0007 20.918 15.7507 21.668 16.6673 21.668H21.6673V23.3346H16.6673C15.7507 23.3346 15.0007 24.0846 15.0007 25.0013C15.0007 25.918 15.7507 26.668 16.6673 26.668H18.334C18.334 27.5846 19.084 28.3346 20.0007 28.3346C20.9173 28.3346 21.6673 27.5846 21.6673 26.668H23.334C24.2507 26.668 25.0007 25.918 25.0007 25.0013V20.0013C25.0007 19.0846 24.2507 18.3346 23.334 18.3346H18.334V16.668H23.334Z" fill="#4F4F4F"/>
</svg>
