<svg width="14" height="14" viewBox="0 0 14 14" fill="none" xmlns="http://www.w3.org/2000/svg">
<path d="M4.08398 5.83301H5.13398V6.99967H4.08398V5.83301ZM4.08398 8.16634H5.13398V9.33301H4.08398V8.16634ZM6.18398 5.83301H7.23398V6.99967H6.18398V5.83301ZM6.18398 8.16634H7.23398V9.33301H6.18398V8.16634ZM8.28399 5.83301H9.33399V6.99967H8.28399V5.83301ZM8.28399 8.16634H9.33399V9.33301H8.28399V8.16634Z" fill="#828282"/>
<path d="M3.30621 11.6667H10.1118C10.6479 11.6667 11.084 11.2219 11.084 10.675V3.73333C11.084 3.18643 10.6479 2.74167 10.1118 2.74167H9.13954V1.75H8.16732V2.74167H5.25065V1.75H4.27843V2.74167H3.30621C2.77003 2.74167 2.33398 3.18643 2.33398 3.73333V10.675C2.33398 11.2219 2.77003 11.6667 3.30621 11.6667ZM10.1118 4.725L10.1122 10.675H3.30621V4.725H10.1118Z" fill="#828282"/>
</svg>
