<svg width="80" height="80" viewBox="0 0 80 80" fill="none" xmlns="http://www.w3.org/2000/svg">
<path d="M12.5 16.5C12.5 14.2909 14.2909 12.5 16.5 12.5H66C68.2091 12.5 70 14.2909 70 16.5V63.5C70 65.7091 68.2091 67.5 66 67.5H16.5C14.2909 67.5 12.5 65.7091 12.5 63.5V16.5Z" fill="#DAF2EB"/>
<path d="M35 35.05H47.5V62.5H35V35.05ZM52.5 62.5H60C62.75 62.5 65 60.25 65 57.5V35H52.5V62.5ZM60 17.5H22.5C19.75 17.5 17.5 19.75 17.5 22.5V30H65V22.5C65 19.75 62.75 17.5 60 17.5ZM17.5 57.5C17.5 60.25 19.75 62.5 22.5 62.5H30V35H17.5V57.5Z" fill="#7FD4BA"/>
</svg>
