<svg width="32" height="32" viewBox="0 0 32 32" fill="none" xmlns="http://www.w3.org/2000/svg">
<g clip-path="url(#clip0)">
<path d="M25.8 13.3866C25.3521 11.1169 24.1301 9.07306 22.3428 7.60425C20.5554 6.13543 18.3135 5.33273 16 5.33325C12.1467 5.33325 8.8 7.51992 7.13333 10.7199C5.17365 10.9317 3.36134 11.8602 2.04465 13.327C0.727961 14.7938 -0.000228936 16.6955 5.39903e-08 18.6666C5.39903e-08 23.0799 3.58667 26.6666 8 26.6666H25.3333C29.0133 26.6666 32 23.6799 32 19.9999C32 16.4799 29.2667 13.6266 25.8 13.3866ZM18.6667 17.3333V22.6666H13.3333V17.3333H9.33333L15.5333 11.1333C15.8 10.8666 16.2133 10.8666 16.48 11.1333L22.6667 17.3333H18.6667Z" fill="#E0E0E0"/>
</g>
<defs>
<clipPath id="clip0">
<rect width="32" height="32" fill="white"/>
</clipPath>
</defs>
</svg>
