<svg width="64" height="64" viewBox="0 0 64 64" fill="none" xmlns="http://www.w3.org/2000/svg">
<path fill-rule="evenodd" clip-rule="evenodd" d="M47.5176 10.667C48.3965 10.667 49.1411 10.9925 49.7515 11.6436C50.3618 12.2946 50.667 13.0889 50.667 14.0264V45.3337C50.667 48.2792 48.2792 50.667 45.3337 50.667H19.3926C18.5625 50.667 17.8423 50.3415 17.2319 49.6904C16.6216 49.0394 16.3164 48.2451 16.3164 47.3076V42.3076H12.2051C11.1797 42.3076 10.667 41.7607 10.667 40.667C10.667 39.5732 11.1797 39.0264 12.2051 39.0264H16.3164V32.3076H12.2051C11.1797 32.3076 10.667 31.7607 10.667 30.667C10.667 29.5732 11.1797 29.0264 12.2051 29.0264H16.3164V22.3076H12.2051C11.1797 22.3076 10.667 21.7607 10.667 20.667C10.667 19.5732 11.1797 19.0264 12.2051 19.0264H16.3164V14.0264C16.3164 13.0889 16.6216 12.2946 17.2319 11.6436C17.8423 10.9925 18.5625 10.667 19.3926 10.667H47.5176ZM34.667 14.0264H19.3926V19.0264H21.0039C22.0293 19.0264 22.542 19.5732 22.542 20.667C22.542 21.7607 22.0293 22.3076 21.0039 22.3076H19.3926V29.0264H21.0039C22.0293 29.0264 22.542 29.5732 22.542 30.667C22.542 31.7607 22.0293 32.3076 21.0039 32.3076H19.3926V39.0264H21.0039C22.0293 39.0264 22.542 39.5732 22.542 40.667C22.542 41.7607 22.0293 42.3076 21.0039 42.3076H19.3926V47.3076H34.667V14.0264Z" fill="#4F4F4F"/>
</svg>
