<svg width="30" height="30" viewBox="0 0 30 30" fill="none" xmlns="http://www.w3.org/2000/svg">
<path fill-rule="evenodd" clip-rule="evenodd" d="M22.2737 5C22.6857 5 23.0347 5.15259 23.3208 5.45776C23.6069 5.76294 23.75 6.13525 23.75 6.57471V21.25C23.75 22.6307 22.6307 23.75 21.25 23.75H9.09012C8.70102 23.75 8.36342 23.5974 8.07732 23.2922C7.79121 22.9871 7.64816 22.6147 7.64816 22.1753V19.8315H5.72098C5.24033 19.8315 5 19.5752 5 19.0625C5 18.5498 5.24033 18.2935 5.72098 18.2935H7.64816V15.144H5.72098C5.24033 15.144 5 14.8877 5 14.375C5 13.8623 5.24033 13.606 5.72098 13.606H7.64816V10.4565H5.72098C5.24033 10.4565 5 10.2002 5 9.6875C5 9.1748 5.24033 8.91846 5.72098 8.91846H7.64816V6.57471C7.64816 6.13525 7.79121 5.76294 8.07732 5.45776C8.36342 5.15259 8.70102 5 9.09012 5H22.2737ZM16.25 6.57471H9.09012V8.91846H9.84543C10.3261 8.91846 10.5664 9.1748 10.5664 9.6875C10.5664 10.2002 10.3261 10.4565 9.84543 10.4565H9.09012V13.606H9.84543C10.3261 13.606 10.5664 13.8623 10.5664 14.375C10.5664 14.8877 10.3261 15.144 9.84543 15.144H9.09012V18.2935H9.84543C10.3261 18.2935 10.5664 18.5498 10.5664 19.0625C10.5664 19.5752 10.3261 19.8315 9.84543 19.8315H9.09012V22.1753H16.25V6.57471Z" fill="#BDBDBD"/>
</svg>
