<svg width="24" height="24" viewBox="0 0 24 24" fill="none" xmlns="http://www.w3.org/2000/svg">
<path opacity="0.8" fill-rule="evenodd" clip-rule="evenodd" d="M0 5C0 2.23858 2.23858 0 5 0L17 0C17.5523 0 18 0.447715 18 1C18 1.55228 17.5523 2 17 2H5C3.34315 2 2 3.34315 2 5V17C2 17.5523 1.55228 18 1 18C0.447715 18 0 17.5523 0 17L0 5Z" fill="#38BC94"/>
<rect x="4.5" y="4.5" width="16" height="16" rx="2" fill="#38BC94" stroke="#38BC94" stroke-width="2"/>
<path d="M9.15157 6.08337H11.3954V7.02482H9.15157V6.08337Z" fill="#DAF2EB"/>
<path fill-rule="evenodd" clip-rule="evenodd" d="M17.166 10.7688C17.166 9.5792 16.3617 8.54602 15.2535 8.31166L12.7106 7.77427H9.2522C8.79039 7.77427 8.41602 8.16826 8.41602 8.65427V17.4534C8.41602 17.9394 8.79039 18.3334 9.2522 18.3334H12.5969H16.3298C16.7916 18.3334 17.166 17.9394 17.166 17.4534V10.7688ZM15.7827 13.6137C15.7827 14.0087 15.4774 14.3298 15.1023 14.3298H13.8238V9.5584L14.9313 9.75667C15.4248 9.84514 15.783 10.2916 15.783 10.8184L15.7827 13.6137Z" fill="#DAF2EB"/>
</svg>
