<svg width="19" height="18" viewBox="0 0 19 18" fill="none" xmlns="http://www.w3.org/2000/svg">
<path d="M12.4635 5.16392C12.4635 7.10559 10.8052 8.65559 8.83021 8.48059C7.08021 8.33059 5.79688 6.74725 5.79688 4.98892V4.00559C5.79688 2.24725 7.08021 0.66392 8.83021 0.51392C10.8052 0.33892 12.4635 1.89725 12.4635 3.83059V5.16392Z" fill="#BDBDBD"/>
<path d="M10.8794 9.90542L9.76272 11.2388C9.42939 11.6388 8.82106 11.6388 8.48772 11.2388L7.37106 9.90542C6.90439 9.34709 6.12939 9.13876 5.46272 9.43042C2.48772 10.7221 0.337723 13.5471 0.00438974 16.9054C-0.0456103 17.3971 0.337723 17.8304 0.837723 17.8304H17.4127C17.9127 17.8304 18.2961 17.3971 18.2461 16.9054C17.9044 13.5471 15.7544 10.7221 12.7877 9.43042C12.1211 9.13876 11.3461 9.34709 10.8794 9.90542Z" fill="#BDBDBD"/>
</svg>
