<svg width="80" height="80" viewBox="0 0 80 80" fill="none" xmlns="http://www.w3.org/2000/svg">
<g clip-path="url(#clip0)">
<path d="M12.5 21C12.5 17.6863 15.1863 15 18.5 15H58.7222C62.0359 15 64.7222 17.6863 64.7222 21V61.2222C64.7222 64.5359 62.0359 67.2222 58.7222 67.2222H18.5C15.1863 67.2222 12.5 64.5359 12.5 61.2222V21Z" fill="#7FD4BA"/>
<path d="M17.0833 18.4722V57.3611C17.0833 60.4306 19.5694 62.9167 22.6388 62.9167H61.5277C64.5971 62.9167 67.0833 60.4306 67.0833 57.3611V18.4722C67.0833 15.4028 64.5971 12.9167 61.5277 12.9167H22.6388C19.5694 12.9167 17.0833 15.4028 17.0833 18.4722ZM50.4166 29.5834C50.4166 34.1945 46.6805 37.9167 42.0833 37.9167C37.486 37.9167 33.7499 34.1945 33.7499 29.5834C33.7499 24.9861 37.486 21.25 42.0833 21.25C46.6805 21.25 50.4166 24.9861 50.4166 29.5834ZM25.4166 51.8056C25.4166 46.25 36.5277 43.1945 42.0833 43.1945C47.6388 43.1945 58.7499 46.25 58.7499 51.8056V54.5834H25.4166V51.8056Z" fill="#DAF2EB"/>
</g>
<defs>
<clipPath id="clip0">
<rect width="80" height="80" fill="white"/>
</clipPath>
</defs>
</svg>
