<svg width="80" height="80" viewBox="0 0 80 80" fill="none" xmlns="http://www.w3.org/2000/svg">
<path d="M16.6667 30.0002V23.3335H23.3334V30.0002H16.6667Z" fill="white"/>
<path d="M30 30.0002H63.3333V23.3335H30V30.0002Z" fill="white"/>
<path d="M16.6667 50V56.6667H23.3334V50H16.6667Z" fill="white"/>
<path d="M63.3333 56.6667H30V50H63.3333V56.6667Z" fill="white"/>
<path fill-rule="evenodd" clip-rule="evenodd" d="M3.33337 20C3.33337 17.3478 4.38694 14.8043 6.26231 12.9289C8.13767 11.0536 10.6812 10 13.3334 10H66.6667C69.3189 10 71.8624 11.0536 73.7378 12.9289C75.6131 14.8043 76.6667 17.3478 76.6667 20V60C76.6667 62.6522 75.6131 65.1957 73.7378 67.0711C71.8624 68.9464 69.3189 70 66.6667 70H13.3334C10.6812 70 8.13767 68.9464 6.26231 67.0711C4.38694 65.1957 3.33337 62.6522 3.33337 60V20ZM13.3334 16.6667H66.6667C67.5508 16.6667 68.3986 17.0179 69.0237 17.643C69.6488 18.2681 70 19.1159 70 20V36.6667H10V20C10 19.1159 10.3512 18.2681 10.9764 17.643C11.6015 17.0179 12.4493 16.6667 13.3334 16.6667ZM10 43.3333V60C10 60.8841 10.3512 61.7319 10.9764 62.357C11.6015 62.9821 12.4493 63.3333 13.3334 63.3333H66.6667C67.5508 63.3333 68.3986 62.9821 69.0237 62.357C69.6488 61.7319 70 60.8841 70 60V43.3333H10Z" fill="white"/>
</svg>
