<svg width="24" height="24" viewBox="0 0 24 24" fill="none" xmlns="http://www.w3.org/2000/svg">
<path d="M13.5882 11.0072C12.8123 11.0072 12.1834 10.3483 12.1834 9.53536C12.1834 8.72243 12.8123 8.06349 13.5882 8.06349C14.3641 8.06349 14.9931 8.72243 14.9931 9.53536C14.9931 10.3483 14.3641 11.0072 13.5882 11.0072Z" fill="#BDBDBD"/>
<path fill-rule="evenodd" clip-rule="evenodd" d="M21 12C21 16.9706 16.9706 21 12 21C7.02944 21 3 16.9706 3 12C3 9.89311 3.72397 7.9553 4.9367 6.42179C5.75658 6.9962 6.29264 7.94806 6.29264 9.02513L6.29263 14.4856C6.29263 16.8247 8.18884 18.7209 10.5279 18.7209H17.9859C18.6712 18.1101 19.2625 17.3961 19.7353 16.6032H10.5279C9.35839 16.6032 8.41028 15.6551 8.41028 14.4856L8.41028 9.02513C8.41028 7.36542 7.64655 5.8841 6.45135 4.91343C7.98017 3.71471 9.90662 3 12 3C16.9706 3 21 7.02944 21 12ZM16.7581 9.49762C16.7581 7.66344 15.3389 6.17647 13.5882 6.17647C11.8376 6.17647 10.4183 7.66344 10.4183 9.49762C10.4183 9.49762 10.2742 10.7619 11.3369 12.1583C11.4235 12.2722 11.5063 12.3806 11.5853 12.4841C12.4163 13.573 12.8371 14.1242 13.1315 14.9128C13.1639 14.9994 13.1904 15.0885 13.2129 15.1787C13.2565 15.3532 13.3714 15.7059 13.5882 15.7059C13.8051 15.7059 13.92 15.3532 13.9636 15.1787C13.9861 15.0885 14.0126 14.9994 14.045 14.9128C14.3394 14.1242 14.7601 13.573 15.5912 12.4841C15.6702 12.3806 15.7529 12.2722 15.8396 12.1583C16.9022 10.7619 16.7581 9.49762 16.7581 9.49762Z" fill="#BDBDBD"/>
</svg>
