<svg xmlns="http://www.w3.org/2000/svg" width="80" height="80" viewBox="0 0 80 80" fill="none">
<g clip-path="url(#clip0)">
<path d="M35.25 70C21.9952 70 11.25 59.2548 11.25 46L11.25 36.5C11.25 23.2452 21.9952 12.5 35.25 12.5L44.75 12.5C58.0048 12.5 68.75 23.2452 68.75 36.5L68.75 46C68.75 59.2548 58.0048 70 44.75 70L35.25 70Z" fill="#DAF2EB"/>
<path d="M40 18.75C27.5736 18.75 17.5 28.8236 17.5 41.25C17.5 53.6764 27.5736 63.75 40 63.75C52.4264 63.75 62.5 53.6764 62.5 41.25C62.5 28.8236 52.4264 18.75 40 18.75ZM36.5091 27.1628H43.4909V29.3161H51.6318V33.2794H28.3682V29.3161H36.5091V27.1628ZM29.6179 36.2952H50.3821V55.3372H29.6179V36.2952Z" fill="#7FD4BA"/>
<path fill-rule="evenodd" clip-rule="evenodd" d="M37.5126 47.2143C33.1905 45.2953 28.8144 46.2934 27.8681 46.6226L26.25 43.3248C27.8464 42.7695 33.6408 41.4614 39.4892 44.0581C44.6124 46.3327 49.5184 44.6068 51.2209 43.5405L53.75 46.4035C51.2148 47.9913 44.5398 50.3343 37.5126 47.2143Z" fill="#7FD4BA"/>
</g>
<defs>
<clipPath id="clip0">
<rect width="80" height="80" fill="white"/>
</clipPath>
</defs>
</svg>