<svg width="24" height="24" viewBox="0 0 24 24" fill="none" xmlns="http://www.w3.org/2000/svg">
<path d="M21.6643 14.3982L19.1952 18.7412C18.7112 19.6038 17.8125 20.0551 16.9038 19.995H14.9285V22.001L12.4593 17.4874L14.9285 12.9739V14.9799H17.7137L15.5211 11.1183L19.7977 8.61081L21.5755 11.7402C22.089 12.5125 22.1582 13.5456 21.6643 14.3982ZM9.20993 2.00098H14.1482C15.1161 2.00098 15.9557 2.57269 16.3606 3.39516L17.3483 5.14039L19.0569 4.13739L16.4495 8.56066L11.363 8.65093L13.0717 7.64792L11.6791 5.19054L9.49635 9.05213L5.2099 6.54461L6.98769 3.41522C7.39263 2.58272 8.23215 2.00098 9.20993 2.00098ZM5.10126 18.7512L2.6321 14.4082C2.14815 13.5556 2.21729 12.5326 2.72099 11.7603L3.70866 10.025L2 9.02204L7.07658 9.10228L9.69389 13.5356L7.98523 12.5326L6.59263 14.9799H10.9778V19.995H7.42226C6.95955 20.029 6.49672 19.9304 6.08641 19.7106C5.67611 19.4907 5.33478 19.1583 5.10126 18.7512Z" fill="#4F4F4F"/>
</svg>
