<svg width="24" height="24" viewBox="0 0 24 24" fill="none" xmlns="http://www.w3.org/2000/svg">
<path d="M18.9604 4.16426H14.2559V3.4445C14.2561 3.36963 14.2414 3.29547 14.2129 3.22626C14.1843 3.15705 14.1424 3.09416 14.0895 3.04117C14.0366 2.98818 13.9738 2.94615 13.9046 2.91747C13.8354 2.88879 13.7613 2.87402 13.6864 2.87402H10.3125C10.2376 2.87402 10.1635 2.88878 10.0943 2.91746C10.0251 2.94613 9.96222 2.98816 9.90929 3.04114C9.85635 3.09412 9.81438 3.15702 9.78576 3.22623C9.75714 3.29544 9.74244 3.36961 9.74251 3.4445V4.16426H5.03851C4.96367 4.16417 4.88954 4.17883 4.82038 4.20741C4.75121 4.23599 4.68836 4.27793 4.63541 4.33083C4.58247 4.38373 4.54048 4.44655 4.51184 4.51569C4.4832 4.58483 4.46847 4.65894 4.46851 4.73378V6.39746C4.46847 6.4723 4.4832 6.54641 4.51184 6.61556C4.54048 6.6847 4.58247 6.74752 4.63541 6.80041C4.68836 6.85331 4.75121 6.89525 4.82038 6.92383C4.88954 6.95241 4.96367 6.96708 5.03851 6.96698H18.9604C19.0353 6.96714 19.1094 6.95252 19.1786 6.92396C19.2478 6.8954 19.3107 6.85346 19.3637 6.80055C19.4166 6.74764 19.4586 6.6848 19.4872 6.61563C19.5158 6.54646 19.5305 6.47232 19.5304 6.39746V4.73378C19.5305 4.65893 19.5158 4.58478 19.4872 4.51561C19.4586 4.44644 19.4166 4.3836 19.3637 4.33069C19.3107 4.27778 19.2478 4.23584 19.1786 4.20728C19.1094 4.17872 19.0353 4.1641 18.9604 4.16426Z" fill="#333333"/>
<path fill-rule="evenodd" clip-rule="evenodd" d="M5.79876 8.0166H18.1996C18.2744 8.01645 18.3485 8.03106 18.4177 8.0596C18.4869 8.08815 18.5498 8.13006 18.6027 8.18295C18.6557 8.23583 18.6976 8.29864 18.7263 8.36779C18.7549 8.43693 18.7696 8.51105 18.7696 8.58588V12.5416C16.9062 13.2998 13.9379 13.8081 10.8594 12.3045C8.72547 11.2623 6.58941 11.311 5.22876 11.5346V8.58612C5.22873 8.51128 5.24345 8.43717 5.27209 8.36803C5.30073 8.29889 5.34273 8.23607 5.39567 8.18317C5.44861 8.13028 5.51146 8.08834 5.58063 8.05975C5.6498 8.03117 5.72392 8.01651 5.79876 8.0166ZM5.22876 13.5675V20.559C5.22873 20.6339 5.24345 20.7081 5.27207 20.7772C5.3007 20.8464 5.34268 20.9093 5.39561 20.9623C5.44854 21.0153 5.51138 21.0573 5.58056 21.086C5.64973 21.1147 5.72387 21.1295 5.79876 21.1295H18.1996C18.2745 21.1295 18.3486 21.1148 18.4178 21.0861C18.487 21.0575 18.5499 21.0154 18.6028 20.9624C18.6558 20.9095 18.6978 20.8465 18.7264 20.7773C18.755 20.7081 18.7696 20.6339 18.7696 20.559V14.6685C16.4941 15.4185 13.2972 15.7209 9.98168 14.1016C8.10845 13.1868 6.19635 13.3629 5.22876 13.5675Z" fill="#333333"/>
</svg>
