<svg width="24" height="25" viewBox="0 0 24 25" fill="none" xmlns="http://www.w3.org/2000/svg">
<path d="M18.9607 4.66329H14.2562V3.94353C14.2563 3.86866 14.2417 3.79449 14.2131 3.72529C14.1846 3.65608 14.1426 3.59318 14.0897 3.54019C14.0368 3.48721 13.974 3.44517 13.9048 3.41649C13.8357 3.38781 13.7615 3.37305 13.6867 3.37305H10.3128C10.2379 3.37305 10.1637 3.38781 10.0945 3.41648C10.0253 3.44516 9.96247 3.48719 9.90953 3.54017C9.8566 3.59315 9.81462 3.65604 9.786 3.72525C9.75739 3.79446 9.74269 3.86863 9.74275 3.94353V4.66329H5.03875C4.96391 4.66319 4.88979 4.67785 4.82062 4.70644C4.75145 4.73502 4.6886 4.77696 4.63566 4.82985C4.58272 4.88275 4.54072 4.94557 4.51208 5.01471C4.48344 5.08385 4.46872 5.15797 4.46875 5.23281V6.89649C4.46872 6.97132 4.48344 7.04544 4.51208 7.11458C4.54072 7.18372 4.58272 7.24654 4.63566 7.29944C4.6886 7.35233 4.75145 7.39427 4.82062 7.42285C4.88979 7.45144 4.96391 7.4661 5.03875 7.466H18.9607C19.0355 7.46616 19.1097 7.45154 19.1789 7.42298C19.2481 7.39442 19.311 7.35249 19.3639 7.29958C19.4169 7.24667 19.4589 7.18383 19.4875 7.11465C19.5161 7.04548 19.5308 6.97134 19.5307 6.89649V5.23281C19.5308 5.15795 19.5161 5.08381 19.4875 5.01464C19.4589 4.94547 19.4169 4.88262 19.3639 4.82971C19.311 4.7768 19.2481 4.73487 19.1789 4.70631C19.1097 4.67775 19.0355 4.66313 18.9607 4.66329Z" fill="#BDBDBD"/>
<path fill-rule="evenodd" clip-rule="evenodd" d="M5.79852 8.51562H18.1993C18.2741 8.51547 18.3483 8.53008 18.4175 8.55862C18.4866 8.58717 18.5495 8.62908 18.6025 8.68197C18.6554 8.73485 18.6974 8.79767 18.726 8.86681C18.7547 8.93595 18.7694 9.01007 18.7693 9.08491V13.0407C16.9059 13.7989 13.9377 14.3071 10.8591 12.8036C8.72523 11.7614 6.58917 11.8101 5.22852 12.0336V9.08515C5.22848 9.01031 5.24321 8.9362 5.27185 8.86705C5.30049 8.79791 5.34248 8.73509 5.39542 8.68219C5.44837 8.6293 5.51122 8.58736 5.58039 8.55878C5.64955 8.53019 5.72368 8.51553 5.79852 8.51562ZM5.22852 14.0665V21.058C5.22848 21.1329 5.2432 21.2071 5.27183 21.2763C5.30046 21.3455 5.34244 21.4083 5.39537 21.4613C5.44829 21.5143 5.51114 21.5563 5.58031 21.585C5.64949 21.6137 5.72363 21.6285 5.79852 21.6285H18.1993C18.2742 21.6285 18.3484 21.6138 18.4176 21.5851C18.4868 21.5565 18.5497 21.5144 18.6026 21.4615C18.6555 21.4085 18.6975 21.3456 18.7261 21.2763C18.7547 21.2071 18.7694 21.1329 18.7693 21.058V15.1675C16.4939 15.9176 13.297 16.22 9.98143 14.6007C8.10821 13.6858 6.19611 13.862 5.22852 14.0665Z" fill="#BDBDBD"/>
</svg>
