<svg width="30" height="31" viewBox="0 0 30 31" fill="none" xmlns="http://www.w3.org/2000/svg">
<path fill-rule="evenodd" clip-rule="evenodd" d="M24.2935 21.125H5.70652C5.66693 21.125 5.64017 21.1113 5.625 21.0982V10.9905L12.7001 16.8825C13.9869 17.9557 16.0129 17.9554 17.2999 16.8825L24.375 10.9905V21.0982C24.3598 21.1113 24.3331 21.125 24.2935 21.125ZM22.7845 9.875L16.099 15.4426C15.5076 15.9358 14.4919 15.9354 13.9005 15.4422L7.21549 9.875H22.7845ZM24.2935 23H5.70652C4.63043 23 3.75 22.1562 3.75 21.125V8.9375C3.75 8.42188 4.19022 8 4.72826 8H25.2717C25.8098 8 26.25 8.42188 26.25 8.9375V21.125C26.25 22.1562 25.3696 23 24.2935 23Z" fill="#BDBDBD"/>
</svg>
