<svg width="80" height="80" viewBox="0 0 80 80" fill="none" xmlns="http://www.w3.org/2000/svg">
<path d="M14.4644 35.3037C14.4644 23.1534 24.3141 13.3037 36.4644 13.3037H44.6965C56.8468 13.3037 66.6965 23.1534 66.6965 35.3037V43.5359C66.6965 55.6861 56.8468 65.5359 44.6965 65.5359H36.4643C24.3141 65.5359 14.4644 55.6861 14.4644 43.5359V35.3037Z" fill="#DAF2EB"/>
<path fill-rule="evenodd" clip-rule="evenodd" d="M12.9167 16.2839L16.2841 12.9165L26.659 20.3247C27.0958 20.6366 27.4519 21.0484 27.6973 21.5258C27.9427 22.0032 28.0705 22.5323 28.0699 23.0691V23.3048C28.0695 23.7476 28.1565 24.186 28.3258 24.5951C28.4951 25.0042 28.7434 25.3759 29.0565 25.6889L48.274 44.9064L51.3518 43.8794C51.9451 43.682 52.5815 43.6537 53.1899 43.7977C53.7984 43.9416 54.3547 44.2521 54.7966 44.6943L66.0975 55.9952C66.7288 56.6266 67.0834 57.483 67.0834 58.3759C67.0834 59.2688 66.7288 60.1251 66.0975 60.7566L60.7569 66.0973C60.1254 66.7285 59.269 67.0832 58.3761 67.0832C57.4832 67.0832 56.6269 66.7285 55.9954 66.0973L44.6945 54.7964C44.2523 54.3544 43.9418 53.7981 43.7979 53.1897C43.654 52.5813 43.6823 51.9448 43.8796 51.3516L44.9067 48.2738L25.6892 29.0563C25.0578 28.4247 24.2014 28.0698 23.3084 28.0696H23.0693C22.5331 28.0697 22.0046 27.9417 21.5279 27.6963C21.0511 27.4509 20.6399 27.0951 20.3283 26.6587L12.9167 16.2839ZM51.1498 48.7654C50.8336 48.4493 50.4048 48.2717 49.9577 48.2717C49.5106 48.2717 49.0818 48.4493 48.7657 48.7654C48.4495 49.0816 48.2719 49.5104 48.2719 49.9575C48.2719 50.4046 48.4495 50.8334 48.7657 51.1495L58.8678 61.2516C59.1839 61.5678 59.6127 61.7454 60.0598 61.7454C60.5069 61.7454 60.9357 61.5678 61.2519 61.2516C61.568 60.9355 61.7456 60.5067 61.7456 60.0596C61.7456 59.6125 61.568 59.1837 61.2519 58.8675L51.1498 48.7654Z" fill="#7FD4BA"/>
<path fill-rule="evenodd" clip-rule="evenodd" d="M66.7405 20.4511C67.1998 22.1741 67.1977 23.9875 66.7343 25.7094C66.2709 27.4313 65.3626 29.001 64.1005 30.2609C62.8385 31.5209 61.2671 32.4268 59.5441 32.8877C57.8211 33.3486 56.0071 33.3483 54.2842 32.8868L32.8151 54.0517C33.4549 56.2166 33.3549 58.533 32.5308 60.6347C31.7067 62.7365 30.2055 64.5038 28.2644 65.6573C26.3233 66.8109 24.0531 67.2849 21.8125 67.0045C19.5718 66.7241 17.4885 65.7053 15.8918 64.109C14.295 62.5128 13.2759 60.4301 12.9954 58.1901C12.7149 55.9501 13.1891 53.6806 14.343 51.7401C15.4969 49.7996 17.2647 48.2989 19.3671 47.475C21.4695 46.6511 23.7865 46.5511 25.9521 47.1908L47.12 25.728C46.6525 24.0043 46.648 22.1878 47.107 20.4619C47.566 18.7359 48.4722 17.1615 49.7342 15.8975C50.9962 14.6334 52.5694 13.7245 54.295 13.2624C56.0206 12.8002 57.8376 12.8012 59.5627 13.2653L52.3103 20.5155L53.5428 26.4659L59.4916 27.6979L66.7405 20.4511ZM21.4728 50.9783L23.0742 50.1592L24.6689 50.9783L26.46 51.0663L27.4317 52.5725L28.9384 53.5439L29.0264 55.3345L29.8424 56.9287L29.023 58.5229L28.935 60.3135L27.4283 61.2849L26.4566 62.7911L24.6655 62.8791L23.0709 63.6982L21.4762 62.8791L19.6851 62.7911L18.7134 61.2849L17.2067 60.3135L17.1187 58.5229L16.2993 56.9287L17.1187 55.3345L17.2067 53.5439L18.7134 52.5725L19.6851 51.0663L21.4762 50.9783H21.4728Z" fill="#7FD4BA"/>
</svg>
