<svg width="32" height="32" viewBox="0 0 32 32" fill="none" xmlns="http://www.w3.org/2000/svg">
<path d="M18.3306 16.6648C18.3306 18.2559 16.9862 19.5458 15.3278 19.5458C13.6694 19.5458 12.325 18.2559 12.325 16.6648C12.325 15.0736 13.6694 13.7837 15.3278 13.7837C16.9862 13.7837 18.3306 15.0736 18.3306 16.6648ZM15.3333 10.666C13.6162 10.6736 11.8364 11.0923 10.1515 11.8937C8.90055 12.5133 7.68142 13.3875 6.62315 14.4665C6.10339 15.0173 5.44044 15.8148 5.33325 16.6657C5.34592 17.4028 6.13542 18.3126 6.62315 18.8649C7.61554 19.9015 8.80292 20.7513 10.1515 21.4383C11.7227 22.2019 13.4618 22.6416 15.3333 22.666C17.052 22.6583 18.8314 22.2348 20.5144 21.4383C21.7653 20.8187 22.9851 19.9439 24.0434 18.8649C24.5631 18.3141 25.2261 17.5166 25.3333 16.6657C25.3206 15.9286 24.5311 15.0188 24.0434 14.4664C23.051 13.4298 21.863 12.5807 20.5144 11.8937C18.944 11.1307 17.2006 10.694 15.3333 10.666ZM15.332 12.1556C17.934 12.1556 20.0432 14.1751 20.0432 16.6663C20.0432 19.1575 17.934 21.177 15.332 21.177C12.73 21.177 10.6207 19.1575 10.6207 16.6663C10.6207 14.1751 12.73 12.1556 15.332 12.1556Z" fill="#BDBDBD"/>
</svg>
