<svg width="24" height="24" viewBox="0 0 24 24" fill="none" xmlns="http://www.w3.org/2000/svg">
<path d="M20.25 5.25H11.25V6.75H20.25C20.664 6.75 21 6.414 21 6C21 5.586 20.664 5.25 20.25 5.25Z" fill="#828282"/>
<path d="M3.75 6.75H5.25V8.25C5.25 8.664 5.586 9 6 9H9C9.414 9 9.75 8.664 9.75 8.25V3.75C9.75 3.336 9.414 3 9 3H6C5.586 3 5.25 3.336 5.25 3.75V5.25H3.75C3.336 5.25 3 5.586 3 6C3 6.414 3.336 6.75 3.75 6.75Z" fill="#828282"/>
<path d="M20.25 11.25H18.75V12.75H20.25C20.664 12.75 21 12.414 21 12C21 11.586 20.664 11.25 20.25 11.25Z" fill="#828282"/>
<path d="M3.75 12.75H12.75V14.25C12.75 14.664 13.086 15 13.5 15H16.5C16.914 15 17.25 14.664 17.25 14.25V9.75C17.25 9.336 16.914 9 16.5 9H13.5C13.086 9 12.75 9.336 12.75 9.75V11.25H3.75C3.336 11.25 3 11.586 3 12C3 12.414 3.336 12.75 3.75 12.75Z" fill="#828282"/>
<path d="M20.25 17.25H11.25V18.75H20.25C20.664 18.75 21 18.414 21 18C21 17.586 20.664 17.25 20.25 17.25Z" fill="#828282"/>
<path d="M9 15H6C5.586 15 5.25 15.336 5.25 15.75V17.25H3.75C3.336 17.25 3 17.586 3 18C3 18.414 3.336 18.75 3.75 18.75H5.25V20.25C5.25 20.664 5.586 21 6 21H9C9.414 21 9.75 20.664 9.75 20.25V15.75C9.75 15.336 9.414 15 9 15Z" fill="#828282"/>
</svg>
