<svg width="30" height="30" viewBox="0 0 30 30" fill="none" xmlns="http://www.w3.org/2000/svg">
<path d="M20.2548 11.0054L23.8104 5.71834C23.906 5.57652 23.9148 5.39451 23.8337 5.24438C23.7527 5.09378 23.5947 5 23.4227 5H6.64655C6.38931 5 6.18054 5.20649 6.18054 5.46196V25.788C6.18054 26.0435 6.38931 26.25 6.64655 26.25C6.90378 26.25 7.11255 26.0435 7.11255 25.788V17.0109H23.4227C23.5947 17.0109 23.7527 16.9171 23.8337 16.767C23.9148 16.6168 23.906 16.4343 23.8104 16.293L20.2548 11.0054Z" fill="#7FD4BA"/>
<path fill-rule="evenodd" clip-rule="evenodd" d="M6.18053 5C6.83253 5 7.36108 5.52855 7.36108 6.18056L7.36108 25.0694C7.36108 25.7214 6.83253 26.25 6.18053 26.25C5.52852 26.25 4.99997 25.7214 4.99997 25.0694L4.99997 6.18056C4.99997 5.52855 5.52853 5 6.18053 5Z" fill="#38BC94"/>
</svg>
