<svg xmlns="http://www.w3.org/2000/svg" width="30" height="20" viewBox="0 0 30 20" fill="none">
<path d="M25.6654 4.39984H18.9987V11.8665H1.66536V15.5998H2.9987C2.9987 16.59 3.42013 17.5396 4.17027 18.2397C4.92042 18.9398 5.93783 19.3332 6.9987 19.3332C8.05956 19.3332 9.07698 18.9398 9.82712 18.2397C10.5773 17.5396 10.9987 16.59 10.9987 15.5998H18.9987C18.9987 16.59 19.4201 17.5396 20.1703 18.2397C20.9204 18.9398 21.9378 19.3332 22.9987 19.3332C24.0596 19.3332 25.077 18.9398 25.8271 18.2397C26.5773 17.5396 26.9987 16.59 26.9987 15.5998H29.6654V9.37761L25.6654 4.39984ZM6.9987 17.4665C6.46826 17.4665 5.95956 17.2698 5.58448 16.9198C5.20941 16.5697 4.9987 16.0949 4.9987 15.5998C4.9987 15.1048 5.20941 14.63 5.58448 14.2799C5.95956 13.9298 6.46826 13.7332 6.9987 13.7332C7.52913 13.7332 8.03784 13.9298 8.41291 14.2799C8.78798 14.63 8.9987 15.1048 8.9987 15.5998C8.9987 16.0949 8.78798 16.5697 8.41291 16.9198C8.03784 17.2698 7.52913 17.4665 6.9987 17.4665ZM22.9987 17.4665C22.4683 17.4665 21.9596 17.2698 21.5845 16.9198C21.2094 16.5697 20.9987 16.0949 20.9987 15.5998C20.9987 15.1048 21.2094 14.63 21.5845 14.2799C21.9596 13.9298 22.4683 13.7332 22.9987 13.7332C23.5291 13.7332 24.0378 13.9298 24.4129 14.2799C24.788 14.63 24.9987 15.1048 24.9987 15.5998C24.9987 16.0949 24.788 16.5697 24.4129 16.9198C24.0378 17.2698 23.5291 17.4665 22.9987 17.4665ZM21.6654 9.37761V6.2665H24.9987L27.612 9.37761H21.6654ZM22.9987 3.15539H17.6654V10.6221H2.9987L1.09203 4.39984H0.332031V1.91095H16.332L17.6654 0.666504H22.9987V3.15539Z" fill="#38BC94"/>
</svg>