<svg width="80" height="80" viewBox="0 0 80 80" fill="none" xmlns="http://www.w3.org/2000/svg">
<g clip-path="url(#clip0)">
<path d="M40.0003 10C33.3699 10 27.0111 12.6184 22.3228 17.2792C20.0012 19.5869 18.1596 22.3267 16.9031 25.342C15.6467 28.3572 15 31.5891 15 34.8528C15 38.1166 15.6467 41.3484 16.9031 44.3637C18.1596 47.379 20.0012 50.1187 22.3228 52.4264L40.0003 70L57.6777 52.4264C62.3661 47.7656 65 41.4442 65 34.8528C65 28.2614 62.3661 21.94 57.6777 17.2792C52.9894 12.6184 46.6306 10 40.0003 10Z" fill="#DAF2EB"/>
<path d="M61.4584 28.3854H48.4376V43.2813H14.5834V50.7292H17.1876C17.1876 52.7045 18.0107 54.5989 19.4758 55.9956C20.9409 57.3924 22.9281 58.1771 25.0001 58.1771C27.0721 58.1771 29.0592 57.3924 30.5244 55.9956C31.9895 54.5989 32.8126 52.7045 32.8126 50.7292H48.4376C48.4376 52.7045 49.2607 54.5989 50.7258 55.9956C52.1909 57.3924 54.1781 58.1771 56.2501 58.1771C58.3221 58.1771 60.3092 57.3924 61.7744 55.9956C63.2395 54.5989 64.0626 52.7045 64.0626 50.7292H69.2709V38.316L61.4584 28.3854ZM25.0001 54.4531C23.9641 54.4531 22.9705 54.0608 22.2379 53.3624C21.5054 52.664 21.0938 51.7168 21.0938 50.7292C21.0938 49.7415 21.5054 48.7943 22.2379 48.0959C22.9705 47.3976 23.9641 47.0052 25.0001 47.0052C26.0361 47.0052 27.0297 47.3976 27.7622 48.0959C28.4948 48.7943 28.9063 49.7415 28.9063 50.7292C28.9063 51.7168 28.4948 52.664 27.7622 53.3624C27.0297 54.0608 26.0361 54.4531 25.0001 54.4531ZM56.2501 54.4531C55.2141 54.4531 54.2205 54.0608 53.488 53.3624C52.7554 52.664 52.3438 51.7168 52.3438 50.7292C52.3438 49.7415 52.7554 48.7943 53.488 48.0959C54.2205 47.3976 55.2141 47.0052 56.2501 47.0052C57.2861 47.0052 58.2797 47.3976 59.0122 48.0959C59.7448 48.7943 60.1563 49.7415 60.1563 50.7292C60.1563 51.7168 59.7448 52.664 59.0122 53.3624C58.2797 54.0608 57.2861 54.4531 56.2501 54.4531ZM53.6459 38.316V32.1094H60.1563L65.2605 38.316H53.6459ZM56.2501 25.9028H45.8334V40.7986H17.1876L13.4636 28.3854H11.9792V23.4201H43.2293L45.8334 20.9375H56.2501V25.9028Z" fill="#7FD4BA"/>
</g>
<defs>
<clipPath id="clip0">
<rect width="65" height="65" fill="white" transform="translate(7.5 7.5)"/>
</clipPath>
</defs>
</svg>
