<svg width="27" height="27" viewBox="0 0 27 27" fill="none" xmlns="http://www.w3.org/2000/svg">
<path d="M21.817 11.4215H19.5117V8.88887C19.5117 8.49426 19.2065 8.17546 18.8287 8.17546H12.1051L9.6013 5.67405C9.56944 5.6429 9.52754 5.62539 9.4839 5.625H4.05804C3.68023 5.625 3.375 5.94381 3.375 6.33841V19.5366C3.375 19.9312 3.68023 20.25 4.05804 20.25H18.9568C19.2342 20.25 19.4861 20.0739 19.5907 19.8041L22.4509 12.4024C22.4829 12.3177 22.5 12.2263 22.5 12.1349C22.5 11.7403 22.1948 11.4215 21.817 11.4215ZM17.9749 11.4215H7.08901C6.81152 11.4215 6.55965 11.5976 6.45506 11.8674L4.91183 15.8625V7.23018H8.93534L11.4882 9.78064H17.9749V11.4215Z" fill="#7FD4BA"/>
</svg>
