<svg width="40" height="40" viewBox="0 0 40 40" fill="none" xmlns="http://www.w3.org/2000/svg">
<g clip-path="url(#clip0)">
<path fill-rule="evenodd" clip-rule="evenodd" d="M21.7971 24.1525L25.8359 26.1719L35.1328 21.5234L31.094 19.504L21.7971 24.1525ZM20.5721 23.54L16.5391 21.5234L25.8359 16.875L29.869 18.8915L20.5721 23.54Z" fill="#38BC94"/>
<path d="M25.8359 28.3854L36.4609 22.8516V33.0781L25.8359 38.125V28.3854Z" fill="#38BC94"/>
<path d="M25.8359 28.3854L15.2109 22.8516V33.0781L25.8359 38.125V28.3854Z" fill="#35A684"/>
<path fill-rule="evenodd" clip-rule="evenodd" d="M10.0099 8.90988L13.3359 10.5729L20.9922 6.74478L17.6661 5.08175L10.0099 8.90988ZM9.00103 8.40545L5.67969 6.74478L13.3359 2.91666L16.6573 4.57733L9.00103 8.40545Z" fill="#38BC94"/>
<path d="M13.3359 12.3958L22.0859 7.83853V16.2604L13.3359 20.4167V12.3958Z" fill="#38BC94"/>
<path d="M13.3359 12.3958L4.58594 7.83853V16.2604L13.3359 20.4167V12.3958Z" fill="#35A684"/>
</g>
<defs>
<clipPath id="clip0">
<rect width="40" height="40" fill="white"/>
</clipPath>
</defs>
</svg>
