<svg width="80" height="80" viewBox="0 0 80 80" fill="none" xmlns="http://www.w3.org/2000/svg">
<path d="M14.4644 35.3037C14.4644 23.1534 24.3141 13.3037 36.4644 13.3037H44.6965C56.8468 13.3037 66.6965 23.1534 66.6965 35.3037V43.5359C66.6965 55.6861 56.8468 65.5359 44.6965 65.5359H36.4643C24.3141 65.5359 14.4644 55.6861 14.4644 43.5359V35.3037Z" fill="#DAF2EB"/>
<path d="M19.6886 35.5684C19.1494 35.5684 18.6322 35.7826 18.2508 36.1639C17.8695 36.5453 17.6553 37.0624 17.6553 37.6017V62.3418C17.6553 62.8811 17.8695 63.3983 18.2508 63.7796C18.6322 64.1609 19.1494 64.3752 19.6886 64.3752C20.2279 64.3752 20.7451 64.1609 21.1265 63.7796C21.5078 63.3983 21.722 62.8811 21.722 62.3418V37.6017C21.722 37.0624 21.5078 36.5453 21.1265 36.1639C20.7451 35.7826 20.2279 35.5684 19.6886 35.5684Z" fill="#7FD4BA"/>
<path d="M60.3561 34.8911C59.8168 34.8911 59.2996 35.1053 58.9183 35.4867C58.537 35.868 58.3228 36.3852 58.3228 36.9245V62.3416C58.3228 62.8809 58.537 63.3981 58.9183 63.7795C59.2996 64.1608 59.8168 64.375 60.3561 64.375C60.8954 64.375 61.4126 64.1608 61.7939 63.7795C62.1753 63.3981 62.3895 62.8809 62.3895 62.3416V36.9245C62.3895 36.3852 62.1753 35.868 61.7939 35.4867C61.4126 35.1053 60.8954 34.8911 60.3561 34.8911Z" fill="#7FD4BA"/>
<path d="M46.1224 37.9409H33.9222C33.3607 37.9409 32.9055 38.3961 32.9055 38.9576V49.1245C32.9055 49.686 33.3607 50.1412 33.9222 50.1412H46.1224C46.6839 50.1412 47.1391 49.686 47.1391 49.1245V38.9576C47.1391 38.3961 46.6839 37.9409 46.1224 37.9409Z" fill="#7FD4BA"/>
<path d="M54.256 52.1748H42.0557C41.4942 52.1748 41.0391 52.63 41.0391 53.1915V63.3584C41.0391 63.9199 41.4942 64.375 42.0557 64.375H54.256C54.8175 64.375 55.2727 63.9199 55.2727 63.3584V53.1915C55.2727 52.63 54.8175 52.1748 54.256 52.1748Z" fill="#7FD4BA"/>
<path d="M37.9889 52.1748H25.7887C25.2272 52.1748 24.772 52.63 24.772 53.1915V63.3584C24.772 63.9199 25.2272 64.375 25.7887 64.375H37.9889C38.5504 64.375 39.0056 63.9199 39.0056 63.3584V53.1915C39.0056 52.63 38.5504 52.1748 37.9889 52.1748Z" fill="#7FD4BA"/>
<path d="M63.6652 23.6038L41.4668 15.6859C41.2498 15.6084 41.0131 15.6048 40.7938 15.6757L16.4076 23.6181C16.1744 23.7011 15.9731 23.8553 15.8323 24.0589C15.6915 24.2625 15.6181 24.5052 15.6227 24.7527V31.6661C15.6128 31.9702 15.7239 32.2658 15.9317 32.488C16.1394 32.7102 16.4268 32.841 16.7309 32.8516H63.3134C63.6167 32.8415 63.9037 32.7118 64.1117 32.4909C64.3197 32.2699 64.4319 31.9756 64.4236 31.6722V24.7303C64.4284 24.4873 64.3582 24.2488 64.2224 24.0472C64.0867 23.8456 63.8921 23.6908 63.6652 23.6038Z" fill="#7FD4BA"/>
</svg>
