<svg width="25" height="24" viewBox="0 0 25 24" fill="none" xmlns="http://www.w3.org/2000/svg">
<path d="M1.32031 4C1.32031 2.89543 2.21574 2 3.32031 2H13.0939H17.7902C18.2323 2 18.6618 2.14644 19.0118 2.41644L22.781 5.32407C23.2719 5.70274 23.5594 6.28766 23.5594 6.90763V19.6604V20.9309C23.5594 22.0354 22.6639 22.9309 21.5594 22.9309H6.07328C5.54285 22.9309 5.03414 22.7202 4.65907 22.3451L1.9061 19.5921C1.53103 19.2171 1.32031 18.7083 1.32031 18.1779V15.7359V4Z" fill="#35A684"/>
<rect x="4.83203" y="5.44092" width="18.7276" height="17.5572" rx="2" fill="#38BC94"/>
<path fill-rule="evenodd" clip-rule="evenodd" d="M12.5044 12.7278L14.5 13.7969L19.0938 11.3359L17.0981 10.2668L12.5044 12.7278ZM11.8991 12.4035L9.90625 11.3359L14.5 8.875L16.4928 9.94257L11.8991 12.4035Z" fill="white"/>
<path d="M14.5 14.9688L19.75 12.0391V17.4531L14.5 20.125V14.9688Z" fill="white"/>
<path d="M14.5 14.9688L9.25 12.0391V17.4531L14.5 20.125V14.9688Z" fill="white"/>
</svg>
