<svg width="80" height="80" viewBox="0 0 80 80" fill="none" xmlns="http://www.w3.org/2000/svg">
<path d="M10.2782 47.7782C5.9824 43.4824 5.98241 36.5176 10.2782 32.2218L31.6555 10.8445C35.9513 6.5487 42.9161 6.5487 47.2119 10.8445L68.5892 32.2218C72.885 36.5176 72.885 43.4824 68.5892 47.7782L47.2119 69.1555C42.9161 73.4513 35.9513 73.4513 31.6555 69.1555L10.2782 47.7782Z" fill="#DAF2EB"/>
<path d="M23.2665 28.1853C26.0391 28.1853 28.2867 25.9377 28.2867 23.1652C28.2867 20.3926 26.0391 18.145 23.2665 18.145C20.4939 18.145 18.2463 20.3926 18.2463 23.1652C18.2463 25.9377 20.4939 28.1853 23.2665 28.1853Z" fill="#7FD4BA"/>
<path d="M24.9403 54.9601V38.2263C24.9403 35.7513 25.7167 33.4571 27.032 31.5628C26.8931 31.5545 26.7542 31.5327 26.6137 31.5327H19.9201C16.2286 31.5327 13.2266 34.5348 13.2266 38.2263V48.2666H16.5733V59.9803H28.287V54.9601H24.9403Z" fill="#7FD4BA"/>
<path d="M56.7338 28.1853C59.5063 28.1853 61.7539 25.9377 61.7539 23.1652C61.7539 20.3926 59.5063 18.145 56.7338 18.145C53.9612 18.145 51.7136 20.3926 51.7136 23.1652C51.7136 25.9377 53.9612 28.1853 56.7338 28.1853Z" fill="#7FD4BA"/>
<path d="M55.0604 54.9601V38.2263C55.0604 35.7513 54.2839 33.4571 52.9687 31.5628C53.1076 31.5545 53.2464 31.5327 53.387 31.5327H60.0806C63.772 31.5327 66.7741 34.5348 66.7741 38.2263V48.2666H63.4273V59.9803H51.7136V54.9601H55.0604Z" fill="#7FD4BA"/>
<path d="M43.3466 29.8608H36.6531C32.0395 29.8608 28.2861 33.6142 28.2861 38.2278V51.6149H33.3063V65.002H46.6934V51.6149H51.7135V38.2278C51.7135 33.6142 47.9601 29.8608 43.3466 29.8608Z" fill="#7FD4BA"/>
<path d="M40.0019 26.5121C43.6986 26.5121 46.6954 23.5153 46.6954 19.8185C46.6954 16.1218 43.6986 13.125 40.0019 13.125C36.3052 13.125 33.3083 16.1218 33.3083 19.8185C33.3083 23.5153 36.3052 26.5121 40.0019 26.5121Z" fill="#7FD4BA"/>
</svg>
