<svg width="25" height="24" viewBox="0 0 25 24" fill="none" xmlns="http://www.w3.org/2000/svg">
<path d="M6.80683 8.04775C7.78207 8.04775 8.57265 7.25716 8.57265 6.28193C8.57265 5.3067 7.78207 4.51611 6.80683 4.51611C5.8316 4.51611 5.04102 5.3067 5.04102 6.28193C5.04102 7.25716 5.8316 8.04775 6.80683 8.04775Z" fill="#BDBDBD"/>
<path d="M7.39563 17.4666V11.5805C7.39563 10.7099 7.66874 9.90297 8.13139 9.23667C8.08253 9.23373 8.03368 9.22607 7.98423 9.22607H5.62981C4.33135 9.22607 3.27539 10.282 3.27539 11.5805V15.1121H4.4526V19.2324H8.57284V17.4666H7.39563Z" fill="#BDBDBD"/>
<path d="M18.5783 8.04775C19.5535 8.04775 20.3441 7.25716 20.3441 6.28193C20.3441 5.3067 19.5535 4.51611 18.5783 4.51611C17.6031 4.51611 16.8125 5.3067 16.8125 6.28193C16.8125 7.25716 17.6031 8.04775 18.5783 8.04775Z" fill="#BDBDBD"/>
<path d="M17.9897 17.4666V11.5805C17.9897 10.7099 17.7166 9.90297 17.254 9.23667C17.3028 9.23373 17.3517 9.22607 17.4011 9.22607H19.7555C21.054 9.22607 22.1099 10.282 22.1099 11.5805V15.1121H20.9327V19.2324H16.8125V17.4666H17.9897Z" fill="#BDBDBD"/>
<path d="M13.8697 8.6377H11.5153C9.89251 8.6377 8.57227 9.95794 8.57227 11.5807V16.2896H10.3381V20.9984H15.0469V16.2896H16.8127V11.5807C16.8127 9.95794 15.4925 8.6377 13.8697 8.6377Z" fill="#BDBDBD"/>
<path d="M12.6923 7.46031C13.9926 7.46031 15.0467 6.4062 15.0467 5.10589C15.0467 3.80558 13.9926 2.75146 12.6923 2.75146C11.392 2.75146 10.3379 3.80558 10.3379 5.10589C10.3379 6.4062 11.392 7.46031 12.6923 7.46031Z" fill="#BDBDBD"/>
</svg>
