<svg width="44" height="44" viewBox="0 0 44 44" fill="none" xmlns="http://www.w3.org/2000/svg">
<path d="M36.6667 5.5H23.8334C22.8251 5.5 22.0001 6.325 22.0001 7.33333V23.8333L27.5001 18.3333H36.6667C37.6751 18.3333 38.5001 17.5083 38.5001 16.5V7.33333C38.5001 6.325 37.6751 5.5 36.6667 5.5ZM35.2551 27.9767L30.5984 27.445C29.4801 27.3167 28.3801 27.7017 27.5917 28.49L24.2184 31.8633C19.0301 29.2233 14.7767 24.9883 12.1367 19.7817L15.5284 16.39C16.3167 15.6017 16.7017 14.5017 16.5734 13.3833L16.0417 8.76333C15.8217 6.91167 14.2634 5.51833 12.3934 5.51833H9.22174C7.15008 5.51833 5.42674 7.24167 5.55507 9.31333C6.52674 24.97 19.0484 37.4733 34.6867 38.445C36.7584 38.5733 38.4817 36.85 38.4817 34.7783V31.6067C38.5001 29.755 37.1067 28.1967 35.2551 27.9767Z" fill="#7FD4BA"/>
</svg>
