<svg width="40" height="40" viewBox="0 0 40 40" fill="none" xmlns="http://www.w3.org/2000/svg">
<path d="M30.2761 6.66602H20.5396C19.7746 6.66602 19.1487 7.29193 19.1487 8.05694V20.5752L23.3215 16.4025H30.2761C31.0411 16.4025 31.667 15.7766 31.667 15.0116V8.05694C31.667 7.29193 31.0411 6.66602 30.2761 6.66602ZM29.2051 23.7187L25.6721 23.3154C24.8237 23.218 23.9891 23.5101 23.391 24.1082L20.8317 26.6675C16.8954 24.6646 13.6684 21.4515 11.6655 17.5013L14.2387 14.9281C14.8368 14.33 15.1289 13.4954 15.0316 12.647L14.6282 9.14186C14.4613 7.73703 13.279 6.67992 11.8602 6.67992H9.45395C7.88221 6.67992 6.57474 7.98739 6.6721 9.55914C7.40929 21.4376 16.9093 30.9237 28.7739 31.6609C30.3456 31.7583 31.6531 30.4508 31.6531 28.8791V26.4728C31.667 25.0679 30.6099 23.8856 29.2051 23.7187Z" fill="#4F4F4F"/>
</svg>
