<svg width="26" height="26" viewBox="0 0 26 26" fill="none" xmlns="http://www.w3.org/2000/svg">
<path d="M4.87536 11.2285C4.65965 11.2285 4.45277 11.3142 4.30024 11.4667C4.1477 11.6193 4.06201 11.8262 4.06201 12.0419V21.9379C4.06201 22.1536 4.1477 22.3605 4.30024 22.513C4.45277 22.6655 4.65965 22.7512 4.87536 22.7512C5.09107 22.7512 5.29795 22.6655 5.45049 22.513C5.60302 22.3605 5.68871 22.1536 5.68871 21.9379V12.0419C5.68871 11.8262 5.60302 11.6193 5.45049 11.4667C5.29795 11.3142 5.09107 11.2285 4.87536 11.2285Z" fill="#4F4F4F"/>
<path d="M21.1425 10.957C20.9267 10.957 20.7199 11.0427 20.5673 11.1953C20.4148 11.3478 20.3291 11.5547 20.3291 11.7704V21.9372C20.3291 22.153 20.4148 22.3598 20.5673 22.5124C20.7199 22.6649 20.9267 22.7506 21.1425 22.7506C21.3582 22.7506 21.565 22.6649 21.7176 22.5124C21.8701 22.3598 21.9558 22.153 21.9558 21.9372V11.7704C21.9558 11.5547 21.8701 11.3478 21.7176 11.1953C21.565 11.0427 21.3582 10.957 21.1425 10.957Z" fill="#4F4F4F"/>
<path d="M15.4489 12.1777H10.5688C10.3442 12.1777 10.1621 12.3598 10.1621 12.5844V16.6512C10.1621 16.8758 10.3442 17.0578 10.5688 17.0578H15.4489C15.6735 17.0578 15.8556 16.8758 15.8556 16.6512V12.5844C15.8556 12.3598 15.6735 12.1777 15.4489 12.1777Z" fill="#4F4F4F"/>
<path d="M18.7023 17.8711H13.8222C13.5976 17.8711 13.4155 18.0532 13.4155 18.2778V22.3445C13.4155 22.5691 13.5976 22.7512 13.8222 22.7512H18.7023C18.9269 22.7512 19.109 22.5691 19.109 22.3445V18.2778C19.109 18.0532 18.9269 17.8711 18.7023 17.8711Z" fill="#4F4F4F"/>
<path d="M12.1955 17.8711H7.31537C7.09077 17.8711 6.90869 18.0532 6.90869 18.2778V22.3445C6.90869 22.5691 7.09077 22.7512 7.31537 22.7512H12.1955C12.4201 22.7512 12.6021 22.5691 12.6021 22.3445V18.2778C12.6021 18.0532 12.4201 17.8711 12.1955 17.8711Z" fill="#4F4F4F"/>
<path d="M22.466 6.44251L13.5867 3.27532C13.4999 3.24432 13.4052 3.24289 13.3175 3.27126L3.56297 6.4482C3.46969 6.48142 3.3892 6.5431 3.33287 6.62453C3.27653 6.70597 3.2472 6.80304 3.24902 6.90205V9.66743C3.24507 9.78906 3.28952 9.90728 3.37262 9.99618C3.45572 10.0851 3.57068 10.1374 3.6923 10.1416H22.3253C22.4466 10.1376 22.5614 10.0857 22.6446 9.99732C22.7278 9.90893 22.7727 9.79122 22.7694 9.66987V6.8931C22.7713 6.79591 22.7432 6.70049 22.6889 6.61986C22.6346 6.53922 22.5568 6.47729 22.466 6.44251Z" fill="#4F4F4F"/>
</svg>
