<svg width="25" height="24" viewBox="0 0 25 24" fill="none" xmlns="http://www.w3.org/2000/svg">
<path d="M4.99883 10.3633C4.79971 10.3633 4.60875 10.4424 4.46795 10.5832C4.32715 10.724 4.24805 10.9149 4.24805 11.1141V20.2489C4.24805 20.448 4.32715 20.6389 4.46795 20.7797C4.60875 20.9205 4.79971 20.9996 4.99883 20.9996C5.19795 20.9996 5.38892 20.9205 5.52972 20.7797C5.67051 20.6389 5.74961 20.448 5.74961 20.2489V11.1141C5.74961 10.9149 5.67051 10.724 5.52972 10.5832C5.38892 10.4424 5.19795 10.3633 4.99883 10.3633Z" fill="#38BC94"/>
<path d="M20.0145 10.1133C19.8153 10.1133 19.6244 10.1924 19.4836 10.3332C19.3428 10.474 19.2637 10.6649 19.2637 10.8641V20.2489C19.2637 20.448 19.3428 20.6389 19.4836 20.7797C19.6244 20.9205 19.8153 20.9996 20.0145 20.9996C20.2136 20.9996 20.4045 20.9205 20.5453 20.7797C20.6861 20.6389 20.7652 20.448 20.7652 20.2489V10.8641C20.7652 10.6649 20.6861 10.474 20.5453 10.3332C20.4045 10.1924 20.2136 10.1133 20.0145 10.1133Z" fill="#38BC94"/>
<path d="M14.759 11.2383H10.2543C10.047 11.2383 9.87891 11.4063 9.87891 11.6137V15.3676C9.87891 15.5749 10.047 15.743 10.2543 15.743H14.759C14.9663 15.743 15.1344 15.5749 15.1344 15.3676V11.6137C15.1344 11.4063 14.9663 11.2383 14.759 11.2383Z" fill="#38BC94"/>
<path d="M17.7629 16.4961H13.2582C13.0509 16.4961 12.8828 16.6642 12.8828 16.8715V20.6254C12.8828 20.8327 13.0509 21.0008 13.2582 21.0008H17.7629C17.9702 21.0008 18.1383 20.8327 18.1383 20.6254V16.8715C18.1383 16.6642 17.9702 16.4961 17.7629 16.4961Z" fill="#38BC94"/>
<path d="M11.757 16.4961H7.25235C7.04502 16.4961 6.87695 16.6642 6.87695 16.8715V20.6254C6.87695 20.8327 7.04502 21.0008 7.25235 21.0008H11.757C11.9644 21.0008 12.1324 20.8327 12.1324 20.6254V16.8715C12.1324 16.6642 11.9644 16.4961 11.757 16.4961Z" fill="#38BC94"/>
<path d="M21.237 5.94603L13.0407 3.02247C12.9606 2.99385 12.8732 2.99253 12.7922 3.01872L3.78807 5.95128C3.70197 5.98194 3.62767 6.03888 3.57567 6.11405C3.52367 6.18922 3.49659 6.27883 3.49827 6.37022V8.92288C3.49462 9.03515 3.53565 9.14428 3.61236 9.22634C3.68907 9.30839 3.79519 9.35667 3.90745 9.36059H21.1072C21.2191 9.35686 21.3251 9.30898 21.4019 9.22739C21.4787 9.14581 21.5201 9.03715 21.5171 8.92514V6.36196C21.5189 6.27225 21.4929 6.18417 21.4428 6.10973C21.3927 6.0353 21.3208 5.97813 21.237 5.94603Z" fill="#38BC94"/>
</svg>
