<svg width="24" height="24" viewBox="0 0 24 24" fill="none" xmlns="http://www.w3.org/2000/svg">
<path d="M4.50078 10.3633C4.30166 10.3633 4.1107 10.4424 3.9699 10.5832C3.8291 10.724 3.75 10.9149 3.75 11.1141V20.2489C3.75 20.448 3.8291 20.6389 3.9699 20.7797C4.1107 20.9205 4.30166 20.9996 4.50078 20.9996C4.6999 20.9996 4.89087 20.9205 5.03167 20.7797C5.17247 20.6389 5.25157 20.448 5.25157 20.2489V11.1141C5.25157 10.9149 5.17247 10.724 5.03167 10.5832C4.89087 10.4424 4.6999 10.3633 4.50078 10.3633Z" fill="#BDBDBD"/>
<path d="M19.5164 10.1133C19.3173 10.1133 19.1263 10.1924 18.9855 10.3332C18.8447 10.474 18.7656 10.6649 18.7656 10.8641V20.2489C18.7656 20.448 18.8447 20.6389 18.9855 20.7797C19.1263 20.9205 19.3173 20.9996 19.5164 20.9996C19.7155 20.9996 19.9065 20.9205 20.0473 20.7797C20.1881 20.6389 20.2672 20.448 20.2672 20.2489V10.8641C20.2672 10.6649 20.1881 10.474 20.0473 10.3332C19.9065 10.1924 19.7155 10.1133 19.5164 10.1133Z" fill="#BDBDBD"/>
<path d="M14.2629 11.2402H9.7582C9.55088 11.2402 9.38281 11.4083 9.38281 11.6156V15.3695C9.38281 15.5769 9.55088 15.7449 9.7582 15.7449H14.2629C14.4702 15.7449 14.6383 15.5769 14.6383 15.3695V11.6156C14.6383 11.4083 14.4702 11.2402 14.2629 11.2402Z" fill="#BDBDBD"/>
<path d="M17.2629 16.4961H12.7582C12.5509 16.4961 12.3828 16.6642 12.3828 16.8715V20.6254C12.3828 20.8327 12.5509 21.0008 12.7582 21.0008H17.2629C17.4702 21.0008 17.6383 20.8327 17.6383 20.6254V16.8715C17.6383 16.6642 17.4702 16.4961 17.2629 16.4961Z" fill="#BDBDBD"/>
<path d="M11.259 16.4961H6.7543C6.54697 16.4961 6.37891 16.6642 6.37891 16.8715V20.6254C6.37891 20.8327 6.54697 21.0008 6.7543 21.0008H11.259C11.4663 21.0008 11.6344 20.8327 11.6344 20.6254V16.8715C11.6344 16.6642 11.4663 16.4961 11.259 16.4961Z" fill="#BDBDBD"/>
<path d="M20.739 5.94603L12.5427 3.02247C12.4625 2.99385 12.3752 2.99253 12.2942 3.01872L3.29003 5.95128C3.20392 5.98194 3.12962 6.03888 3.07762 6.11405C3.02562 6.18922 2.99855 6.27883 3.00022 6.37022V8.92288C2.99658 9.03515 3.03761 9.14428 3.11431 9.22634C3.19102 9.30839 3.29714 9.35667 3.4094 9.36059H20.6091C20.7211 9.35686 20.8271 9.30898 20.9039 9.22739C20.9807 9.14581 21.0221 9.03715 21.019 8.92514V6.36196C21.0208 6.27225 20.9949 6.18417 20.9447 6.10973C20.8946 6.0353 20.8228 5.97813 20.739 5.94603Z" fill="#BDBDBD"/>
</svg>
