<svg width="25" height="24" viewBox="0 0 25 24" fill="none" xmlns="http://www.w3.org/2000/svg">
<g clip-path="url(#clip0)">
<path d="M10.808 2.7375C10.352 2.2625 9.74 2 9.104 2H2.9C1.58 2 0.512 3.125 0.512 4.5L0.5 19.5C0.5 20.875 1.58 22 2.9 22H22.1C23.42 22 24.5 20.875 24.5 19.5V7C24.5 5.625 23.42 4.5 22.1 4.5H12.5L10.808 2.7375Z" fill="#35A684"/>
<rect x="0.5" y="5" width="24" height="17" rx="2" fill="#38BC94"/>
<path d="M8.31299 12.4766C8.18854 12.4766 8.06919 12.526 7.98119 12.614C7.89319 12.702 7.84375 12.8214 7.84375 12.9458V18.655C7.84375 18.7795 7.89319 18.8988 7.98119 18.9868C8.06919 19.0748 8.18854 19.1243 8.31299 19.1243C8.43744 19.1243 8.55679 19.0748 8.64479 18.9868C8.73279 18.8988 8.78223 18.7795 8.78223 18.655V12.9458C8.78223 12.8214 8.73279 12.702 8.64479 12.614C8.55679 12.526 8.43744 12.4766 8.31299 12.4766Z" fill="white"/>
<path d="M17.6978 12.3203C17.5733 12.3203 17.454 12.3698 17.366 12.4577C17.278 12.5457 17.2285 12.6651 17.2285 12.7896V18.6551C17.2285 18.7795 17.278 18.8989 17.366 18.9869C17.454 19.0749 17.5733 19.1243 17.6978 19.1243C17.8222 19.1243 17.9416 19.0749 18.0296 18.9869C18.1176 18.8989 18.167 18.7795 18.167 18.6551V12.7896C18.167 12.6651 18.1176 12.5457 18.0296 12.4577C17.9416 12.3698 17.8222 12.3203 17.6978 12.3203Z" fill="white"/>
<path d="M14.4133 13.0273H11.5979C11.4683 13.0273 11.3633 13.1324 11.3633 13.262V15.6082C11.3633 15.7377 11.4683 15.8428 11.5979 15.8428H14.4133C14.5429 15.8428 14.648 15.7377 14.648 15.6082V13.262C14.648 13.1324 14.5429 13.0273 14.4133 13.0273Z" fill="white"/>
<path d="M16.2903 16.3086H13.4749C13.3453 16.3086 13.2402 16.4136 13.2402 16.5432V18.8894C13.2402 19.019 13.3453 19.124 13.4749 19.124H16.2903C16.4199 19.124 16.5249 19.019 16.5249 18.8894V16.5432C16.5249 16.4136 16.4199 16.3086 16.2903 16.3086Z" fill="white"/>
<path d="M12.5364 16.3086H9.72095C9.59137 16.3086 9.48633 16.4136 9.48633 16.5432V18.8894C9.48633 19.019 9.59137 19.124 9.72095 19.124H12.5364C12.666 19.124 12.771 19.019 12.771 18.8894V16.5432C12.771 16.4136 12.666 16.3086 12.5364 16.3086Z" fill="white"/>
<path d="M18.4619 9.71627L13.3392 7.88905C13.2891 7.87116 13.2345 7.87033 13.1839 7.8867L7.55627 9.71955C7.50245 9.73872 7.45601 9.7743 7.42351 9.82128C7.39101 9.86827 7.37409 9.92427 7.37514 9.98139V11.5768C7.37286 11.647 7.3985 11.7152 7.44645 11.7665C7.49439 11.8177 7.56071 11.8479 7.63088 11.8504H18.3807C18.4507 11.848 18.5169 11.8181 18.5649 11.7671C18.6129 11.7161 18.6388 11.6482 18.6369 11.5782V9.97623C18.638 9.92015 18.6218 9.86511 18.5905 9.81858C18.5591 9.77206 18.5142 9.73633 18.4619 9.71627Z" fill="white"/>
</g>
<defs>
<clipPath id="clip0">
<rect width="24" height="24" fill="white" transform="translate(0.5)"/>
</clipPath>
</defs>
</svg>
