<svg width="31" height="30" viewBox="0 0 31 30" fill="none" xmlns="http://www.w3.org/2000/svg">
<path d="M6.12403 12.9541C5.87513 12.9541 5.63642 13.053 5.46042 13.229C5.28442 13.405 5.18555 13.6437 5.18555 13.8926V25.3111C5.18555 25.56 5.28442 25.7987 5.46042 25.9747C5.63642 26.1507 5.87513 26.2495 6.12403 26.2495C6.37293 26.2495 6.61163 26.1507 6.78763 25.9747C6.96363 25.7987 7.06251 25.56 7.06251 25.3111V13.8926C7.06251 13.6437 6.96363 13.405 6.78763 13.229C6.61163 13.053 6.37293 12.9541 6.12403 12.9541Z" fill="#828282"/>
<path d="M24.8936 12.6416C24.6447 12.6416 24.406 12.7405 24.23 12.9165C24.054 13.0925 23.9551 13.3312 23.9551 13.5801V25.3111C23.9551 25.56 24.054 25.7987 24.23 25.9747C24.406 26.1507 24.6447 26.2496 24.8936 26.2496C25.1425 26.2496 25.3812 26.1507 25.5572 25.9747C25.7332 25.7987 25.832 25.56 25.832 25.3111V13.5801C25.832 13.3312 25.7332 13.0925 25.5572 12.9165C25.3812 12.7405 25.1425 12.6416 24.8936 12.6416Z" fill="#828282"/>
<path d="M18.3247 14.0498H12.6938C12.4347 14.0498 12.2246 14.2599 12.2246 14.519V19.2114C12.2246 19.4706 12.4347 19.6807 12.6938 19.6807H18.3247C18.5839 19.6807 18.794 19.4706 18.794 19.2114V14.519C18.794 14.2599 18.5839 14.0498 18.3247 14.0498Z" fill="#828282"/>
<path d="M22.0786 20.6191H16.4478C16.1886 20.6191 15.9785 20.8292 15.9785 21.0884V25.7808C15.9785 26.0399 16.1886 26.25 16.4478 26.25H22.0786C22.3378 26.25 22.5479 26.0399 22.5479 25.7808V21.0884C22.5479 20.8292 22.3378 20.6191 22.0786 20.6191Z" fill="#828282"/>
<path d="M14.5708 20.6191H8.93994C8.68079 20.6191 8.4707 20.8292 8.4707 21.0884V25.7808C8.4707 26.0399 8.68079 26.25 8.93994 26.25H14.5708C14.83 26.25 15.0401 26.0399 15.0401 25.7808V21.0884C15.0401 20.8292 14.83 20.6191 14.5708 20.6191Z" fill="#828282"/>
<path d="M26.4218 7.43253L16.1764 3.77809C16.0762 3.74232 15.967 3.74067 15.8658 3.7734L4.61058 7.4391C4.50295 7.47743 4.41007 7.5486 4.34507 7.64257C4.28007 7.73653 4.24623 7.84854 4.24833 7.96277V11.1536C4.24377 11.2939 4.29506 11.4304 4.39094 11.5329C4.48682 11.6355 4.61948 11.6958 4.7598 11.7007H26.2594C26.3994 11.6961 26.5319 11.6362 26.6279 11.5342C26.7239 11.4323 26.7756 11.2964 26.7718 11.1564V7.95245C26.7741 7.84031 26.7416 7.73021 26.679 7.63717C26.6163 7.54413 26.5265 7.47267 26.4218 7.43253Z" fill="#828282"/>
</svg>
