<svg xmlns="http://www.w3.org/2000/svg" width="26" height="26" viewBox="0 0 26 26" fill="none">
<path d="M4.8739 11.2266C4.65818 11.2266 4.4513 11.3123 4.29877 11.4648C4.14624 11.6173 4.06055 11.8242 4.06055 12.0399V21.9359C4.06055 22.1516 4.14624 22.3585 4.29877 22.5111C4.4513 22.6636 4.65818 22.7493 4.8739 22.7493C5.08961 22.7493 5.29649 22.6636 5.44902 22.5111C5.60155 22.3585 5.68724 22.1516 5.68724 21.9359V12.0399C5.68724 11.8242 5.60155 11.6173 5.44902 11.4648C5.29649 11.3123 5.08961 11.2266 4.8739 11.2266Z" fill="#4F4F4F"/>
<path d="M21.1415 10.9551C20.9258 10.9551 20.7189 11.0408 20.5663 11.1933C20.4138 11.3458 20.3281 11.5527 20.3281 11.7684V21.9353C20.3281 22.151 20.4138 22.3579 20.5663 22.5104C20.7189 22.6629 20.9258 22.7486 21.1415 22.7486C21.3572 22.7486 21.5641 22.6629 21.7166 22.5104C21.8691 22.3579 21.9548 22.151 21.9548 21.9353V11.7684C21.9548 11.5527 21.8691 11.3458 21.7166 11.1933C21.5641 11.0408 21.3572 10.9551 21.1415 10.9551Z" fill="#4F4F4F"/>
<path d="M15.4489 12.1758H10.5688C10.3442 12.1758 10.1621 12.3579 10.1621 12.5825V16.6492C10.1621 16.8738 10.3442 17.0559 10.5688 17.0559H15.4489C15.6735 17.0559 15.8556 16.8738 15.8556 16.6492V12.5825C15.8556 12.3579 15.6735 12.1758 15.4489 12.1758Z" fill="#4F4F4F"/>
<path d="M18.7008 17.8691H13.8207C13.5961 17.8691 13.4141 18.0512 13.4141 18.2758V22.3426C13.4141 22.5672 13.5961 22.7492 13.8207 22.7492H18.7008C18.9254 22.7492 19.1075 22.5672 19.1075 22.3426V18.2758C19.1075 18.0512 18.9254 17.8691 18.7008 17.8691Z" fill="#4F4F4F"/>
<path d="M12.195 17.8691H7.31488C7.09028 17.8691 6.9082 18.0512 6.9082 18.2758V22.3426C6.9082 22.5672 7.09028 22.7492 7.31488 22.7492H12.195C12.4196 22.7492 12.6016 22.5672 12.6016 22.3426V18.2758C12.6016 18.0512 12.4196 17.8691 12.195 17.8691Z" fill="#4F4F4F"/>
<path d="M22.4653 6.44055L13.586 3.27337C13.4991 3.24236 13.4045 3.24093 13.3167 3.2693L3.56224 6.44625C3.46896 6.47946 3.38847 6.54115 3.33213 6.62258C3.2758 6.70402 3.24647 6.80109 3.24829 6.90009V9.66548C3.24434 9.7871 3.28879 9.90533 3.37189 9.99422C3.45499 10.0831 3.56995 10.1354 3.69156 10.1397H22.3246C22.4459 10.1356 22.5607 10.0838 22.6439 9.99537C22.7271 9.90698 22.772 9.78926 22.7687 9.66792V6.89115C22.7706 6.79396 22.7425 6.69854 22.6882 6.6179C22.6339 6.53727 22.5561 6.47533 22.4653 6.44055Z" fill="#4F4F4F"/>
</svg>