<svg width="25" height="24" viewBox="0 0 25 24" fill="none" xmlns="http://www.w3.org/2000/svg">
<path d="M10.6843 17.1843C10.5343 17.3343 10.45 17.5378 10.45 17.75C10.45 17.9622 10.5343 18.1657 10.6843 18.3157C10.8343 18.4657 11.0378 18.55 11.25 18.55H21.25C21.4622 18.55 21.6657 18.4657 21.8157 18.3157C21.9657 18.1657 22.05 17.9622 22.05 17.75C22.05 17.5378 21.9657 17.3343 21.8157 17.1843C21.6657 17.0343 21.4622 16.95 21.25 16.95H11.25C11.0378 16.95 10.8343 17.0343 10.6843 17.1843ZM5.68431 11.1843C5.53429 11.3343 5.45 11.5378 5.45 11.75C5.45 11.9622 5.53429 12.1657 5.68431 12.3157C5.83434 12.4657 6.03783 12.55 6.25 12.55H21.25C21.4622 12.55 21.6657 12.4657 21.8157 12.3157C21.9657 12.1657 22.05 11.9622 22.05 11.75C22.05 11.5378 21.9657 11.3343 21.8157 11.1843C21.6657 11.0343 21.4622 10.95 21.25 10.95H6.25C6.03783 10.95 5.83434 11.0343 5.68431 11.1843ZM2.68431 5.18431C2.53429 5.33434 2.45 5.53783 2.45 5.75C2.45 5.96217 2.53429 6.16566 2.68431 6.31569C2.83434 6.46571 3.03783 6.55 3.25 6.55H21.25C21.4622 6.55 21.6657 6.46571 21.8157 6.31569C21.9657 6.16566 22.05 5.96217 22.05 5.75C22.05 5.53783 21.9657 5.33434 21.8157 5.18431C21.6657 5.03429 21.4622 4.95 21.25 4.95H3.25C3.03783 4.95 2.83434 5.03429 2.68431 5.18431Z" fill="#38BC94" stroke="#38BC94" stroke-width="0.1"/>
</svg>
