<svg width="24" height="24" viewBox="0 0 24 24" fill="none" xmlns="http://www.w3.org/2000/svg">
<path fill-rule="evenodd" clip-rule="evenodd" d="M7.5 17.5C7.5 17.3011 7.57902 17.1103 7.71967 16.9697C7.86032 16.829 8.05109 16.75 8.25 16.75H21.75C21.9489 16.75 22.1397 16.829 22.2803 16.9697C22.421 17.1103 22.5 17.3011 22.5 17.5C22.5 17.6989 22.421 17.8897 22.2803 18.0303C22.1397 18.171 21.9489 18.25 21.75 18.25H8.25C8.05109 18.25 7.86032 18.171 7.71967 18.0303C7.57902 17.8897 7.5 17.6989 7.5 17.5ZM7.5 11.5C7.5 11.3011 7.57902 11.1103 7.71967 10.9697C7.86032 10.829 8.05109 10.75 8.25 10.75H21.75C21.9489 10.75 22.1397 10.829 22.2803 10.9697C22.421 11.1103 22.5 11.3011 22.5 11.5C22.5 11.6989 22.421 11.8897 22.2803 12.0303C22.1397 12.171 21.9489 12.25 21.75 12.25H8.25C8.05109 12.25 7.86032 12.171 7.71967 12.0303C7.57902 11.8897 7.5 11.6989 7.5 11.5ZM7.5 5.5C7.5 5.30109 7.57902 5.11032 7.71967 4.96967C7.86032 4.82902 8.05109 4.75 8.25 4.75H21.75C21.9489 4.75 22.1397 4.82902 22.2803 4.96967C22.421 5.11032 22.5 5.30109 22.5 5.5C22.5 5.69891 22.421 5.88968 22.2803 6.03033C22.1397 6.17098 21.9489 6.25 21.75 6.25H8.25C8.05109 6.25 7.86032 6.17098 7.71967 6.03033C7.57902 5.88968 7.5 5.69891 7.5 5.5ZM3 7C3.39782 7 3.77936 6.84196 4.06066 6.56066C4.34196 6.27936 4.5 5.89782 4.5 5.5C4.5 5.10218 4.34196 4.72064 4.06066 4.43934C3.77936 4.15804 3.39782 4 3 4C2.60218 4 2.22064 4.15804 1.93934 4.43934C1.65804 4.72064 1.5 5.10218 1.5 5.5C1.5 5.89782 1.65804 6.27936 1.93934 6.56066C2.22064 6.84196 2.60218 7 3 7ZM3 13C3.39782 13 3.77936 12.842 4.06066 12.5607C4.34196 12.2794 4.5 11.8978 4.5 11.5C4.5 11.1022 4.34196 10.7206 4.06066 10.4393C3.77936 10.158 3.39782 10 3 10C2.60218 10 2.22064 10.158 1.93934 10.4393C1.65804 10.7206 1.5 11.1022 1.5 11.5C1.5 11.8978 1.65804 12.2794 1.93934 12.5607C2.22064 12.842 2.60218 13 3 13ZM3 19C3.39782 19 3.77936 18.842 4.06066 18.5607C4.34196 18.2794 4.5 17.8978 4.5 17.5C4.5 17.1022 4.34196 16.7206 4.06066 16.4393C3.77936 16.158 3.39782 16 3 16C2.60218 16 2.22064 16.158 1.93934 16.4393C1.65804 16.7206 1.5 17.1022 1.5 17.5C1.5 17.8978 1.65804 18.2794 1.93934 18.5607C2.22064 18.842 2.60218 19 3 19Z" fill="#BDBDBD"/>
</svg>
