<svg width="27" height="27" viewBox="0 0 27 27" fill="none" xmlns="http://www.w3.org/2000/svg">
<path d="M13.5 2.25C9.14625 2.25 5.625 5.77125 5.625 10.125C5.625 14.8162 10.5975 21.285 12.645 23.7488C13.095 24.2888 13.9163 24.2888 14.3663 23.7488C16.4025 21.285 21.375 14.8162 21.375 10.125C21.375 5.77125 17.8538 2.25 13.5 2.25ZM13.5 12.9375C11.9475 12.9375 10.6875 11.6775 10.6875 10.125C10.6875 8.5725 11.9475 7.3125 13.5 7.3125C15.0525 7.3125 16.3125 8.5725 16.3125 10.125C16.3125 11.6775 15.0525 12.9375 13.5 12.9375Z" fill="#7FD4BA"/>
</svg>
