<svg width="204" height="70" viewBox="0 0 204 70" fill="none" xmlns="http://www.w3.org/2000/svg">
<g filter="url(#filter0_d)">
<path d="M35 58.2051L10 43.6987V49.5L35 64L60 49.5V32.1026L35 46.6026L15.0026 35V23.4038L35 11.8013L55.0038 23.4038L35 35L25.0013 29.1987L29.9974 26.3013L35 29.1987L44.9987 23.4038L35 17.6026L19.9987 26.3013V32.1026L35 40.8013L60 26.3013V20.5L35 6L10 20.5V37.9038L35 52.4038L55.0038 40.8013V46.6026L35 58.2051Z" fill="#7FD4BA"/>
</g>
<path d="M83.8555 57H88.7461V56.1406H84.8242V53.4219H88.4336V52.5625H84.8242V49.8594H88.6836V49H83.8555V57ZM98.7734 49H97.8203V55.2969H97.7422L93.3672 49H92.4297V57H93.3984V50.7187H93.4766L97.8359 57H98.7734V49ZM103.04 49H102.024L104.962 57H105.962L108.899 49H107.884L105.509 55.7344H105.415L103.04 49ZM113.114 49H112.146V57H113.114V49ZM117.057 57H118.025V53.875H119.775C119.846 53.875 119.912 53.875 119.979 53.8711L121.666 57H122.791L120.982 53.6953C122.002 53.3477 122.479 52.5156 122.479 51.4531C122.479 50.0391 121.635 49 119.76 49H117.057V57ZM118.025 53V49.8594H119.729C121.025 49.8594 121.525 50.4922 121.525 51.4531C121.525 52.4141 121.025 53 119.744 53H118.025ZM132.843 53C132.843 50.4688 131.358 48.8906 129.312 48.8906C127.265 48.8906 125.78 50.4688 125.78 53C125.78 55.5312 127.265 57.1094 129.312 57.1094C131.358 57.1094 132.843 55.5312 132.843 53ZM131.905 53C131.905 55.0781 130.765 56.2031 129.312 56.2031C127.858 56.2031 126.718 55.0781 126.718 53C126.718 50.9219 127.858 49.7969 129.312 49.7969C130.765 49.7969 131.905 50.9219 131.905 53ZM142.815 49H141.862V55.2969H141.784L137.409 49H136.472V57H137.44V50.7187H137.519L141.878 57H142.815V49ZM146.754 49V57H147.66V50.9219H147.738L150.238 57H151.113L153.613 50.9219H153.691V57H154.598V49H153.441L150.723 55.6406H150.629L147.91 49H146.754ZM158.54 57H163.431V56.1406H159.509V53.4219H163.118V52.5625H159.509V49.8594H163.368V49H158.54V57ZM173.458 49H172.505V55.2969H172.427L168.052 49H167.114V57H168.083V50.7187H168.161L172.521 57H173.458V49ZM176.959 49.8594H179.475V57H180.443V49.8594H182.959V49H176.959V49.8594ZM185.848 57L186.652 54.7344H189.887L190.691 57H191.707L188.77 49H187.77L184.832 57H185.848ZM186.957 53.875L188.238 50.2656H188.301L189.582 53.875H186.957ZM194.953 57H199.641V56.1406H195.922V49H194.953V57Z" fill="#F9FBFB"/>
<path d="M82.8963 41H97.6406V37.1967H87.5092V31.9872H96.8416V28.1839H87.5092V22.9851H97.598V19.1818H82.8963V41ZM105.765 41H110.378V33.2656H113.745L117.878 41H122.971L118.336 32.5199C120.819 31.4545 122.193 29.2919 122.193 26.3089C122.193 21.973 119.327 19.1818 114.373 19.1818H105.765V41ZM110.378 29.5582V22.9531H113.489C116.153 22.9531 117.442 24.1357 117.442 26.3089C117.442 28.4716 116.153 29.5582 113.51 29.5582H110.378ZM137.687 41C144.335 41 148.362 36.8878 148.362 30.0696C148.362 23.2727 144.335 19.1818 137.751 19.1818H129.953V41H137.687ZM134.566 37.0476V23.1342H137.506C141.597 23.1342 143.76 25.2223 143.76 30.0696C143.76 34.9382 141.597 37.0476 137.496 37.0476H134.566ZM176.329 30.0909C176.329 22.9531 171.897 18.8835 166.112 18.8835C160.295 18.8835 155.896 22.9531 155.896 30.0909C155.896 37.1967 160.295 41.2983 166.112 41.2983C171.897 41.2983 176.329 37.2287 176.329 30.0909ZM171.652 30.0909C171.652 34.7145 169.457 37.218 166.112 37.218C162.756 37.218 160.572 34.7145 160.572 30.0909C160.572 25.4673 162.756 22.9638 166.112 22.9638C169.457 22.9638 171.652 25.4673 171.652 30.0909ZM196.082 25.4567H200.503C200.439 21.5682 197.243 18.8835 192.385 18.8835C187.602 18.8835 184.097 21.5256 184.118 25.4886C184.107 28.706 186.377 30.549 190.063 31.4332L192.438 32.0298C194.814 32.6051 196.135 33.2869 196.146 34.7571C196.135 36.3551 194.622 37.4418 192.279 37.4418C189.882 37.4418 188.156 36.3338 188.007 34.1499H183.543C183.66 38.8693 187.037 41.3089 192.332 41.3089C197.659 41.3089 200.791 38.7628 200.801 34.7678C200.791 31.1349 198.053 29.2067 194.26 28.3544L192.3 27.8857C190.404 27.4489 188.816 26.7457 188.848 25.1797C188.848 23.7734 190.095 22.7401 192.353 22.7401C194.558 22.7401 195.911 23.7415 196.082 25.4567Z" fill="#F9FBFB"/>
<defs>
<filter id="filter0_d" x="4" y="0" width="62" height="70" filterUnits="userSpaceOnUse" color-interpolation-filters="sRGB">
<feFlood flood-opacity="0" result="BackgroundImageFix"/>
<feColorMatrix in="SourceAlpha" type="matrix" values="0 0 0 0 0 0 0 0 0 0 0 0 0 0 0 0 0 0 127 0"/>
<feOffset/>
<feGaussianBlur stdDeviation="3"/>
<feColorMatrix type="matrix" values="0 0 0 0 0 0 0 0 0 0 0 0 0 0 0 0 0 0 0.25 0"/>
<feBlend mode="normal" in2="BackgroundImageFix" result="effect1_dropShadow"/>
<feBlend mode="normal" in="SourceGraphic" in2="effect1_dropShadow" result="shape"/>
</filter>
</defs>
</svg>
