<svg width="80" height="80" viewBox="0 0 80 80" fill="none" xmlns="http://www.w3.org/2000/svg">
<rect x="9.99744" y="12.998" width="23.9851" height="23.9851" fill="white"/>
<rect x="45.9751" y="42.9795" width="23.9851" height="23.9851" fill="white"/>
<path fill-rule="evenodd" clip-rule="evenodd" d="M16.6641 56.3046C16.6641 59.9819 19.6452 62.9629 23.3225 62.9629C26.9998 62.9629 29.9809 59.9819 29.9809 56.3046C29.9809 52.6272 26.9998 49.6462 23.3225 49.6462C19.6452 49.6462 16.6641 52.6272 16.6641 56.3046ZM23.3225 42.9795C15.9633 42.9795 9.99744 48.9453 9.99744 56.3046C9.99744 63.6638 15.9633 69.6296 23.3225 69.6296C30.6817 69.6296 36.6475 63.6638 36.6475 56.3046C36.6475 48.9453 30.6817 42.9795 23.3225 42.9795Z" fill="white"/>
<path fill-rule="evenodd" clip-rule="evenodd" d="M52.9769 24.9907C52.9769 27.747 55.2113 29.9814 57.9676 29.9814C60.7239 29.9814 62.9583 27.747 62.9583 24.9907C62.9583 22.2344 60.7239 20 57.9676 20C55.2113 20 52.9769 22.2344 52.9769 24.9907ZM57.9676 10C49.6885 10 42.9769 16.7116 42.9769 24.9907C42.9769 33.2698 49.6885 39.9814 57.9676 39.9814C66.2467 39.9814 72.9583 33.2698 72.9583 24.9907C72.9583 16.7116 66.2467 10 57.9676 10Z" fill="white"/>
<path fill-rule="evenodd" clip-rule="evenodd" d="M19.9845 46.6442L19.9845 36.6504L26.6511 36.6504L26.6511 46.6442L19.9845 46.6442Z" fill="white"/>
<path fill-rule="evenodd" clip-rule="evenodd" d="M48.9727 27.9889H27.9857V21.3223H48.9727V27.9889Z" fill="white"/>
<path fill-rule="evenodd" clip-rule="evenodd" d="M60.9674 36.3172L60.9674 46.311L54.3008 46.311L54.3008 36.3172L60.9674 36.3172Z" fill="white"/>
</svg>
