<svg width="24" height="24" viewBox="0 0 24 24" fill="none" xmlns="http://www.w3.org/2000/svg">
<rect x="3" y="3.89941" width="7.19553" height="7.19553" fill="#4F4F4F"/>
<rect x="13.793" y="12.8938" width="7.19553" height="7.19553" fill="#4F4F4F"/>
<path fill-rule="evenodd" clip-rule="evenodd" d="M5 16.8913C5 17.9945 5.89432 18.8888 6.99752 18.8888C8.10072 18.8888 8.99503 17.9945 8.99503 16.8913C8.99503 15.7881 8.10072 14.8938 6.99752 14.8938C5.89432 14.8938 5 15.7881 5 16.8913ZM6.99752 12.8938C4.78975 12.8938 3 14.6835 3 16.8913C3 19.0991 4.78975 20.8888 6.99752 20.8888C9.20529 20.8888 10.995 19.0991 10.995 16.8913C10.995 14.6835 9.20529 12.8938 6.99752 12.8938Z" fill="#4F4F4F"/>
<path fill-rule="evenodd" clip-rule="evenodd" d="M15.8945 7.49721C15.8945 8.32409 16.5649 8.99441 17.3917 8.99441C18.2186 8.99441 18.8889 8.32409 18.8889 7.49721C18.8889 6.67032 18.2186 6 17.3917 6C16.5649 6 15.8945 6.67032 15.8945 7.49721ZM17.3917 3C14.908 3 12.8945 5.01347 12.8945 7.49721C12.8945 9.98095 14.908 11.9944 17.3917 11.9944C19.8755 11.9944 21.8889 9.98095 21.8889 7.49721C21.8889 5.01347 19.8755 3 17.3917 3Z" fill="#4F4F4F"/>
<path fill-rule="evenodd" clip-rule="evenodd" d="M5.99609 13.9933L5.99609 10.9951L7.99609 10.9951L7.99609 13.9933L5.99609 13.9933Z" fill="#4F4F4F"/>
<path fill-rule="evenodd" clip-rule="evenodd" d="M14.6926 8.39673H8.39648V6.39673H14.6926V8.39673Z" fill="#4F4F4F"/>
<path fill-rule="evenodd" clip-rule="evenodd" d="M18.291 10.8952L18.291 13.8933L16.291 13.8933L16.291 10.8952L18.291 10.8952Z" fill="#4F4F4F"/>
</svg>
