<svg width="24" height="25" viewBox="0 0 24 25" fill="none" xmlns="http://www.w3.org/2000/svg">
<path d="M20.6123 17.3016C20.6123 17.3016 20.6237 16.3026 20.6094 15.8503C20.5923 15.3329 20.9312 15.3272 21.3073 15.3282C21.6795 15.3301 22.0147 15.3235 22.0089 15.8465C21.9947 17.0208 22.0042 19.4003 22.0042 19.4003H13.8174V17.3025H20.6123V17.3016ZM15.2893 17.6277C15.1017 17.6277 14.9513 17.6277 14.7752 17.6277C14.7752 18.1705 14.7752 18.4523 14.7752 19.0036C14.9503 19.0036 15.1103 19.0036 15.2893 19.0036C15.2893 18.4617 15.2893 18.1931 15.2893 17.6277ZM18.4577 19.0036C18.4577 18.424 18.4577 18.1714 18.4577 17.6277C18.2816 17.6277 18.134 17.6277 17.9617 17.6277C17.9617 18.178 17.9617 18.456 17.9617 19.0036C18.1264 19.0121 18.2635 18.9932 18.4577 19.0036ZM16.3813 17.6277C16.3813 17.9735 16.3813 18.1865 16.3813 18.4937C16.5641 18.4937 16.7126 18.4937 16.8678 18.4937C16.8678 18.1592 16.8678 17.9462 16.8678 17.6277C16.6936 17.6277 16.5536 17.6277 16.3813 17.6277ZM19.5583 17.6277C19.5583 17.9792 19.5583 18.1875 19.5583 18.4937C19.7459 18.4937 19.8982 18.4937 20.0505 18.4937C20.0505 18.1564 20.0505 17.9434 20.0505 17.6277C19.8782 17.6277 19.7383 17.6277 19.5583 17.6277Z" fill="#BDBDBD"/>
<path fill-rule="evenodd" clip-rule="evenodd" d="M2.17412 17.4091C2.3017 18.9867 3.07096 19.6549 4.68947 19.7812C6.6631 19.9348 14.1501 19.963 15.9105 19.9593C16.4256 19.9574 16.5598 19.8217 16.5636 19.3184C16.5684 18.5645 16.5674 17.8115 16.5646 17.0576C16.5628 16.5471 16.5706 16.0359 16.5784 15.5247C16.5959 14.3722 16.6134 13.2198 16.5217 12.076C16.2275 8.40719 13.1971 5.64216 9.46597 5.50456C5.93001 5.37451 2.57113 8.03871 2.13223 11.5963C1.89612 13.5056 2.01798 15.48 2.17412 17.4091ZM4.90763 13.2055C4.90763 15.6313 6.85514 17.5791 9.27675 17.5757C11.6551 17.5724 13.617 15.648 13.6303 13.3067C13.6447 10.7986 11.7117 8.83971 9.23788 8.85305C6.84292 8.86639 4.90763 10.8119 4.90763 13.2055Z" fill="#BDBDBD"/>
<path d="M9.27515 16.6047C7.39168 16.6073 5.87695 15.0923 5.87695 13.2056C5.87695 11.3439 7.38218 9.83074 9.24493 9.82037C11.169 9.80999 12.6725 11.3336 12.6613 13.2843C12.6509 15.1053 11.1249 16.6021 9.27515 16.6047Z" fill="#BDBDBD"/>
</svg>
