<svg width="16" height="16" viewBox="0 0 16 16" fill="none" xmlns="http://www.w3.org/2000/svg">
<path d="M7.70768 10.7503C7.17841 10.7503 6.74935 11.1794 6.74935 11.7087C6.74935 12.2379 7.17841 12.667 7.70768 12.667C8.23696 12.667 8.66602 12.2379 8.66602 11.7087C8.66602 11.1794 8.23696 10.7503 7.70768 10.7503Z" fill="#828282"/>
<path d="M7.70768 6.91732C7.17841 6.91732 6.74935 7.34638 6.74935 7.87565C6.74935 8.40492 7.17841 8.83398 7.70768 8.83398C8.23696 8.83398 8.66602 8.40492 8.66602 7.87565C8.66602 7.34638 8.23696 6.91732 7.70768 6.91732Z" fill="#828282"/>
<path d="M7.70768 3.08333C7.17841 3.08333 6.74935 3.51239 6.74935 4.04167C6.74935 4.57094 7.17841 5 7.70768 5C8.23696 5 8.66602 4.57094 8.66602 4.04167C8.66602 3.51239 8.23696 3.08333 7.70768 3.08333Z" fill="#828282"/>
</svg>
