<svg width="24" height="24" viewBox="0 0 24 24" fill="none" xmlns="http://www.w3.org/2000/svg">
<path d="M5.04289 10.0429C4.85536 10.2304 4.75 10.4848 4.75 10.75C4.75 11.0152 4.85536 11.2696 5.04289 11.4571C5.23043 11.6446 5.48478 11.75 5.75 11.75H20.75C21.0152 11.75 21.2696 11.6446 21.4571 11.4571C21.6446 11.2696 21.75 11.0152 21.75 10.75C21.75 10.4848 21.6446 10.2304 21.4571 10.0429C21.2696 9.85536 21.0152 9.75 20.75 9.75H5.75C5.48478 9.75 5.23043 9.85536 5.04289 10.0429ZM2.04289 4.04289C1.85536 4.23043 1.75 4.48478 1.75 4.75C1.75 5.01522 1.85536 5.26957 2.04289 5.45711C2.23043 5.64464 2.48478 5.75 2.75 5.75H20.75C21.0152 5.75 21.2696 5.64464 21.4571 5.45711C21.6446 5.26957 21.75 5.01522 21.75 4.75C21.75 4.48478 21.6446 4.23043 21.4571 4.04289C21.2696 3.85536 21.0152 3.75 20.75 3.75H2.75C2.48478 3.75 2.23043 3.85536 2.04289 4.04289Z" fill="#38BC94" stroke="#38BC94" stroke-width="0.5"/>
<path fill-rule="evenodd" clip-rule="evenodd" d="M9 12V15.5C9 17.1569 10.3431 18.5 12 18.5H14V17.5H12C10.8954 17.5 10 16.6046 10 15.5V12H9Z" fill="#38BC94"/>
<circle cx="17" cy="18" r="4" fill="#38BC94"/>
<path d="M16.6006 20H17.3964V18.3964H19V17.6006H17.3964V16H16.6006V17.6006H15V18.3964H16.6006V20Z" fill="white"/>
</svg>
