<svg width="25" height="24" viewBox="0 0 25 24" fill="none" xmlns="http://www.w3.org/2000/svg">
<path d="M19.4607 4.16304H14.7562V3.44328C14.7563 3.36841 14.7417 3.29425 14.7131 3.22504C14.6846 3.15583 14.6426 3.09294 14.5897 3.03995C14.5368 2.98696 14.474 2.94493 14.4048 2.91625C14.3357 2.88757 14.2615 2.8728 14.1867 2.8728H10.8128C10.7379 2.8728 10.6637 2.88756 10.5945 2.91624C10.5253 2.94491 10.4625 2.98694 10.4095 3.03992C10.3566 3.0929 10.3146 3.15579 10.286 3.22501C10.2574 3.29422 10.2427 3.36839 10.2428 3.44328V4.16304H5.53875C5.46391 4.16295 5.38979 4.17761 5.32062 4.20619C5.25145 4.23477 5.1886 4.27671 5.13566 4.32961C5.08272 4.38251 5.04072 4.44533 5.01208 4.51447C4.98344 4.58361 4.96872 4.65772 4.96875 4.73256V6.39624C4.96872 6.47108 4.98344 6.54519 5.01208 6.61433C5.04072 6.68348 5.08272 6.7463 5.13566 6.79919C5.1886 6.85209 5.25145 6.89403 5.32062 6.92261C5.38979 6.95119 5.46391 6.96586 5.53875 6.96576H19.4607C19.5355 6.96592 19.6097 6.9513 19.6789 6.92274C19.7481 6.89418 19.811 6.85224 19.8639 6.79933C19.9169 6.74642 19.9589 6.68358 19.9875 6.61441C20.0161 6.54524 20.0308 6.4711 20.0307 6.39624V4.73256C20.0308 4.6577 20.0161 4.58356 19.9875 4.51439C19.9589 4.44522 19.9169 4.38238 19.8639 4.32947C19.811 4.27656 19.7481 4.23462 19.6789 4.20606C19.6097 4.1775 19.5355 4.16288 19.4607 4.16304Z" fill="#BDBDBD"/>
<path fill-rule="evenodd" clip-rule="evenodd" d="M6.29852 8.01563H18.6993C18.7741 8.01547 18.8483 8.03008 18.9175 8.05863C18.9866 8.08717 19.0495 8.12909 19.1025 8.18197C19.1554 8.23485 19.1974 8.29767 19.226 8.36681C19.2547 8.43596 19.2694 8.51007 19.2693 8.58491V12.5407C17.4059 13.2989 14.4377 13.8071 11.3591 12.3036C9.22523 11.2614 7.08917 11.3101 5.72852 11.5336V8.58515C5.72848 8.51031 5.74321 8.4362 5.77185 8.36705C5.80049 8.29791 5.84248 8.23509 5.89542 8.1822C5.94837 8.1293 6.01122 8.08736 6.08039 8.05878C6.14955 8.0302 6.22368 8.01553 6.29852 8.01563ZM5.72852 13.5665V20.558C5.72848 20.6329 5.7432 20.7071 5.77183 20.7763C5.80046 20.8455 5.84244 20.9083 5.89537 20.9613C5.94829 21.0143 6.01114 21.0563 6.08031 21.085C6.14949 21.1137 6.22363 21.1285 6.29852 21.1285H18.6993C18.7742 21.1285 18.8484 21.1138 18.9176 21.0851C18.9868 21.0565 19.0497 21.0144 19.1026 20.9615C19.1555 20.9085 19.1975 20.8456 19.2261 20.7763C19.2547 20.7071 19.2694 20.6329 19.2693 20.558V14.6675C16.9939 15.4176 13.797 15.72 10.4814 14.1007C8.60821 13.1858 6.69611 13.362 5.72852 13.5665Z" fill="#BDBDBD"/>
</svg>
