<svg width="16" height="15" viewBox="0 0 16 15" fill="none" xmlns="http://www.w3.org/2000/svg">
<path d="M14.6654 0H8.82357C8.36456 0 7.98902 0.375549 7.98902 0.834554V8.34554L10.4927 5.84188H14.6654C15.1245 5.84188 15.5 5.46633 15.5 5.00732V0.834554C15.5 0.375549 15.1245 0 14.6654 0ZM14.0228 10.2316L11.9031 9.98961C11.394 9.93119 10.8933 10.1064 10.5344 10.4653L8.99883 12.0009C6.63704 10.7991 4.70087 8.87131 3.49911 6.50118L5.04304 4.95725C5.4019 4.59839 5.57715 4.09766 5.51873 3.58858L5.27671 1.48551C5.17657 0.642607 4.4672 0.00834553 3.61595 0.00834553H2.17217C1.22913 0.00834553 0.444647 0.792826 0.503066 1.73587C0.945379 8.86296 6.64538 14.5546 13.7641 14.9969C14.7072 15.0554 15.4917 14.2709 15.4917 13.3278V11.884C15.5 11.0411 14.8657 10.3318 14.0228 10.2316Z" fill="#BDBDBD"/>
</svg>
