<svg width="24" height="25" viewBox="0 0 24 25" fill="none" xmlns="http://www.w3.org/2000/svg">
<path d="M19 3.5H5C3.897 3.5 3 4.397 3 5.5V19.5C3 20.603 3.897 21.5 5 21.5H13C13.1313 21.5002 13.2614 21.4744 13.3828 21.4241C13.5041 21.3738 13.6143 21.3 13.707 21.207L20.707 14.207C20.7892 14.1217 20.8556 14.0225 20.903 13.914C20.917 13.884 20.925 13.853 20.936 13.821C20.9645 13.7373 20.9816 13.6502 20.987 13.562C20.989 13.541 21 13.521 21 13.5V5.5C21 4.397 20.103 3.5 19 3.5ZM5 5.5H19V12.5H13C12.7348 12.5 12.4804 12.6054 12.2929 12.7929C12.1054 12.9804 12 13.2348 12 13.5V19.5H5V5.5ZM14 18.086V14.5H17.586L14 18.086Z" fill="#828282"/>
</svg>
