<svg width="30" height="31" viewBox="0 0 30 31" fill="none" xmlns="http://www.w3.org/2000/svg">
<path fill-rule="evenodd" clip-rule="evenodd" d="M3.75 14.5V24.25C3.75 25.6287 4.87125 26.75 6.25 26.75H16.25C16.4142 26.7502 16.5768 26.718 16.7285 26.6551C16.8801 26.5923 17.0179 26.5001 17.1337 26.3838L25.8838 17.6337C25.9865 17.5272 26.0695 17.4032 26.1287 17.2675C26.141 17.2412 26.1496 17.2142 26.1584 17.1867C26.1621 17.175 26.1659 17.1632 26.17 17.1512C26.2056 17.0467 26.227 16.9378 26.2337 16.8275C26.2349 16.8157 26.2383 16.8041 26.2417 16.7925C26.2459 16.7784 26.25 16.7644 26.25 16.75V6.75C26.25 5.37125 25.1287 4.25 23.75 4.25H14V6.75H23.75V15.5H16.25C15.9185 15.5 15.6005 15.6317 15.3661 15.8661C15.1317 16.1005 15 16.4185 15 16.75V24.25H6.25V14.5H3.75ZM17.5 18V22.4825L21.9825 18H17.5Z" fill="#828282"/>
<path d="M9.15152 15.5H10.8485V11.3485H15V9.65152H10.8485V5.5H9.15152V9.65152H5V11.3485H9.15152V15.5Z" fill="#828282"/>
</svg>
