<svg width="24" height="24" viewBox="0 0 24 24" fill="none" xmlns="http://www.w3.org/2000/svg">
<path fill-rule="evenodd" clip-rule="evenodd" d="M3 11.2V19C3 20.103 3.897 21 5 21H13C13.1313 21.0002 13.2614 20.9744 13.3828 20.9241C13.5041 20.8738 13.6143 20.8 13.707 20.707L20.707 13.707C20.7892 13.6217 20.8556 13.5225 20.903 13.414C20.9128 13.3929 20.9197 13.3714 20.9267 13.3493C20.9297 13.34 20.9327 13.3305 20.936 13.321C20.9645 13.2373 20.9816 13.1502 20.987 13.062C20.9879 13.0525 20.9906 13.0432 20.9934 13.034C20.9967 13.0227 21 13.0115 21 13V5C21 3.897 20.103 3 19 3H11.2V5H19V12H13C12.7348 12 12.4804 12.1054 12.2929 12.2929C12.1054 12.4804 12 12.7348 12 13V19H5V11.2H3ZM14 14V17.586L17.586 14H14Z" fill="#BDBDBD"/>
<path d="M7.32121 12H8.67879V8.67879H12V7.32121H8.67879V4H7.32121V7.32121H4V8.67879H7.32121V12Z" fill="#BDBDBD"/>
</svg>
