<svg width="24" height="24" viewBox="0 0 24 24" fill="none" xmlns="http://www.w3.org/2000/svg">
<path fill-rule="evenodd" clip-rule="evenodd" d="M20.0002 11.5C20.0002 16.1944 16.1947 20 11.5002 20C10.239 20 9.04187 19.7253 7.9655 19.2325L10.112 17.1334L10.5412 16.7043V16.7682C12.3672 17.2065 14.3029 16.6678 15.8277 15.5174C18.512 13.4904 16.8959 9.05301 16.8959 9.05301L13.892 12.0569C13.5268 12.413 12.9516 12.413 12.5955 12.0569L11.3081 10.7695C10.952 10.4134 10.952 9.83823 11.3081 9.48214L14.312 6.47823C12.2851 5.50127 9.76507 5.85736 8.08507 7.54649C6.65159 8.97997 6.17681 11.0161 6.66985 12.833L4.30507 15.1978L3.99417 15.4922C3.35979 14.3019 3.00024 12.9429 3.00024 11.5C3.00024 6.80559 6.80582 3.00001 11.5002 3.00001C16.1947 3.00001 20.0002 6.80559 20.0002 11.5ZM11.5002 22C17.2992 22 22.0002 17.299 22.0002 11.5C22.0002 5.70102 17.2992 1.00001 11.5002 1.00001C5.70125 1.00001 1.00024 5.70102 1.00024 11.5C1.00024 17.299 5.70125 22 11.5002 22Z" fill="white"/>
</svg>
