<svg width="80" height="80" viewBox="0 0 80 80" fill="none" xmlns="http://www.w3.org/2000/svg">
<g clip-path="url(#clip0)">
<path d="M13.75 22.25C13.75 18.9363 16.4363 16.25 19.75 16.25H59.9722C63.2859 16.25 65.9722 18.9363 65.9722 22.25V62.4722C65.9722 65.7859 63.2859 68.4722 59.9722 68.4722H19.75C16.4363 68.4722 13.75 65.7859 13.75 62.4722V22.25Z" fill="#DAF2EB"/>
<path d="M65.5514 12.0833H46.0785C44.5485 12.0833 43.2966 13.3351 43.2966 14.8651V39.9017L51.6422 31.5562H65.5514C67.0814 31.5562 68.3333 30.3043 68.3333 28.7743V14.8651C68.3333 13.3351 67.0814 12.0833 65.5514 12.0833ZM63.4094 46.1887L56.3435 45.382C54.6466 45.1872 52.9775 45.7714 51.7813 46.9676L46.6627 52.0862C38.79 48.0803 32.3362 41.6543 28.3303 33.7538L33.4767 28.6074C34.6729 27.4112 35.2571 25.7421 35.0624 24.0452L34.2556 17.0349C33.9218 14.2253 31.5572 12.1111 28.7198 12.1111H23.9072C20.7637 12.1111 18.1487 14.726 18.3435 17.8695C19.8178 41.6265 38.8179 60.5987 62.547 62.073C65.6905 62.2678 68.3054 59.6528 68.3054 56.5093V51.6967C68.3332 48.8871 66.219 46.5225 63.4094 46.1887Z" fill="#7FD4BA"/>
</g>
<defs>
<clipPath id="clip0">
<rect width="80" height="80" fill="white"/>
</clipPath>
</defs>
</svg>
