<svg width="24" height="24" viewBox="0 0 24 24" fill="none" xmlns="http://www.w3.org/2000/svg">
<path fill-rule="evenodd" clip-rule="evenodd" d="M5.22694 17.7143C5.20998 17.684 5.19317 17.6537 5.17651 17.6232C5.26263 17.4459 5.40224 17.303 5.57668 17.2245L10.2005 15.1565C10.3155 15.1051 10.4406 15.0779 10.5674 15.0768L13.4744 15.0516C13.6094 15.0505 13.743 15.0789 13.8649 15.1347L18.4293 17.2257C18.6015 17.3057 18.7389 17.4475 18.8238 17.6231C18.8071 17.6537 18.7901 17.6843 18.7731 17.7147C17.407 19.4963 15.3539 20.7233 13.0097 20.9997V19.7805C13.009 19.7519 13.0003 19.724 12.9846 19.6997L12.9851 19.6981L12.1615 18.3285L12.1593 18.3248C12.1577 18.3223 12.1561 18.3197 12.1547 18.317L12.1473 18.3046L12.1464 18.3042C12.1165 18.2551 12.063 18.2208 11.9997 18.2208C11.9366 18.2208 11.8838 18.2551 11.8539 18.3037L11.8522 18.3041L11.8505 18.3045L11.0134 19.697L11.0143 19.6992L11.0142 19.7002C10.9987 19.7243 10.9902 19.752 10.9895 19.7803V20.9996C8.64562 20.7229 6.59278 19.4958 5.22694 17.7143ZM9.25742 9.90416C8.91127 8.17338 10.2351 6.55859 12.0001 6.55859C13.7652 6.55859 15.089 8.17338 14.7428 9.90416L14.2446 12.3951C14.0307 13.4651 13.0912 14.2352 12.0001 14.2352C10.909 14.2352 9.9696 13.4651 9.75562 12.3951L9.25742 9.90416ZM12.5519 17.2333L12.8883 15.9411H11.1119L11.4483 17.2333C11.5116 17.4764 11.7391 17.647 12.0001 17.647C12.2611 17.647 12.4886 17.4764 12.5519 17.2333Z" fill="#4F4F4F"/>
<path d="M19.2501 12.5296C19.2501 8.52543 16.0042 5.27943 12 5.27943C7.99588 5.27943 4.74989 8.52543 4.74989 12.5296C4.74989 15.7232 6.81486 18.4346 9.68247 19.4014L9.19916 20.5886C5.86421 19.4297 3.47046 16.2592 3.47046 12.5296C3.47046 7.81881 7.28927 4 12 4C16.7108 4 20.5296 7.81881 20.5296 12.5296C20.5296 16.3075 18.0734 19.5118 14.6708 20.6326L14.1324 19.461C17.0959 18.5504 19.2501 15.7916 19.2501 12.5296Z" fill="#4F4F4F"/>
</svg>
