<svg width="24" height="24" viewBox="0 0 24 24" fill="none" xmlns="http://www.w3.org/2000/svg">
<path fill-rule="evenodd" clip-rule="evenodd" d="M5.22621 17.7145C5.20924 17.6843 5.19243 17.6539 5.17578 17.6234C5.2619 17.4461 5.40151 17.3032 5.57595 17.2247L10.1998 15.1568C10.3147 15.1053 10.4399 15.0782 10.5667 15.0771L13.4737 15.0519C13.6087 15.0507 13.7422 15.0791 13.8641 15.1349L18.4286 17.2259C18.6007 17.3059 18.7382 17.4478 18.8231 17.6233C18.8063 17.654 18.7894 17.6845 18.7723 17.715C17.4063 19.4965 15.3531 20.7236 13.0089 21V19.7807C13.0082 19.7521 12.9996 19.7243 12.9839 19.7L12.9843 19.6983L12.1608 18.3287L12.1585 18.3251C12.1569 18.3225 12.1553 18.3199 12.1539 18.3173L12.1465 18.3048L12.1457 18.3045C12.1158 18.2554 12.0623 18.221 11.999 18.221C11.9359 18.221 11.8831 18.2554 11.8531 18.3039L11.8515 18.3044L11.8498 18.3048L11.0126 19.6972L11.0136 19.6995L11.0135 19.7005C10.998 19.7246 10.9895 19.7522 10.9888 19.7805V20.9999C8.64489 20.7232 6.59205 19.4961 5.22621 17.7145ZM9.25669 9.9044C8.91053 8.17363 10.2343 6.55884 11.9994 6.55884C13.7645 6.55884 15.0883 8.17363 14.7421 9.9044L14.2439 12.3954C14.0299 13.4653 13.0905 14.2354 11.9994 14.2354C10.9083 14.2354 9.96887 13.4653 9.75488 12.3954L9.25669 9.9044ZM12.8876 15.9414L12.5512 17.2335C12.4879 17.4767 12.2604 17.6473 11.9994 17.6473C11.7384 17.6473 11.5109 17.4767 11.4476 17.2335L11.1112 15.9414H12.8876ZM12.9994 20H10.9994V21H12.9994V20Z" fill="white"/>
<path d="M19.2504 12.5296C19.2504 8.52543 16.0044 5.27943 12.0003 5.27943C7.99613 5.27943 4.75014 8.52543 4.75014 12.5296C4.75014 15.7232 6.81511 18.4346 9.68272 19.4014L9.19941 20.5886C5.86446 19.4297 3.4707 16.2592 3.4707 12.5296C3.4707 7.81881 7.28952 4 12.0003 4C16.711 4 20.5298 7.81881 20.5298 12.5296C20.5298 16.3075 18.0736 19.5118 14.671 20.6326L14.1327 19.461C17.0961 18.5504 19.2504 15.7916 19.2504 12.5296Z" fill="white"/>
</svg>
