<svg width="80" height="80" viewBox="0 0 80 80" fill="none" xmlns="http://www.w3.org/2000/svg">
<g clip-path="url(#clip0)">
<path d="M12.5 41.25C12.5 26.0622 24.8122 13.75 40 13.75C55.1878 13.75 67.5 26.0622 67.5 41.25C67.5 56.4378 55.1878 68.75 40 68.75C24.8122 68.75 12.5 56.4378 12.5 41.25Z" fill="#DAF2EB"/>
<path fill-rule="evenodd" clip-rule="evenodd" d="M17.4229 57.7988C17.3663 57.6979 17.3102 57.5965 17.2546 57.4948C17.5417 56.9039 18.0071 56.4275 18.5885 56.1658L34.0013 49.2726C34.3845 49.1012 34.8015 49.0107 35.2243 49.007L44.9143 48.923C45.3644 48.9191 45.8095 49.0138 46.2158 49.1999L61.4306 56.1699C62.0045 56.4365 62.4627 56.9093 62.7456 57.4944C62.6898 57.5965 62.6335 57.6983 62.5767 57.7996C58.0232 63.7384 51.1792 67.8286 43.3651 68.75V64.6858C43.3628 64.5905 43.334 64.4976 43.2817 64.4166L43.2831 64.4112L40.538 59.8458L40.5305 59.8336C40.5251 59.8251 40.5198 59.8165 40.5151 59.8076L40.4904 59.7661L40.4876 59.765C40.388 59.6013 40.2097 59.4869 39.9986 59.4869C39.7883 59.4869 39.6124 59.6012 39.5125 59.7632L39.5069 59.7646L39.5012 59.766L36.7108 64.4074L36.7141 64.415L36.7136 64.4183C36.6621 64.4987 36.6336 64.5907 36.6313 64.6851V68.7496C28.8184 67.8273 21.9757 63.737 17.4229 57.7988ZM30.5411 30.1818C29.551 25.2314 33.3373 20.6129 38.3857 20.6129H41.6143C46.6627 20.6129 50.4491 25.2314 49.459 30.1818L47.4818 40.068C46.7685 43.6344 43.6371 46.2015 40 46.2015C36.363 46.2015 33.2316 43.6344 32.5183 40.068L30.5411 30.1818ZM41.8393 56.1952L42.9606 51.8879H37.0394L38.1607 56.1952C38.3717 57.0057 39.13 57.5743 40 57.5743C40.87 57.5743 41.6283 57.0057 41.8393 56.1952Z" fill="#7FD4BA"/>
</g>
<defs>
<clipPath id="clip0">
<rect width="80" height="80" fill="white"/>
</clipPath>
</defs>
</svg>
