<svg width="115" height="114" viewBox="0 0 115 114" fill="none" xmlns="http://www.w3.org/2000/svg">
<g clip-path="url(#clip0)">
<path d="M51 50.4492V42.4492C51 38.5894 54.1401 35.4492 58 35.4492C61.8599 35.4492 65 38.5894 65 42.4492V45.4492H69V42.4492C69 36.3838 64.0654 31.4492 58 31.4492C51.9346 31.4492 47 36.3838 47 42.4492V50.4492H51Z" fill="#B3B3B3"/>
<path d="M73 79.4492H43C41.8954 79.4492 41 78.5538 41 77.4492V51.4492C41 50.3446 41.8954 49.4492 43 49.4492H73C74.1046 49.4492 75 50.3446 75 51.4492V77.4492C75 78.5538 74.1046 79.4492 73 79.4492Z" fill="#EFD358"/>
<path d="M62 61.4492C62 59.24 60.2092 57.4492 58 57.4492C55.7909 57.4492 54 59.24 54 61.4492C54 62.926 54.8095 64.2015 56 64.8944V71.4492H60V64.8944C61.1906 64.2015 62 62.926 62 61.4492Z" fill="#A58C21"/>
</g>
<path d="M90 49.4492C89.7441 49.4492 89.4883 49.3516 89.293 49.1562L81.293 41.1562C80.9023 40.7656 80.9023 40.1328 81.293 39.7422C81.6836 39.3516 82.3164 39.3516 82.707 39.7422L90 47.0352L111.293 25.7422C111.684 25.3516 112.316 25.3516 112.707 25.7422C113.098 26.1328 113.098 26.7656 112.707 27.1562L90.707 49.1562C90.5117 49.3516 90.2559 49.4492 90 49.4492Z" fill="#38BC94" stroke="#38BC94"/>
<path d="M45.4645 101.866C20.6987 95.2302 5.9478 69.6824 12.5841 44.9155C19.2203 20.1487 44.7689 5.39911 69.5347 12.0351C77.902 14.2771 85.444 18.7807 91.3485 25.0595C92.1867 25.9501 92.1426 27.3509 91.2531 28.1893C90.3612 29.0282 88.9606 28.9832 88.1225 28.0926C82.7823 22.4149 75.9601 18.3416 68.3885 16.3128C45.9809 10.3086 22.8658 23.6541 16.8617 46.0617C10.8576 68.4694 24.2031 91.5844 46.6107 97.5885C69.0184 103.593 92.1334 90.2472 98.1375 67.8395C99.1074 64.2198 99.5938 60.4996 99.5826 56.7815C99.5791 55.5583 100.566 54.5636 101.79 54.56C103.014 54.5623 104.008 55.5462 104.01 56.7679C104.024 60.8773 103.486 64.9879 102.415 68.9857C95.7789 93.7526 70.2303 108.502 45.4645 101.866Z" fill="#BDBDBD"/>
<defs>
<clipPath id="clip0">
<rect width="48" height="48" fill="white" transform="translate(34 31.4492)"/>
</clipPath>
</defs>
</svg>
