<svg width="24" height="25" viewBox="0 0 24 25" fill="none" xmlns="http://www.w3.org/2000/svg">
<path d="M8.91306 19.3869L16.9132 11.3867L13.1133 7.58676L5.11312 15.5869C5.00298 15.6972 4.92475 15.8352 4.88671 15.9864L4 20.5L8.51275 19.6133C8.66426 19.5754 8.80286 19.4971 8.91306 19.3869ZM19.4959 8.80405C19.8187 8.48117 20 8.04331 20 7.58676C20 7.13021 19.8187 6.69235 19.4959 6.36947L18.1305 5.00411C17.8077 4.68133 17.3698 4.5 16.9132 4.5C16.4567 4.5 16.0188 4.68133 15.696 5.00411L14.3306 6.36947L18.1305 10.1694L19.4959 8.80405Z" fill="#38BC94"/>
</svg>
