<svg width="19" height="18" viewBox="0 0 19 18" fill="none" xmlns="http://www.w3.org/2000/svg">
<path fill-rule="evenodd" clip-rule="evenodd" d="M2.72621 14.2148C2.70924 14.1845 2.69243 14.1542 2.67578 14.1237C2.7619 13.9464 2.90151 13.8035 3.07595 13.725L7.69978 11.657C7.81475 11.6056 7.93985 11.5784 8.06667 11.5773L10.9737 11.5521C11.1087 11.5509 11.2422 11.5794 11.3641 11.6352L15.9286 13.7262C16.1007 13.8062 16.2382 13.948 16.3231 14.1235C16.3063 14.1542 16.2894 14.1848 16.2723 14.2152C14.9063 15.9968 12.8531 17.2238 10.5089 17.5002V16.281C10.5082 16.2524 10.4996 16.2245 10.4839 16.2002L10.4843 16.1986L9.66078 14.829L9.65853 14.8253C9.65693 14.8227 9.65532 14.8202 9.65393 14.8175L9.64652 14.805L9.64567 14.8047C9.61578 14.7556 9.56229 14.7213 9.49896 14.7213C9.43588 14.7213 9.3831 14.7556 9.35315 14.8042L9.35145 14.8046L9.34976 14.805L8.51263 16.1975L8.5136 16.1997L8.51348 16.2007C8.49801 16.2248 8.48948 16.2524 8.48878 16.2808V17.5001C6.14489 17.2234 4.09205 15.9963 2.72621 14.2148ZM6.75669 6.40465C6.41053 4.67387 7.73435 3.05908 9.4994 3.05908C11.2645 3.05908 12.5883 4.67387 12.2421 6.40465L11.7439 8.89562C11.5299 9.96554 10.5905 10.7357 9.4994 10.7357C8.40829 10.7357 7.46887 9.96554 7.25488 8.89562L6.75669 6.40465ZM10.0512 13.7338L10.3876 12.4416H8.61122L8.9476 13.7338C9.0109 13.9769 9.2384 14.1475 9.49939 14.1475C9.76039 14.1475 9.98789 13.9769 10.0512 13.7338Z" fill="#BDBDBD"/>
<path d="M16.7504 9.02956C16.7504 5.02543 13.5044 1.77943 9.50026 1.77943C5.49613 1.77943 2.25014 5.02543 2.25014 9.02956C2.25014 12.2232 4.31511 14.9346 7.18272 15.9014L6.69941 17.0886C3.36446 15.9297 0.970703 12.7592 0.970703 9.02956C0.970703 4.31881 4.78952 0.5 9.50026 0.5C14.211 0.5 18.0298 4.31881 18.0298 9.02956C18.0298 12.8075 15.5736 16.0118 12.171 17.1326L11.6327 15.961C14.5961 15.0504 16.7504 12.2916 16.7504 9.02956Z" fill="#BDBDBD"/>
</svg>
