<svg width="40" height="40" viewBox="0 0 40 40" fill="none" xmlns="http://www.w3.org/2000/svg">
<path d="M8.84384 12.1232C10.6922 12.1232 12.1906 10.6248 12.1906 8.77646C12.1906 6.92809 10.6922 5.42969 8.84384 5.42969C6.99547 5.42969 5.49707 6.92809 5.49707 8.77646C5.49707 10.6248 6.99547 12.1232 8.84384 12.1232Z" fill="#38BC94"/>
<path d="M9.95953 29.9728V18.8169C9.95953 17.1669 10.4772 15.6374 11.354 14.3746C11.2614 14.369 11.1688 14.3545 11.0751 14.3545H6.61276C4.15176 14.3545 2.15039 16.3559 2.15039 18.8169V25.5104H4.38157V33.3195H12.1907V29.9728H9.95953Z" fill="#38BC94"/>
<path d="M31.1554 12.1232C33.0037 12.1232 34.5021 10.6248 34.5021 8.77646C34.5021 6.92809 33.0037 5.42969 31.1554 5.42969C29.307 5.42969 27.8086 6.92809 27.8086 8.77646C27.8086 10.6248 29.307 12.1232 31.1554 12.1232Z" fill="#38BC94"/>
<path d="M30.0398 29.9728V18.8169C30.0398 17.1669 29.5221 15.6374 28.6453 14.3746C28.7379 14.369 28.8305 14.3545 28.9242 14.3545H33.3866C35.8475 14.3545 37.8489 16.3559 37.8489 18.8169V25.5104H35.6177V33.3195H27.8086V29.9728H30.0398Z" fill="#38BC94"/>
<path d="M22.2308 13.2402H17.7684C14.6927 13.2402 12.1904 15.7425 12.1904 18.8182V27.7429H15.5372V36.6677H24.4619V27.7429H27.8087V18.8182C27.8087 15.7425 25.3064 13.2402 22.2308 13.2402Z" fill="#38BC94"/>
<path d="M19.9995 11.0077C22.464 11.0077 24.4618 9.00987 24.4618 6.54537C24.4618 4.08088 22.464 2.08301 19.9995 2.08301C17.535 2.08301 15.5371 4.08088 15.5371 6.54537C15.5371 9.00987 17.535 11.0077 19.9995 11.0077Z" fill="#38BC94"/>
</svg>
