<svg width="64" height="64" viewBox="0 0 64 64" fill="none" xmlns="http://www.w3.org/2000/svg">
<path d="M10.667 17.7775V48.8886C10.667 51.3441 12.6559 53.333 15.1114 53.333H46.2225C48.6781 53.333 50.667 51.3441 50.667 48.8886V17.7775C50.667 15.3219 48.6781 13.333 46.2225 13.333H15.1114C12.6559 13.333 10.667 15.3219 10.667 17.7775ZM37.3337 26.6663C37.3337 30.3552 34.3448 33.333 30.667 33.333C26.9892 33.333 24.0003 30.3552 24.0003 26.6663C24.0003 22.9886 26.9892 19.9997 30.667 19.9997C34.3448 19.9997 37.3337 22.9886 37.3337 26.6663ZM17.3337 44.4441C17.3337 39.9997 26.2225 37.5552 30.667 37.5552C35.1114 37.5552 44.0003 39.9997 44.0003 44.4441V46.6663H17.3337V44.4441Z" fill="#4F4F4F"/>
</svg>
