<svg width="14" height="14" viewBox="0 0 14 14" fill="none" xmlns="http://www.w3.org/2000/svg">
<path d="M2.33301 3.88921V10.6948C2.33301 11.2319 2.76808 11.667 3.30523 11.667H10.1108C10.6479 11.667 11.083 11.2319 11.083 10.6948V3.88921C11.083 3.35206 10.6479 2.91699 10.1108 2.91699H3.30523C2.76808 2.91699 2.33301 3.35206 2.33301 3.88921ZM8.16634 5.83366C8.16634 6.6406 7.51252 7.29199 6.70801 7.29199C5.90349 7.29199 5.24967 6.6406 5.24967 5.83366C5.24967 5.02915 5.90349 4.37533 6.70801 4.37533C7.51252 4.37533 8.16634 5.02915 8.16634 5.83366ZM3.79134 9.72255C3.79134 8.75033 5.73579 8.2156 6.70801 8.2156C7.68023 8.2156 9.62467 8.75033 9.62467 9.72255V10.2087H3.79134V9.72255Z" fill="#BDBDBD"/>
</svg>
