<svg width="24" height="24" viewBox="0 0 24 24" fill="none" xmlns="http://www.w3.org/2000/svg">
<circle cx="12" cy="12" r="9" stroke="#38BC94"/>
<path fill-rule="evenodd" clip-rule="evenodd" d="M12.0001 2.57153C17.2074 2.57153 21.4287 6.79285 21.4287 12.0001C21.4287 17.2074 17.2074 21.4287 12.0001 21.4287C6.79285 21.4287 2.57153 17.2074 2.57153 12.0001C2.57153 6.79285 6.79285 2.57153 12.0001 2.57153ZM12.0001 3.42868C16.734 3.42868 20.5715 7.26624 20.5715 12.0001C20.5715 16.734 16.734 20.5715 12.0001 20.5715C7.26624 20.5715 3.42868 16.734 3.42868 12.0001C3.42868 7.26624 7.26624 3.42868 12.0001 3.42868ZM16.7144 12.4287H12.4287V16.7144H11.5715V12.4287H7.28582V11.5715H11.5715V7.28582H12.4287V11.5715H16.7144V12.4287Z" fill="#38BC94"/>
</svg>
