<svg xmlns="http://www.w3.org/2000/svg" width="24" height="14" viewBox="0 0 24 14" fill="none">
<path d="M0.984375 12.625V1.60937C0.984375 1.09161 1.40411 0.671875 1.92187 0.671875H22.0781C22.5959 0.671875 23.0156 1.09161 23.0156 1.60937V12.625C23.0156 13.1428 22.5959 13.5625 22.0781 13.5625H1.92187C1.40411 13.5625 0.984375 13.1428 0.984375 12.625Z" fill="#A9A7A7"/>
<path fill-rule="evenodd" clip-rule="evenodd" d="M1.92187 0.90625C1.53355 0.90625 1.21875 1.22105 1.21875 1.60938V12.625C1.21875 13.0133 1.53355 13.3281 1.92188 13.3281H22.0781C22.4664 13.3281 22.7812 13.0133 22.7812 12.625V1.60937C22.7812 1.22105 22.4664 0.90625 22.0781 0.90625H1.92187ZM0.75 1.60938C0.75 0.962166 1.27467 0.4375 1.92187 0.4375H22.0781C22.7253 0.4375 23.25 0.962166 23.25 1.60937V12.625C23.25 13.2722 22.7253 13.7969 22.0781 13.7969H1.92188C1.27467 13.7969 0.75 13.2722 0.75 12.625V1.60938Z" fill="#A9A7A7"/>
<path d="M12.5 8.21094C11.6133 7.98047 11.3281 7.74219 11.3281 7.37109C11.3281 6.94531 11.7227 6.64844 12.3828 6.64844C13.0781 6.64844 13.3359 6.98047 13.3594 7.46875H14.2227C14.1953 6.79688 13.7852 6.17969 12.9688 5.98047V5.125H11.7969V5.96875C11.0391 6.13281 10.4297 6.625 10.4297 7.37891C10.4297 8.28125 11.1758 8.73047 12.2656 8.99219C13.2422 9.22656 13.4375 9.57031 13.4375 9.93359C13.4375 10.2031 13.2461 10.6328 12.3828 10.6328C11.5781 10.6328 11.2617 10.2734 11.2188 9.8125H10.3594C10.4062 10.668 11.0469 11.1484 11.7969 11.3086V12.1562H12.9688V11.3164C13.7305 11.1719 14.3359 10.7305 14.3359 9.92969C14.3359 8.82031 13.3867 8.44141 12.5 8.21094Z" fill="white"/>
<path fill-rule="evenodd" clip-rule="evenodd" d="M23.25 3.95312H0.75V3.01562H23.25V3.95312Z" fill="white"/>
</svg>