<svg width="24" height="24" viewBox="0 0 24 24" fill="none" xmlns="http://www.w3.org/2000/svg">
<path d="M19.3929 10.1524H17.3438V7.90122C17.3438 7.55046 17.0724 7.26707 16.7366 7.26707H10.76L8.53449 5.0436C8.50617 5.01591 8.46892 5.00035 8.43013 5H3.60714C3.27132 5 3 5.28338 3 5.63415V17.3659C3 17.7166 3.27132 18 3.60714 18H16.8504C17.0971 18 17.321 17.8434 17.414 17.6037L19.9564 11.0244C19.9848 10.9491 20 10.8678 20 10.7866C20 10.4358 19.7287 10.1524 19.3929 10.1524ZM15.9777 10.1524H6.30134C6.05469 10.1524 5.8308 10.309 5.73783 10.5488L4.36607 14.1V6.42683H7.94252L10.2117 8.6939H15.9777V10.1524Z" fill="white"/>
</svg>
