<svg xmlns="http://www.w3.org/2000/svg" width="80" height="80" viewBox="0 0 80 80" fill="none">
<path d="M56.642 21.7373H34.6928L29.2055 16.25H15.4873C12.4693 16.25 10 18.7193 10 21.7373V57.0127C10 60.0307 12.4693 62.5 15.4873 62.5H58.0138C60.3459 62.5 62.1292 60.7166 62.1292 58.3845V27.2246C62.1292 24.2066 59.66 21.7373 56.642 21.7373Z" fill="#7FD4BA"/>
<path d="M63.5785 28.793H25.5006C22.8942 28.793 20.5621 30.7135 20.1505 33.32L15.4863 58.9731H60.1489C62.7554 58.9731 65.0875 57.0525 65.499 54.446L68.9286 35.2405C69.6145 31.9482 67.008 28.793 63.5785 28.793Z" fill="#DAF2EB"/>
<path fill-rule="evenodd" clip-rule="evenodd" d="M26.9004 36.5763C26.9004 35.6022 27.6901 34.8125 28.6642 34.8125H55.4265C56.4006 34.8125 57.1902 35.6022 57.1902 36.5763C57.1902 37.5504 56.4006 38.34 55.4265 38.34H28.6642C27.6901 38.34 26.9004 37.5504 26.9004 36.5763Z" fill="#7FD4BA"/>
<path fill-rule="evenodd" clip-rule="evenodd" d="M24.2676 44.4786C24.2676 43.5045 25.0572 42.7148 26.0313 42.7148H43.575C44.5491 42.7148 45.3388 43.5045 45.3388 44.4786C45.3388 45.4527 44.5491 46.2424 43.575 46.2424H26.0313C25.0572 46.2424 24.2676 45.4527 24.2676 44.4786Z" fill="#7FD4BA"/>
<path fill-rule="evenodd" clip-rule="evenodd" d="M22.9492 52.379C22.9492 51.4049 23.7389 50.6152 24.713 50.6152H34.3549C35.329 50.6152 36.1187 51.4049 36.1187 52.379C36.1187 53.3531 35.329 54.1428 34.3549 54.1428H24.713C23.7389 54.1428 22.9492 53.3531 22.9492 52.379Z" fill="#7FD4BA"/>
</svg>