<svg width="32" height="32" viewBox="0 0 32 32" fill="none" xmlns="http://www.w3.org/2000/svg">
<path fill-rule="evenodd" clip-rule="evenodd" d="M9.5 8.26465C8.67157 8.26465 8 8.93622 8 9.76465V25.2525C8 26.0809 8.67157 26.7525 9.5 26.7525H20.8794C21.7079 26.7525 22.3794 26.0809 22.3794 25.2525V9.76465C22.3794 8.93622 21.7079 8.26465 20.8794 8.26465H9.5ZM15.2214 24.0001H14.1425L14.1476 22.8074C12.0509 22.6303 10.7379 21.4689 10.6667 19.5157H12.5242C12.5903 20.4585 13.2468 20.9897 14.1578 21.1355L14.1781 17.9845L13.7201 17.8647C12.0051 17.4116 10.9415 16.5314 10.9415 15.0001C10.9364 13.2762 12.3104 12.0782 14.2188 11.8803L14.2239 10.6668H15.3028L15.2977 11.8803C17.2214 12.0678 18.4936 13.2762 18.5242 14.9324H16.7074C16.626 14.1824 16.1018 13.6824 15.2875 13.5366L15.2672 16.5105L15.6031 16.5991C17.1705 16.9793 18.6616 17.823 18.6667 19.672C18.6616 21.4168 17.4097 22.646 15.2265 22.8074L15.2214 24.0001ZM15.257 18.2762L15.2366 21.1355C16.1679 20.9793 16.7735 20.4272 16.7786 19.6564C16.7735 18.9168 16.1832 18.5522 15.257 18.2762ZM12.855 14.8803C12.8448 15.6199 13.486 16.0001 14.1883 16.2293L14.2087 13.5366C13.3537 13.6876 12.8601 14.2085 12.855 14.8803Z" fill="black"/>
<path fill-rule="evenodd" clip-rule="evenodd" d="M11 5.33301C11 4.78072 11.4477 4.33301 12 4.33301H22.6667C24.6917 4.33301 26.3333 5.97463 26.3333 7.99967V21.333C26.3333 21.8853 25.8856 22.333 25.3333 22.333C24.781 22.333 24.3333 21.8853 24.3333 21.333V7.99967C24.3333 7.0792 23.5871 6.33301 22.6667 6.33301H12C11.4477 6.33301 11 5.88529 11 5.33301Z" fill="black"/>
</svg>
