<svg width="44" height="44" viewBox="0 0 44 44" fill="none" xmlns="http://www.w3.org/2000/svg">
<path fill-rule="evenodd" clip-rule="evenodd" d="M14.499 11.3652C12.566 11.3652 10.999 12.9322 10.999 14.8652V33.286C10.999 35.219 12.566 36.786 14.499 36.786H27.2708C29.2038 36.786 30.7708 35.219 30.7708 33.286V14.8652C30.7708 12.9322 29.2038 11.3652 27.2708 11.3652H14.499ZM20.9281 33.0033H19.4446L19.4516 31.3633C16.5687 31.1198 14.7633 29.5228 14.6654 26.8372H17.2194C17.3104 28.1335 18.2131 28.8639 19.4656 29.0645L19.4936 24.7318L18.8638 24.5671C16.5057 23.944 15.0432 22.7337 15.0432 20.6283C15.0362 18.2578 16.9255 16.6107 19.5496 16.3385L19.5566 14.6699H21.04L21.033 16.3385C23.6781 16.5964 25.4275 18.2578 25.4694 20.5352H22.9713C22.8594 19.5039 22.1386 18.8164 21.0191 18.6159L20.9911 22.7051L21.4529 22.8268C23.6081 23.3496 25.6584 24.5098 25.6654 27.0521C25.6584 29.4512 23.937 31.1413 20.9351 31.3633L20.9281 33.0033ZM20.9771 25.1328L20.9491 29.0645C22.2296 28.8496 23.0623 28.0905 23.0693 27.0306C23.0623 26.0137 22.2506 25.5124 20.9771 25.1328ZM17.6743 20.4635C17.6603 21.4805 18.542 22.0033 19.5076 22.3184L19.5356 18.6159C18.36 18.8236 17.6813 19.5397 17.6743 20.4635Z" fill="#7FD4BA"/>
<path d="M16.4998 7.33203H30.1664C32.7437 7.33203 34.8331 9.42137 34.8331 11.9987V29.332" stroke="#7FD4BA" stroke-width="3.5" stroke-linecap="round"/>
</svg>
