<svg width="14" height="14" viewBox="0 0 14 14" fill="none" xmlns="http://www.w3.org/2000/svg">
<path d="M8.52185 1.4408L8.47693 1.40172C8.39284 1.33767 8.28835 1.30632 8.18288 1.31351C8.07741 1.3207 7.97814 1.36593 7.90352 1.4408L7.86385 1.4863C7.80006 1.57098 7.76895 1.67582 7.77624 1.78158C7.78352 1.88734 7.82872 1.98693 7.90352 2.06205L9.05327 3.2153H4.95768L4.82177 3.21763C2.7906 3.28938 1.16602 4.96413 1.16602 7.02097C1.16602 8.0068 1.53935 8.90514 2.15302 9.5818L2.19502 9.62205C2.27755 9.69265 2.38337 9.73007 2.49194 9.72705C2.60051 9.72403 2.70408 9.68079 2.78257 9.60572C2.86106 9.53064 2.90886 9.42909 2.9167 9.32077C2.92455 9.21244 2.89187 9.10506 2.82502 9.01947L2.70835 8.88472C2.27569 8.35989 2.03969 7.70056 2.04102 7.02038C2.04102 5.40397 3.3471 4.09322 4.95768 4.09322H8.9716L7.90293 5.16655L7.86385 5.21205C7.80006 5.29673 7.76895 5.40157 7.77624 5.50733C7.78352 5.61309 7.82872 5.71268 7.90352 5.7878C7.94406 5.82851 7.99224 5.86081 8.04529 5.88285C8.09835 5.90489 8.15523 5.91623 8.21268 5.91623C8.27013 5.91623 8.32702 5.90489 8.38007 5.88285C8.43313 5.86081 8.48131 5.82851 8.52185 5.7878L10.378 3.92522L10.4171 3.87972C10.481 3.79511 10.5122 3.69031 10.505 3.58455C10.4978 3.47879 10.4527 3.37917 10.378 3.30397L8.52185 1.4408ZM11.8002 4.41638C11.7157 4.34659 11.6081 4.31099 11.4987 4.31659C11.3893 4.3222 11.2859 4.36862 11.209 4.44668C11.1321 4.52475 11.0873 4.62879 11.0833 4.7383C11.0794 4.8478 11.1166 4.95481 11.1877 5.03822C11.6841 5.57881 11.959 6.28641 11.9577 7.02038C11.9577 8.63738 10.6516 9.94814 9.04102 9.94814H4.99152L6.10277 8.83338L6.14593 8.78322C6.20197 8.70676 6.23184 8.61425 6.23111 8.51946C6.23037 8.42466 6.19907 8.33263 6.14185 8.25705L6.10277 8.21213L6.05377 8.16955C5.97773 8.11308 5.88539 8.08288 5.79068 8.08351C5.69597 8.08414 5.60404 8.11557 5.52877 8.17305L5.48443 8.21213L3.62827 10.0753L3.58568 10.1249C3.52956 10.2013 3.49959 10.2938 3.50022 10.3885C3.50085 10.4833 3.53205 10.5754 3.58918 10.6511L3.62827 10.696L5.48443 12.5591L5.53343 12.6011C5.70435 12.7295 5.9476 12.7149 6.10277 12.5585C6.17757 12.4834 6.22276 12.3838 6.23004 12.2781C6.23733 12.1723 6.20622 12.0675 6.14243 11.9828L6.10277 11.9379L4.99502 10.8261H9.04102L9.17693 10.8237C11.2081 10.752 12.8327 9.07663 12.8327 7.02038C12.8342 6.07222 12.4811 5.15775 11.8428 4.45663L11.8002 4.41638Z" fill="#38BC94"/>
</svg>
