<svg width="25" height="24" viewBox="0 0 25 24" fill="none" xmlns="http://www.w3.org/2000/svg">
<path d="M12.5 17L13.5 15V9.858C15.221 9.411 16.5 7.858 16.5 6C16.5 3.794 14.706 2 12.5 2C10.294 2 8.5 3.794 8.5 6C8.5 7.858 9.779 9.411 11.5 9.858V15L12.5 17Z" fill="#828282"/>
<path d="M16.767 10.5625L16.234 12.4905C18.825 13.2065 20.5 14.5835 20.5 15.9995C20.5 17.8915 17.215 19.9995 12.5 19.9995C7.785 19.9995 4.5 17.8915 4.5 15.9995C4.5 14.5835 6.175 13.2065 8.767 12.4895L8.234 10.5615C4.697 11.5395 2.5 13.6225 2.5 15.9995C2.5 19.3635 6.893 21.9995 12.5 21.9995C18.107 21.9995 22.5 19.3635 22.5 15.9995C22.5 13.6225 20.303 11.5395 16.767 10.5625Z" fill="#828282"/>
</svg>
