<svg width="24" height="24" viewBox="0 0 24 24" fill="none" xmlns="http://www.w3.org/2000/svg">
<path fill-rule="evenodd" clip-rule="evenodd" d="M14.9392 13.3204H14.2445L14.003 13.0806C14.8561 12.0858 15.375 10.796 15.375 9.38288C15.375 6.24163 12.8287 3.69538 9.6875 3.69538C6.54625 3.69538 4 6.24163 4 9.38288C4 12.5241 6.54625 15.0704 9.6875 15.0704C11.1006 15.0704 12.3895 14.5524 13.3844 13.7001L13.6259 13.9399V14.6329L17.9991 19L19.3037 17.6954L14.9392 13.3204ZM9.6875 13.3204C7.51225 13.3204 5.75 11.5581 5.75 9.38288C5.75 7.2085 7.51225 5.44538 9.6875 5.44538C11.8619 5.44538 13.625 7.2085 13.625 9.38288C13.625 11.5581 11.8619 13.3204 9.6875 13.3204Z" fill="#BDBDBD"/>
</svg>
