<svg width="25" height="24" viewBox="0 0 25 24" fill="none" xmlns="http://www.w3.org/2000/svg">
<path d="M21.2823 3.21647C21.181 3.11573 21.0532 3.04598 20.9137 3.01542C20.7742 2.98486 20.6288 2.99477 20.4948 3.04397L3.99476 9.04397C3.85246 9.09795 3.72995 9.19393 3.64349 9.31919C3.55704 9.44444 3.51074 9.59303 3.51074 9.74522C3.51074 9.89741 3.55704 10.046 3.64349 10.1713C3.72995 10.2965 3.85246 10.3925 3.99476 10.4465L11.1948 13.3265L14.0748 20.5265C14.1289 20.6625 14.2216 20.7798 14.3416 20.8637C14.4615 20.9477 14.6034 20.9947 14.7498 20.999C14.9013 20.9959 15.0484 20.9469 15.1716 20.8585C15.2947 20.7702 15.3882 20.6465 15.4398 20.504L21.4398 4.00397C21.4909 3.87128 21.5032 3.7268 21.4753 3.58737C21.4474 3.44794 21.3805 3.31931 21.2823 3.21647ZM14.7498 18.149L12.6573 12.899L16.2498 9.30647L15.1923 8.24897L11.5698 11.8715L6.34976 9.74897L19.4973 5.00147L14.7498 18.149Z" fill="#E0E0E0"/>
</svg>
