<svg width="34" height="34" viewBox="0 0 34 34" fill="none" xmlns="http://www.w3.org/2000/svg">
<path fill-rule="evenodd" clip-rule="evenodd" d="M17 0C7.61116 0 0 7.61116 0 17C0 26.3888 7.61116 34 17 34C26.3888 34 34 26.3888 34 17C34 7.61116 26.3888 0 17 0ZM15.209 8.61038H18.7909L18.477 20.153H15.531L15.209 8.61038ZM18.9358 23.3727C18.9278 24.4432 18.0343 25.3045 17.004 25.3045C15.9415 25.3045 15.0641 24.4432 15.0722 23.3727C15.0641 22.3182 15.9415 21.457 17.004 21.457C18.0343 21.457 18.9278 22.3182 18.9358 23.3727Z" fill="#2D9CDB"/>
</svg>
