<svg width="24" height="25" viewBox="0 0 24 25" fill="none" xmlns="http://www.w3.org/2000/svg">
<rect x="3" y="4.40039" width="7.19553" height="7.19553" fill="#BDBDBD"/>
<rect x="13.793" y="13.3945" width="7.19553" height="7.19553" fill="#BDBDBD"/>
<path fill-rule="evenodd" clip-rule="evenodd" d="M5 17.392C5 18.4952 5.89432 19.3896 6.99752 19.3896C8.10072 19.3896 8.99503 18.4952 8.99503 17.392C8.99503 16.2888 8.10072 15.3945 6.99752 15.3945C5.89432 15.3945 5 16.2888 5 17.392ZM6.99752 13.3945C4.78975 13.3945 3 15.1843 3 17.392C3 19.5998 4.78975 21.3896 6.99752 21.3896C9.20529 21.3896 10.995 19.5998 10.995 17.392C10.995 15.1843 9.20529 13.3945 6.99752 13.3945Z" fill="#BDBDBD"/>
<path fill-rule="evenodd" clip-rule="evenodd" d="M15.8945 7.99721C15.8945 8.82409 16.5649 9.49441 17.3917 9.49441C18.2186 9.49441 18.8889 8.82409 18.8889 7.99721C18.8889 7.17032 18.2186 6.5 17.3917 6.5C16.5649 6.5 15.8945 7.17032 15.8945 7.99721ZM17.3917 3.5C14.908 3.5 12.8945 5.51347 12.8945 7.99721C12.8945 10.4809 14.908 12.4944 17.3917 12.4944C19.8755 12.4944 21.8889 10.4809 21.8889 7.99721C21.8889 5.51347 19.8755 3.5 17.3917 3.5Z" fill="#BDBDBD"/>
<path fill-rule="evenodd" clip-rule="evenodd" d="M5.99609 14.4942L5.99609 11.4961L7.99609 11.4961L7.99609 14.4942L5.99609 14.4942Z" fill="#BDBDBD"/>
<path fill-rule="evenodd" clip-rule="evenodd" d="M14.6926 8.89648H8.39648V6.89648H14.6926V8.89648Z" fill="#BDBDBD"/>
<path fill-rule="evenodd" clip-rule="evenodd" d="M18.291 11.3944L18.291 14.3926L16.291 14.3926L16.291 11.3944L18.291 11.3944Z" fill="#BDBDBD"/>
</svg>
