<svg width="18" height="18" viewBox="0 0 18 18" fill="none" xmlns="http://www.w3.org/2000/svg">
<path fill-rule="evenodd" clip-rule="evenodd" d="M3.60587 4.85022L4.64478 6.57587C4.45696 6.90456 4.31022 7.25674 4.20457 7.63239L2.25 8.11957V9.88043L4.20457 10.3676C4.31022 10.7433 4.45696 11.0954 4.64478 11.4241L3.60587 13.1498L4.85022 14.3941L6.57587 13.3552C6.90456 13.543 7.25674 13.6898 7.63239 13.7954L8.11957 15.75H9.88043L10.3676 13.7954C10.7433 13.6898 11.0954 13.543 11.4241 13.3552L13.1498 14.3941L14.3941 13.1498L13.3552 11.4241C13.543 11.0954 13.6898 10.7433 13.7954 10.3676L15.75 9.88043V8.11957L13.7954 7.63239C13.6898 7.25674 13.543 6.90456 13.3552 6.57587L14.3941 4.85022L13.1498 3.60587L11.4241 4.64478C11.0954 4.45696 10.7433 4.31022 10.3676 4.20457L9.88043 2.25H8.11957L7.63239 4.20457C7.25674 4.31022 6.90456 4.45696 6.57587 4.64478L4.85022 3.60587L3.60587 4.85022ZM12.8152 9C12.8152 11.1071 11.1071 12.8152 9 12.8152C6.89291 12.8152 5.18478 11.1071 5.18478 9C5.18478 6.89291 6.89291 5.18478 9 5.18478C11.1071 5.18478 12.8152 6.89291 12.8152 9Z" fill="white"/>
</svg>
