<svg width="24" height="24" viewBox="0 0 24 24" fill="none" xmlns="http://www.w3.org/2000/svg">
<rect width="24" height="24" rx="4" fill="#F2F2F2"/>
<path fill-rule="evenodd" clip-rule="evenodd" d="M11.3333 7.33301C10.2287 7.33301 9.33325 8.22844 9.33325 9.33301V16.9997C9.33325 18.1042 10.2287 18.9997 11.3333 18.9997H15.6666C16.7712 18.9997 17.6666 18.1042 17.6666 16.9997V9.33301C17.6666 8.22844 16.7712 7.33301 15.6666 7.33301H11.3333ZM13.8466 17.333H13.1723L13.1755 16.5876C11.8651 16.4769 11.0445 15.751 10.9999 14.5303H12.1609C12.2022 15.1195 12.6125 15.4515 13.1819 15.5426L13.1946 13.5732L12.9083 13.4984C11.8365 13.2152 11.1717 12.665 11.1717 11.708C11.1685 10.6305 12.0273 9.88184 13.22 9.75814L13.2232 8.99968H13.8975L13.8943 9.75814C15.0966 9.87533 15.8918 10.6305 15.9109 11.6657H14.7754C14.7245 11.1969 14.3969 10.8844 13.888 10.7933L13.8753 12.652L14.0852 12.7074C15.0648 12.945 15.9968 13.4723 15.9999 14.6279C15.9968 15.7184 15.2143 16.4867 13.8498 16.5876L13.8466 17.333ZM13.8689 13.7555L13.8562 15.5426C14.4382 15.445 14.8167 15.0999 14.8199 14.6182C14.8167 14.1559 14.4478 13.9281 13.8689 13.7555ZM12.3676 11.6331C12.3613 12.0954 12.762 12.333 13.201 12.4762L13.2137 10.7933C12.6793 10.8877 12.3708 11.2132 12.3676 11.6331Z" fill="#4F4F4F"/>
<path d="M15.1667 5.66699H10.6667C9.00989 5.66699 7.66675 7.01014 7.66675 8.66699V16.3337" stroke="#4F4F4F" stroke-width="1.25" stroke-linecap="round"/>
<path d="M13.5 4H10.5C8.01472 4 6 6.01472 6 8.5V14.6667" stroke="#4F4F4F" stroke-width="0.75" stroke-linecap="round"/>
</svg>
