<svg width="37" height="24" viewBox="0 0 37 24" fill="none" xmlns="http://www.w3.org/2000/svg">
<line x1="23.5" y1="7" x2="35.5" y2="7" stroke="#38BC94" stroke-width="2"/>
<line x1="23.5" y1="12" x2="35.5" y2="12" stroke="#38BC94" stroke-width="2"/>
<line x1="23.5" y1="17" x2="30.1667" y2="17" stroke="#38BC94" stroke-width="2"/>
<path fill-rule="evenodd" clip-rule="evenodd" d="M3.5 4.119L4.619 3L8.06664 5.4618C8.21182 5.56544 8.33013 5.70228 8.41169 5.86092C8.49325 6.01957 8.5357 6.19541 8.5355 6.37379V6.45212C8.53539 6.59924 8.56428 6.74495 8.62054 6.88089C8.6768 7.01683 8.75932 7.14035 8.86337 7.24437L15.2495 13.6305L16.2723 13.2892C16.4694 13.2236 16.6809 13.2142 16.8831 13.2621C17.0853 13.3099 17.2701 13.413 17.417 13.56L21.1724 17.3154C21.3822 17.5252 21.5 17.8098 21.5 18.1065C21.5 18.4032 21.3822 18.6878 21.1724 18.8976L19.3976 20.6724C19.1878 20.8822 18.9032 21 18.6065 21C18.3098 21 18.0252 20.8822 17.8154 20.6724L14.06 16.917C13.913 16.7701 13.8099 16.5853 13.7621 16.3831C13.7142 16.1809 13.7236 15.9694 13.7892 15.7723L14.1305 14.7495L7.74437 8.36337C7.53456 8.1535 7.24999 8.03556 6.95323 8.0355H6.87379C6.6956 8.03552 6.51998 7.99298 6.36155 7.91143C6.20311 7.82988 6.06645 7.71167 5.96292 7.56664L3.5 4.119ZM16.2051 14.9129C16.1001 14.8078 15.9576 14.7488 15.809 14.7488C15.6604 14.7488 15.5179 14.8078 15.4129 14.9129C15.3078 15.0179 15.2488 15.1604 15.2488 15.309C15.2488 15.4576 15.3078 15.6001 15.4129 15.7051L18.7699 19.0621C18.8749 19.1672 19.0174 19.2262 19.166 19.2262C19.3146 19.2262 19.4571 19.1672 19.5621 19.0621C19.6672 18.9571 19.7262 18.8146 19.7262 18.666C19.7262 18.5174 19.6672 18.3749 19.5621 18.2699L16.2051 14.9129Z" fill="#38BC94" stroke="#38BC94" stroke-width="0.5"/>
<path fill-rule="evenodd" clip-rule="evenodd" d="M21.386 5.50382C21.5387 6.07637 21.538 6.67899 21.384 7.25117C21.23 7.82336 20.9282 8.34499 20.5088 8.76369C20.0894 9.18239 19.5672 9.48343 18.9946 9.63659C18.422 9.78975 17.8193 9.78964 17.2467 9.63627L10.1124 16.6695C10.325 17.389 10.2918 18.1587 10.0179 18.8571C9.74403 19.5556 9.24517 20.1428 8.60014 20.5262C7.95511 20.9095 7.2007 21.067 6.45612 20.9739C5.71153 20.8807 5.01923 20.5421 4.48862 20.0117C3.95801 19.4812 3.61935 18.7891 3.52614 18.0448C3.43294 17.3004 3.59051 16.5462 3.97396 15.9014C4.35741 15.2565 4.94487 14.7578 5.6435 14.484C6.34214 14.2103 7.11212 14.177 7.83176 14.3896L14.866 7.25736C14.7106 6.68456 14.7092 6.08094 14.8617 5.50739C15.0142 4.93384 15.3153 4.41064 15.7347 3.99059C16.1541 3.57055 16.6769 3.2685 17.2503 3.11493C17.8237 2.96136 18.4275 2.9617 19.0008 3.11591L16.5908 5.52519L17.0003 7.50256L18.9772 7.91198L21.386 5.50382ZM6.34323 15.6482L6.87541 15.376L7.40534 15.6482L8.00053 15.6775L8.32344 16.178L8.82411 16.5008L8.85337 17.0958L9.12452 17.6256L8.85224 18.1554L8.82299 18.7504L8.32231 19.0732L7.9994 19.5737L7.40422 19.603L6.87429 19.8752L6.34436 19.603L5.74917 19.5737L5.42626 19.0732L4.92558 18.7504L4.89633 18.1554L4.62405 17.6256L4.89633 17.0958L4.92558 16.5008L5.42626 16.178L5.74917 15.6775L6.34436 15.6482H6.34323Z" fill="#38BC94" stroke="#38BC94" stroke-width="0.5"/>
</svg>
