<svg width="25" height="24" viewBox="0 0 25 24" fill="none" xmlns="http://www.w3.org/2000/svg">
<g clip-path="url(#clip0)">
<path d="M10.808 2.7375C10.352 2.2625 9.74 2 9.104 2H2.9C1.58 2 0.512 3.125 0.512 4.5L0.5 19.5C0.5 20.875 1.58 22 2.9 22H22.1C23.42 22 24.5 20.875 24.5 19.5V7C24.5 5.625 23.42 4.5 22.1 4.5H12.5L10.808 2.7375Z" fill="#35A684"/>
<rect x="0.5" y="5" width="24" height="17" rx="2" fill="#38BC94"/>
<path fill-rule="evenodd" clip-rule="evenodd" d="M7.375 8.57438L8.07438 7.875L10.2291 9.41363C10.3199 9.4784 10.3938 9.56393 10.4448 9.66308C10.4958 9.76223 10.5223 9.87213 10.5222 9.98362V10.0326C10.5221 10.1245 10.5402 10.2156 10.5753 10.3006C10.6105 10.3855 10.6621 10.4627 10.7271 10.5277L14.7184 14.5191L15.3577 14.3058C15.4809 14.2648 15.6131 14.2589 15.7394 14.2888C15.8658 14.3187 15.9813 14.3832 16.0731 14.475L18.4202 16.8221C18.5513 16.9533 18.625 17.1311 18.625 17.3166C18.625 17.502 18.5513 17.6799 18.4202 17.811L17.311 18.9202C17.1799 19.0513 17.002 19.125 16.8166 19.125C16.6311 19.125 16.4533 19.0513 16.3221 18.9202L13.975 16.5731C13.8832 16.4813 13.8187 16.3658 13.7888 16.2394C13.7589 16.1131 13.7648 15.9809 13.8058 15.8577L14.0191 15.2184L10.0277 11.2271C9.8966 11.0959 9.71874 11.0222 9.53327 11.0222H9.48362C9.37225 11.0222 9.26249 10.9956 9.16347 10.9446C9.06445 10.8937 8.97903 10.8198 8.91432 10.7291L7.375 8.57438ZM15.3157 15.3205C15.25 15.2549 15.161 15.218 15.0681 15.218C14.9753 15.218 14.8862 15.2549 14.8205 15.3205C14.7549 15.3862 14.718 15.4753 14.718 15.5681C14.718 15.661 14.7549 15.75 14.8205 15.8157L16.9187 17.9138C16.9843 17.9795 17.0734 18.0164 17.1663 18.0164C17.2591 18.0164 17.3482 17.9795 17.4138 17.9138C17.4795 17.8482 17.5164 17.7591 17.5164 17.6663C17.5164 17.5734 17.4795 17.4843 17.4138 17.4187L15.3157 15.3205Z" fill="white"/>
<path fill-rule="evenodd" clip-rule="evenodd" d="M18.5538 9.43989C18.6492 9.79773 18.6487 10.1744 18.5525 10.532C18.4563 10.8896 18.2676 11.2156 18.0055 11.4773C17.7434 11.739 17.417 11.9271 17.0591 12.0229C16.7013 12.1186 16.3245 12.1185 15.9667 12.0227L11.5077 16.4185C11.6406 16.8681 11.6198 17.3492 11.4487 17.7857C11.2775 18.2222 10.9657 18.5893 10.5626 18.8289C10.1594 19.0684 9.68794 19.1669 9.22257 19.1087C8.75721 19.0504 8.32452 18.8388 7.99289 18.5073C7.66126 18.1758 7.44959 17.7432 7.39134 17.278C7.33309 16.8127 7.43157 16.3414 7.67122 15.9384C7.91088 15.5353 8.27804 15.2236 8.71469 15.0525C9.15134 14.8814 9.63257 14.8606 10.0824 14.9935L14.4787 10.5358C14.3817 10.1779 14.3807 9.80059 14.4761 9.44212C14.5714 9.08365 14.7596 8.75665 15.0217 8.49412C15.2838 8.23159 15.6105 8.04281 15.9689 7.94683C16.3273 7.85085 16.7047 7.85106 17.063 7.94744L15.5567 9.45324L15.8127 10.6891L17.0482 10.945L18.5538 9.43989ZM9.15202 15.7801L9.48463 15.61L9.81584 15.7801L10.1878 15.7984L10.3896 16.1112L10.7026 16.313L10.7209 16.6849L10.8903 17.016L10.7202 17.3471L10.7019 17.719L10.3889 17.9207L10.1871 18.2336L9.81514 18.2518L9.48393 18.422L9.15272 18.2518L8.78073 18.2336L8.57891 17.9207L8.26599 17.719L8.24771 17.3471L8.07753 17.016L8.24771 16.6849L8.26599 16.313L8.57891 16.1112L8.78073 15.7984L9.15272 15.7801H9.15202Z" fill="white"/>
</g>
<defs>
<clipPath id="clip0">
<rect width="24" height="24" fill="white" transform="translate(0.5)"/>
</clipPath>
</defs>
</svg>
