<svg width="24" height="24" viewBox="0 0 24 24" fill="none" xmlns="http://www.w3.org/2000/svg">
<path fill-rule="evenodd" clip-rule="evenodd" d="M3 4.119L4.119 3L7.56664 5.4618C7.71182 5.56544 7.83013 5.70228 7.91169 5.86092C7.99325 6.01957 8.0357 6.19541 8.0355 6.37379V6.45212C8.03539 6.59924 8.06428 6.74495 8.12054 6.88089C8.1768 7.01683 8.25932 7.14035 8.36337 7.24437L14.7495 13.6305L15.7723 13.2892C15.9694 13.2236 16.1809 13.2142 16.3831 13.2621C16.5853 13.3099 16.7701 13.413 16.917 13.56L20.6724 17.3154C20.8822 17.5252 21 17.8098 21 18.1065C21 18.4032 20.8822 18.6878 20.6724 18.8976L18.8976 20.6724C18.6878 20.8822 18.4032 21 18.1065 21C17.8098 21 17.5252 20.8822 17.3154 20.6724L13.56 16.917C13.413 16.7701 13.3099 16.5853 13.2621 16.3831C13.2142 16.1809 13.2236 15.9694 13.2892 15.7723L13.6305 14.7495L7.24437 8.36337C7.03456 8.1535 6.74999 8.03556 6.45323 8.0355H6.37379C6.1956 8.03552 6.01998 7.99298 5.86155 7.91143C5.70311 7.82988 5.56645 7.71167 5.46292 7.56664L3 4.119ZM15.7051 14.9129C15.6001 14.8078 15.4576 14.7488 15.309 14.7488C15.1604 14.7488 15.0179 14.8078 14.9129 14.9129C14.8078 15.0179 14.7488 15.1604 14.7488 15.309C14.7488 15.4576 14.8078 15.6001 14.9129 15.7051L18.2699 19.0621C18.3749 19.1672 18.5174 19.2262 18.666 19.2262C18.8146 19.2262 18.9571 19.1672 19.0621 19.0621C19.1672 18.9571 19.2262 18.8146 19.2262 18.666C19.2262 18.5174 19.1672 18.3749 19.0621 18.2699L15.7051 14.9129Z" fill="#BDBDBD"/>
<path fill-rule="evenodd" clip-rule="evenodd" d="M20.886 5.50382C21.0387 6.07637 21.038 6.67899 20.884 7.25117C20.73 7.82336 20.4282 8.34499 20.0088 8.76369C19.5894 9.18239 19.0672 9.48343 18.4946 9.63659C17.922 9.78975 17.3193 9.78964 16.7467 9.63627L9.61237 16.6695C9.825 17.389 9.79175 18.1587 9.51789 18.8571C9.24403 19.5556 8.74517 20.1428 8.10014 20.5262C7.45511 20.9095 6.7007 21.067 5.95612 20.9739C5.21153 20.8807 4.51923 20.5421 3.98862 20.0117C3.45801 19.4812 3.11935 18.7891 3.02614 18.0448C2.93294 17.3004 3.09051 16.5462 3.47396 15.9014C3.85741 15.2565 4.44487 14.7578 5.1435 14.484C5.84214 14.2103 6.61212 14.177 7.33176 14.3896L14.366 7.25736C14.2106 6.68456 14.2092 6.08094 14.3617 5.50739C14.5142 4.93384 14.8153 4.41064 15.2347 3.99059C15.6541 3.57055 16.1769 3.2685 16.7503 3.11493C17.3237 2.96136 17.9275 2.9617 18.5008 3.11591L16.0908 5.52519L16.5003 7.50256L18.4772 7.91198L20.886 5.50382ZM5.84323 15.6482L6.37541 15.376L6.90534 15.6482L7.50053 15.6775L7.82344 16.178L8.32411 16.5008L8.35337 17.0958L8.62452 17.6256L8.35224 18.1554L8.32299 18.7504L7.82231 19.0732L7.4994 19.5737L6.90422 19.603L6.37429 19.8752L5.84436 19.603L5.24917 19.5737L4.92626 19.0732L4.42558 18.7504L4.39633 18.1554L4.12405 17.6256L4.39633 17.0958L4.42558 16.5008L4.92626 16.178L5.24917 15.6775L5.84436 15.6482H5.84323Z" fill="#BDBDBD"/>
</svg>
