<svg width="24" height="24" viewBox="0 0 24 24" fill="none" xmlns="http://www.w3.org/2000/svg">
<path fill-rule="evenodd" clip-rule="evenodd" d="M3 4.11998L4.119 3.00098L7.56664 5.46278C7.71182 5.56642 7.83013 5.70326 7.91169 5.8619C7.99325 6.02054 8.0357 6.19638 8.0355 6.37476V6.45309C8.03539 6.60022 8.06428 6.74592 8.12054 6.88187C8.1768 7.01781 8.25932 7.14133 8.36337 7.24534L14.7495 13.6315L15.7723 13.2902C15.9694 13.2246 16.1809 13.2152 16.3831 13.263C16.5853 13.3109 16.7701 13.414 16.917 13.561L20.6724 17.3163C20.8822 17.5262 21 17.8108 21 18.1075C21 18.4042 20.8822 18.6888 20.6724 18.8986L18.8976 20.6733C18.6878 20.8831 18.4032 21.001 18.1065 21.001C17.8098 21.001 17.5252 20.8831 17.3154 20.6733L13.56 16.918C13.413 16.7711 13.3099 16.5862 13.2621 16.3841C13.2142 16.1819 13.2236 15.9704 13.2892 15.7732L13.6305 14.7505L7.24437 8.36435C7.03456 8.15448 6.74999 8.03654 6.45323 8.03648H6.37379C6.1956 8.0365 6.01998 7.99396 5.86155 7.91241C5.70311 7.83085 5.56645 7.71265 5.46292 7.56762L3 4.11998ZM15.7051 14.9139C15.6001 14.8088 15.4576 14.7498 15.309 14.7498C15.1604 14.7498 15.0179 14.8088 14.9129 14.9139C14.8078 15.0189 14.7488 15.1614 14.7488 15.31C14.7488 15.4586 14.8078 15.601 14.9129 15.7061L18.2699 19.0631C18.3749 19.1682 18.5174 19.2272 18.666 19.2272C18.8146 19.2272 18.9571 19.1682 19.0621 19.0631C19.1672 18.958 19.2262 18.8156 19.2262 18.667C19.2262 18.5184 19.1672 18.3759 19.0621 18.2709L15.7051 14.9139Z" fill="#4F4F4F"/>
<path fill-rule="evenodd" clip-rule="evenodd" d="M20.886 5.5048C21.0387 6.07735 21.038 6.67996 20.884 7.25215C20.73 7.82434 20.4282 8.34597 20.0088 8.76467C19.5894 9.18337 19.0672 9.4844 18.4946 9.63756C17.922 9.79072 17.3193 9.79061 16.7467 9.63724L9.61237 16.6705C9.825 17.3899 9.79175 18.1597 9.51789 18.8581C9.24403 19.5565 8.74517 20.1438 8.10014 20.5272C7.45511 20.9105 6.7007 21.068 5.95612 20.9748C5.21153 20.8817 4.51923 20.5431 3.98862 20.0126C3.45801 19.4822 3.11935 18.7901 3.02614 18.0457C2.93294 17.3014 3.09051 16.5472 3.47396 15.9024C3.85741 15.2575 4.44487 14.7588 5.1435 14.485C5.84214 14.2112 6.61212 14.178 7.33176 14.3906L14.366 7.25833C14.2106 6.68554 14.2092 6.08192 14.3617 5.50836C14.5142 4.93481 14.8153 4.41162 15.2347 3.99157C15.6541 3.57152 16.1769 3.26948 16.7503 3.11591C17.3237 2.96234 17.9275 2.96267 18.5008 3.11689L16.0908 5.52617L16.5003 7.50353L18.4772 7.91295L20.886 5.5048ZM5.84323 15.6492L6.37541 15.377L6.90534 15.6492L7.50053 15.6784L7.82344 16.179L8.32411 16.5018L8.35337 17.0968L8.62452 17.6266L8.35224 18.1563L8.32299 18.7514L7.82231 19.0742L7.4994 19.5747L6.90422 19.6039L6.37429 19.8761L5.84436 19.6039L5.24917 19.5747L4.92626 19.0742L4.42558 18.7514L4.39633 18.1563L4.12405 17.6266L4.39633 17.0968L4.42558 16.5018L4.92626 16.179L5.24917 15.6784L5.84436 15.6492H5.84323Z" fill="#4F4F4F"/>
</svg>
