<svg width="24" height="24" viewBox="0 0 24 24" fill="none" xmlns="http://www.w3.org/2000/svg">
<path opacity="0.8" fill-rule="evenodd" clip-rule="evenodd" d="M0 5C0 2.23858 2.23858 0 5 0H17C17.5523 0 18 0.447715 18 1C18 1.55228 17.5523 2 17 2H5C3.34315 2 2 3.34315 2 5V17C2 17.5523 1.55228 18 1 18C0.447715 18 0 17.5523 0 17V5Z" fill="#38BC94"/>
<rect x="4.5" y="4.5" width="16" height="16" rx="2" fill="#38BC94" stroke="#38BC94" stroke-width="2"/>
<path fill-rule="evenodd" clip-rule="evenodd" d="M6.66699 7.39227L7.39227 6.66699L9.62685 8.2626C9.72095 8.32978 9.79763 8.41847 9.85049 8.5213C9.90335 8.62412 9.93087 8.73809 9.93074 8.85371V8.90447C9.93067 8.99983 9.9494 9.09427 9.98586 9.18238C10.0223 9.2705 10.0758 9.35055 10.1432 9.41797L14.2824 13.5571L14.9453 13.3359C15.0731 13.2934 15.2102 13.2873 15.3412 13.3183C15.4723 13.3493 15.5921 13.4162 15.6873 13.5114L18.1213 15.9455C18.2573 16.0815 18.3337 16.2659 18.3337 16.4582C18.3337 16.6506 18.2573 16.835 18.1213 16.971L16.971 18.1213C16.835 18.2573 16.6506 18.3337 16.4582 18.3337C16.2659 18.3337 16.0815 18.2573 15.9455 18.1213L13.5114 15.6873C13.4162 15.5921 13.3493 15.4723 13.3183 15.3412C13.2873 15.2102 13.2934 15.0731 13.3359 14.9453L13.5571 14.2824L9.41797 10.1432C9.28199 10.0072 9.09754 9.93078 8.9052 9.93074H8.85371C8.73821 9.93075 8.62439 9.90318 8.5217 9.85033C8.41901 9.79747 8.33043 9.72085 8.26333 9.62685L6.66699 7.39227ZM14.9018 14.3883C14.8337 14.3202 14.7413 14.282 14.645 14.282C14.5488 14.282 14.4564 14.3202 14.3883 14.3883C14.3202 14.4564 14.282 14.5488 14.282 14.645C14.282 14.7413 14.3202 14.8337 14.3883 14.9018L16.5641 17.0776C16.6322 17.1457 16.7246 17.184 16.8209 17.184C16.9172 17.184 17.0095 17.1457 17.0776 17.0776C17.1457 17.0095 17.184 16.9172 17.184 16.8209C17.184 16.7246 17.1457 16.6322 17.0776 16.5641L14.9018 14.3883Z" fill="#DAF2EB"/>
<path fill-rule="evenodd" clip-rule="evenodd" d="M18.2598 8.28984C18.3587 8.66094 18.3583 9.05152 18.2585 9.42238C18.1587 9.79325 17.963 10.1313 17.6912 10.4027C17.4194 10.6741 17.0809 10.8692 16.7098 10.9685C16.3387 11.0678 15.948 11.0677 15.5769 10.9683L10.9528 15.5269C11.0906 15.9932 11.0691 16.4921 10.8916 16.9448C10.714 17.3974 10.3907 17.7781 9.97264 18.0266C9.55457 18.275 9.06559 18.3771 8.58299 18.3167C8.10039 18.2563 7.65168 18.0369 7.30777 17.6931C6.96385 17.3493 6.74435 16.9007 6.68394 16.4182C6.62353 15.9358 6.72566 15.4469 6.97419 15.029C7.22272 14.611 7.60348 14.2878 8.0563 14.1104C8.50912 13.9329 9.00818 13.9114 9.47462 14.0491L14.0338 9.42639C13.9331 9.05513 13.9322 8.6639 14.031 8.29215C14.1299 7.9204 14.3251 7.5813 14.5969 7.30904C14.8687 7.03679 15.2076 6.84102 15.5792 6.74148C15.9509 6.64195 16.3422 6.64217 16.7138 6.74212L15.1518 8.30369L15.4172 9.58532L16.6985 9.85068L18.2598 8.28984ZM8.50983 14.8649L8.85476 14.6885L9.19823 14.8649L9.584 14.8839L9.79329 15.2083L10.1178 15.4175L10.1368 15.8032L10.3125 16.1465L10.136 16.4899L10.1171 16.8756L9.79257 17.0848L9.58327 17.4092L9.1975 17.4282L8.85403 17.6046L8.51056 17.4282L8.12479 17.4092L7.91549 17.0848L7.59098 16.8756L7.57202 16.4899L7.39554 16.1465L7.57202 15.8032L7.59098 15.4175L7.91549 15.2083L8.12479 14.8839L8.51056 14.8649H8.50983Z" fill="#DAF2EB"/>
</svg>
