<svg width="24" height="24" viewBox="0 0 24 24" fill="none" xmlns="http://www.w3.org/2000/svg">
<path d="M20.8182 15H17.1818V19H7.72727V21H8.45455C8.45455 21.5304 8.68442 22.0391 9.09359 22.4142C9.50276 22.7893 10.0577 23 10.6364 23C11.215 23 11.77 22.7893 12.1791 22.4142C12.5883 22.0391 12.8182 21.5304 12.8182 21H17.1818C17.1818 21.5304 17.4117 22.0391 17.8209 22.4142C18.23 22.7893 18.785 23 19.3636 23C19.9423 23 20.4972 22.7893 20.9064 22.4142C21.3156 22.0391 21.5455 21.5304 21.5455 21H23V17.6667L20.8182 15ZM10.6364 22C10.347 22 10.0696 21.8946 9.86497 21.7071C9.66039 21.5196 9.54545 21.2652 9.54545 21C9.54545 20.7348 9.66039 20.4804 9.86497 20.2929C10.0696 20.1054 10.347 20 10.6364 20C10.9257 20 11.2032 20.1054 11.4078 20.2929C11.6123 20.4804 11.7273 20.7348 11.7273 21C11.7273 21.2652 11.6123 21.5196 11.4078 21.7071C11.2032 21.8946 10.9257 22 10.6364 22ZM19.3636 22C19.0743 22 18.7968 21.8946 18.5922 21.7071C18.3877 21.5196 18.2727 21.2652 18.2727 21C18.2727 20.7348 18.3877 20.4804 18.5922 20.2929C18.7968 20.1054 19.0743 20 19.3636 20C19.653 20 19.9304 20.1054 20.135 20.2929C20.3396 20.4804 20.4545 20.7348 20.4545 21C20.4545 21.2652 20.3396 21.5196 20.135 21.7071C19.9304 21.8946 19.653 22 19.3636 22ZM18.6364 17.6667V16H20.4545L21.88 17.6667H18.6364ZM19.3636 14.3333H16.4545V18.3333H8.45455L7.41455 15H7V13.6667H15.7273L16.4545 13H19.3636V14.3333Z" fill="#38BC94"/>
<path d="M14.8182 3H11.1818V7H1.72727V9H2.45455C2.45455 9.53043 2.68442 10.0391 3.09359 10.4142C3.50276 10.7893 4.05771 11 4.63636 11C5.21502 11 5.76997 10.7893 6.17914 10.4142C6.58831 10.0391 6.81818 9.53043 6.81818 9H11.1818C11.1818 9.53043 11.4117 10.0391 11.8209 10.4142C12.23 10.7893 12.785 11 13.3636 11C13.9423 11 14.4972 10.7893 14.9064 10.4142C15.3156 10.0391 15.5455 9.53043 15.5455 9H17V5.66667L14.8182 3ZM4.63636 10C4.34704 10 4.06956 9.89464 3.86497 9.70711C3.66039 9.51957 3.54545 9.26522 3.54545 9C3.54545 8.73478 3.66039 8.48043 3.86497 8.29289C4.06956 8.10536 4.34704 8 4.63636 8C4.92569 8 5.20317 8.10536 5.40775 8.29289C5.61234 8.48043 5.72727 8.73478 5.72727 9C5.72727 9.26522 5.61234 9.51957 5.40775 9.70711C5.20317 9.89464 4.92569 10 4.63636 10ZM13.3636 10C13.0743 10 12.7968 9.89464 12.5922 9.70711C12.3877 9.51957 12.2727 9.26522 12.2727 9C12.2727 8.73478 12.3877 8.48043 12.5922 8.29289C12.7968 8.10536 13.0743 8 13.3636 8C13.653 8 13.9304 8.10536 14.135 8.29289C14.3396 8.48043 14.4545 8.73478 14.4545 9C14.4545 9.26522 14.3396 9.51957 14.135 9.70711C13.9304 9.89464 13.653 10 13.3636 10ZM12.6364 5.66667V4H14.4545L15.88 5.66667H12.6364ZM13.3636 2.33333H10.4545V6.33333H2.45455L1.41455 3H1V1.66667H9.72727L10.4545 1H13.3636V2.33333Z" fill="#38BC94"/>
</svg>
