<svg width="33" height="32" viewBox="0 0 33 32" fill="none" xmlns="http://www.w3.org/2000/svg">
<path d="M1.59326 4.66797C1.59326 3.5634 2.48869 2.66797 3.59326 2.66797H17.2914H23.7804C24.2224 2.66797 24.652 2.81441 25.002 3.0844L30.4669 7.30021C30.9578 7.67889 31.2453 8.26381 31.2453 8.88378V26.2152V28.5758C31.2453 29.6804 30.3499 30.5758 29.2453 30.5758H7.65441C7.12397 30.5758 6.61527 30.3651 6.2402 29.99L2.17905 25.9289C1.80398 25.5538 1.59326 25.0451 1.59326 24.5147V20.9825V4.66797Z" fill="#35A684"/>
<rect x="6.27539" y="7.25781" width="24.9702" height="23.4095" rx="2" fill="#38BC94"/>
<path d="M25.3891 15.8333H21.5002V20.5H11.3891V22.8333H12.1669C12.1669 23.4522 12.4127 24.0457 12.8503 24.4833C13.2879 24.9208 13.8814 25.1667 14.5002 25.1667C15.1191 25.1667 15.7125 24.9208 16.1501 24.4833C16.5877 24.0457 16.8335 23.4522 16.8335 22.8333H21.5002C21.5002 23.4522 21.746 24.0457 22.1836 24.4833C22.6212 24.9208 23.2147 25.1667 23.8335 25.1667C24.4524 25.1667 25.0459 24.9208 25.4835 24.4833C25.9211 24.0457 26.1669 23.4522 26.1669 22.8333H27.7224V18.9444L25.3891 15.8333ZM14.5002 24C14.1908 24 13.8941 23.8771 13.6753 23.6583C13.4565 23.4395 13.3336 23.1428 13.3336 22.8333C13.3336 22.5239 13.4565 22.2272 13.6753 22.0084C13.8941 21.7896 14.1908 21.6667 14.5002 21.6667C14.8096 21.6667 15.1064 21.7896 15.3252 22.0084C15.544 22.2272 15.6669 22.5239 15.6669 22.8333C15.6669 23.1428 15.544 23.4395 15.3252 23.6583C15.1064 23.8771 14.8096 24 14.5002 24ZM23.8335 24C23.5241 24 23.2274 23.8771 23.0086 23.6583C22.7898 23.4395 22.6669 23.1428 22.6669 22.8333C22.6669 22.5239 22.7898 22.2272 23.0086 22.0084C23.2274 21.7896 23.5241 21.6667 23.8335 21.6667C24.143 21.6667 24.4397 21.7896 24.6585 22.0084C24.8773 22.2272 25.0002 22.5239 25.0002 22.8333C25.0002 23.1428 24.8773 23.4395 24.6585 23.6583C24.4397 23.8771 24.143 24 23.8335 24ZM23.0558 18.9444V17H25.0002L26.5247 18.9444H23.0558ZM23.8335 15.0556H20.7224V19.7222H12.1669L11.0547 15.8333H10.6113V14.2778H19.9447L20.7224 13.5H23.8335V15.0556Z" fill="white"/>
</svg>
