<svg width="33" height="32" viewBox="0 0 33 32" fill="none" xmlns="http://www.w3.org/2000/svg">
<path d="M1.59326 4.66797C1.59326 3.5634 2.48869 2.66797 3.59326 2.66797H17.2914H23.7804C24.2224 2.66797 24.652 2.81441 25.002 3.0844L30.4669 7.30021C30.9578 7.67889 31.2453 8.26381 31.2453 8.88378V26.2152V28.5758C31.2453 29.6804 30.3499 30.5758 29.2453 30.5758H7.65441C7.12397 30.5758 6.61527 30.3651 6.2402 29.99L2.17905 25.9289C1.80398 25.5538 1.59326 25.0451 1.59326 24.5147V20.9825V4.66797Z" fill="#35A684"/>
<rect x="6.27539" y="7.25781" width="24.9702" height="23.4095" rx="2" fill="#38BC94"/>
<path fill-rule="evenodd" clip-rule="evenodd" d="M16.5061 16.9691L19.167 18.3945L25.292 15.1133L22.6311 13.6878L16.5061 16.9691ZM15.6991 16.5367L13.042 15.1133L19.167 11.832L21.8241 13.2555L15.6991 16.5367Z" fill="white"/>
<path d="M19.167 19.957L26.167 16.0508V23.2695L19.167 26.832V19.957Z" fill="white"/>
<path d="M19.167 19.957L12.167 16.0508V23.2695L19.167 26.832V19.957Z" fill="white"/>
</svg>
