<svg xmlns="http://www.w3.org/2000/svg" width="20" height="19" viewBox="0 0 20 19" fill="none">
<path d="M5.04996 11.6214L2.92996 13.7434L5.75796 16.5714L17.071 5.25743L14.243 2.43043L12.12 4.55044L13.535 5.96443L12.12 7.38043L10.706 5.96544L9.29196 7.38043L10.706 8.79443L9.29196 10.2084L7.87796 8.79443L6.46296 10.2084L7.87796 11.6224L6.46296 13.0374L5.04996 11.6204V11.6214ZM14.95 0.308435L19.192 4.55044C19.3794 4.73796 19.4847 4.99227 19.4847 5.25743C19.4847 5.5226 19.3794 5.77691 19.192 5.96443L6.46396 18.6924C6.27643 18.8799 6.02212 18.9852 5.75696 18.9852C5.49179 18.9852 5.23749 18.8799 5.04996 18.6924L0.807959 14.4504C0.620488 14.2629 0.515172 14.0086 0.515172 13.7434C0.515172 13.4783 0.620488 13.224 0.807959 13.0364L13.536 0.308435C13.7235 0.120964 13.9778 0.0156484 14.243 0.0156484C14.5081 0.0156484 14.7624 0.120964 14.95 0.308435ZM12.12 15.8634L13.535 14.4494L15.777 16.6924H17.191V15.2784L14.949 13.0354L16.363 11.6214L19 14.2574V18.5004H14.758L12.121 15.8634H12.12ZM3.63596 7.37844L0.806958 4.55044C0.713982 4.45756 0.640223 4.34727 0.589899 4.22588C0.539575 4.10448 0.513672 3.97435 0.513672 3.84294C0.513672 3.71152 0.539575 3.58139 0.589899 3.45999C0.640223 3.3386 0.713982 3.22831 0.806958 3.13544L3.63596 0.307435C3.82349 0.119964 4.07779 0.0146484 4.34296 0.0146484C4.60812 0.0146484 4.86243 0.119964 5.04996 0.307435L7.87996 3.13544L6.46396 4.55044L4.34296 2.42843L2.92896 3.84343L5.04996 5.96344L3.63596 7.37844Z" fill="#BDBDBD"/>
</svg>