<svg width="24" height="24" viewBox="0 0 24 24" fill="none" xmlns="http://www.w3.org/2000/svg">
<path d="M0.820312 4C0.820312 2.89543 1.71574 2 2.82031 2H12.5939H17.2902C17.7323 2 18.1618 2.14644 18.5118 2.41644L22.281 5.32407C22.7719 5.70274 23.0594 6.28766 23.0594 6.90763V19.6604V20.9309C23.0594 22.0354 22.1639 22.9309 21.0594 22.9309H5.57328C5.04285 22.9309 4.53414 22.7202 4.15907 22.3451L1.4061 19.5921C1.03103 19.2171 0.820312 18.7083 0.820312 18.1779V15.7359V4Z" fill="#35A684"/>
<rect x="4.33203" y="5.44141" width="18.7276" height="17.5572" rx="2" fill="#38BC94"/>
<path d="M18.6654 11.875H15.7487V15.375H8.16536V17.125H8.7487C8.7487 17.5891 8.93307 18.0342 9.26126 18.3624C9.58945 18.6906 10.0346 18.875 10.4987 18.875C10.9628 18.875 11.4079 18.6906 11.7361 18.3624C12.0643 18.0342 12.2487 17.5891 12.2487 17.125H15.7487C15.7487 17.5891 15.9331 18.0342 16.2613 18.3624C16.5894 18.6906 17.0346 18.875 17.4987 18.875C17.9628 18.875 18.4079 18.6906 18.7361 18.3624C19.0643 18.0342 19.2487 17.5891 19.2487 17.125H20.4154V14.2083L18.6654 11.875ZM10.4987 18C10.2666 18 10.0441 17.9078 9.87998 17.7437C9.71588 17.5796 9.6237 17.3571 9.6237 17.125C9.6237 16.8929 9.71588 16.6704 9.87998 16.5063C10.0441 16.3422 10.2666 16.25 10.4987 16.25C10.7308 16.25 10.9533 16.3422 11.1174 16.5063C11.2815 16.6704 11.3737 16.8929 11.3737 17.125C11.3737 17.3571 11.2815 17.5796 11.1174 17.7437C10.9533 17.9078 10.7308 18 10.4987 18ZM17.4987 18C17.2666 18 17.0441 17.9078 16.88 17.7437C16.7159 17.5796 16.6237 17.3571 16.6237 17.125C16.6237 16.8929 16.7159 16.6704 16.88 16.5063C17.0441 16.3422 17.2666 16.25 17.4987 16.25C17.7308 16.25 17.9533 16.3422 18.1174 16.5063C18.2815 16.6704 18.3737 16.8929 18.3737 17.125C18.3737 17.3571 18.2815 17.5796 18.1174 17.7437C17.9533 17.9078 17.7308 18 17.4987 18ZM16.9154 14.2083V12.75H18.3737L19.517 14.2083H16.9154ZM17.4987 11.2917H15.1654V14.7917H8.7487L7.91453 11.875H7.58203V10.7083H14.582L15.1654 10.125H17.4987V11.2917Z" fill="white"/>
</svg>
