<svg width="39" height="24" viewBox="0 0 39 24" fill="none" xmlns="http://www.w3.org/2000/svg">
<line x1="25.5" y1="7" x2="37.5" y2="7" stroke="#38BC94" stroke-width="2"/>
<line x1="25.5" y1="12" x2="37.5" y2="12" stroke="#38BC94" stroke-width="2"/>
<line x1="25.5" y1="17" x2="32.1667" y2="17" stroke="#38BC94" stroke-width="2"/>
<path d="M20.5 7.8H15.5V13.4H2.5V16.2H3.5C3.5 16.9426 3.81607 17.6548 4.37868 18.1799C4.94129 18.705 5.70435 19 6.5 19C7.29565 19 8.05871 18.705 8.62132 18.1799C9.18393 17.6548 9.5 16.9426 9.5 16.2H15.5C15.5 16.9426 15.8161 17.6548 16.3787 18.1799C16.9413 18.705 17.7044 19 18.5 19C19.2956 19 20.0587 18.705 20.6213 18.1799C21.1839 17.6548 21.5 16.9426 21.5 16.2H23.5V11.5333L20.5 7.8ZM6.5 17.6C6.10218 17.6 5.72064 17.4525 5.43934 17.1899C5.15804 16.9274 5 16.5713 5 16.2C5 15.8287 5.15804 15.4726 5.43934 15.2101C5.72064 14.9475 6.10218 14.8 6.5 14.8C6.89782 14.8 7.27936 14.9475 7.56066 15.2101C7.84196 15.4726 8 15.8287 8 16.2C8 16.5713 7.84196 16.9274 7.56066 17.1899C7.27936 17.4525 6.89782 17.6 6.5 17.6ZM18.5 17.6C18.1022 17.6 17.7206 17.4525 17.4393 17.1899C17.158 16.9274 17 16.5713 17 16.2C17 15.8287 17.158 15.4726 17.4393 15.2101C17.7206 14.9475 18.1022 14.8 18.5 14.8C18.8978 14.8 19.2794 14.9475 19.5607 15.2101C19.842 15.4726 20 15.8287 20 16.2C20 16.5713 19.842 16.9274 19.5607 17.1899C19.2794 17.4525 18.8978 17.6 18.5 17.6ZM17.5 11.5333V9.2H20L21.96 11.5333H17.5ZM18.5 6.86667H14.5V12.4667H3.5L2.07 7.8H1.5V5.93333H13.5L14.5 5H18.5V6.86667Z" fill="#38BC94"/>
</svg>
