<svg xmlns="http://www.w3.org/2000/svg" width="40" height="40" viewBox="0 0 40 40" fill="none">
<path d="M12.0527 20.5664L13.2648 16.6219C13.3456 16.1236 13.6957 15.7196 14.1671 15.5715L16.6451 14.75C17.1299 14.5884 17.6686 14.7096 18.0322 15.0866L20.8064 17.8878L23.5807 15.0732C23.9443 14.7096 24.483 14.5749 24.9678 14.7365L27.4458 15.558C27.9171 15.7196 28.2673 16.1236 28.3481 16.6084L29.5601 20.5529" fill="#333333"/>
<path d="M24.175 8.52841C24.175 6.57567 22.6667 5 20.8082 5C18.9497 5 17.4414 6.58913 17.4414 8.52841V9.53846C17.4414 11.4912 18.9497 13.0803 20.8082 13.0803C22.6667 13.0803 24.175 11.4912 24.175 9.55192V8.52841Z" fill="#333333"/>
<path d="M6.66602 22.5605V25.254C6.66602 26.7354 7.87807 27.9474 9.35946 27.9474L10.7062 33.3343H30.907L32.2538 27.9474C33.7351 27.9474 34.9472 26.7354 34.9472 25.254V22.5605H6.66602Z" fill="#333333"/>
</svg>