<svg width="24" height="25" viewBox="0 0 24 25" fill="none" xmlns="http://www.w3.org/2000/svg">
<path d="M7.23047 12.8393L7.9577 10.4726C8.00618 10.1736 8.21627 9.93117 8.49908 9.84229L9.98586 9.34939C10.2768 9.25243 10.6 9.32515 10.8181 9.5514L12.4827 11.2321L14.1472 9.54332C14.3654 9.32515 14.6886 9.24434 14.9795 9.34131L16.4663 9.83421C16.7491 9.93117 16.9592 10.1736 17.0077 10.4645L17.7349 12.8312" fill="#BDBDBD"/>
<path d="M14.504 5.61705C14.504 4.4454 13.599 3.5 12.484 3.5C11.3689 3.5 10.4639 4.45348 10.4639 5.61705V6.22307C10.4639 7.39472 11.3689 8.3482 12.484 8.3482C13.599 8.3482 14.504 7.39472 14.504 6.23115V5.61705Z" fill="#BDBDBD"/>
<path d="M3.99902 14.0352V15.6512C3.99902 16.5401 4.72625 17.2673 5.61509 17.2673L6.42312 20.4994H18.5436L19.3517 17.2673C20.2405 17.2673 20.9677 16.5401 20.9677 15.6512V14.0352H3.99902Z" fill="#BDBDBD"/>
</svg>
