<svg xmlns="http://www.w3.org/2000/svg" width="23" height="23" viewBox="0 0 23 23" fill="none">
<path d="M4.64062 12.4533L5.61027 9.29772C5.67491 8.89909 5.95503 8.57588 6.33211 8.45736L8.31449 7.80016C8.70234 7.67088 9.13329 7.76784 9.42418 8.06951L11.6436 10.3105L13.863 8.05873C14.1539 7.76784 14.5848 7.6601 14.9727 7.78939L16.9551 8.44659C17.3321 8.57587 17.6123 8.89909 17.6769 9.28694L18.6465 12.4426" fill="#333333"/>
<path d="M14.3381 2.82273C14.3381 1.26053 13.1314 0 11.6446 0C10.1578 0 8.95117 1.27131 8.95117 2.82273V3.63076C8.95117 5.19296 10.1578 6.46427 11.6446 6.46427C13.1314 6.46427 14.3381 5.19296 14.3381 3.64154V2.82273Z" fill="#4F4F4F"/>
<path d="M0.332031 14.0488V16.2036C0.332031 17.3887 1.30167 18.3583 2.48679 18.3583L3.56417 22.6679H19.7248L20.8022 18.3583C21.9873 18.3583 22.957 17.3887 22.957 16.2036V14.0488H0.332031Z" fill="#333333"/>
</svg>