<svg width="80" height="80" viewBox="0 0 80 80" fill="none" xmlns="http://www.w3.org/2000/svg">
<path d="M13.75 20.75C13.75 16.884 16.884 13.75 20.75 13.75H56.75C60.616 13.75 63.75 16.884 63.75 20.75V61.75C63.75 65.616 60.616 68.75 56.75 68.75H20.75C16.884 68.75 13.75 65.616 13.75 61.75V20.75Z" fill="#DAF2EB"/>
<path d="M25.219 36.6349L27.378 29.6087C27.5219 28.7211 28.1456 28.0015 28.9852 27.7376L33.3991 26.2743C34.2627 25.9864 35.2222 26.2023 35.8699 26.874L40.8115 31.8636L45.7532 26.85C46.4008 26.2023 47.3604 25.9625 48.224 26.2503L52.6379 27.7136C53.4775 28.0015 54.1012 28.7211 54.2451 29.5847L56.404 36.6109" fill="#7FD4BA"/>
<path d="M46.8104 15.1912C46.8104 11.7129 44.1237 8.90625 40.8133 8.90625C37.5029 8.90625 34.8162 11.7369 34.8162 15.1912V16.9904C34.8162 20.4687 37.5029 23.2994 40.8133 23.2994C44.1237 23.2994 46.8104 20.4687 46.8104 17.0144V15.1912Z" fill="#7FD4BA"/>
<path d="M15.6238 40.1869V44.9846C15.6238 47.6233 17.7827 49.7823 20.4215 49.7823L22.8203 59.3777H58.8031L61.2019 49.7823C63.8407 49.7823 65.9996 47.6233 65.9996 44.9846V40.1869H15.6238Z" fill="#7FD4BA"/>
</svg>
