<svg width="80" height="80" viewBox="0 0 80 80" fill="none" xmlns="http://www.w3.org/2000/svg">
<path d="M13.75 34.5C13.75 22.3497 23.5997 12.5 35.75 12.5H45.5C57.6503 12.5 67.5 22.3497 67.5 34.5V44.25C67.5 56.4003 57.6503 66.25 45.5 66.25H35.75C23.5997 66.25 13.75 56.4003 13.75 44.25V34.5Z" fill="#E0E0E0"/>
<g clip-path="url(#clip0_1546_113219)">
<path d="M40.1797 20H40.8203C40.9698 20.0811 41.1182 20.1644 41.2698 20.2424C46.9799 23.1501 52.6911 26.0553 58.4033 28.9581C59.0578 29.2891 59.328 29.7471 59.3269 30.4764C59.3141 39.6821 59.3112 48.8876 59.3184 58.0926V58.6062C60.1095 58.4994 60.6765 58.7728 61 59.4785V60.1191C60.8172 60.5059 60.5059 60.8172 60.1191 61H54.5137V36.0274C54.5137 35.013 54.0695 34.5742 53.0466 34.5742H27.9939C26.9145 34.5742 26.4863 35.0013 26.4863 36.069V61H20.8809C20.4937 60.8178 20.1822 60.5063 20 60.1191V59.4785C20.3203 58.7728 20.8894 58.4994 21.6816 58.6083V58.0926C21.6816 48.8612 21.6795 39.6291 21.6752 30.3963C21.6752 29.7322 21.9326 29.2987 22.5294 28.9986C26.0372 27.2263 29.5403 25.4467 33.0389 23.6601C35.4206 22.4415 37.8008 21.2215 40.1797 20Z" fill="#BDBDBD"/>
<path d="M28.8887 60.9997V58.1436H52.1113V61.0018L28.8887 60.9997Z" fill="#BDBDBD"/>
<path d="M52.0921 37.0029V39.8398H28.9229V37.0029H52.0921Z" fill="#BDBDBD"/>
<path d="M28.9067 45.118V42.2832H52.092V45.118H28.9067Z" fill="#BDBDBD"/>
<path d="M28.8984 50.3963V47.5732H52.0848V50.3941L28.8984 50.3963Z" fill="#BDBDBD"/>
<path d="M28.9077 55.6885V52.8516H52.077V55.6885H28.9077Z" fill="#BDBDBD"/>
</g>
<defs>
<clipPath id="clip0_1546_113219">
<rect width="41" height="41" fill="white" transform="translate(20 20)"/>
</clipPath>
</defs>
</svg>
