<svg width="42" height="42" viewBox="0 0 42 42" fill="none" xmlns="http://www.w3.org/2000/svg">
<path fill-rule="evenodd" clip-rule="evenodd" d="M21 4C11.6112 4 4 11.6112 4 21C4 30.3888 11.6112 38 21 38C30.3888 38 38 30.3888 38 21C38 11.6112 30.3888 4 21 4ZM19.209 12.6104H22.7909L22.477 24.153H19.531L19.209 12.6104ZM22.9358 27.3727C22.9278 28.4432 22.0343 29.3045 21.004 29.3045C19.9415 29.3045 19.0641 28.4432 19.0722 27.3727C19.0641 26.3182 19.9415 25.457 21.004 25.457C22.0343 25.457 22.9278 26.3182 22.9358 27.3727Z" fill="#EB5757"/>
</svg>
