<svg width="44" height="44" viewBox="0 0 44 44" fill="none" xmlns="http://www.w3.org/2000/svg">
<path d="M17.1373 20.1024L30.3598 34.8489C30.9777 35.5492 32.0486 35.5492 32.7077 34.9313L34.932 32.707C35.5911 32.0479 35.5499 30.9769 34.8497 30.3591L20.1031 17.1366C21.0093 15.0358 20.5974 12.5231 18.9085 10.8343C17.4256 9.35138 15.3661 8.85708 13.4713 9.35138C13.2241 9.39257 13.1417 9.68091 13.3065 9.84568L16.7254 13.2646L13.2653 16.7247L9.84641 13.3058C9.68164 13.141 9.3933 13.2234 9.35211 13.4705C8.85781 15.3653 9.35211 17.4249 10.835 18.9078C12.5239 20.5967 15.0777 21.0086 17.1373 20.1024Z" fill="#7FD4BA"/>
<path d="M18.2906 23.4395L21.9155 27.4762L14.7893 34.6024C13.9655 35.4262 12.8121 35.591 11.8236 35.179C11.494 35.0555 11.2057 34.8495 10.9585 34.6024C10.7114 34.3552 10.5054 34.0669 10.3818 33.7373C9.96993 32.7487 10.1347 31.5542 10.9585 30.7715L18.2906 23.4395Z" fill="#7FD4BA"/>
<path d="M34.4379 13.0179L31.225 17.0958L29.9892 17.4665L29.7421 17.2606L26.1996 20.8031L24.6755 19.4437L28.3004 15.8189L28.0532 15.5717L28.4652 14.336L32.5019 11.123L34.4379 13.0179Z" fill="#7FD4BA"/>
</svg>
