<svg width="80" height="80" viewBox="0 0 80 80" fill="none" xmlns="http://www.w3.org/2000/svg">
<path d="M11.25 35.75C11.25 23.5997 21.0997 13.75 33.25 13.75H45.5C57.6503 13.75 67.5 23.5997 67.5 35.75V48C67.5 60.1503 57.6503 70 45.5 70H33.25C21.0997 70 11.25 60.1503 11.25 48V35.75Z" fill="#DAF2EB"/>
<path fill-rule="evenodd" clip-rule="evenodd" d="M60.2087 41.9009C60.2087 53.3924 50.8929 62.7082 39.4014 62.7082C36.3139 62.7082 33.3836 62.0357 30.7487 60.8293L36.0031 55.6913L37.0536 54.6408V54.7973C41.5237 55.8701 46.262 54.5514 49.9946 51.7352C56.5656 46.7734 52.6096 35.911 52.6096 35.911L45.2562 43.2644C44.3622 44.136 42.9541 44.136 42.0825 43.2644L38.931 40.1129C38.0594 39.2413 38.0594 37.8332 38.931 36.9615L46.2844 29.6082C41.3225 27.2167 35.1538 28.0883 31.0413 32.2232C27.5323 35.7322 26.37 40.7164 27.577 45.1642L21.7882 50.953L21.0272 51.6735C19.4742 48.7598 18.5941 45.4331 18.5941 41.9009C18.5941 30.4093 27.9098 21.0936 39.4014 21.0936C50.8929 21.0936 60.2087 30.4093 60.2087 41.9009ZM39.4014 67.604C53.5968 67.604 65.1045 56.0963 65.1045 41.9009C65.1045 27.7054 53.5968 16.1978 39.4014 16.1978C25.2059 16.1978 13.6982 27.7054 13.6982 41.9009C13.6982 56.0963 25.2059 67.604 39.4014 67.604Z" fill="#7FD4BA"/>
</svg>
