<svg width="46" height="46" viewBox="0 0 46 46" fill="none" xmlns="http://www.w3.org/2000/svg">
<path fill-rule="evenodd" clip-rule="evenodd" d="M36.525 22.5273C36.525 30.0719 30.4089 36.1881 22.8643 36.1881C20.837 36.1881 18.9128 35.7465 17.1828 34.9542L20.6312 31.5821L21.3209 30.8924V30.9951C24.2557 31.6994 27.3666 30.8337 29.8171 28.9848C34.1312 25.7272 31.534 18.5956 31.534 18.5956L26.7062 23.4234C26.1193 23.9956 25.1948 23.9956 24.6226 23.4234L22.5535 21.3543C21.9812 20.782 21.9812 19.8576 22.5535 19.2853L27.3812 14.4576C24.1236 12.8875 20.0736 13.4598 17.3736 16.1744C15.0698 18.4782 14.3068 21.7505 15.0992 24.6706L11.2986 28.4712L10.8006 28.9428C9.78126 27.0299 9.20354 24.8461 9.20354 22.5273C9.20354 14.9827 15.3197 8.86663 22.8643 8.86663C30.4089 8.86663 36.525 14.9827 36.525 22.5273ZM22.8643 39.4023C32.1841 39.4023 39.7393 31.8472 39.7393 22.5273C39.7393 13.2075 32.1841 5.65234 22.8643 5.65234C13.5445 5.65234 5.98926 13.2075 5.98926 22.5273C5.98926 31.8472 13.5445 39.4023 22.8643 39.4023Z" fill="#4F4F4F"/>
</svg>
