<svg width="30" height="30" viewBox="0 0 30 30" fill="none" xmlns="http://www.w3.org/2000/svg">
<path d="M11.6845 13.7066L20.6998 23.7611C21.1211 24.2385 21.8513 24.2385 22.3006 23.8172L23.8172 22.3006C24.2666 21.8513 24.2385 21.1211 23.7611 20.6998L13.7066 11.6845C14.3245 10.2521 14.0436 8.53894 12.8921 7.38745C11.8811 6.37638 10.4768 6.03936 9.1849 6.37638C9.01638 6.40447 8.96021 6.60106 9.07255 6.7134L11.4036 9.04447L9.04447 11.4036L6.7134 9.07256C6.60106 8.96021 6.40447 9.01639 6.37638 9.1849C6.03936 10.4768 6.37638 11.8811 7.38745 12.8921C8.53894 14.0436 10.2802 14.3245 11.6845 13.7066Z" fill="#BDBDBD"/>
<path d="M12.47 15.9814L14.9415 18.7338L10.0828 23.5925C9.52108 24.1542 8.7347 24.2666 8.06066 23.9857C7.83598 23.9014 7.63938 23.761 7.47087 23.5925C7.30236 23.424 7.16193 23.2274 7.07768 23.0027C6.79683 22.3287 6.90917 21.5142 7.47087 20.9806L12.47 15.9814Z" fill="#BDBDBD"/>
<path d="M23.4804 8.8759L21.2898 11.6563L20.4472 11.9091L20.2787 11.7687L17.8634 14.184L16.8242 13.2572L19.2957 10.7857L19.1272 10.6172L19.4081 9.77462L22.1604 7.58398L23.4804 8.8759Z" fill="#BDBDBD"/>
</svg>
