<svg width="22" height="22" viewBox="0 0 22 22" fill="none" xmlns="http://www.w3.org/2000/svg">
<path d="M14.1714 7.83278C14.1714 9.41071 12.8238 10.6703 11.2188 10.5281C9.79658 10.4062 8.75366 9.11951 8.75366 7.69057V6.89145C8.75366 5.46251 9.79658 4.17578 11.2188 4.05388C12.8238 3.91167 14.1714 5.17807 14.1714 6.74923V7.83278Z" fill="#38BC94"/>
<path d="M12.8848 11.6863L11.9773 12.7699C11.7064 13.0949 11.212 13.0949 10.9411 12.7699L10.0337 11.6863C9.65443 11.2326 9.02461 11.0633 8.48283 11.3003C6.06515 12.35 4.31791 14.6458 4.04702 17.375C4.00639 17.7745 4.31791 18.1267 4.72425 18.1267H18.1942C18.6005 18.1267 18.9121 17.7745 18.8714 17.375C18.5938 14.6458 16.8465 12.35 14.4356 11.3003C13.8938 11.0633 13.264 11.2326 12.8848 11.6863Z" fill="#38BC94"/>
</svg>
