<svg width="24" height="24" viewBox="0 0 24 24" fill="none" xmlns="http://www.w3.org/2000/svg">
<path d="M15.4628 7.66343C15.4628 9.6051 13.8045 11.1551 11.8295 10.9801C10.0795 10.8301 8.79614 9.24676 8.79614 7.48843V6.5051C8.79614 4.74676 10.0795 3.16343 11.8295 3.01343C13.8045 2.83843 15.4628 4.39676 15.4628 6.3301V7.66343Z" fill="#E0E0E0"/>
<path d="M13.8794 12.4054L12.7627 13.7388C12.4294 14.1388 11.8211 14.1388 11.4877 13.7388L10.3711 12.4054C9.90439 11.8471 9.12939 11.6388 8.46272 11.9304C5.48772 13.2221 3.33772 16.0471 3.00439 19.4054C2.95439 19.8971 3.33772 20.3304 3.83772 20.3304H20.4127C20.9127 20.3304 21.2961 19.8971 21.2461 19.4054C20.9044 16.0471 18.7544 13.2221 15.7877 11.9304C15.1211 11.6388 14.3461 11.8471 13.8794 12.4054Z" fill="#E0E0E0"/>
<path d="M19.7735 11.4414H21.2231V8.97159H23.6929V7.52202H21.2231V5.0522H19.7735V7.52202H17.3037V8.97159H19.7735V11.4414Z" fill="#38BC94"/>
</svg>
