<svg width="80" height="80" viewBox="0 0 80 80" fill="none" xmlns="http://www.w3.org/2000/svg">
<path d="M35.9227 9.6664C38.7266 7.62925 42.5234 7.62926 45.3273 9.66641L68.6153 26.5861C71.4192 28.6233 72.5924 32.2342 71.5215 35.5304L62.6262 62.9071C61.5552 66.2033 58.4836 68.435 55.0178 68.435H26.2322C22.7664 68.435 19.6948 66.2033 18.6238 62.9071L9.72854 35.5304C8.65755 32.2342 9.83082 28.6233 12.6347 26.5861L35.9227 9.6664Z" fill="#DAF2EB"/>
<path d="M25.7747 51.2502L27.023 47.103H34.1747L35.4231 51.2502H41.7708L34.6191 29.5835H26.5787L19.427 51.2502H25.7747ZM28.356 42.702L30.5142 35.5503H30.6835L32.8417 42.702H28.356Z" fill="#7FD4BA"/>
<path d="M44.1555 51.2502H50.0376V44.8179H53.2961C58.2367 44.8179 61.548 41.9085 61.548 37.243C61.548 32.6304 58.3213 29.5835 53.5077 29.5835H44.1555V51.2502ZM50.0376 40.2476V34.2808H52.1112C54.1742 34.2808 55.412 35.381 55.412 37.243C55.412 39.0944 54.1742 40.2476 52.1112 40.2476H50.0376Z" fill="#7FD4BA"/>
</svg>
