<svg xmlns="http://www.w3.org/2000/svg" width="98" height="32" viewBox="0 0 98 32" fill="none">
<path d="M5.8335 8.88891V24.4445C5.8335 25.6722 6.82794 26.6667 8.05572 26.6667H23.6113C24.8391 26.6667 25.8335 25.6722 25.8335 24.4445V8.88891C25.8335 7.66113 24.8391 6.66669 23.6113 6.66669H8.05572C6.82794 6.66669 5.8335 7.66113 5.8335 8.88891ZM19.1668 13.3334C19.1668 15.1778 17.6724 16.6667 15.8335 16.6667C13.9946 16.6667 12.5002 15.1778 12.5002 13.3334C12.5002 11.4945 13.9946 10 15.8335 10C17.6724 10 19.1668 11.4945 19.1668 13.3334ZM9.16683 22.2222C9.16683 20 13.6113 18.7778 15.8335 18.7778C18.0557 18.7778 22.5002 20 22.5002 22.2222V23.3334H9.16683V22.2222Z" fill="#BDBDBD"/>
<path fill-rule="evenodd" clip-rule="evenodd" d="M39.6871 23.6195C39.6637 23.5791 39.6406 23.5386 39.6177 23.4979C39.7361 23.2615 39.928 23.071 40.1679 22.9663L46.5257 20.209C46.6838 20.1405 46.8558 20.1042 47.0301 20.1028L51.0273 20.0692C51.213 20.0676 51.3966 20.1055 51.5641 20.1799L57.8403 22.9679C58.077 23.0746 58.266 23.2637 58.3827 23.4977C58.3597 23.5386 58.3365 23.5793 58.3131 23.6198C56.4347 25.9953 53.6116 27.6314 50.3882 28V26.3743C50.3873 26.3362 50.3754 26.299 50.3538 26.2666L50.3544 26.2644L49.2221 24.4383L49.219 24.4334L49.2173 24.4309C49.2157 24.4283 49.2141 24.4257 49.2126 24.423L49.2024 24.4064L49.2013 24.406C49.1602 24.3405 49.0866 24.2947 48.9995 24.2947C48.9128 24.2947 48.8402 24.3405 48.7991 24.4053L48.7967 24.4058L48.7944 24.4064L47.6433 26.2629L47.6447 26.266L47.6445 26.2673C47.6232 26.2994 47.6115 26.3363 47.6106 26.374V27.9998C44.3877 27.6309 41.5651 25.9948 39.6871 23.6195ZM45.2565 13.3397C44.7674 10.9681 46.5787 8.74512 49.0001 8.74512C51.4216 8.74512 53.2329 10.9681 52.7438 13.3397L52.1015 16.4536C51.7981 17.925 50.5025 18.9806 49.0001 18.9806C47.4978 18.9806 46.2022 17.925 45.8988 16.4536L45.2565 13.3397ZM49.7589 22.978L50.2214 21.2551H47.7789L48.2414 22.978C48.3285 23.3023 48.6413 23.5297 49.0001 23.5297C49.359 23.5297 49.6718 23.3023 49.7589 22.978Z" fill="#BDBDBD"/>
<path d="M58.969 16.7061C58.969 11.3672 54.5058 7.03922 49.0001 7.03922C43.4944 7.03922 39.0312 11.3672 39.0312 16.7061C39.0312 20.9643 41.8705 24.5795 45.8135 25.8685L45.1489 27.4515C40.5634 25.9063 37.272 21.6789 37.272 16.7061C37.272 10.4251 42.5228 5.33331 49.0001 5.33331C55.4774 5.33331 60.7283 10.4251 60.7283 16.7061C60.7283 21.7433 57.351 26.0157 52.6724 27.5102L51.9322 25.948C56.0069 24.7339 58.969 21.0554 58.969 16.7061Z" fill="#BDBDBD"/>
<path d="M75.1416 16.4534L76.1112 13.2978C76.1759 12.8992 76.456 12.576 76.8331 12.4575L78.8155 11.8003C79.2033 11.671 79.6343 11.768 79.9252 12.0696L82.1446 14.3106L84.364 12.0589C84.6549 11.768 85.0858 11.6602 85.4737 11.7895L87.456 12.4467C87.8331 12.576 88.1132 12.8992 88.1779 13.2871L89.1475 16.4427" fill="#BDBDBD"/>
<path d="M84.839 6.82273C84.839 5.26053 83.6324 4 82.1456 4C80.6588 4 79.4521 5.27131 79.4521 6.82273V7.63076C79.4521 9.19296 80.6588 10.4643 82.1456 10.4643C83.6324 10.4643 84.839 9.19296 84.839 7.64154V6.82273Z" fill="#BDBDBD"/>
<path d="M70.8325 18.0486V20.2034C70.8325 21.3885 71.8022 22.3582 72.9873 22.3582L74.0647 26.6677H90.2253L91.3027 22.3582C92.4878 22.3582 93.4575 21.3885 93.4575 20.2034V18.0486H70.8325Z" fill="#BDBDBD"/>
</svg>