<svg width="31" height="30" viewBox="0 0 31 30" fill="none" xmlns="http://www.w3.org/2000/svg">
<path d="M25.5 5H5.5C4.1125 5 3.0125 6.1125 3.0125 7.5L3 22.5C3 23.8875 4.1125 25 5.5 25H25.5C26.8875 25 28 23.8875 28 22.5V7.5C28 6.1125 26.8875 5 25.5 5ZM25.5 21.25C25.5 21.9375 24.9375 22.5 24.25 22.5H6.75C6.0625 22.5 5.5 21.9375 5.5 21.25V8.75C5.5 8.0625 6.0625 7.5 6.75 7.5H24.25C24.9375 7.5 25.5 8.0625 25.5 8.75V21.25ZM18 12.5C18.6875 12.5 19.25 11.9375 19.25 11.25C19.25 10.5625 18.6875 10 18 10H16.75V9.9875C16.75 9.3 16.1875 8.7375 15.5 8.7375C14.8125 8.7375 14.25 9.3 14.25 9.9875V10H13C12.3125 10 11.75 10.5625 11.75 11.25V15C11.75 15.6875 12.3125 16.25 13 16.25H16.75V17.5H13C12.3125 17.5 11.75 18.0625 11.75 18.75C11.75 19.4375 12.3125 20 13 20H14.25C14.25 20.6875 14.8125 21.25 15.5 21.25C16.1875 21.25 16.75 20.6875 16.75 20H18C18.6875 20 19.25 19.4375 19.25 18.75V15C19.25 14.3125 18.6875 13.75 18 13.75H14.25V12.5H18Z" fill="#828282"/>
</svg>
