<svg width="40" height="40" viewBox="0 0 40 40" fill="none" xmlns="http://www.w3.org/2000/svg">
<path fill-rule="evenodd" clip-rule="evenodd" d="M26.763 17.0711V17.0711H29.5305V17.0711H26.763ZM18.2619 14.7714C18.9788 13.8052 19.2359 12.787 18.425 11.8882C16.6055 9.34216 15.3818 7.76769 14.6142 7.00946C13.155 5.56797 10.7545 5.76295 9.49072 7.00823C8.81192 7.67707 8.58212 7.90676 7.88514 8.6147C4.00285 12.4991 6.37047 20.7105 12.6645 27.0107C18.957 33.3095 27.1677 35.6783 31.0581 31.7858C31.7013 31.1657 32.2458 30.6209 32.6753 30.167C33.9138 28.8579 34.1018 26.5633 32.6672 25.0726C31.9316 24.3084 30.4302 23.1438 27.777 21.2459C26.9645 20.5193 26.001 20.6768 25.1176 21.2563C24.6927 21.5351 24.3835 21.8171 23.7996 22.4015L22.7394 23.4624C22.5997 23.6021 20.7034 22.6525 18.8627 20.8099C17.0209 18.9663 16.0719 17.07 16.2109 16.931C16.4976 16.6444 16.8512 16.2905 17.2719 15.8694C17.4572 15.684 17.5458 15.5942 17.6593 15.4748C17.896 15.2261 18.0919 15.0004 18.2619 14.7714ZM24.6952 25.4193L25.7557 24.3583C26.077 24.0366 26.2853 23.8388 26.4547 23.7025C28.7789 25.3715 30.125 26.421 30.6748 26.9923C31.0049 27.3353 30.9536 27.9611 30.6666 28.2644C30.2695 28.6842 29.7536 29.2004 29.1204 29.8111C26.6047 32.3279 19.9769 30.4157 14.6207 25.0543C9.2629 19.6912 7.3516 13.0623 9.8483 10.5642C10.5425 9.85922 10.7624 9.6394 11.4315 8.9801C11.6824 8.7329 12.3658 8.67739 12.671 8.97887C13.2619 9.56263 14.3581 10.9662 15.9707 13.2125C15.8872 13.3162 15.7829 13.4333 15.656 13.5666C15.5629 13.6645 15.4853 13.7432 15.3157 13.9129C14.8953 14.3337 14.542 14.6873 14.2557 14.9735C12.4525 16.7766 13.9882 19.8453 16.9064 22.7664C19.8227 25.6855 22.8926 27.2229 24.6952 25.4193Z" fill="#333333"/>
</svg>
