<svg width="30" height="31" viewBox="0 0 30 31" fill="none" xmlns="http://www.w3.org/2000/svg">
<path fill-rule="evenodd" clip-rule="evenodd" d="M20.0723 13.3033V13.3033H22.1479V13.3033H20.0723ZM13.6964 11.5785C14.2341 10.8539 14.4269 10.0902 13.8188 9.41616C12.4542 7.50662 11.5364 6.32576 10.9607 5.75709C9.86628 4.67598 8.06593 4.82221 7.11807 5.75617C6.60897 6.25781 6.43662 6.43007 5.91388 6.96102C3.00217 9.8743 4.77788 16.0329 9.49838 20.758C14.2178 25.4821 20.3758 27.2588 23.2936 24.3393C23.776 23.8743 24.1844 23.4657 24.5065 23.1252C25.4354 22.1435 25.5764 20.4225 24.5004 19.3045C23.9487 18.7313 22.8227 17.8578 20.8328 16.4344C20.2234 15.8895 19.5008 16.0076 18.8383 16.4422C18.5196 16.6513 18.2877 16.8628 17.8498 17.3011L17.0545 18.0968C16.9498 18.2016 15.5276 17.4894 14.147 16.1074C12.7657 14.7248 12.054 13.3025 12.1582 13.1982L12.954 12.402C13.0929 12.263 13.1594 12.1956 13.2445 12.1061C13.422 11.9196 13.569 11.7503 13.6964 11.5785ZM18.5214 19.5645L19.3168 18.7687C19.5578 18.5274 19.714 18.3791 19.8411 18.2768C21.5842 19.5286 22.5938 20.3158 23.0061 20.7442C23.2537 21.0015 23.2152 21.4709 23 21.6983C22.7022 22.0131 22.3152 22.4003 21.8403 22.8583C19.9536 24.7459 14.9827 23.3117 10.9656 19.2907C6.94721 15.2684 5.51373 10.2967 7.38625 8.42319C7.90688 7.89442 8.07183 7.72955 8.57367 7.23508C8.76183 7.04967 9.27436 7.00804 9.50325 7.23415C9.94646 7.67197 10.7686 8.72467 11.978 10.4094C11.9154 10.4871 11.8372 10.575 11.7421 10.675C11.6722 10.7484 11.614 10.8074 11.4868 10.9347L10.6918 11.7301C9.33942 13.0824 10.4912 15.384 12.6799 17.5748C14.867 19.7642 17.1695 20.9172 18.5214 19.5645Z" fill="#BDBDBD"/>
</svg>
