<svg width="80" height="80" viewBox="0 0 80 80" fill="none" xmlns="http://www.w3.org/2000/svg">
<path d="M67.3973 54.6705C47.912 47.3466 28.4543 66.9041 8.96902 57.2745C8.05435 56.8405 7.5 55.864 7.5 54.8603V22.8251C7.5 20.872 9.49565 19.6243 11.3527 20.3295C30.838 27.6534 50.2957 8.09591 69.781 17.7255C70.6957 18.1866 71.25 19.136 71.25 20.1396V52.1749C71.25 54.128 69.2544 55.3757 67.3973 54.6705Z" fill="#DAF2EB"/>
<path fill-rule="evenodd" clip-rule="evenodd" d="M42.2256 61.9075C51.2566 59.2749 60.2878 56.6422 69.3252 60.1075C71.1217 60.8035 73.0522 59.5721 73.0522 57.6447V26.0306C73.0522 25.0401 72.5159 24.1032 71.6311 23.6481C61.8188 18.7013 52.0138 21.5596 42.2084 24.4179C33.1775 27.0505 24.1463 29.6832 15.1089 26.218C13.3124 25.522 11.3818 26.7533 11.3818 28.6807V60.2948C11.3818 61.2853 11.9181 62.249 12.8029 62.6773C22.6152 67.6241 32.4203 64.7659 42.2256 61.9075ZM55 43.1248C55 50.3736 48.8439 56.2498 41.25 56.2498C33.6561 56.2498 27.5 50.3736 27.5 43.1248C27.5 35.8761 33.6561 29.9998 41.25 29.9998C48.8439 29.9998 55 35.8761 55 43.1248Z" fill="#7FD4BA"/>
<path d="M41.85 42.375C39.0125 41.6375 38.1 40.875 38.1 39.6875C38.1 38.325 39.3625 37.375 41.475 37.375C43.7 37.375 44.525 38.4375 44.6 40H47.3625C47.275 37.85 45.9625 35.875 43.35 35.2375V32.5H39.6V35.2C37.175 35.725 35.225 37.3 35.225 39.7125C35.225 42.6 37.6125 44.0375 41.1 44.875C44.225 45.625 44.85 46.725 44.85 47.8875C44.85 48.75 44.2375 50.125 41.475 50.125C38.9 50.125 37.8875 48.975 37.75 47.5H35C35.15 50.2375 37.2 51.775 39.6 52.2875V55H43.35V52.3125C45.7875 51.85 47.725 50.4375 47.725 47.875C47.725 44.325 44.6875 43.1125 41.85 42.375Z" fill="#7FD4BA"/>
</svg>
