<svg width="42" height="42" viewBox="0 0 42 42" fill="none" xmlns="http://www.w3.org/2000/svg">
<path d="M21 4C11.6121 4 4 11.6121 4 21C4 30.3879 11.6121 38 21 38C30.3879 38 38 30.3879 38 21C38 11.6121 30.3879 4 21 4ZM28.3426 15.4484L20.3511 26.5288C20.2394 26.6847 20.0922 26.8117 19.9216 26.8994C19.751 26.987 19.562 27.0327 19.3702 27.0327C19.1784 27.0327 18.9894 26.987 18.8188 26.8994C18.6482 26.8117 18.501 26.6847 18.3893 26.5288L13.6574 19.9717C13.5132 19.7705 13.6574 19.4897 13.904 19.4897H15.6837C16.0708 19.4897 16.4388 19.6757 16.6665 19.9944L19.3683 23.7435L25.3335 15.4712C25.5612 15.1562 25.9254 14.9665 26.3163 14.9665H28.096C28.3426 14.9665 28.4868 15.2473 28.3426 15.4484Z" fill="#7FD4BA"/>
</svg>
