<svg xmlns="http://www.w3.org/2000/svg" width="21" height="21" viewBox="0 0 21 21" fill="none">
<path fill-rule="evenodd" clip-rule="evenodd" d="M18.7583 0.333374C19.1978 0.333374 19.5701 0.496134 19.8752 0.821655C20.1804 1.14718 20.333 1.54431 20.333 2.01306V17.6667C20.333 19.1395 19.1391 20.3334 17.6663 20.3334H4.6958C4.28076 20.3334 3.92065 20.1706 3.61548 19.8451C3.3103 19.5196 3.15771 19.1224 3.15771 18.6537V16.1537H1.10205C0.589355 16.1537 0.333008 15.8802 0.333008 15.3334C0.333008 14.7865 0.589355 14.5131 1.10205 14.5131H3.15771V11.1537H1.10205C0.589355 11.1537 0.333008 10.8802 0.333008 10.3334C0.333008 9.7865 0.589355 9.51306 1.10205 9.51306H3.15771V6.15369H1.10205C0.589355 6.15369 0.333008 5.88025 0.333008 5.33337C0.333008 4.7865 0.589355 4.51306 1.10205 4.51306H3.15771V2.01306C3.15771 1.54431 3.3103 1.14718 3.61548 0.821655C3.92065 0.496134 4.28076 0.333374 4.6958 0.333374H18.7583ZM12.333 2.01306H4.6958V4.51306H5.50146C6.01416 4.51306 6.27051 4.7865 6.27051 5.33337C6.27051 5.88025 6.01416 6.15369 5.50146 6.15369H4.6958V9.51306H5.50146C6.01416 9.51306 6.27051 9.7865 6.27051 10.3334C6.27051 10.8802 6.01416 11.1537 5.50146 11.1537H4.6958V14.5131H5.50146C6.01416 14.5131 6.27051 14.7865 6.27051 15.3334C6.27051 15.8802 6.01416 16.1537 5.50146 16.1537H4.6958V18.6537H12.333V2.01306Z" fill="#4F4F4F"/>
</svg>