<svg width="80" height="80" viewBox="0 0 80 80" fill="none" xmlns="http://www.w3.org/2000/svg">
<path d="M13.75 20.75C13.75 16.884 16.884 13.75 20.75 13.75H56.75C60.616 13.75 63.75 16.884 63.75 20.75V61.75C63.75 65.616 60.616 68.75 56.75 68.75H20.75C16.884 68.75 13.75 65.616 13.75 61.75V20.75Z" fill="#DAF2EB"/>
<path fill-rule="evenodd" clip-rule="evenodd" d="M59.3965 13.3334C60.4951 13.3334 61.4259 13.7403 62.1888 14.5541C62.9518 15.3679 63.3333 16.3607 63.3333 17.5326V56.6667C63.3333 60.3486 60.3485 63.3334 56.6666 63.3334H24.2402C23.2026 63.3334 22.3024 62.9265 21.5394 62.1127C20.7765 61.2989 20.395 60.306 20.395 59.1342V52.8842H15.2559C13.9741 52.8842 13.3333 52.2006 13.3333 50.8334C13.3333 49.4662 13.9741 48.7826 15.2559 48.7826H20.395V40.3842H15.2559C13.9741 40.3842 13.3333 39.7006 13.3333 38.3334C13.3333 36.9662 13.9741 36.2826 15.2559 36.2826H20.395V27.8842H15.2559C13.9741 27.8842 13.3333 27.2006 13.3333 25.8334C13.3333 24.4662 13.9741 23.7826 15.2559 23.7826H20.395V17.5326C20.395 16.3607 20.7765 15.3679 21.5394 14.5541C22.3024 13.7403 23.2026 13.3334 24.2402 13.3334H59.3965ZM43.3333 17.5326H24.2402V23.7826H26.2544C27.5361 23.7826 28.177 24.4662 28.177 25.8334C28.177 27.2006 27.5361 27.8842 26.2544 27.8842H24.2402V36.2826H26.2544C27.5361 36.2826 28.177 36.9662 28.177 38.3334C28.177 39.7006 27.5361 40.3842 26.2544 40.3842H24.2402V48.7826H26.2544C27.5361 48.7826 28.177 49.4662 28.177 50.8334C28.177 52.2006 27.5361 52.8842 26.2544 52.8842H24.2402V59.1342H43.3333V17.5326Z" fill="#7FD4BA"/>
</svg>
