<svg width="30" height="30" viewBox="0 0 30 30" fill="none" xmlns="http://www.w3.org/2000/svg">
<path fill-rule="evenodd" clip-rule="evenodd" d="M3.75 14V23.75C3.75 25.1287 4.87125 26.25 6.25 26.25H16.25C16.4142 26.2502 16.5768 26.218 16.7285 26.1551C16.8801 26.0923 17.0179 26.0001 17.1337 25.8838L25.8838 17.1337C25.9865 17.0272 26.0695 16.9032 26.1287 16.7675C26.141 16.7412 26.1496 16.7142 26.1584 16.6867C26.1621 16.675 26.1659 16.6632 26.17 16.6512C26.2056 16.5467 26.227 16.4378 26.2337 16.3275C26.2349 16.3157 26.2383 16.3041 26.2417 16.2925C26.2459 16.2784 26.25 16.2644 26.25 16.25V6.25C26.25 4.87125 25.1287 3.75 23.75 3.75H14V6.25H23.75V15H16.25C15.9185 15 15.6005 15.1317 15.3661 15.3661C15.1317 15.6005 15 15.9185 15 16.25V23.75H6.25V14H3.75ZM17.5 17.5V21.9825L21.9825 17.5H17.5Z" fill="#BDBDBD"/>
<path d="M9.15152 15H10.8485V10.8485H15V9.15152H10.8485V5H9.15152V9.15152H5V10.8485H9.15152V15Z" fill="#BDBDBD"/>
</svg>
