<svg width="24" height="24" viewBox="0 0 24 24" fill="none" xmlns="http://www.w3.org/2000/svg">
<path opacity="0.8" fill-rule="evenodd" clip-rule="evenodd" d="M0 5C0 2.23858 2.23858 0 5 0L17 0C17.5523 0 18 0.447715 18 1C18 1.55228 17.5523 2 17 2H5C3.34315 2 2 3.34315 2 5V17C2 17.5523 1.55228 18 1 18C0.447715 18 0 17.5523 0 17L0 5Z" fill="#38BC94"/>
<rect x="4.5" y="4.5" width="16" height="16" rx="2" fill="#38BC94" stroke="#38BC94" stroke-width="2"/>
<path fill-rule="evenodd" clip-rule="evenodd" d="M6.66602 7.39227L7.39129 6.66699L9.62587 8.2626C9.71998 8.32978 9.79665 8.41847 9.84952 8.5213C9.90238 8.62412 9.92989 8.73809 9.92977 8.85371V8.90447C9.92969 8.99983 9.94842 9.09427 9.98489 9.18238C10.0214 9.2705 10.0748 9.35055 10.1423 9.41797L14.2814 13.5571L14.9443 13.3359C15.0721 13.2934 15.2092 13.2873 15.3402 13.3183C15.4713 13.3493 15.5911 13.4162 15.6863 13.5114L18.1203 15.9455C18.2563 16.0815 18.3327 16.2659 18.3327 16.4582C18.3327 16.6506 18.2563 16.835 18.1203 16.971L16.97 18.1213C16.834 18.2573 16.6496 18.3337 16.4573 18.3337C16.265 18.3337 16.0805 18.2573 15.9445 18.1213L13.5105 15.6873C13.4152 15.5921 13.3483 15.4723 13.3173 15.3412C13.2863 15.2102 13.2924 15.0731 13.3349 14.9453L13.5562 14.2824L9.41699 10.1432C9.28101 10.0072 9.09656 9.93078 8.90422 9.93074H8.85273C8.73724 9.93075 8.62341 9.90318 8.52072 9.85033C8.41803 9.79747 8.32945 9.72085 8.26235 9.62685L6.66602 7.39227ZM14.9008 14.3883C14.8327 14.3202 14.7404 14.282 14.6441 14.282C14.5478 14.282 14.4554 14.3202 14.3873 14.3883C14.3192 14.4564 14.281 14.5488 14.281 14.645C14.281 14.7413 14.3192 14.8337 14.3873 14.9018L16.5632 17.0776C16.6313 17.1457 16.7236 17.184 16.8199 17.184C16.9162 17.184 17.0086 17.1457 17.0767 17.0776C17.1447 17.0095 17.183 16.9172 17.183 16.8209C17.183 16.7246 17.1447 16.6322 17.0767 16.5641L14.9008 14.3883Z" fill="#DAF2EB"/>
<path fill-rule="evenodd" clip-rule="evenodd" d="M18.2588 8.28984C18.3578 8.66094 18.3573 9.05152 18.2575 9.42238C18.1577 9.79325 17.962 10.1313 17.6902 10.4027C17.4184 10.6741 17.0799 10.8692 16.7088 10.9685C16.3377 11.0678 15.947 11.0677 15.5759 10.9683L10.9518 15.5269C11.0896 15.9932 11.0681 16.4921 10.8906 16.9448C10.7131 17.3974 10.3897 17.7781 9.97166 18.0266C9.55359 18.275 9.06462 18.3771 8.58202 18.3167C8.09941 18.2563 7.6507 18.0369 7.30679 17.6931C6.96288 17.3493 6.74337 16.9007 6.68296 16.4182C6.62255 15.9358 6.72468 15.4469 6.97321 15.029C7.22174 14.611 7.6025 14.2878 8.05532 14.1104C8.50814 13.9329 9.0072 13.9114 9.47364 14.0491L14.0329 9.42639C13.9322 9.05513 13.9312 8.6639 14.0301 8.29215C14.1289 7.9204 14.3241 7.5813 14.5959 7.30904C14.8677 7.03679 15.2066 6.84102 15.5782 6.74148C15.9499 6.64195 16.3413 6.64217 16.7128 6.74212L15.1508 8.30369L15.4162 9.58532L16.6975 9.85068L18.2588 8.28984ZM8.50885 14.8649L8.85378 14.6885L9.19726 14.8649L9.58302 14.8839L9.79232 15.2083L10.1168 15.4175L10.1358 15.8032L10.3115 16.1465L10.1351 16.4899L10.1161 16.8756L9.79159 17.0848L9.5823 17.4092L9.19653 17.4282L8.85305 17.6046L8.50958 17.4282L8.12381 17.4092L7.91452 17.0848L7.59001 16.8756L7.57104 16.4899L7.39457 16.1465L7.57104 15.8032L7.59001 15.4175L7.91452 15.2083L8.12381 14.8839L8.50958 14.8649H8.50885Z" fill="#DAF2EB"/>
</svg>
