<svg width="19" height="18" viewBox="0 0 19 18" fill="none" xmlns="http://www.w3.org/2000/svg">
<path d="M11.0882 8.00723C10.3123 8.00723 9.68338 7.34828 9.68338 6.53536C9.68338 5.72243 10.3123 5.06349 11.0882 5.06349C11.8641 5.06349 12.4931 5.72243 12.4931 6.53536C12.4931 7.34828 11.8641 8.00723 11.0882 8.00723Z" fill="white"/>
<path fill-rule="evenodd" clip-rule="evenodd" d="M18.5 9C18.5 13.9706 14.4706 18 9.5 18C4.52944 18 0.5 13.9706 0.5 9C0.5 6.89311 1.22397 4.9553 2.4367 3.42179C3.25658 3.9962 3.79264 4.94806 3.79264 6.02513L3.79263 11.4856C3.79263 13.8247 5.68884 15.7209 8.02793 15.7209H15.4859C16.1712 15.1101 16.7625 14.3961 17.2353 13.6032H8.02793C6.85839 13.6032 5.91028 12.6551 5.91028 11.4856L5.91028 6.02513C5.91028 4.36542 5.14655 2.8841 3.95135 1.91343C5.48017 0.714709 7.40662 0 9.5 0C14.4706 0 18.5 4.02944 18.5 9ZM14.2581 6.49762C14.2581 4.66344 12.8389 3.17647 11.0882 3.17647C9.33757 3.17647 7.91831 4.66344 7.91831 6.49762C7.91831 6.49762 7.77423 7.76191 8.83687 9.1583C8.92354 9.27221 9.00626 9.3806 9.08528 9.48412C9.91635 10.573 10.3371 11.1242 10.6315 11.9128C10.6639 11.9994 10.6904 12.0885 10.7129 12.1787C10.7565 12.3532 10.8714 12.7059 11.0882 12.7059C11.3051 12.7059 11.42 12.3532 11.4636 12.1787C11.4861 12.0885 11.5126 11.9994 11.545 11.9128C11.8394 11.1242 12.2601 10.573 13.0912 9.48412C13.1702 9.3806 13.2529 9.27221 13.3396 9.1583C14.4022 7.76191 14.2581 6.49762 14.2581 6.49762Z" fill="white"/>
</svg>
