<svg width="80" height="80" viewBox="0 0 80 80" fill="none" xmlns="http://www.w3.org/2000/svg">
<path d="M13.75 34.5C13.75 22.3497 23.5997 12.5 35.75 12.5H45.5C57.6503 12.5 67.5 22.3497 67.5 34.5V44.25C67.5 56.4003 57.6503 66.25 45.5 66.25H35.75C23.5997 66.25 13.75 56.4003 13.75 44.25V34.5Z" fill="#DAF2EB"/>
<path d="M44.7396 36.5068C42.6404 36.5068 40.9388 34.7241 40.9388 32.5248C40.9388 30.3254 42.6404 28.5427 44.7396 28.5427C46.8387 28.5427 48.5403 30.3254 48.5403 32.5248C48.5403 34.7241 46.8387 36.5068 44.7396 36.5068Z" fill="#7FD4BA"/>
<path fill-rule="evenodd" clip-rule="evenodd" d="M64.7917 39.1927C64.7917 52.6403 53.8903 63.5417 40.4427 63.5417C26.9951 63.5417 16.0938 52.6403 16.0938 39.1927C16.0938 33.4926 18.0524 28.25 21.3334 24.1012C23.5515 25.6552 25.0018 28.2304 25.0018 31.1444L25.0018 45.9173C25.0018 52.2456 30.1318 57.3757 36.4601 57.3757H56.6372C58.4912 55.7233 60.0908 53.7915 61.3701 51.6465H36.4601C33.296 51.6465 30.7309 49.0815 30.7309 45.9173L30.7309 31.1444C30.7309 26.6541 28.6647 22.6465 25.4312 20.0204C29.5673 16.7774 34.7792 14.8438 40.4427 14.8438C53.8903 14.8438 64.7917 25.7451 64.7917 39.1927ZM53.3156 32.4227C53.3156 27.4604 49.4759 23.4375 44.7396 23.4375C40.0033 23.4375 36.1635 27.4604 36.1635 32.4227C36.1635 32.4227 35.7737 35.8431 38.6486 39.621C38.8831 39.9292 39.1069 40.2224 39.3207 40.5025C41.5691 43.4484 42.7073 44.9397 43.5038 47.073C43.5915 47.3074 43.6632 47.5483 43.7241 47.7924C43.842 48.2646 44.1529 49.2188 44.7396 49.2188C45.3262 49.2188 45.6371 48.2646 45.755 47.7924C45.8159 47.5483 45.8876 47.3074 45.9753 47.073C46.7718 44.9397 47.91 43.4484 50.1584 40.5025C50.3722 40.2224 50.596 39.9292 50.8305 39.621C53.7054 35.8431 53.3156 32.4227 53.3156 32.4227Z" fill="#7FD4BA"/>
</svg>
