<svg xmlns="http://www.w3.org/2000/svg" width="20" height="20" viewBox="0 0 20 20" fill="none">
<path d="M15.8012 3.46973H11.8808V2.86993C11.8809 2.80754 11.8687 2.74574 11.8449 2.68806C11.8211 2.63039 11.7862 2.57798 11.7421 2.53382C11.698 2.48967 11.6457 2.45464 11.588 2.43073C11.5304 2.40683 11.4686 2.39453 11.4062 2.39453H8.59461C8.5322 2.39453 8.4704 2.40683 8.41274 2.43073C8.35509 2.45462 8.30271 2.48965 8.25859 2.5338C8.21448 2.57795 8.1795 2.63036 8.15565 2.68803C8.1318 2.74571 8.11956 2.80752 8.11961 2.86993V3.46973H4.19961C4.13724 3.46965 4.07547 3.48187 4.01783 3.50569C3.96019 3.52951 3.90782 3.56446 3.8637 3.60854C3.81958 3.65262 3.78459 3.70497 3.76072 3.76259C3.73685 3.8202 3.72458 3.88196 3.72461 3.94433V5.33073C3.72458 5.3931 3.73685 5.45486 3.76072 5.51247C3.78459 5.57009 3.81958 5.62244 3.8637 5.66652C3.90782 5.7106 3.96019 5.74555 4.01783 5.76937C4.07547 5.79319 4.13724 5.80541 4.19961 5.80533H15.8012C15.8636 5.80546 15.9254 5.79328 15.9831 5.76948C16.0407 5.74568 16.0931 5.71073 16.1372 5.66664C16.1814 5.62255 16.2164 5.57018 16.2402 5.51254C16.2641 5.45489 16.2763 5.39311 16.2762 5.33073V3.94433C16.2763 3.88195 16.2641 3.82017 16.2402 3.76252C16.2164 3.70488 16.1814 3.65251 16.1372 3.60842C16.0931 3.56433 16.0407 3.52938 15.9831 3.50558C15.9254 3.48178 15.8636 3.4696 15.8012 3.46973Z" fill="#38BC94"/>
<path fill-rule="evenodd" clip-rule="evenodd" d="M4.83242 6.67969H15.1664C15.2288 6.67956 15.2906 6.69173 15.3482 6.71552C15.4059 6.73931 15.4582 6.77424 15.5024 6.81831C15.5465 6.86238 15.5815 6.91472 15.6054 6.97234C15.6292 7.02996 15.6415 7.09172 15.6414 7.15409V10.2705C14.1288 10.9019 11.6714 11.348 9.12275 10.1032C7.32083 9.22315 5.51949 9.25558 4.35742 9.44255V7.15429C4.3574 7.09192 4.36967 7.03016 4.39353 6.97254C4.4174 6.91492 4.45239 6.86258 4.49651 6.8185C4.54063 6.77441 4.59301 6.73946 4.65065 6.71565C4.70829 6.69183 4.77006 6.67961 4.83242 6.67969ZM4.35742 11.4758V17.1317C4.3574 17.1941 4.36966 17.2559 4.39352 17.3136C4.41737 17.3712 4.45236 17.4236 4.49646 17.4678C4.54057 17.5119 4.59294 17.5469 4.65059 17.5708C4.70823 17.5947 4.77002 17.6071 4.83242 17.6071H15.1664C15.2288 17.6071 15.2906 17.5948 15.3483 17.5709C15.406 17.5471 15.4584 17.512 15.5025 17.4679C15.5466 17.4237 15.5816 17.3713 15.6054 17.3136C15.6293 17.2559 15.6415 17.1941 15.6414 17.1317V12.3981C13.7146 13.0219 11.0296 13.2603 8.24505 11.9003C6.70196 11.1467 5.12222 11.3087 4.35742 11.4758Z" fill="#38BC94"/>
</svg>