<svg width="25" height="24" viewBox="0 0 25 24" fill="none" xmlns="http://www.w3.org/2000/svg">
<path d="M22.1643 14.3972L19.6952 18.7402C19.2112 19.6028 18.3125 20.0542 17.4038 19.994H15.4285V22L12.9593 17.4865L15.4285 12.9729V14.9789H18.2137L16.0211 11.1174L20.2977 8.60983L22.0755 11.7392C22.589 12.5115 22.6582 13.5446 22.1643 14.3972ZM9.70993 2H14.6482C15.6161 2 16.4557 2.57171 16.8606 3.39418L17.8483 5.13942L19.5569 4.13641L16.9495 8.55968L11.863 8.64995L13.5717 7.64694L12.1791 5.18957L9.99635 9.05115L5.7099 6.54363L7.48769 3.41424C7.89263 2.58175 8.73215 2 9.70993 2ZM5.60126 18.7502L3.1321 14.4072C2.64815 13.5547 2.71729 12.5316 3.22099 11.7593L4.20866 10.0241L2.5 9.02106L7.57658 9.1013L10.1939 13.5346L8.48523 12.5316L7.09263 14.9789H11.4778V19.994H7.92226C7.45955 20.028 6.99672 19.9295 6.58641 19.7096C6.17611 19.4897 5.83478 19.1573 5.60126 18.7502Z" fill="#BDBDBD"/>
</svg>
