<svg width="40" height="40" viewBox="0 0 40 40" fill="none" xmlns="http://www.w3.org/2000/svg">
<g opacity="0.6">
<path fill-rule="evenodd" clip-rule="evenodd" d="M32.3913 27.5H7.6087C7.5559 27.5 7.52022 27.4818 7.5 27.4642V13.9873L16.9335 21.8434C18.6492 23.2742 21.3506 23.2739 23.0665 21.8434L32.5 13.9873V27.4642C32.4798 27.4818 32.4441 27.5 32.3913 27.5ZM30.3794 12.5L21.4654 19.9234C20.6768 20.5811 19.3225 20.5805 18.534 19.9229L9.62065 12.5H30.3794ZM32.3913 30H7.6087C6.17391 30 5 28.875 5 27.5V11.25C5 10.5625 5.58696 10 6.30435 10H33.6957C34.413 10 35 10.5625 35 11.25V27.5C35 28.875 33.8261 30 32.3913 30Z" fill="black"/>
</g>
</svg>
