<svg xmlns="http://www.w3.org/2000/svg" width="31" height="20" viewBox="0 0 31 20" fill="none">
<path d="M24.6875 7.55C24.2676 5.42215 23.122 3.50607 21.4463 2.12906C19.7707 0.752041 17.6689 -0.000490303 15.5 2.39671e-07C11.8875 2.39671e-07 8.75 2.05 7.1875 5.05C5.35029 5.24854 3.65126 6.11901 2.41686 7.49415C1.18246 8.86929 0.499785 10.6521 0.5 12.5C0.5 16.6375 3.8625 20 8 20H24.25C27.7 20 30.5 17.2 30.5 13.75C30.5 10.45 27.9375 7.775 24.6875 7.55ZM18 11.25V16.25H13V11.25H9.25L15.0625 5.4375C15.3125 5.1875 15.7 5.1875 15.95 5.4375L21.75 11.25H18Z" fill="#BDBDBD"/>
</svg>