<svg width="24" height="24" viewBox="0 0 24 24" fill="none" xmlns="http://www.w3.org/2000/svg">
<path d="M11.5833 13.7087C12.4578 13.7087 13.1667 12.9998 13.1667 12.1253C13.1667 11.2509 12.4578 10.542 11.5833 10.542C10.7089 10.542 10 11.2509 10 12.1253C10 12.9998 10.7089 13.7087 11.5833 13.7087Z" fill="#828282"/>
<path d="M11.5833 8.16667C12.4578 8.16667 13.1667 7.45778 13.1667 6.58333C13.1667 5.70888 12.4578 5 11.5833 5C10.7089 5 10 5.70888 10 6.58333C10 7.45778 10.7089 8.16667 11.5833 8.16667Z" fill="#828282"/>
<path d="M11.5833 19.2497C12.4578 19.2497 13.1667 18.5408 13.1667 17.6663C13.1667 16.7919 12.4578 16.083 11.5833 16.083C10.7089 16.083 10 16.7919 10 17.6663C10 18.5408 10.7089 19.2497 11.5833 19.2497Z" fill="#828282"/>
</svg>
