<svg width="30" height="30" viewBox="0 0 30 30" fill="none" xmlns="http://www.w3.org/2000/svg">
<path d="M24.2411 12.6905H21.6797V9.87652C21.6797 9.43807 21.3405 9.08384 20.9208 9.08384H13.4501L10.6681 6.3045C10.6327 6.26989 10.5862 6.25043 10.5377 6.25H4.50893C4.08915 6.25 3.75 6.60423 3.75 7.04268V21.7073C3.75 22.1458 4.08915 22.5 4.50893 22.5H21.0631C21.3714 22.5 21.6512 22.3043 21.7674 22.0046L24.9455 13.7805C24.981 13.6864 25 13.5848 25 13.4832C25 13.0448 24.6609 12.6905 24.2411 12.6905ZM19.9721 12.6905H7.87667C7.56836 12.6905 7.2885 12.8862 7.17229 13.186L5.45759 17.625V8.03354H9.92815L12.7646 10.8674H19.9721V12.6905Z" fill="#828282"/>
</svg>
