<svg width="41" height="40" viewBox="0 0 41 40" fill="none" xmlns="http://www.w3.org/2000/svg">
<path d="M32.8214 16.9214H29.4062V13.1694C29.4062 12.5847 28.9541 12.1124 28.3943 12.1124H18.4334L14.7241 8.40665C14.6769 8.3605 14.6149 8.33456 14.5502 8.33398H6.5119C5.95219 8.33398 5.5 8.80629 5.5 9.3909V28.9437C5.5 29.5283 5.95219 30.0007 6.5119 30.0007H28.5841C28.9952 30.0007 29.3683 29.7397 29.5233 29.3401L33.7606 18.3746C33.808 18.2491 33.8333 18.1137 33.8333 17.9783C33.8333 17.3937 33.3811 16.9214 32.8214 16.9214ZM27.1295 16.9214H11.0022C10.5911 16.9214 10.218 17.1823 10.0631 17.582L7.77679 23.5007V10.712H13.7375L17.5195 14.4905H27.1295V16.9214Z" fill="#4F4F4F"/>
</svg>
