<svg width="16" height="16" viewBox="0 0 16 16" fill="none" xmlns="http://www.w3.org/2000/svg">
<path d="M8 2C4.6864 2 2 4.6864 2 8C2 11.3136 4.6864 14 8 14C11.3136 14 14 11.3136 14 8C14 4.6864 11.3136 2 8 2ZM9 11.95H7V7.15H9V11.95ZM8 6.05C7.73478 6.05 7.48043 5.94464 7.29289 5.75711C7.10536 5.56957 7 5.31522 7 5.05C7 4.78478 7.10536 4.53043 7.29289 4.34289C7.48043 4.15536 7.73478 4.05 8 4.05C8.26522 4.05 8.51957 4.15536 8.70711 4.34289C8.89464 4.53043 9 4.78478 9 5.05C9 5.31522 8.89464 5.56957 8.70711 5.75711C8.51957 5.94464 8.26522 6.05 8 6.05Z" fill="#BDBDBD"/>
</svg>
