<svg width="40" height="40" viewBox="0 0 40 40" fill="none" xmlns="http://www.w3.org/2000/svg">
<path d="M10.4356 1.66666H16.8464V4.3565H10.4356V1.66666Z" fill="#4F4F4F"/>
<path fill-rule="evenodd" clip-rule="evenodd" d="M33.334 15.0536C33.334 11.6547 31.036 8.70279 27.8697 8.03319L20.6041 6.49778H10.7231C9.40362 6.49778 8.33398 7.62346 8.33398 9.01206V34.1524C8.33398 35.541 9.40362 36.6667 10.7231 36.6667H20.2794H30.9449C32.2644 36.6667 33.334 35.541 33.334 34.1524V15.0536ZM29.3817 23.1818C29.3817 24.3105 28.5093 25.2279 27.4376 25.2279H23.7847V11.5953L26.949 12.1618C28.3589 12.4146 29.3824 13.69 29.3824 15.1954L29.3817 23.1818Z" fill="#4F4F4F"/>
</svg>
