<svg xmlns="http://www.w3.org/2000/svg" width="14" height="14" viewBox="0 0 14 14" fill="none">
<path d="M3.6824 4.6944C4.25129 4.6944 4.71246 4.23322 4.71246 3.66434C4.71246 3.09545 4.25129 2.63428 3.6824 2.63428C3.11352 2.63428 2.65234 3.09545 2.65234 3.66434C2.65234 4.23322 3.11352 4.6944 3.6824 4.6944Z" fill="#BDBDBD"/>
<path d="M4.02457 10.1888V6.75525C4.02457 6.24743 4.18388 5.77669 4.45376 5.38802C4.42526 5.3863 4.39676 5.38184 4.36792 5.38184H2.99451C2.23707 5.38184 1.62109 5.99781 1.62109 6.75525V8.81537H2.3078V11.2188H4.71127V10.1888H4.02457Z" fill="#BDBDBD"/>
<path d="M10.5496 4.6944C11.1185 4.6944 11.5796 4.23322 11.5796 3.66434C11.5796 3.09545 11.1185 2.63428 10.5496 2.63428C9.9807 2.63428 9.51953 3.09545 9.51953 3.66434C9.51953 4.23322 9.9807 4.6944 10.5496 4.6944Z" fill="#BDBDBD"/>
<path d="M10.2062 10.1888V6.75525C10.2062 6.24743 10.0469 5.77669 9.77705 5.38802C9.80554 5.3863 9.83404 5.38184 9.86288 5.38184H11.2363C11.9937 5.38184 12.6097 5.99781 12.6097 6.75525V8.81537H11.923V11.2188H9.51953V10.1888H10.2062Z" fill="#BDBDBD"/>
<path d="M7.80112 5.03857H6.4277C5.48108 5.03857 4.71094 5.80872 4.71094 6.75534V9.50217H5.741V12.249H8.48782V9.50217H9.51788V6.75534C9.51788 5.80872 8.74774 5.03857 7.80112 5.03857Z" fill="#BDBDBD"/>
<path d="M7.1156 4.35181C7.87411 4.35181 8.48901 3.73691 8.48901 2.97839C8.48901 2.21988 7.87411 1.60498 7.1156 1.60498C6.35709 1.60498 5.74219 2.21988 5.74219 2.97839C5.74219 3.73691 6.35709 4.35181 7.1156 4.35181Z" fill="#BDBDBD"/>
</svg>