<svg width="24" height="24" viewBox="0 0 24 24" fill="none" xmlns="http://www.w3.org/2000/svg">
<path d="M4.50078 10.3633C4.30166 10.3633 4.1107 10.4424 3.9699 10.5832C3.8291 10.724 3.75 10.9149 3.75 11.1141V20.2489C3.75 20.448 3.8291 20.6389 3.9699 20.7797C4.1107 20.9205 4.30166 20.9996 4.50078 20.9996C4.6999 20.9996 4.89087 20.9205 5.03167 20.7797C5.17247 20.6389 5.25157 20.448 5.25157 20.2489V11.1141C5.25157 10.9149 5.17247 10.724 5.03167 10.5832C4.89087 10.4424 4.6999 10.3633 4.50078 10.3633Z" fill="#38BC94"/>
<path d="M19.5164 10.1133C19.3173 10.1133 19.1263 10.1924 18.9855 10.3332C18.8447 10.474 18.7656 10.6649 18.7656 10.8641V20.2489C18.7656 20.448 18.8447 20.6389 18.9855 20.7797C19.1263 20.9205 19.3173 20.9996 19.5164 20.9996C19.7155 20.9996 19.9065 20.9205 20.0473 20.7797C20.1881 20.6389 20.2672 20.448 20.2672 20.2489V10.8641C20.2672 10.6649 20.1881 10.474 20.0473 10.3332C19.9065 10.1924 19.7155 10.1133 19.5164 10.1133Z" fill="#38BC94"/>
<path d="M14.261 11.2383H9.75625C9.54893 11.2383 9.38086 11.4063 9.38086 11.6137V15.3676C9.38086 15.5749 9.54893 15.743 9.75625 15.743H14.261C14.4683 15.743 14.6363 15.5749 14.6363 15.3676V11.6137C14.6363 11.4063 14.4683 11.2383 14.261 11.2383Z" fill="#38BC94"/>
<path d="M17.2639 16.4961H12.7592C12.5519 16.4961 12.3838 16.6642 12.3838 16.8715V20.6254C12.3838 20.8327 12.5519 21.0008 12.7592 21.0008H17.2639C17.4712 21.0008 17.6393 20.8327 17.6393 20.6254V16.8715C17.6393 16.6642 17.4712 16.4961 17.2639 16.4961Z" fill="#38BC94"/>
<path d="M11.258 16.4961H6.75332C6.546 16.4961 6.37793 16.6642 6.37793 16.8715V20.6254C6.37793 20.8327 6.546 21.0008 6.75332 21.0008H11.258C11.4653 21.0008 11.6334 20.8327 11.6334 20.6254V16.8715C11.6334 16.6642 11.4653 16.4961 11.258 16.4961Z" fill="#38BC94"/>
<path d="M20.738 5.94603L12.5417 3.02247C12.4616 2.99385 12.3742 2.99253 12.2932 3.01872L3.28905 5.95128C3.20294 5.98194 3.12864 6.03888 3.07664 6.11405C3.02464 6.18922 2.99757 6.27883 2.99925 6.37022V8.92288C2.9956 9.03515 3.03663 9.14428 3.11334 9.22634C3.19005 9.30839 3.29617 9.35667 3.40842 9.36059H20.6081C20.7201 9.35686 20.8261 9.30898 20.9029 9.22739C20.9797 9.14581 21.0211 9.03715 21.0181 8.92514V6.36196C21.0198 6.27225 20.9939 6.18417 20.9438 6.10973C20.8937 6.0353 20.8218 5.97813 20.738 5.94603Z" fill="#38BC94"/>
</svg>
