<svg width="41" height="40" viewBox="0 0 41 40" fill="none" xmlns="http://www.w3.org/2000/svg">
<path d="M20.0827 3.33398C13.6327 3.33398 8.41602 8.55065 8.41602 15.0007C8.41602 21.9507 15.7827 31.534 18.816 35.184C19.4827 35.984 20.6994 35.984 21.366 35.184C24.3827 31.534 31.7494 21.9507 31.7494 15.0007C31.7494 8.55065 26.5327 3.33398 20.0827 3.33398ZM20.0827 19.1673C17.7827 19.1673 15.916 17.3007 15.916 15.0007C15.916 12.7007 17.7827 10.834 20.0827 10.834C22.3827 10.834 24.2494 12.7007 24.2494 15.0007C24.2494 17.3007 22.3827 19.1673 20.0827 19.1673Z" fill="#333333"/>
</svg>
