<svg width="40" height="40" viewBox="0 0 40 40" fill="none" xmlns="http://www.w3.org/2000/svg">
<path d="M34.3536 28.0039C34.3536 28.0039 34.3726 26.339 34.3488 25.5851C34.3203 24.7228 34.8852 24.7134 35.5119 24.7149C36.1324 24.7181 36.6909 24.7071 36.6814 25.5788C36.6576 27.5359 36.6735 31.5019 36.6735 31.5019H23.0288V28.0055H34.3536V28.0039ZM25.482 28.5474C25.1694 28.5474 24.9187 28.5474 24.6251 28.5474C24.6251 29.4521 24.6251 29.9218 24.6251 30.8406C24.9171 30.8406 25.1836 30.8406 25.482 30.8406C25.482 29.9375 25.482 29.4898 25.482 28.5474ZM30.7627 30.8406C30.7627 29.8746 30.7627 29.4537 30.7627 28.5474C30.4692 28.5474 30.2232 28.5474 29.936 28.5474C29.936 29.4647 29.936 29.928 29.936 30.8406C30.2105 30.8547 30.439 30.8233 30.7627 30.8406ZM27.302 28.5474C27.302 29.1238 27.302 29.4788 27.302 29.9909C27.6066 29.9909 27.8542 29.9909 28.1128 29.9909C28.1128 29.4333 28.1128 29.0783 28.1128 28.5474C27.8225 28.5474 27.5892 28.5474 27.302 28.5474ZM32.597 28.5474C32.597 29.1333 32.597 29.4804 32.597 29.9909C32.9096 29.9909 33.1635 29.9909 33.4174 29.9909C33.4174 29.4286 33.4174 29.0736 33.4174 28.5474C33.1302 28.5474 32.8969 28.5474 32.597 28.5474Z" fill="#4F4F4F"/>
<path fill-rule="evenodd" clip-rule="evenodd" d="M3.62358 28.1806C3.8362 30.8099 5.11832 31.9235 7.81583 32.134C11.1052 32.39 23.5836 32.4371 26.5175 32.4308C27.376 32.4277 27.5997 32.2015 27.6061 31.3628C27.614 30.1062 27.6124 28.8512 27.6076 27.5947C27.6047 26.7439 27.6177 25.8918 27.6306 25.0399C27.6598 23.119 27.689 21.1984 27.5362 19.292C27.0459 13.1774 21.9952 8.56896 15.7767 8.33964C9.88339 8.12288 4.28526 12.5632 3.55376 18.4926C3.16024 21.6748 3.36335 24.9654 3.62358 28.1806ZM8.17943 21.1745C8.17943 25.2175 11.4253 28.4638 15.4613 28.4583C19.4251 28.4527 22.695 25.2453 22.7172 21.3431C22.7413 17.163 19.5195 13.8982 15.3965 13.9204C11.4049 13.9427 8.17943 17.1852 8.17943 21.1745Z" fill="#4F4F4F"/>
<path d="M15.4587 26.8424C12.3196 26.8468 9.79504 24.3219 9.79504 21.1773C9.79504 18.0745 12.3038 15.5525 15.4083 15.5352C18.6151 15.518 21.1209 18.0572 21.1022 21.3085C21.085 24.3435 18.5417 26.8381 15.4587 26.8424Z" fill="#4F4F4F"/>
</svg>
