<svg width="24" height="25" viewBox="0 0 24 25" fill="none" xmlns="http://www.w3.org/2000/svg">
<path d="M7.04996 14.6205L4.92996 16.7425L7.75796 19.5705L19.071 8.25646L16.243 5.42946L14.12 7.54946L15.535 8.96346L14.12 10.3795L12.706 8.96446L11.292 10.3795L12.706 11.7935L11.292 13.2075L9.87796 11.7935L8.46296 13.2075L9.87796 14.6215L8.46296 16.0365L7.04996 14.6195V14.6205ZM16.95 3.30746L21.192 7.54946C21.3794 7.73699 21.4847 7.99129 21.4847 8.25646C21.4847 8.52162 21.3794 8.77593 21.192 8.96346L8.46396 21.6915C8.27643 21.8789 8.02212 21.9842 7.75696 21.9842C7.49179 21.9842 7.23749 21.8789 7.04996 21.6915L2.80796 17.4495C2.62049 17.2619 2.51517 17.0076 2.51517 16.7425C2.51517 16.4773 2.62049 16.223 2.80796 16.0355L15.536 3.30746C15.7235 3.11999 15.9778 3.01467 16.243 3.01467C16.5081 3.01467 16.7624 3.11999 16.95 3.30746ZM14.12 18.8625L15.535 17.4485L17.777 19.6915H19.191V18.2775L16.949 16.0345L18.363 14.6205L21 17.2565V21.4995H16.758L14.121 18.8625H14.12ZM5.63596 10.3775L2.80696 7.54946C2.71398 7.45659 2.64022 7.3463 2.5899 7.2249C2.53957 7.1035 2.51367 6.97337 2.51367 6.84196C2.51367 6.71054 2.53957 6.58042 2.5899 6.45902C2.64022 6.33762 2.71398 6.22733 2.80696 6.13446L5.63596 3.30646C5.82349 3.11899 6.07779 3.01367 6.34296 3.01367C6.60812 3.01367 6.86243 3.11899 7.04996 3.30646L9.87996 6.13446L8.46396 7.54946L6.34296 5.42746L4.92896 6.84246L7.04996 8.96246L5.63596 10.3775Z" fill="#4F4F4F"/>
</svg>
