<svg width="24" height="24" viewBox="0 0 24 24" fill="none" xmlns="http://www.w3.org/2000/svg">
<path d="M14 5.3335C14 4.22683 13.1067 3.3335 12 3.3335C10.8933 3.3335 10 4.22683 10 5.3335C10 6.44016 10.8933 7.3335 12 7.3335C13.1067 7.3335 14 6.44016 14 5.3335ZM14 18.6668C14 17.5602 13.1067 16.6668 12 16.6668C10.8933 16.6668 10 17.5602 10 18.6668C10 19.7735 10.8933 20.6668 12 20.6668C13.1067 20.6668 14 19.7735 14 18.6668ZM14 12.0002C14 10.8935 13.1067 10.0002 12 10.0002C10.8933 10.0002 10 10.8935 10 12.0002C10 13.1068 10.8933 14.0002 12 14.0002C13.1067 14.0002 14 13.1068 14 12.0002Z" fill="#4F4F4F"/>
</svg>
