<svg width="18" height="16" viewBox="0 0 18 16" fill="none" xmlns="http://www.w3.org/2000/svg">
<path fill-rule="evenodd" clip-rule="evenodd" d="M7 5L4 5L4 2L7 2L7 5ZM3 1L3 6L8 6L8 1L3 1ZM5 11L5 12L11 12L11 14.5L14 11.5L11 8.5L11 11L5 11ZM10 1L10 2.5L11 2.5L11 1L10 1ZM10 4.5L10 3L11 3L11 4.5L10 4.5ZM10 5L10 6L11.5 6L11.5 5L10 5ZM13.5 2L13.5 1L15 0.999999L15 2L13.5 2ZM14 2.5L14 4L15 4L15 2.5L14 2.5ZM14 6L14 4.5L15 4.5L15 6L14 6ZM11.5 1L11.5 2L13 2L13 1L11.5 1ZM12 6L12 5L13.5 5L13.5 6L12 6Z" fill="white"/>
</svg>
