<svg width="24" height="25" viewBox="0 0 24 25" fill="none" xmlns="http://www.w3.org/2000/svg">
<path d="M18.9607 4.59297H14.2562V3.87321C14.2563 3.79834 14.2417 3.72418 14.2131 3.65497C14.1846 3.58577 14.1426 3.52287 14.0897 3.46988C14.0368 3.4169 13.974 3.37486 13.9048 3.34618C13.8357 3.3175 13.7615 3.30273 13.6867 3.30273H10.3128C10.2379 3.30273 10.1637 3.31749 10.0945 3.34617C10.0253 3.37484 9.96247 3.41687 9.90953 3.46985C9.8566 3.52283 9.81462 3.58573 9.786 3.65494C9.75739 3.72415 9.74269 3.79832 9.74275 3.87321V4.59297H5.03875C4.96391 4.59288 4.88979 4.60754 4.82062 4.63612C4.75145 4.66471 4.6886 4.70664 4.63566 4.75954C4.58272 4.81244 4.54072 4.87526 4.51208 4.9444C4.48344 5.01354 4.46872 5.08765 4.46875 5.16249V6.82617C4.46872 6.90101 4.48344 6.97512 4.51208 7.04427C4.54072 7.11341 4.58272 7.17623 4.63566 7.22912C4.6886 7.28202 4.75145 7.32396 4.82062 7.35254C4.88979 7.38112 4.96391 7.39579 5.03875 7.39569H18.9607C19.0355 7.39585 19.1097 7.38123 19.1789 7.35267C19.2481 7.32411 19.311 7.28218 19.3639 7.22927C19.4169 7.17636 19.4589 7.11351 19.4875 7.04434C19.5161 6.97517 19.5308 6.90103 19.5307 6.82617V5.16249C19.5308 5.08764 19.5161 5.0135 19.4875 4.94432C19.4589 4.87515 19.4169 4.81231 19.3639 4.7594C19.311 4.70649 19.2481 4.66455 19.1789 4.63599C19.1097 4.60744 19.0355 4.59282 18.9607 4.59297Z" fill="#4F4F4F"/>
<path fill-rule="evenodd" clip-rule="evenodd" d="M5.80047 8.44531H18.2013C18.2761 8.44516 18.3502 8.45977 18.4194 8.48831C18.4886 8.51686 18.5515 8.55877 18.6044 8.61166C18.6574 8.66454 18.6994 8.72736 18.728 8.7965C18.7566 8.86564 18.7713 8.93976 18.7713 9.01459V12.9704C16.9079 13.7285 13.9396 14.2368 10.8611 12.7332C8.72718 11.6911 6.59112 11.7397 5.23047 11.9633V9.01484C5.23044 8.94 5.24516 8.86588 5.2738 8.79674C5.30244 8.7276 5.34443 8.66478 5.39738 8.61188C5.45032 8.55899 5.51317 8.51705 5.58234 8.48846C5.65151 8.45988 5.72563 8.44522 5.80047 8.44531ZM5.23047 13.9962V20.9877C5.23044 21.0626 5.24516 21.1368 5.27378 21.206C5.30241 21.2752 5.34439 21.338 5.39732 21.391C5.45025 21.444 5.51309 21.486 5.58227 21.5147C5.65144 21.5434 5.72558 21.5582 5.80047 21.5582H18.2013C18.2762 21.5582 18.3503 21.5435 18.4195 21.5148C18.4887 21.4862 18.5516 21.4441 18.6046 21.3912C18.6575 21.3382 18.6995 21.2753 18.7281 21.206C18.7567 21.1368 18.7714 21.0626 18.7713 20.9877V15.0972C16.4958 15.8472 13.2989 16.1496 9.98339 14.5304C8.11016 13.6155 6.19806 13.7917 5.23047 13.9962Z" fill="#4F4F4F"/>
</svg>
