<svg width="25" height="24" viewBox="0 0 25 24" fill="none" xmlns="http://www.w3.org/2000/svg">
<path d="M6.80756 8.04775C7.7828 8.04775 8.57338 7.25716 8.57338 6.28193C8.57338 5.3067 7.7828 4.51611 6.80756 4.51611C5.83233 4.51611 5.04175 5.3067 5.04175 6.28193C5.04175 7.25716 5.83233 8.04775 6.80756 8.04775Z" fill="#BDBDBD"/>
<path d="M7.39612 17.4666V11.5805C7.39612 10.7099 7.66923 9.90297 8.13187 9.23667C8.08302 9.23373 8.03417 9.22607 7.98472 9.22607H5.6303C4.33184 9.22607 3.27588 10.282 3.27588 11.5805V15.1121H4.45309V19.2324H8.57333V17.4666H7.39612Z" fill="#BDBDBD"/>
<path d="M18.5798 8.04775C19.555 8.04775 20.3456 7.25716 20.3456 6.28193C20.3456 5.3067 19.555 4.51611 18.5798 4.51611C17.6045 4.51611 16.814 5.3067 16.814 6.28193C16.814 7.25716 17.6045 8.04775 18.5798 8.04775Z" fill="#BDBDBD"/>
<path d="M17.9912 17.4666V11.5805C17.9912 10.7099 17.7181 9.90297 17.2554 9.23667C17.3043 9.23373 17.3531 9.22607 17.4026 9.22607H19.757C21.0555 9.22607 22.1114 10.282 22.1114 11.5805V15.1121H20.9342V19.2324H16.814V17.4666H17.9912Z" fill="#BDBDBD"/>
<path d="M13.8707 8.6377H11.5163C9.89348 8.6377 8.57324 9.95794 8.57324 11.5807V16.2896H10.3391V20.9984H15.0479V16.2896H16.8137V11.5807C16.8137 9.95794 15.4935 8.6377 13.8707 8.6377Z" fill="#BDBDBD"/>
<path d="M12.6935 7.46031C13.9938 7.46031 15.048 6.4062 15.048 5.10589C15.048 3.80558 13.9938 2.75146 12.6935 2.75146C11.3932 2.75146 10.3391 3.80558 10.3391 5.10589C10.3391 6.4062 11.3932 7.46031 12.6935 7.46031Z" fill="#BDBDBD"/>
</svg>
