<svg width="32" height="32" viewBox="0 0 32 32" fill="none" xmlns="http://www.w3.org/2000/svg">
<path d="M13.744 3.64935C13.136 3.01602 12.32 2.66602 11.472 2.66602H3.2C1.44 2.66602 0.016 4.16602 0.016 5.99935L0 25.9993C0 27.8327 1.44 29.3327 3.2 29.3327H28.8C30.56 29.3327 32 27.8327 32 25.9993V9.33268C32 7.49935 30.56 5.99935 28.8 5.99935H16L13.744 3.64935Z" fill="#35A684"/>
<rect y="6.66602" width="32" height="22.6667" rx="2" fill="#38BC94"/>
<path d="M10.4186 16.6367C10.2527 16.6367 10.0936 16.7026 9.97622 16.82C9.85889 16.9373 9.79297 17.0964 9.79297 17.2624V24.8747C9.79297 25.0406 9.85889 25.1998 9.97622 25.3171C10.0936 25.4344 10.2527 25.5003 10.4186 25.5003C10.5846 25.5003 10.7437 25.4344 10.861 25.3171C10.9784 25.1998 11.0443 25.0406 11.0443 24.8747V17.2624C11.0443 17.0964 10.9784 16.9373 10.861 16.82C10.7437 16.7026 10.5846 16.6367 10.4186 16.6367Z" fill="white"/>
<path d="M22.9342 16.4277C22.7683 16.4277 22.6092 16.4937 22.4918 16.611C22.3745 16.7283 22.3086 16.8875 22.3086 17.0534V24.8741C22.3086 25.04 22.3745 25.1991 22.4918 25.3165C22.6092 25.4338 22.7683 25.4997 22.9342 25.4997C23.1002 25.4997 23.2593 25.4338 23.3767 25.3165C23.494 25.1991 23.5599 25.04 23.5599 24.8741V17.0534C23.5599 16.8875 23.494 16.7283 23.3767 16.611C23.2593 16.4937 23.1002 16.4277 22.9342 16.4277Z" fill="white"/>
<path d="M18.5511 17.3672H14.7972C14.6244 17.3672 14.4844 17.5072 14.4844 17.68V20.8083C14.4844 20.981 14.6244 21.1211 14.7972 21.1211H18.5511C18.7239 21.1211 18.8639 20.981 18.8639 20.8083V17.68C18.8639 17.5072 18.7239 17.3672 18.5511 17.3672Z" fill="white"/>
<path d="M21.055 21.7461H17.3011C17.1283 21.7461 16.9883 21.8862 16.9883 22.0589V25.1872C16.9883 25.36 17.1283 25.5 17.3011 25.5H21.055C21.2278 25.5 21.3679 25.36 21.3679 25.1872V22.0589C21.3679 21.8862 21.2278 21.7461 21.055 21.7461Z" fill="white"/>
<path d="M16.0511 21.7461H12.2972C12.1244 21.7461 11.9844 21.8862 11.9844 22.0589V25.1872C11.9844 25.36 12.1244 25.5 12.2972 25.5H16.0511C16.2239 25.5 16.3639 25.36 16.3639 25.1872V22.0589C16.3639 21.8862 16.2239 21.7461 16.0511 21.7461Z" fill="white"/>
<path d="M23.9505 12.955L17.1202 10.5187C17.0534 10.4949 16.9806 10.4938 16.9131 10.5156L9.40966 12.9594C9.3379 12.985 9.27598 13.0324 9.23265 13.095C9.18932 13.1577 9.16676 13.2324 9.16816 13.3085V15.4357C9.16512 15.5293 9.19931 15.6202 9.26323 15.6886C9.32715 15.757 9.41559 15.7972 9.50914 15.8005H23.8422C23.9355 15.7974 24.0239 15.7575 24.0879 15.6895C24.1519 15.6215 24.1864 15.531 24.1838 15.4376V13.3016C24.1853 13.2269 24.1637 13.1535 24.1219 13.0914C24.0802 13.0294 24.0203 12.9818 23.9505 12.955Z" fill="white"/>
</svg>
