<svg width="16" height="16" viewBox="0 0 16 16" fill="none" xmlns="http://www.w3.org/2000/svg">
<path d="M0.5 2.16667V13.8333C0.5 14.7542 1.24583 15.5 2.16667 15.5H13.8333C14.7542 15.5 15.5 14.7542 15.5 13.8333V2.16667C15.5 1.24583 14.7542 0.5 13.8333 0.5H2.16667C1.24583 0.5 0.5 1.24583 0.5 2.16667ZM10.5 5.5C10.5 6.88333 9.37917 8 8 8C6.62083 8 5.5 6.88333 5.5 5.5C5.5 4.12083 6.62083 3 8 3C9.37917 3 10.5 4.12083 10.5 5.5ZM3 12.1667C3 10.5 6.33333 9.58333 8 9.58333C9.66667 9.58333 13 10.5 13 12.1667V13H3V12.1667Z" fill="#BDBDBD"/>
</svg>
