<svg width="14" height="14" viewBox="0 0 14 14" fill="none" xmlns="http://www.w3.org/2000/svg">
<path fill-rule="evenodd" clip-rule="evenodd" d="M3.04898 10.3327C3.03907 10.3151 3.02925 10.2973 3.01953 10.2795C3.06977 10.1761 3.1512 10.0928 3.25296 10.047L5.9502 8.84065C6.01726 8.81066 6.09024 8.79481 6.16421 8.79417L7.85997 8.77946C7.93874 8.77878 8.01663 8.79535 8.08773 8.82792L10.7503 10.0477C10.8508 10.0943 10.9309 10.1771 10.9805 10.2795C10.9707 10.2973 10.9608 10.3151 10.9509 10.3328C10.154 11.3721 8.95634 12.0879 7.58886 12.2492V11.538C7.58846 11.5213 7.58342 11.505 7.57426 11.4909L7.57451 11.4899L7.09411 10.691L7.0928 10.6888L7.09012 10.6843L7.08579 10.677L7.0853 10.6768C7.06786 10.6482 7.03666 10.6281 6.99972 10.6281C6.96292 10.6281 6.93213 10.6482 6.91466 10.6765L6.91367 10.6767L6.91269 10.677L6.42436 11.4892L6.42493 11.4906L6.42486 11.4912C6.41583 11.5052 6.41086 11.5213 6.41045 11.5378V12.2491C5.0432 12.0877 3.84571 11.3719 3.04898 10.3327ZM5.40006 5.77678C5.19814 4.76716 5.97036 3.8252 6.99997 3.8252C8.02959 3.8252 8.80181 4.76716 8.59989 5.77678L8.30928 7.22984C8.18445 7.85396 7.63645 8.30321 6.99997 8.30321C6.3635 8.30321 5.8155 7.85396 5.69067 7.22984L5.40006 5.77678ZM7.32185 10.0521L7.51808 9.29833H6.48187L6.67809 10.0521C6.71502 10.1939 6.84773 10.2934 6.99997 10.2934C7.15222 10.2934 7.28493 10.1939 7.32185 10.0521Z" fill="#BDBDBD"/>
<path d="M11.2292 7.30858C11.2292 4.97284 9.33573 3.07934 6.99999 3.07934C4.66425 3.07934 2.77075 4.97284 2.77075 7.30858C2.77075 9.17157 3.97532 10.7532 5.64809 11.3171L5.36616 12.0097C3.42077 11.3337 2.02441 9.4842 2.02441 7.30858C2.02441 4.56065 4.25206 2.33301 6.99999 2.33301C9.74792 2.33301 11.9756 4.56065 11.9756 7.30858C11.9756 9.51239 10.5428 11.3816 8.55792 12.0354L8.24388 11.3519C9.97257 10.8208 11.2292 9.21143 11.2292 7.30858Z" fill="#BDBDBD"/>
</svg>
