<svg width="80" height="80" viewBox="0 0 80 80" fill="none" xmlns="http://www.w3.org/2000/svg">
<path d="M56.642 21.7373H34.6928L29.2055 16.25H15.4873C12.4693 16.25 10 18.7193 10 21.7373V57.0127C10 60.0307 12.4693 62.5 15.4873 62.5H58.0138C60.3459 62.5 62.1292 60.7166 62.1292 58.3845V27.2246C62.1292 24.2066 59.66 21.7373 56.642 21.7373Z" fill="#7FD4BA"/>
<path d="M63.5792 28.7925H25.5014C22.8949 28.7925 20.5628 30.713 20.1513 33.3195L15.4871 58.9726H60.1497C62.7561 58.9726 65.0882 57.052 65.4998 54.4456L68.9293 35.24C69.6152 31.9477 67.0088 28.7925 63.5792 28.7925Z" fill="#DAF2EB"/>
<path fill-rule="evenodd" clip-rule="evenodd" d="M26.9009 36.5763C26.9009 35.6022 27.6905 34.8125 28.6647 34.8125H55.4269C56.401 34.8125 57.1907 35.6022 57.1907 36.5763C57.1907 37.5504 56.401 38.34 55.4269 38.34H28.6647C27.6905 38.34 26.9009 37.5504 26.9009 36.5763Z" fill="#7FD4BA"/>
<path fill-rule="evenodd" clip-rule="evenodd" d="M24.2668 44.4781C24.2668 43.504 25.0565 42.7144 26.0306 42.7144H43.5743C44.5484 42.7144 45.338 43.504 45.338 44.4781C45.338 45.4522 44.5484 46.2419 43.5743 46.2419H26.0306C25.0565 46.2419 24.2668 45.4522 24.2668 44.4781Z" fill="#7FD4BA"/>
<path fill-rule="evenodd" clip-rule="evenodd" d="M22.9497 52.38C22.9497 51.4059 23.7394 50.6162 24.7135 50.6162H34.3554C35.3295 50.6162 36.1192 51.4059 36.1192 52.38C36.1192 53.3541 35.3295 54.1438 34.3554 54.1438H24.7135C23.7394 54.1438 22.9497 53.3541 22.9497 52.38Z" fill="#7FD4BA"/>
</svg>
