<svg width="30" height="30" viewBox="0 0 30 30" fill="none" xmlns="http://www.w3.org/2000/svg">
<path fill-rule="evenodd" clip-rule="evenodd" d="M9 7.74805C8.17157 7.74805 7.5 8.41962 7.5 9.24805V23.5804C7.5 24.4088 8.17157 25.0804 9 25.0804H19.4807C20.3092 25.0804 20.9807 24.4088 20.9807 23.5804V9.24805C20.9807 8.41962 20.3092 7.74805 19.4807 7.74805H9ZM14.27 22.5001H13.2586L13.2634 21.3819C11.2977 21.2159 10.0668 20.127 10 18.296H11.7414C11.8034 19.1797 12.4189 19.6778 13.2729 19.8145L13.292 16.8604L12.8626 16.7481C11.2548 16.3233 10.2576 15.4981 10.2576 14.0626C10.2529 12.4463 11.541 11.3233 13.3302 11.1377L13.3349 10.0001H14.3464L14.3416 11.1377C16.145 11.3135 17.3378 12.4463 17.3664 13.9991H15.6632C15.5868 13.296 15.0954 12.8272 14.3321 12.6905L14.313 15.4786L14.6279 15.5616C16.0973 15.918 17.4952 16.709 17.5 18.4424C17.4952 20.0782 16.3216 21.2305 14.2748 21.3819L14.27 22.5001ZM14.3034 17.1338L14.2844 19.8145C15.1574 19.668 15.7252 19.1504 15.73 18.4278C15.7252 17.7344 15.1718 17.3926 14.3034 17.1338ZM12.0515 13.9502C12.042 14.6436 12.6431 15.0001 13.3015 15.2149L13.3206 12.6905C12.5191 12.8321 12.0563 13.3204 12.0515 13.9502Z" fill="#BDBDBD"/>
<path d="M11.25 5H21.75C22.8546 5 23.75 5.89543 23.75 7V20" stroke="#BDBDBD" stroke-width="1.5" stroke-linecap="round"/>
</svg>
