<svg width="80" height="80" viewBox="0 0 80 80" fill="none" xmlns="http://www.w3.org/2000/svg">
<g clip-path="url(#clip0)">
<path d="M17.1743 15.7065C17.1743 12.9451 19.4129 10.7065 22.1743 10.7065H59.1308C61.8923 10.7065 64.1308 12.9451 64.1308 15.7065V64.4022C64.1308 67.1636 61.8923 69.4022 59.1308 69.4022H22.1743C19.4129 69.4022 17.1743 67.1636 17.1743 64.4022V15.7065Z" fill="#DAF2EB"/>
<path fill-rule="evenodd" clip-rule="evenodd" d="M22.5 16.9939C19.7386 16.9939 17.5 19.2325 17.5 21.9939V63.991C17.5 66.7524 19.7386 68.991 22.5 68.991H52.9422C55.7036 68.991 57.9422 66.7524 57.9422 63.991V21.9939C57.9422 19.2325 55.7036 16.9939 52.9422 16.9939H22.5ZM37.8101 61.2499H34.7758L34.7901 57.8954C28.8931 57.3974 25.2004 54.1308 25 48.6376H30.2242C30.4103 51.289 32.2567 52.7831 34.8187 53.1933L34.876 44.331L33.5878 43.9941C28.7643 42.7196 25.7729 40.2441 25.7729 35.9374C25.7586 31.0888 29.6231 27.7196 34.9905 27.163L35.0048 23.7499H38.0391L38.0248 27.163C43.4351 27.6903 47.0134 31.0888 47.0992 35.747H41.9895C41.7605 33.6376 40.2863 32.2314 37.9962 31.8212L37.9389 40.1855L38.8836 40.4345C43.292 41.5038 47.4857 43.8769 47.5 49.0771C47.4857 53.9843 43.9647 57.4413 37.8244 57.8954L37.8101 61.2499ZM37.9103 45.1513L37.8531 53.1933C40.4723 52.7538 42.1756 51.2011 42.1899 49.0331C42.1756 46.953 40.5153 45.9277 37.9103 45.1513ZM31.1546 35.6005C31.126 37.6806 32.9294 38.7499 34.9046 39.3944L34.9618 31.8212C32.5573 32.246 31.1689 33.7109 31.1546 35.6005Z" fill="#7FD4BA"/>
</g>
<defs>
<clipPath id="clip0">
<rect width="80" height="80" fill="white"/>
</clipPath>
</defs>
</svg>
