<svg width="24" height="24" viewBox="0 0 24 24" fill="none" xmlns="http://www.w3.org/2000/svg">
<path d="M3 5C3 4.44772 3.44772 4 4 4C4.55228 4 5 4.44772 5 5H3ZM5 20C5 20.5523 4.55228 21 4 21C3.44772 21 3 20.5523 3 20H5ZM5 5V20H3V5H5Z" fill="#BDBDBD"/>
<path d="M10.0591 7.07577C10.4185 6.65645 11.0498 6.60788 11.4692 6.96731C11.8885 7.32673 11.937 7.95803 11.5776 8.37735L10.0591 7.07577ZM6.72745 12.4993L5.96819 13.1501C5.6472 12.7756 5.6472 12.223 5.96819 11.8485L6.72745 12.4993ZM11.5776 16.6212C11.937 17.0406 11.8885 17.6719 11.4692 18.0313C11.0498 18.3907 10.4185 18.3421 10.0591 17.9228L11.5776 16.6212ZM11.5776 8.37735L7.48671 13.1501L5.96819 11.8485L10.0591 7.07577L11.5776 8.37735ZM7.48671 11.8485L11.5776 16.6212L10.0591 17.9228L5.96819 13.1501L7.48671 11.8485Z" fill="#BDBDBD"/>
<line x1="1" y1="-1" x2="11.2727" y2="-1" transform="matrix(1 -8.74221e-08 -8.74221e-08 -1 6.72754 11.8164)" stroke="#BDBDBD" stroke-width="2" stroke-linecap="round" stroke-linejoin="round"/>
</svg>
