<svg width="80" height="80" viewBox="0 0 80 80" fill="none" xmlns="http://www.w3.org/2000/svg">
<rect x="10" y="7.5" width="60.3772" height="60.3772" rx="26" fill="#DAF2EB"/>
<rect x="24.3845" y="26.646" width="33.9109" height="39.3367" fill="#7FD4BA"/>
<path d="M57.4274 23.9877H52.0559V22.1972C52.0559 21.2475 51.6786 20.3366 51.007 19.6651C50.3355 18.9935 49.4246 18.6162 48.4749 18.6162H34.1509C33.2012 18.6162 32.2903 18.9935 31.6188 19.6651C30.9472 20.3366 30.5699 21.2475 30.5699 22.1972V23.9877H25.1984C24.2487 23.9877 23.3378 24.365 22.6663 25.0365C21.9947 25.7081 21.6174 26.619 21.6174 27.5687V65.1691C21.6174 66.1189 21.9947 67.0297 22.6663 67.7013C23.3378 68.3728 24.2487 68.7501 25.1984 68.7501H57.4274C58.3771 68.7501 59.2879 68.3728 59.9595 67.7013C60.6311 67.0297 61.0083 66.1189 61.0083 65.1691V27.5687C61.0083 26.619 60.6311 25.7081 59.9595 25.0365C59.2879 24.365 58.3771 23.9877 57.4274 23.9877ZM34.1509 22.1972H48.4749V29.3592H34.1509V22.1972ZM57.4274 65.1691H25.1984V27.5687H30.5699V31.1497H52.0559V27.5687H57.4274V65.1691Z" fill="#7FD4BA"/>
<path d="M40 35H56.25V38.75H40V35Z" fill="#DAF2EB"/>
<path d="M40 45H56.25V48.75H40V45Z" fill="#DAF2EB"/>
<path d="M40 55H50V58.75H40V55Z" fill="#DAF2EB"/>
<path fill-rule="evenodd" clip-rule="evenodd" d="M28.5164 37.9846C28.9081 38.3824 29.5498 38.3824 29.9415 37.9846L34.0176 33.8448C34.2381 33.6209 34.5992 33.6209 34.8196 33.8448C35.0353 34.0638 35.0353 34.4154 34.8196 34.6345L29.9415 39.5888C29.5498 39.9867 28.9081 39.9867 28.5164 39.5888L26.4305 37.4704C26.2148 37.2513 26.2148 36.8997 26.4305 36.6807C26.651 36.4568 27.0121 36.4568 27.2325 36.6807L28.5164 37.9846Z" fill="#DAF2EB" stroke="#DAF2EB" stroke-width="0.5"/>
<path fill-rule="evenodd" clip-rule="evenodd" d="M28.5164 47.9846C28.9081 48.3824 29.5498 48.3824 29.9415 47.9846L34.0176 43.8448C34.2381 43.6209 34.5992 43.6209 34.8196 43.8448C35.0353 44.0638 35.0353 44.4154 34.8196 44.6345L29.9415 49.5888C29.5498 49.9867 28.9081 49.9867 28.5164 49.5888L26.4305 47.4704C26.2148 47.2513 26.2148 46.8997 26.4305 46.6807C26.651 46.4568 27.0121 46.4568 27.2325 46.6807L28.5164 47.9846Z" fill="#DAF2EB" stroke="#DAF2EB" stroke-width="0.5"/>
<path d="M33.1908 55.4276C33.4996 55.1188 33.4996 54.6181 33.1908 54.3092C32.882 54.0004 32.3812 54.0004 32.0724 54.3092L30.7071 55.6745C30.3166 56.065 29.6834 56.065 29.2929 55.6745L27.9276 54.3092C27.6188 54.0004 27.118 54.0004 26.8092 54.3092C26.5004 54.6181 26.5004 55.1188 26.8092 55.4276L28.1745 56.7929C28.565 57.1834 28.565 57.8166 28.1745 58.2071L26.8093 59.5724C26.5004 59.8812 26.5004 60.3819 26.8093 60.6908C27.1181 60.9996 27.6188 60.9996 27.9277 60.6908L29.2929 59.3256C29.6834 58.935 30.3166 58.935 30.7071 59.3256L32.0723 60.6908C32.3812 60.9996 32.8819 60.9996 33.1907 60.6908C33.4996 60.3819 33.4996 59.8812 33.1907 59.5724L31.8255 58.2071C31.435 57.8166 31.435 57.1834 31.8255 56.7929L33.1908 55.4276Z" fill="#DAF2EB"/>
</svg>
