<svg width="25" height="24" viewBox="0 0 25 24" fill="none" xmlns="http://www.w3.org/2000/svg">
<path opacity="0.8" fill-rule="evenodd" clip-rule="evenodd" d="M0.5 5C0.5 2.23858 2.73858 0 5.5 0H17.5C18.0523 0 18.5 0.447715 18.5 1C18.5 1.55228 18.0523 2 17.5 2H5.5C3.84315 2 2.5 3.34315 2.5 5V17C2.5 17.5523 2.05228 18 1.5 18C0.947715 18 0.5 17.5523 0.5 17V5Z" fill="#38BC94"/>
<rect x="5" y="4.5" width="16" height="16" rx="2" fill="#38BC94" stroke="#38BC94" stroke-width="2"/>
<path d="M9.0952 9.74509C9.74213 9.74509 10.2666 9.22065 10.2666 8.57372C10.2666 7.92678 9.74213 7.40234 9.0952 7.40234C8.44827 7.40234 7.92383 7.92678 7.92383 8.57372C7.92383 9.22065 8.44827 9.74509 9.0952 9.74509Z" fill="#DAF2EB"/>
<path d="M9.48613 15.9898V12.0853C9.48613 11.5078 9.6673 10.9725 9.9742 10.5305C9.94179 10.5285 9.90938 10.5234 9.87659 10.5234H8.31476C7.45341 10.5234 6.75293 11.2239 6.75293 12.0853V14.428H7.53384V17.1612H10.267V15.9898H9.48613Z" fill="#DAF2EB"/>
<path d="M16.9048 9.74509C17.5517 9.74509 18.0761 9.22065 18.0761 8.57372C18.0761 7.92678 17.5517 7.40234 16.9048 7.40234C16.2578 7.40234 15.7334 7.92678 15.7334 8.57372C15.7334 9.22065 16.2578 9.74509 16.9048 9.74509Z" fill="#DAF2EB"/>
<path d="M16.5143 15.9898V12.0853C16.5143 11.5078 16.3331 10.9725 16.0262 10.5305C16.0586 10.5285 16.0911 10.5234 16.1239 10.5234H17.6857C18.547 10.5234 19.2475 11.2239 19.2475 12.0853V14.428H18.4666V17.1612H15.7334V15.9898H16.5143Z" fill="#DAF2EB"/>
<path d="M13.7807 10.1328H12.2189C11.1424 10.1328 10.2666 11.0086 10.2666 12.0851V15.2088H11.438V18.3324H14.5616V15.2088H15.733V12.0851C15.733 11.0086 14.8572 10.1328 13.7807 10.1328Z" fill="#DAF2EB"/>
<path d="M13.0003 9.35413C13.8629 9.35413 14.5621 8.65487 14.5621 7.7923C14.5621 6.92972 13.8629 6.23047 13.0003 6.23047C12.1377 6.23047 11.4385 6.92972 11.4385 7.7923C11.4385 8.65487 12.1377 9.35413 13.0003 9.35413Z" fill="#DAF2EB"/>
</svg>
