<svg width="25" height="24" viewBox="0 0 25 24" fill="none" xmlns="http://www.w3.org/2000/svg">
<rect x="3.5" y="3.89941" width="7.19553" height="7.19553" fill="#BDBDBD"/>
<rect x="14.293" y="12.894" width="7.19553" height="7.19553" fill="#BDBDBD"/>
<path fill-rule="evenodd" clip-rule="evenodd" d="M5.5 16.8916C5.5 17.9948 6.39432 18.8891 7.49752 18.8891C8.60072 18.8891 9.49503 17.9948 9.49503 16.8916C9.49503 15.7884 8.60072 14.894 7.49752 14.894C6.39432 14.894 5.5 15.7884 5.5 16.8916ZM7.49752 12.894C5.28975 12.894 3.5 14.6838 3.5 16.8916C3.5 19.0993 5.28975 20.8891 7.49752 20.8891C9.70529 20.8891 11.495 19.0993 11.495 16.8916C11.495 14.6838 9.70529 12.894 7.49752 12.894Z" fill="#BDBDBD"/>
<path fill-rule="evenodd" clip-rule="evenodd" d="M16.3945 7.49721C16.3945 8.32409 17.0649 8.99441 17.8917 8.99441C18.7186 8.99441 19.3889 8.32409 19.3889 7.49721C19.3889 6.67032 18.7186 6 17.8917 6C17.0649 6 16.3945 6.67032 16.3945 7.49721ZM17.8917 3C15.408 3 13.3945 5.01347 13.3945 7.49721C13.3945 9.98095 15.408 11.9944 17.8917 11.9944C20.3755 11.9944 22.3889 9.98095 22.3889 7.49721C22.3889 5.01347 20.3755 3 17.8917 3Z" fill="#BDBDBD"/>
<path fill-rule="evenodd" clip-rule="evenodd" d="M6.49609 13.9933L6.49609 10.9951L8.49609 10.9951L8.49609 13.9933L6.49609 13.9933Z" fill="#BDBDBD"/>
<path fill-rule="evenodd" clip-rule="evenodd" d="M15.1926 8.39648H8.89648V6.39648H15.1926V8.39648Z" fill="#BDBDBD"/>
<path fill-rule="evenodd" clip-rule="evenodd" d="M18.791 10.8954L18.791 13.8936L16.791 13.8936L16.791 10.8954L18.791 10.8954Z" fill="#BDBDBD"/>
</svg>
