<svg width="80" height="80" viewBox="0 0 80 80" fill="none" xmlns="http://www.w3.org/2000/svg">
<circle cx="53.8022" cy="24.375" r="14.375" fill="#DAF2EB"/>
<path d="M52.5272 23.625C49.6897 22.8875 48.7772 22.125 48.7772 20.9375C48.7772 19.575 50.0397 18.625 52.1522 18.625C54.3772 18.625 55.2022 19.6875 55.2772 21.25H58.0397C57.9522 19.1 56.6397 17.125 54.0272 16.4875V13.75H50.2772V16.45C47.8522 16.975 45.9022 18.55 45.9022 20.9625C45.9022 23.85 48.2897 25.2875 51.7772 26.125C54.9022 26.875 55.5272 27.975 55.5272 29.1375C55.5272 30 54.9147 31.375 52.1522 31.375C49.5772 31.375 48.5647 30.225 48.4272 28.75H45.6772C45.8272 31.4875 47.8772 33.025 50.2772 33.5375V36.25H54.0272V33.5625C56.4647 33.1 58.4022 31.6875 58.4022 29.125C58.4022 25.575 55.3647 24.3625 52.5272 23.625Z" fill="#7FD4BA"/>
<path fill-rule="evenodd" clip-rule="evenodd" d="M24.1486 17.3438H37.0915C36.1807 19.5058 35.6772 21.8816 35.6772 24.375C35.6772 25.0081 35.7096 25.6336 35.773 26.25L18.75 26.25V23.0729C18.75 19.9088 21.1671 17.3438 24.1486 17.3438ZM18.75 29.25L18.75 36.25L40.1088 36.25C38.3745 34.252 37.0704 31.8706 36.3403 29.25L18.75 29.25ZM45.0522 40.2519V46.25L58.8542 46.25V41.7866C57.2506 42.2511 55.5555 42.5 53.8022 42.5C50.629 42.5 47.6463 41.6846 45.0522 40.2519ZM58.8542 49.25L45.0522 49.25L45.0522 56.25H58.8542V49.25ZM58.8542 59.25H45.0522V66.0417H53.4555C56.4371 66.0417 58.8542 63.4766 58.8542 60.3125V59.25ZM42.0522 66.0417V59.25L18.75 59.25V60.3125C18.75 63.4766 21.1671 66.0417 24.1486 66.0417H42.0522ZM18.75 56.25L42.0522 56.25L42.0522 49.25H18.75L18.75 56.25ZM18.75 46.25H42.0522V39.25L18.75 39.25L18.75 46.25Z" fill="#7FD4BA"/>
</svg>
