<svg width="31" height="30" viewBox="0 0 31 30" fill="none" xmlns="http://www.w3.org/2000/svg">
<path fill-rule="evenodd" clip-rule="evenodd" d="M20.1387 16.2344C21.6371 17.2516 22.6871 18.6297 22.6871 20.4672V23.7484H25.9684C26.5699 23.7484 27.0621 23.2562 27.0621 22.6547V20.4672C27.0621 18.0828 23.1574 16.6719 20.1387 16.2344Z" fill="#828282"/>
<path d="M11.75 15C14.1662 15 16.125 13.0412 16.125 10.625C16.125 8.20875 14.1662 6.25 11.75 6.25C9.33375 6.25 7.375 8.20875 7.375 10.625C7.375 13.0412 9.33375 15 11.75 15Z" fill="#828282"/>
<path fill-rule="evenodd" clip-rule="evenodd" d="M18.3121 15C20.7293 15 22.6871 13.0422 22.6871 10.625C22.6871 8.20781 20.7293 6.25 18.3121 6.25C17.798 6.25 17.3168 6.35937 16.8574 6.5125C17.7652 7.63906 18.3121 9.07188 18.3121 10.625C18.3121 12.1781 17.7652 13.6109 16.8574 14.7375C17.3168 14.8906 17.798 15 18.3121 15Z" fill="#828282"/>
<path fill-rule="evenodd" clip-rule="evenodd" d="M11.75 16.0938C8.82969 16.0938 3 17.5594 3 20.4688V22.6562C3 23.2578 3.49219 23.75 4.09375 23.75H19.4062C20.0078 23.75 20.5 23.2578 20.5 22.6562V20.4688C20.5 17.5594 14.6703 16.0938 11.75 16.0938Z" fill="#828282"/>
</svg>
