<svg width="80" height="80" viewBox="0 0 80 80" fill="none" xmlns="http://www.w3.org/2000/svg">
<path fill-rule="evenodd" clip-rule="evenodd" d="M10 27.675L26.6426 38.125V40.625L10.4803 49.6458C14.7942 58.7239 24.048 65 34.7676 65C49.6103 65 61.6426 52.9677 61.6426 38.125C61.6426 23.2823 49.6103 11.25 34.7676 11.25C23.6315 11.25 14.0773 18.0233 10 27.675Z" fill="#DAF2EB"/>
<g clip-path="url(#clip0)">
<path d="M70.3929 40.9728C70.3929 36.9174 67.5073 33.3951 63.5314 32.5962L54.408 30.7642H39.3621V34.1915H47.29V42.9227L44.5104 45.4409V48.6017C49.5741 50.6046 53.1655 55.5496 53.1655 61.3174V68.7498H70.3929V40.9728ZM65.43 50.6713C65.43 52.0179 64.3346 53.1125 62.9888 53.1125H58.4018V36.8464L62.3752 37.5223C64.1457 37.824 65.4309 39.3458 65.4309 41.142L65.43 50.6713Z" fill="#7FD4BA"/>
<path d="M28.9354 47.6422H26.6428V50.1972H28.9354C31.1614 50.1972 33.0635 48.7898 33.8018 46.8176L31.4647 45.7563C31.1392 46.8458 30.1283 47.6422 28.9354 47.6422Z" fill="#7FD4BA"/>
<path d="M41.6392 25H49.6893V28.2095H41.6392V25Z" fill="#7FD4BA"/>
<path d="M29.9147 42.1694L36.7839 45.5242V47.921C37.6615 47.7433 38.569 47.6501 39.4987 47.6501C40.3643 47.6501 41.2119 47.7322 42.0331 47.8868V44.3356L44.8127 41.8644V36.6699H29.9147V38.2097H26.6428V40.7646H29.9147V42.1694Z" fill="#7FD4BA"/>
<path d="M38.5049 56.076V50.1724C34.6494 50.5133 31.3494 52.817 29.6147 56.076H38.5049Z" fill="#7FD4BA"/>
<path d="M50.3611 58.6309H41.0599V63.5955H38.505V58.6309H28.6348C28.422 59.4922 28.3083 60.3911 28.3083 61.3174V68.7498H50.6875V61.3174C50.6875 60.3911 50.5739 59.4922 50.3611 58.6309Z" fill="#7FD4BA"/>
<path d="M41.0598 56.076H49.3809C47.7317 52.9785 44.6692 50.744 41.0598 50.2373V56.076Z" fill="#7FD4BA"/>
</g>
<defs>
<clipPath id="clip0">
<rect width="43.75" height="43.75" fill="white" transform="translate(26.6428 25)"/>
</clipPath>
</defs>
</svg>
