<svg width="25" height="26" viewBox="0 0 25 26" fill="none" xmlns="http://www.w3.org/2000/svg">
<path fill-rule="evenodd" clip-rule="evenodd" d="M2.34375 4.10651L3.60651 2.84375L7.49708 5.62182C7.66091 5.73878 7.79441 5.8932 7.88645 6.07222C7.97849 6.25125 8.02639 6.44968 8.02617 6.65097V6.73937C8.02604 6.90539 8.05865 7.06982 8.12214 7.22323C8.18563 7.37664 8.27875 7.51602 8.39616 7.6334L15.6027 14.84L16.7569 14.4548C16.9794 14.3808 17.218 14.3702 17.4462 14.4242C17.6744 14.4782 17.883 14.5946 18.0487 14.7604L22.2865 18.9982C22.5233 19.2351 22.6562 19.5562 22.6562 19.891C22.6562 20.2259 22.5233 20.547 22.2865 20.7838L20.2838 22.7865C20.047 23.0233 19.7259 23.1562 19.391 23.1562C19.0562 23.1562 18.7351 23.0233 18.4982 22.7865L14.2604 18.5487C14.0946 18.383 13.9782 18.1744 13.9242 17.9462C13.8702 17.718 13.8808 17.4794 13.9548 17.2569L14.34 16.1027L7.1334 8.89616C6.89664 8.65933 6.57551 8.52625 6.24063 8.52617H6.15097C5.94989 8.52619 5.75171 8.47819 5.57293 8.38616C5.39414 8.29413 5.23992 8.16074 5.12309 7.99708L2.34375 4.10651ZM16.6811 16.2871C16.5626 16.1685 16.4018 16.1019 16.2341 16.1019C16.0665 16.1019 15.9057 16.1685 15.7871 16.2871C15.6685 16.4057 15.6019 16.5665 15.6019 16.7341C15.6019 16.9018 15.6685 17.0626 15.7871 17.1811L19.5754 20.9694C19.6939 21.088 19.8547 21.1546 20.0224 21.1546C20.1901 21.1546 20.3509 21.088 20.4694 20.9694C20.588 20.8509 20.6546 20.6901 20.6546 20.5224C20.6546 20.3547 20.588 20.1939 20.4694 20.0754L16.6811 16.2871Z" fill="#828282"/>
<path fill-rule="evenodd" clip-rule="evenodd" d="M22.5277 5.66924C22.6999 6.31535 22.6991 6.99538 22.5253 7.64108C22.3516 8.28678 22.011 8.87542 21.5377 9.34791C21.0644 9.8204 20.4751 10.1601 19.829 10.333C19.1829 10.5058 18.5026 10.5057 17.8566 10.3326L9.80563 18.2694C10.0456 19.0813 10.0081 19.9499 9.69901 20.7381C9.38997 21.5262 8.82702 22.189 8.09912 22.6216C7.37122 23.0541 6.51989 23.2319 5.67964 23.1268C4.8394 23.0216 4.05816 22.6395 3.45938 22.0409C2.8606 21.4423 2.47843 20.6613 2.37325 19.8213C2.26807 18.9814 2.44589 18.1303 2.8786 17.4026C3.31131 16.6749 3.97424 16.1121 4.76263 15.8032C5.55103 15.4942 6.41993 15.4567 7.23202 15.6966L15.17 7.64806C14.9946 7.00168 14.993 6.3205 15.1651 5.67327C15.3372 5.02603 15.677 4.43562 16.1503 3.96161C16.6235 3.48759 17.2135 3.14674 17.8606 2.97344C18.5077 2.80014 19.1891 2.80053 19.836 2.97455L17.1163 5.69336L17.5785 7.92476L19.8093 8.38678L22.5277 5.66924ZM5.55226 17.1169L6.15281 16.8098L6.75082 17.1169L7.42247 17.1499L7.78687 17.7148L8.35187 18.079L8.38488 18.7505L8.69087 19.3483L8.38361 19.9462L8.3506 20.6176L7.7856 20.9819L7.4212 21.5467L6.74955 21.5797L6.15154 21.8869L5.55353 21.5797L4.88188 21.5467L4.51748 20.9819L3.95248 20.6176L3.91947 19.9462L3.61221 19.3483L3.91947 18.7505L3.95248 18.079L4.51748 17.7148L4.88188 17.1499L5.55353 17.1169H5.55226Z" fill="#828282"/>
</svg>
