<svg width="24" height="25" viewBox="0 0 24 25" fill="none" xmlns="http://www.w3.org/2000/svg">
<path fill-rule="evenodd" clip-rule="evenodd" d="M3 4.54869L4.119 3.42969L7.56664 5.89149C7.71182 5.99513 7.83013 6.13197 7.91169 6.29061C7.99325 6.44925 8.0357 6.62509 8.0355 6.80347V6.8818C8.03539 7.02893 8.06428 7.17463 8.12054 7.31058C8.1768 7.44652 8.25932 7.57004 8.36337 7.67406L14.7495 14.0602L15.7723 13.7189C15.9694 13.6533 16.1809 13.6439 16.3831 13.6917C16.5853 13.7396 16.7701 13.8427 16.917 13.9897L20.6724 17.7451C20.8822 17.9549 21 18.2395 21 18.5362C21 18.8329 20.8822 19.1175 20.6724 19.3273L18.8976 21.1021C18.6878 21.3118 18.4032 21.4297 18.1065 21.4297C17.8098 21.4297 17.5252 21.3118 17.3154 21.1021L13.56 17.3467C13.413 17.1998 13.3099 17.015 13.2621 16.8128C13.2142 16.6106 13.2236 16.3991 13.2892 16.202L13.6305 15.1792L7.24437 8.79306C7.03456 8.58319 6.74999 8.46525 6.45323 8.46519H6.37379C6.1956 8.46521 6.01998 8.42267 5.86155 8.34112C5.70311 8.25957 5.56645 8.14136 5.46292 7.99633L3 4.54869ZM15.7051 15.3426C15.6001 15.2375 15.4576 15.1785 15.309 15.1785C15.1604 15.1785 15.0179 15.2375 14.9129 15.3426C14.8078 15.4476 14.7488 15.5901 14.7488 15.7387C14.7488 15.8873 14.8078 16.0298 14.9129 16.1348L18.2699 19.4918C18.3749 19.5969 18.5174 19.6559 18.666 19.6559C18.8146 19.6559 18.9571 19.5969 19.0621 19.4918C19.1672 19.3868 19.2262 19.2443 19.2262 19.0957C19.2262 18.9471 19.1672 18.8046 19.0621 18.6996L15.7051 15.3426Z" fill="#4F4F4F"/>
<path fill-rule="evenodd" clip-rule="evenodd" d="M20.886 5.93351C21.0387 6.50606 21.038 7.10867 20.884 7.68086C20.73 8.25305 20.4282 8.77468 20.0088 9.19338C19.5894 9.61208 19.0672 9.91312 18.4946 10.0663C17.922 10.2194 17.3193 10.2193 16.7467 10.066L9.61237 17.0992C9.825 17.8186 9.79175 18.5884 9.51789 19.2868C9.24403 19.9853 8.74517 20.5725 8.10014 20.9559C7.45511 21.3392 6.7007 21.4967 5.95612 21.4036C5.21153 21.3104 4.51923 20.9718 3.98862 20.4414C3.45801 19.9109 3.11935 19.2188 3.02614 18.4745C2.93294 17.7301 3.09051 16.9759 3.47396 16.3311C3.85741 15.6862 4.44487 15.1875 5.1435 14.9137C5.84214 14.64 6.61212 14.6067 7.33176 14.8193L14.366 7.68704C14.2106 7.11425 14.2092 6.51063 14.3617 5.93707C14.5142 5.36352 14.8153 4.84033 15.2347 4.42028C15.6541 4.00023 16.1769 3.69819 16.7503 3.54462C17.3237 3.39105 17.9275 3.39138 18.5008 3.5456L16.0908 5.95488L16.5003 7.93224L18.4772 8.34167L20.886 5.93351ZM5.84323 16.0779L6.37541 15.8057L6.90534 16.0779L7.50053 16.1072L7.82344 16.6077L8.32411 16.9305L8.35337 17.5255L8.62452 18.0553L8.35224 18.5851L8.32299 19.1801L7.82231 19.5029L7.4994 20.0034L6.90422 20.0326L6.37429 20.3048L5.84436 20.0326L5.24917 20.0034L4.92626 19.5029L4.42558 19.1801L4.39633 18.5851L4.12405 18.0553L4.39633 17.5255L4.42558 16.9305L4.92626 16.6077L5.24917 16.1072L5.84436 16.0779H5.84323Z" fill="#4F4F4F"/>
</svg>
