<svg width="40" height="40" viewBox="0 0 40 40" fill="none" xmlns="http://www.w3.org/2000/svg">
<path fill-rule="evenodd" clip-rule="evenodd" d="M3.33398 5.40523L5.40621 3.33301L11.7907 7.8919C12.0596 8.08382 12.2787 8.33724 12.4297 8.63102C12.5807 8.9248 12.6593 9.25043 12.659 9.58076V9.72582C12.6588 9.99827 12.7123 10.2681 12.8165 10.5198C12.9207 10.7716 13.0735 11.0003 13.2661 11.1929L25.0923 23.0191L26.9863 22.3871C27.3514 22.2656 27.7431 22.2482 28.1175 22.3368C28.4919 22.4254 28.8343 22.6164 29.1062 22.8886L36.0606 29.843C36.4491 30.2316 36.6673 30.7585 36.6673 31.308C36.6673 31.8575 36.4491 32.3845 36.0606 32.7731L32.7741 36.0596C32.3855 36.4481 31.8585 36.6663 31.309 36.6663C30.7595 36.6663 30.2325 36.4481 29.8439 36.0596L22.8896 29.1052C22.6174 28.8333 22.4264 28.4909 22.3378 28.1165C22.2492 27.7421 22.2666 27.3504 22.3881 26.9854L23.0201 25.0913L11.1939 13.2652C10.8054 12.8765 10.2784 12.6581 9.72886 12.658H9.58174C9.25176 12.658 8.92654 12.5793 8.63314 12.4282C8.33975 12.2772 8.08667 12.0583 7.89495 11.7897L3.33398 5.40523ZM26.862 25.3939C26.6674 25.1993 26.4036 25.09 26.1284 25.09C25.8533 25.09 25.5894 25.1993 25.3949 25.3939C25.2003 25.5884 25.091 25.8523 25.091 26.1275C25.091 26.4026 25.2003 26.6665 25.3949 26.861L31.6115 33.0777C31.8061 33.2723 32.07 33.3815 32.3451 33.3815C32.6202 33.3815 32.8841 33.2723 33.0787 33.0777C33.2732 32.8831 33.3825 32.6193 33.3825 32.3441C33.3825 32.069 33.2732 31.8051 33.0787 31.6106L26.862 25.3939Z" fill="#4F4F4F"/>
<path fill-rule="evenodd" clip-rule="evenodd" d="M36.4563 7.96971C36.7389 9.02999 36.7376 10.1459 36.4525 11.2056C36.1673 12.2652 35.6084 13.2311 34.8317 14.0065C34.0551 14.7819 33.088 15.3394 32.0277 15.623C30.9674 15.9066 29.8511 15.9064 28.7909 15.6224L15.5791 28.6469C15.9729 29.9792 15.9113 31.4047 15.4042 32.6981C14.897 33.9915 13.9732 35.079 12.7787 35.7889C11.5842 36.4988 10.1871 36.7905 8.80827 36.6179C7.42941 36.4454 6.14738 35.8184 5.16477 34.8361C4.18215 33.8538 3.555 32.5721 3.3824 31.1937C3.2098 29.8152 3.5016 28.4186 4.21169 27.2244C4.92178 26.0303 6.00966 25.1068 7.30344 24.5998C8.59721 24.0928 10.0231 24.0312 11.3558 24.4249L24.3821 11.217C24.0944 10.1563 24.0917 9.03845 24.3741 7.97632C24.6566 6.91418 25.2143 5.94531 25.9909 5.16744C26.7675 4.38957 27.7356 3.83023 28.7975 3.54584C29.8594 3.26145 30.9776 3.26208 32.0392 3.54765L27.5762 8.00929L28.3346 11.6711L31.9954 12.4293L36.4563 7.96971ZM8.59923 26.7556L9.58475 26.2516L10.5661 26.7556L11.6683 26.8098L12.2663 27.7367L13.1935 28.3345L13.2476 29.4364L13.7498 30.4174L13.2455 31.3985L13.1914 32.5004L12.2642 33.0982L11.6662 34.0251L10.564 34.0792L9.58266 34.5833L8.60131 34.0792L7.49911 34.0251L6.90113 33.0982L5.97396 32.5004L5.91978 31.3985L5.41556 30.4174L5.91978 29.4364L5.97396 28.3345L6.90113 27.7367L7.49911 26.8098L8.60131 26.7556H8.59923Z" fill="#4F4F4F"/>
</svg>
