<svg width="31" height="31" viewBox="0 0 31 31" fill="none" xmlns="http://www.w3.org/2000/svg">
<g clip-path="url(#clip0)">
<path d="M15.4887 4.25C9.27875 4.25 4.25 9.29 4.25 15.5C4.25 21.71 9.27875 26.75 15.4887 26.75C21.71 26.75 26.75 21.71 26.75 15.5C26.75 9.29 21.71 4.25 15.4887 4.25ZM15.5 24.5C10.5275 24.5 6.5 20.4725 6.5 15.5C6.5 10.5275 10.5275 6.5 15.5 6.5C20.4725 6.5 24.5 10.5275 24.5 15.5C24.5 20.4725 20.4725 24.5 15.5 24.5ZM15.2525 9.875H15.185C14.735 9.875 14.375 10.235 14.375 10.685V15.995C14.375 16.3887 14.5775 16.76 14.9262 16.9625L19.595 19.7638C19.9775 19.9887 20.4725 19.8763 20.6975 19.4938C20.9338 19.1112 20.81 18.605 20.4163 18.38L16.0625 15.7925V10.685C16.0625 10.235 15.7025 9.875 15.2525 9.875Z" fill="#828282"/>
</g>
<defs>
<clipPath id="clip0">
<rect width="30" height="30" fill="white" transform="translate(0.5 0.5)"/>
</clipPath>
</defs>
</svg>
