<svg width="25" height="24" viewBox="0 0 25 24" fill="none" xmlns="http://www.w3.org/2000/svg">
<path fill-rule="evenodd" clip-rule="evenodd" d="M15.5 4.5H20V6H18.5V19.5L17 21H6.5L5 19.5V6H3.5V4.5H8V3C8 2.60218 8.15804 2.22064 8.43934 1.93934C8.72064 1.65804 9.10218 1.5 9.5 1.5H14C14.3978 1.5 14.7794 1.65804 15.0607 1.93934C15.342 2.22064 15.5 2.60218 15.5 3V4.5ZM14 3H9.5V4.5H14V3ZM6.5 19.5H17V6H6.5V19.5ZM9.5 7.5H8V18H9.5V7.5ZM11 7.5H12.5V18H11V7.5ZM14 7.5H15.5V18H14V7.5Z" fill="#BDBDBD"/>
</svg>
