<svg width="40" height="40" viewBox="0 0 40 40" fill="none" xmlns="http://www.w3.org/2000/svg">
<path d="M32.1219 14.3333H24.5461V23H4.84914V27.3333H6.36429C6.36429 28.4826 6.84318 29.5848 7.69562 30.3975C8.54806 31.2101 9.70421 31.6667 10.9097 31.6667C12.1153 31.6667 13.2714 31.2101 14.1239 30.3975C14.9763 29.5848 15.4552 28.4826 15.4552 27.3333H24.5461C24.5461 28.4826 25.025 29.5848 25.8774 30.3975C26.7299 31.2101 27.886 31.6667 29.0916 31.6667C30.2971 31.6667 31.4532 31.2101 32.3057 30.3975C33.1581 29.5848 33.637 28.4826 33.637 27.3333H36.6673V20.1111L32.1219 14.3333ZM10.9097 29.5C10.307 29.5 9.7289 29.2717 9.30268 28.8654C8.87646 28.4591 8.63701 27.908 8.63701 27.3333C8.63701 26.7587 8.87646 26.2076 9.30268 25.8013C9.7289 25.3949 10.307 25.1667 10.9097 25.1667C11.5125 25.1667 12.0906 25.3949 12.5168 25.8013C12.943 26.2076 13.1825 26.7587 13.1825 27.3333C13.1825 27.908 12.943 28.4591 12.5168 28.8654C12.0906 29.2717 11.5125 29.5 10.9097 29.5ZM29.0916 29.5C28.4888 29.5 27.9107 29.2717 27.4845 28.8654C27.0583 28.4591 26.8188 27.908 26.8188 27.3333C26.8188 26.7587 27.0583 26.2076 27.4845 25.8013C27.9107 25.3949 28.4888 25.1667 29.0916 25.1667C29.6943 25.1667 30.2724 25.3949 30.6986 25.8013C31.1248 26.2076 31.3643 26.7587 31.3643 27.3333C31.3643 27.908 31.1248 28.4591 30.6986 28.8654C30.2724 29.2717 29.6943 29.5 29.0916 29.5ZM27.5764 20.1111V16.5H31.3643L34.334 20.1111H27.5764ZM29.0916 12.8889H23.031V21.5556H6.36429L4.19762 14.3333H3.33398V11.4444H21.5158L23.031 10H29.0916V12.8889Z" fill="#4F4F4F"/>
</svg>
