<svg width="80" height="80" viewBox="0 0 80 80" fill="none" xmlns="http://www.w3.org/2000/svg">
<g clip-path="url(#clip0)">
<path d="M40.0003 10C33.3699 10 27.0111 12.6184 22.3228 17.2792C20.0012 19.5869 18.1596 22.3267 16.9031 25.342C15.6467 28.3572 15 31.5891 15 34.8528C15 38.1166 15.6467 41.3484 16.9031 44.3637C18.1596 47.379 20.0012 50.1187 22.3228 52.4264L40.0003 70L57.6777 52.4264C62.3661 47.7656 65 41.4442 65 34.8528C65 28.2614 62.3661 21.94 57.6777 17.2792C52.9894 12.6184 46.6306 10 40.0003 10Z" fill="#DAF2EB"/>
<path d="M61.4582 28.3854H48.4373V43.2813H14.5832V50.7292H17.1873C17.1873 52.7045 18.0104 54.5989 19.4756 55.9956C20.9407 57.3924 22.9278 58.1771 24.9998 58.1771C27.0718 58.1771 29.059 57.3924 30.5241 55.9956C31.9892 54.5989 32.8123 52.7045 32.8123 50.7292H48.4373C48.4373 52.7045 49.2604 54.5989 50.7256 55.9956C52.1907 57.3924 54.1778 58.1771 56.2498 58.1771C58.3218 58.1771 60.309 57.3924 61.7741 55.9956C63.2392 54.5989 64.0623 52.7045 64.0623 50.7292H69.2707V38.316L61.4582 28.3854ZM24.9998 54.4531C23.9638 54.4531 22.9703 54.0608 22.2377 53.3624C21.5051 52.664 21.0936 51.7168 21.0936 50.7292C21.0936 49.7415 21.5051 48.7943 22.2377 48.0959C22.9703 47.3976 23.9638 47.0052 24.9998 47.0052C26.0358 47.0052 27.0294 47.3976 27.762 48.0959C28.4945 48.7943 28.9061 49.7415 28.9061 50.7292C28.9061 51.7168 28.4945 52.664 27.762 53.3624C27.0294 54.0608 26.0358 54.4531 24.9998 54.4531ZM56.2498 54.4531C55.2138 54.4531 54.2203 54.0608 53.4877 53.3624C52.7551 52.664 52.3436 51.7168 52.3436 50.7292C52.3436 49.7415 52.7551 48.7943 53.4877 48.0959C54.2203 47.3976 55.2138 47.0052 56.2498 47.0052C57.2858 47.0052 58.2794 47.3976 59.012 48.0959C59.7445 48.7943 60.1561 49.7415 60.1561 50.7292C60.1561 51.7168 59.7445 52.664 59.012 53.3624C58.2794 54.0608 57.2858 54.4531 56.2498 54.4531ZM53.6457 38.316V32.1094H60.1561L65.2603 38.316H53.6457ZM56.2498 25.9028H45.8332V40.7986H17.1873L13.4634 28.3854H11.979V23.4201H43.229L45.8332 20.9375H56.2498V25.9028Z" fill="#7FD4BA"/>
</g>
<defs>
<clipPath id="clip0">
<rect width="65" height="65" fill="white" transform="translate(7.5 7.5)"/>
</clipPath>
</defs>
</svg>
