<svg xmlns="http://www.w3.org/2000/svg" width="30" height="30" viewBox="0 0 30 30" fill="none">
<path d="M24.0909 10.75H18.4091V17.25H3.63636V20.5H4.77273C4.77273 21.362 5.1319 22.1886 5.77123 22.7981C6.41056 23.4076 7.27767 23.75 8.18182 23.75C9.08597 23.75 9.95308 23.4076 10.5924 22.7981C11.2317 22.1886 11.5909 21.362 11.5909 20.5H18.4091C18.4091 21.362 18.7683 22.1886 19.4076 22.7981C20.0469 23.4076 20.914 23.75 21.8182 23.75C22.7223 23.75 23.5894 23.4076 24.2288 22.7981C24.8681 22.1886 25.2273 21.362 25.2273 20.5H27.5V15.0833L24.0909 10.75ZM8.18182 22.125C7.72974 22.125 7.29619 21.9538 6.97652 21.649C6.65686 21.3443 6.47727 20.931 6.47727 20.5C6.47727 20.069 6.65686 19.6557 6.97652 19.351C7.29619 19.0462 7.72974 18.875 8.18182 18.875C8.63389 18.875 9.06745 19.0462 9.38711 19.351C9.70678 19.6557 9.88636 20.069 9.88636 20.5C9.88636 20.931 9.70678 21.3443 9.38711 21.649C9.06745 21.9538 8.63389 22.125 8.18182 22.125ZM21.8182 22.125C21.3661 22.125 20.9326 21.9538 20.6129 21.649C20.2932 21.3443 20.1136 20.931 20.1136 20.5C20.1136 20.069 20.2932 19.6557 20.6129 19.351C20.9326 19.0462 21.3661 18.875 21.8182 18.875C22.2703 18.875 22.7038 19.0462 23.0235 19.351C23.3431 19.6557 23.5227 20.069 23.5227 20.5C23.5227 20.931 23.3431 21.3443 23.0235 21.649C22.7038 21.9538 22.2703 22.125 21.8182 22.125ZM20.6818 15.0833V12.375H23.5227L25.75 15.0833H20.6818ZM21.8182 9.66667H17.2727V16.1667H4.77273L3.14773 10.75H2.5V8.58333H16.1364L17.2727 7.5H21.8182V9.66667Z" fill="#BDBDBD"/>
</svg>