<svg width="16" height="16" viewBox="0 0 16 16" fill="none" xmlns="http://www.w3.org/2000/svg">
<path fill-rule="evenodd" clip-rule="evenodd" d="M14.319 0.5C14.6486 0.5 14.9278 0.62207 15.1567 0.866211C15.3856 1.11035 15.5 1.4082 15.5 1.75977V13.5C15.5 14.6046 14.6046 15.5 13.5 15.5H3.77209C3.46082 15.5 3.19073 15.3779 2.96185 15.1338C2.73297 14.8896 2.61853 14.5918 2.61853 14.2402V12.3652H1.07678C0.692261 12.3652 0.5 12.1602 0.5 11.75C0.5 11.3398 0.692261 11.1348 1.07678 11.1348H2.61853V8.61523H1.07678C0.692261 8.61523 0.5 8.41016 0.5 8C0.5 7.58984 0.692261 7.38477 1.07678 7.38477H2.61853V4.86523H1.07678C0.692261 4.86523 0.5 4.66016 0.5 4.25C0.5 3.83984 0.692261 3.63477 1.07678 3.63477H2.61853V1.75977C2.61853 1.4082 2.73297 1.11035 2.96185 0.866211C3.19073 0.62207 3.46082 0.5 3.77209 0.5H14.319ZM9.5 1.75977H3.77209V3.63477H4.37634C4.76086 3.63477 4.95312 3.83984 4.95312 4.25C4.95312 4.66016 4.76086 4.86523 4.37634 4.86523H3.77209V7.38477H4.37634C4.76086 7.38477 4.95312 7.58984 4.95312 8C4.95312 8.41016 4.76086 8.61523 4.37634 8.61523H3.77209V11.1348H4.37634C4.76086 11.1348 4.95312 11.3398 4.95312 11.75C4.95312 12.1602 4.76086 12.3652 4.37634 12.3652H3.77209V14.2402H9.5V1.75977Z" fill="#BDBDBD"/>
</svg>
