<svg width="64" height="64" viewBox="0 0 64 64" fill="none" xmlns="http://www.w3.org/2000/svg">
<path d="M45.0669 21.447C45.0669 24.887 42.3689 27.667 39.0266 27.667C35.6843 27.667 32.9863 24.887 32.9863 21.447V17.887C32.9863 14.447 35.6843 11.667 39.0266 11.667C42.3689 11.667 45.0669 14.447 45.0669 17.887V21.447Z" fill="#5C5C5C"/>
<path d="M39.0268 33.667C30.9127 33.667 24.1879 39.627 23.0805 47.387C22.8993 48.587 23.8657 49.667 25.0939 49.667H52.9597C54.1879 49.667 55.1342 48.587 54.9731 47.387C53.8657 39.627 47.1409 33.667 39.0268 33.667Z" fill="#5C5C5C"/>
<path fill-rule="evenodd" clip-rule="evenodd" d="M28.4356 14.0777C26.9776 14.9847 26.0052 16.6321 26.0052 18.5173V21.484C26.0052 23.3692 26.9776 25.0166 28.4356 25.9236C27.6766 26.3958 26.7859 26.6673 25.8324 26.6673C23.0471 26.6673 20.7988 24.3507 20.7988 21.484V18.5173C20.7988 15.6507 23.0471 13.334 25.8324 13.334C26.7859 13.334 27.6766 13.6055 28.4356 14.0777Z" fill="#5C5C5C"/>
<path fill-rule="evenodd" clip-rule="evenodd" d="M8.02192 45.72C9.1293 37.96 15.8541 32 23.9682 32C24.8765 32 25.7674 32.0747 26.6349 32.2182C19.7523 33.3569 14.3387 38.8286 13.3552 45.72C13.174 46.92 14.1405 48 15.3687 48H10.0353C8.80715 48 7.84071 46.92 8.02192 45.72Z" fill="#5C5C5C"/>
</svg>
