<svg width="25" height="24" viewBox="0 0 25 24" fill="none" xmlns="http://www.w3.org/2000/svg">
<g clip-path="url(#clip0)">
<path d="M10.808 2.7375C10.352 2.2625 9.74 2 9.104 2H2.9C1.58 2 0.512 3.125 0.512 4.5L0.5 19.5C0.5 20.875 1.58 22 2.9 22H22.1C23.42 22 24.5 20.875 24.5 19.5V7C24.5 5.625 23.42 4.5 22.1 4.5H12.5L10.808 2.7375Z" fill="#35A684"/>
<rect x="0.5" y="5" width="24" height="17" rx="2" fill="#38BC94"/>
<path d="M18 10.875H14.875V14.375H6.75V16.125H7.375C7.375 16.5891 7.57254 17.0342 7.92417 17.3624C8.27581 17.6906 8.75272 17.875 9.25 17.875C9.74728 17.875 10.2242 17.6906 10.5758 17.3624C10.9275 17.0342 11.125 16.5891 11.125 16.125H14.875C14.875 16.5891 15.0725 17.0342 15.4242 17.3624C15.7758 17.6906 16.2527 17.875 16.75 17.875C17.2473 17.875 17.7242 17.6906 18.0758 17.3624C18.4275 17.0342 18.625 16.5891 18.625 16.125H19.875V13.2083L18 10.875ZM9.25 17C9.00136 17 8.7629 16.9078 8.58709 16.7437C8.41127 16.5796 8.3125 16.3571 8.3125 16.125C8.3125 15.8929 8.41127 15.6704 8.58709 15.5063C8.7629 15.3422 9.00136 15.25 9.25 15.25C9.49864 15.25 9.7371 15.3422 9.91291 15.5063C10.0887 15.6704 10.1875 15.8929 10.1875 16.125C10.1875 16.3571 10.0887 16.5796 9.91291 16.7437C9.7371 16.9078 9.49864 17 9.25 17ZM16.75 17C16.5014 17 16.2629 16.9078 16.0871 16.7437C15.9113 16.5796 15.8125 16.3571 15.8125 16.125C15.8125 15.8929 15.9113 15.6704 16.0871 15.5063C16.2629 15.3422 16.5014 15.25 16.75 15.25C16.9986 15.25 17.2371 15.3422 17.4129 15.5063C17.5887 15.6704 17.6875 15.8929 17.6875 16.125C17.6875 16.3571 17.5887 16.5796 17.4129 16.7437C17.2371 16.9078 16.9986 17 16.75 17ZM16.125 13.2083V11.75H17.6875L18.9125 13.2083H16.125ZM16.75 10.2917H14.25V13.7917H7.375L6.48125 10.875H6.125V9.70833H13.625L14.25 9.125H16.75V10.2917Z" fill="white"/>
</g>
<defs>
<clipPath id="clip0">
<rect width="24" height="24" fill="white" transform="translate(0.5)"/>
</clipPath>
</defs>
</svg>
