<svg width="24" height="24" viewBox="0 0 24 24" fill="none" xmlns="http://www.w3.org/2000/svg">
<path d="M20 7.8H15V13.4H2V16.2H3C3 16.9426 3.31607 17.6548 3.87868 18.1799C4.44129 18.705 5.20435 19 6 19C6.79565 19 7.55871 18.705 8.12132 18.1799C8.68393 17.6548 9 16.9426 9 16.2H15C15 16.9426 15.3161 17.6548 15.8787 18.1799C16.4413 18.705 17.2044 19 18 19C18.7956 19 19.5587 18.705 20.1213 18.1799C20.6839 17.6548 21 16.9426 21 16.2H23V11.5333L20 7.8ZM6 17.6C5.60218 17.6 5.22064 17.4525 4.93934 17.1899C4.65804 16.9274 4.5 16.5713 4.5 16.2C4.5 15.8287 4.65804 15.4726 4.93934 15.2101C5.22064 14.9475 5.60218 14.8 6 14.8C6.39782 14.8 6.77936 14.9475 7.06066 15.2101C7.34196 15.4726 7.5 15.8287 7.5 16.2C7.5 16.5713 7.34196 16.9274 7.06066 17.1899C6.77936 17.4525 6.39782 17.6 6 17.6ZM18 17.6C17.6022 17.6 17.2206 17.4525 16.9393 17.1899C16.658 16.9274 16.5 16.5713 16.5 16.2C16.5 15.8287 16.658 15.4726 16.9393 15.2101C17.2206 14.9475 17.6022 14.8 18 14.8C18.3978 14.8 18.7794 14.9475 19.0607 15.2101C19.342 15.4726 19.5 15.8287 19.5 16.2C19.5 16.5713 19.342 16.9274 19.0607 17.1899C18.7794 17.4525 18.3978 17.6 18 17.6ZM17 11.5333V9.2H19.5L21.46 11.5333H17ZM18 6.86667H14V12.4667H3L1.57 7.8H1V5.93333H13L14 5H18V6.86667Z" fill="#38BC94"/>
</svg>
