<svg width="28" height="28" viewBox="0 0 28 28" fill="none" xmlns="http://www.w3.org/2000/svg">
<path fill-rule="evenodd" clip-rule="evenodd" d="M8.5 7.23145C7.67157 7.23145 7 7.90302 7 8.73144V21.9083C7 22.7367 7.67157 23.4083 8.5 23.4083H18.082C18.9104 23.4083 19.582 22.7367 19.582 21.9083V8.73145C19.582 7.90302 18.9104 7.23145 18.082 7.23145H8.5ZM13.3187 21H12.3747L12.3791 19.9564C10.5445 19.8014 9.39567 18.7851 9.33333 17.0762H10.9587C11.0165 17.901 11.591 18.3659 12.388 18.4935L12.4059 15.7363L12.0051 15.6315C10.5045 15.235 9.57379 14.4648 9.57379 13.125C9.56934 11.6165 10.7716 10.5683 12.4415 10.3952L12.4459 9.33332H13.3899L13.3855 10.3952C15.0687 10.5592 16.1819 11.6165 16.2086 13.0657H14.619C14.5477 12.4095 14.0891 11.972 13.3766 11.8444L13.3588 14.4466L13.6527 14.5241C15.0242 14.8568 16.3289 15.595 16.3333 17.2129C16.3289 18.7396 15.2335 19.8151 13.3232 19.9564L13.3187 21ZM13.3499 15.9915L13.3321 18.4935C14.1469 18.3568 14.6768 17.8737 14.6813 17.1992C14.6768 16.5521 14.1603 16.2331 13.3499 15.9915ZM11.2481 13.0202C11.2392 13.6673 11.8003 14 12.4148 14.2005L12.4326 11.8444C11.6845 11.9765 11.2525 12.4323 11.2481 13.0202Z" fill="#4F4F4F"/>
<path d="M10.5 4.66663H20.1667C21.2712 4.66663 22.1667 5.56206 22.1667 6.66663V18.6666" stroke="#4F4F4F" stroke-width="1.5" stroke-linecap="round"/>
</svg>
