<svg width="24" height="24" viewBox="0 0 24 24" fill="none" xmlns="http://www.w3.org/2000/svg">
<path d="M4 6.66667V18.3333C4 19.2542 4.74583 20 5.66667 20H17.3333C18.2542 20 19 19.2542 19 18.3333V6.66667C19 5.74583 18.2542 5 17.3333 5H5.66667C4.74583 5 4 5.74583 4 6.66667ZM14 10C14 11.3833 12.8792 12.5 11.5 12.5C10.1208 12.5 9 11.3833 9 10C9 8.62083 10.1208 7.5 11.5 7.5C12.8792 7.5 14 8.62083 14 10ZM6.5 16.6667C6.5 15 9.83333 14.0833 11.5 14.0833C13.1667 14.0833 16.5 15 16.5 16.6667V17.5H6.5V16.6667Z" fill="#BDBDBD"/>
</svg>
