<svg width="25" height="25" viewBox="0 0 25 25" fill="none" xmlns="http://www.w3.org/2000/svg">
<path d="M20.5 4.5H4.5C3.39 4.5 2.51 5.39 2.51 6.5L2.5 18.5C2.5 19.61 3.39 20.5 4.5 20.5H20.5C21.61 20.5 22.5 19.61 22.5 18.5V6.5C22.5 5.39 21.61 4.5 20.5 4.5ZM20.5 17.5C20.5 18.05 20.05 18.5 19.5 18.5H5.5C4.95 18.5 4.5 18.05 4.5 17.5V7.5C4.5 6.95 4.95 6.5 5.5 6.5H19.5C20.05 6.5 20.5 6.95 20.5 7.5V17.5ZM14.5 10.5C15.05 10.5 15.5 10.05 15.5 9.5C15.5 8.95 15.05 8.5 14.5 8.5H13.5V8.49C13.5 7.94 13.05 7.49 12.5 7.49C11.95 7.49 11.5 7.94 11.5 8.49V8.5H10.5C9.95 8.5 9.5 8.95 9.5 9.5V12.5C9.5 13.05 9.95 13.5 10.5 13.5H13.5V14.5H10.5C9.95 14.5 9.5 14.95 9.5 15.5C9.5 16.05 9.95 16.5 10.5 16.5H11.5C11.5 17.05 11.95 17.5 12.5 17.5C13.05 17.5 13.5 17.05 13.5 16.5H14.5C15.05 16.5 15.5 16.05 15.5 15.5V12.5C15.5 11.95 15.05 11.5 14.5 11.5H11.5V10.5H14.5Z" fill="#BDBDBD"/>
</svg>
