<svg width="24" height="24" viewBox="0 0 24 24" fill="none" xmlns="http://www.w3.org/2000/svg">
<path fill-rule="evenodd" clip-rule="evenodd" d="M17.819 4C18.1486 4 18.4278 4.12207 18.6567 4.36621C18.8856 4.61035 19 4.9082 19 5.25977V17C19 18.1046 18.1046 19 17 19H7.27209C6.96082 19 6.69073 18.8779 6.46185 18.6338C6.23297 18.3896 6.11853 18.0918 6.11853 17.7402V15.8652H4.57678C4.19226 15.8652 4 15.6602 4 15.25C4 14.8398 4.19226 14.6348 4.57678 14.6348H6.11853V12.1152H4.57678C4.19226 12.1152 4 11.9102 4 11.5C4 11.0898 4.19226 10.8848 4.57678 10.8848H6.11853V8.36523H4.57678C4.19226 8.36523 4 8.16016 4 7.75C4 7.33984 4.19226 7.13477 4.57678 7.13477H6.11853V5.25977C6.11853 4.9082 6.23297 4.61035 6.46185 4.36621C6.69073 4.12207 6.96082 4 7.27209 4H17.819ZM13 5.25977H7.27209V7.13477H7.87634C8.26086 7.13477 8.45312 7.33984 8.45312 7.75C8.45312 8.16016 8.26086 8.36523 7.87634 8.36523H7.27209V10.8848H7.87634C8.26086 10.8848 8.45312 11.0898 8.45312 11.5C8.45312 11.9102 8.26086 12.1152 7.87634 12.1152H7.27209V14.6348H7.87634C8.26086 14.6348 8.45312 14.8398 8.45312 15.25C8.45312 15.6602 8.26086 15.8652 7.87634 15.8652H7.27209V17.7402H13V5.25977Z" fill="#BDBDBD"/>
</svg>
