<svg width="25" height="25" viewBox="0 0 25 25" fill="none" xmlns="http://www.w3.org/2000/svg">
<path d="M6.80879 8.54775C7.78402 8.54775 8.5746 7.75716 8.5746 6.78193C8.5746 5.8067 7.78402 5.01611 6.80879 5.01611C5.83355 5.01611 5.04297 5.8067 5.04297 6.78193C5.04297 7.75716 5.83355 8.54775 6.80879 8.54775Z" fill="#BDBDBD"/>
<path d="M7.39758 17.9666V12.0805C7.39758 11.2099 7.6707 10.403 8.13334 9.73667C8.08449 9.73373 8.03563 9.72607 7.98619 9.72607H5.63177C4.3333 9.72607 3.27734 10.782 3.27734 12.0805V15.6121H4.45455V19.7324H8.57479V17.9666H7.39758Z" fill="#BDBDBD"/>
<path d="M18.5822 8.54775C19.5575 8.54775 20.348 7.75716 20.348 6.78193C20.348 5.8067 19.5575 5.01611 18.5822 5.01611C17.607 5.01611 16.8164 5.8067 16.8164 6.78193C16.8164 7.75716 17.607 8.54775 18.5822 8.54775Z" fill="#BDBDBD"/>
<path d="M17.9936 17.9666V12.0805C17.9936 11.2099 17.7205 10.403 17.2579 9.73667C17.3067 9.73373 17.3556 9.72607 17.405 9.72607H19.7594C21.0579 9.72607 22.1139 10.782 22.1139 12.0805V15.6121H20.9366V19.7324H16.8164V17.9666H17.9936Z" fill="#BDBDBD"/>
<path d="M13.8717 9.1377H11.5172C9.89446 9.1377 8.57422 10.4579 8.57422 12.0807V16.7896H10.34V21.4984H15.0489V16.7896H16.8147V12.0807C16.8147 10.4579 15.4945 9.1377 13.8717 9.1377Z" fill="#BDBDBD"/>
<path d="M12.6943 7.96031C13.9946 7.96031 15.0487 6.9062 15.0487 5.60589C15.0487 4.30558 13.9946 3.25146 12.6943 3.25146C11.394 3.25146 10.3398 4.30558 10.3398 5.60589C10.3398 6.9062 11.394 7.96031 12.6943 7.96031Z" fill="#BDBDBD"/>
</svg>
