<svg width="24" height="24" viewBox="0 0 24 24" fill="none" xmlns="http://www.w3.org/2000/svg">
<path d="M18.1654 4H12.3236C11.8646 4 11.489 4.37555 11.489 4.83455V12.3455L13.9927 9.84188H18.1654C18.6245 9.84188 19 9.46633 19 9.00732V4.83455C19 4.37555 18.6245 4 18.1654 4ZM17.5228 14.2316L15.4031 13.9896C14.894 13.9312 14.3933 14.1064 14.0344 14.4653L12.4988 16.0009C10.137 14.7991 8.20087 12.8713 6.99911 10.5012L8.54304 8.95725C8.9019 8.59839 9.07715 8.09766 9.01873 7.58858L8.77671 5.48551C8.67657 4.64261 7.9672 4.00835 7.11595 4.00835H5.67217C4.72913 4.00835 3.94465 4.79283 4.00307 5.73587C4.44538 12.863 10.1454 18.5546 17.2641 18.9969C18.2072 19.0554 18.9917 18.2709 18.9917 17.3278V15.884C19 15.0411 18.3657 14.3318 17.5228 14.2316Z" fill="#BDBDBD"/>
</svg>
