<svg width="25" height="24" viewBox="0 0 25 24" fill="none" xmlns="http://www.w3.org/2000/svg">
<path fill-rule="evenodd" clip-rule="evenodd" d="M8 6.19824C7.17157 6.19824 6.5 6.86982 6.5 7.69824V18.5641C6.5 19.3926 7.17157 20.0641 8 20.0641H15.7846C16.613 20.0641 17.2846 19.3926 17.2846 18.5641V7.69824C17.2846 6.86982 16.613 6.19824 15.7846 6.19824H8ZM11.916 17.9998H11.1069L11.1107 17.1053C9.53817 16.9725 8.55344 16.1014 8.5 14.6366H9.89313C9.94275 15.3436 10.4351 15.742 11.1183 15.8514L11.1336 13.4881L10.7901 13.3983C9.50382 13.0584 8.70611 12.3983 8.70611 11.2498C8.70229 9.95688 9.73282 9.05844 11.1641 8.91L11.1679 7.99985H11.9771L11.9733 8.91C13.416 9.05063 14.3702 9.95688 14.3931 11.1991H13.0305C12.9695 10.6366 12.5763 10.2616 11.9656 10.1522L11.9504 12.3827L12.2023 12.4491C13.3779 12.7342 14.4962 13.367 14.5 14.7538C14.4962 16.0623 13.5573 16.9842 11.9198 17.1053L11.916 17.9998ZM11.9427 13.7069L11.9275 15.8514C12.626 15.7342 13.0802 15.3202 13.084 14.742C13.0802 14.1873 12.6374 13.9139 11.9427 13.7069ZM10.1412 11.16C10.1336 11.7147 10.6145 11.9998 11.1412 12.1717L11.1565 10.1522C10.5153 10.2655 10.145 10.6561 10.1412 11.16Z" fill="#BDBDBD"/>
<path fill-rule="evenodd" clip-rule="evenodd" d="M8.75 4C8.75 3.58579 9.08579 3.25 9.5 3.25H17.5C19.0188 3.25 20.25 4.48122 20.25 6V16C20.25 16.4142 19.9142 16.75 19.5 16.75C19.0858 16.75 18.75 16.4142 18.75 16V6C18.75 5.30964 18.1904 4.75 17.5 4.75H9.5C9.08579 4.75 8.75 4.41421 8.75 4Z" fill="#BDBDBD"/>
</svg>
