<svg width="24" height="24" viewBox="0 0 24 24" fill="none" xmlns="http://www.w3.org/2000/svg">
<path d="M18.9607 4.16133H14.2562V3.44157C14.2563 3.3667 14.2417 3.29254 14.2131 3.22333C14.1846 3.15412 14.1426 3.09123 14.0897 3.03824C14.0368 2.98525 13.974 2.94322 13.9048 2.91454C13.8357 2.88586 13.7615 2.87109 13.6867 2.87109H10.3128C10.2379 2.87109 10.1637 2.88585 10.0945 2.91453C10.0253 2.9432 9.96247 2.98523 9.90953 3.03821C9.8566 3.09119 9.81462 3.15409 9.786 3.2233C9.75739 3.29251 9.74269 3.36668 9.74275 3.44157V4.16133H5.03875C4.96391 4.16124 4.88979 4.1759 4.82062 4.20448C4.75145 4.23306 4.6886 4.275 4.63566 4.3279C4.58272 4.3808 4.54072 4.44362 4.51208 4.51276C4.48344 4.5819 4.46872 4.65601 4.46875 4.73085V6.39453C4.46872 6.46937 4.48344 6.54348 4.51208 6.61263C4.54072 6.68177 4.58272 6.74459 4.63566 6.79748C4.6886 6.85038 4.75145 6.89232 4.82062 6.9209C4.88979 6.94948 4.96391 6.96415 5.03875 6.96405H18.9607C19.0355 6.96421 19.1097 6.94959 19.1789 6.92103C19.2481 6.89247 19.311 6.85053 19.3639 6.79762C19.4169 6.74471 19.4589 6.68187 19.4875 6.6127C19.5161 6.54353 19.5308 6.46939 19.5307 6.39453V4.73085C19.5308 4.656 19.5161 4.58186 19.4875 4.51268C19.4589 4.44351 19.4169 4.38067 19.3639 4.32776C19.311 4.27485 19.2481 4.23291 19.1789 4.20435C19.1097 4.17579 19.0355 4.16118 18.9607 4.16133Z" fill="#38BC94"/>
<path fill-rule="evenodd" clip-rule="evenodd" d="M5.79852 8.01563H18.1993C18.2741 8.01547 18.3483 8.03008 18.4175 8.05863C18.4866 8.08717 18.5495 8.12909 18.6025 8.18197C18.6554 8.23485 18.6974 8.29767 18.726 8.36681C18.7547 8.43596 18.7694 8.51007 18.7693 8.58491V12.5407C16.9059 13.2989 13.9377 13.8071 10.8591 12.3036C8.72523 11.2614 6.58917 11.3101 5.22852 11.5336V8.58515C5.22848 8.51031 5.24321 8.4362 5.27185 8.36705C5.30049 8.29791 5.34248 8.23509 5.39542 8.1822C5.44837 8.1293 5.51122 8.08736 5.58039 8.05878C5.64955 8.0302 5.72368 8.01553 5.79852 8.01563ZM5.22852 13.5665V20.558C5.22848 20.6329 5.2432 20.7071 5.27183 20.7763C5.30046 20.8455 5.34244 20.9083 5.39537 20.9613C5.44829 21.0143 5.51114 21.0563 5.58031 21.085C5.64949 21.1137 5.72363 21.1285 5.79852 21.1285H18.1993C18.2742 21.1285 18.3484 21.1138 18.4176 21.0851C18.4868 21.0565 18.5497 21.0144 18.6026 20.9615C18.6555 20.9085 18.6975 20.8456 18.7261 20.7763C18.7547 20.7071 18.7694 20.6329 18.7693 20.558V14.6675C16.4939 15.4176 13.297 15.72 9.98143 14.1007C8.10821 13.1858 6.19611 13.362 5.22852 13.5665Z" fill="#38BC94"/>
</svg>
