<svg width="40" height="40" viewBox="0 0 40 40" fill="none" xmlns="http://www.w3.org/2000/svg">
<path d="M12.0527 20.5654L13.2648 16.6209C13.3456 16.1226 13.6957 15.7186 14.1671 15.5705L16.6451 14.749C17.1299 14.5874 17.6686 14.7086 18.0322 15.0857L20.8064 17.8868L23.5807 15.0722C23.9443 14.7086 24.483 14.5739 24.9678 14.7355L27.4458 15.557C27.9171 15.7186 28.2673 16.1226 28.3481 16.6075L29.5601 20.552" fill="#4F4F4F"/>
<path d="M24.174 8.52841C24.174 6.57567 22.6657 5 20.8072 5C18.9488 5 17.4404 6.58913 17.4404 8.52841V9.53846C17.4404 11.4912 18.9488 13.0803 20.8072 13.0803C22.6657 13.0803 24.174 11.4912 24.174 9.55192V8.52841Z" fill="#4F4F4F"/>
<path d="M6.66602 22.5625V25.2559C6.66602 26.7373 7.87807 27.9494 9.35946 27.9494L10.7062 33.3363H30.907L32.2537 27.9494C33.7351 27.9494 34.9472 26.7373 34.9472 25.2559V22.5625H6.66602Z" fill="#4F4F4F"/>
</svg>
