<svg width="23" height="24" viewBox="0 0 23 24" fill="none" xmlns="http://www.w3.org/2000/svg">
<path fill-rule="evenodd" clip-rule="evenodd" d="M12.0767 14.4925L14.5 15.7041L20.0781 12.915L17.6549 11.7034L12.0767 14.4925ZM11.3417 14.125L8.92188 12.915L14.5 10.126L16.9198 11.3359L11.3417 14.125Z" fill="#4F4F4F"/>
<path d="M14.5 17.0322L20.875 13.7119V19.8479L14.5 22.876V17.0322Z" fill="#4F4F4F"/>
<path d="M14.5 17.0322L8.125 13.7119V19.8479L14.5 22.876V17.0322Z" fill="#4F4F4F"/>
<path fill-rule="evenodd" clip-rule="evenodd" d="M5.00436 5.34691L7 6.34473L11.5938 4.04785L9.59811 3.05003L5.00436 5.34691ZM4.39905 5.04425L2.40625 4.04785L7 1.75098L8.9928 2.74738L4.39905 5.04425Z" fill="#4F4F4F"/>
<path d="M7 7.43848L12.25 4.7041V9.75723L7 12.251V7.43848Z" fill="#4F4F4F"/>
<path d="M7 7.43848L1.75 4.7041V9.75723L7 12.251V7.43848Z" fill="#4F4F4F"/>
</svg>
