<svg width="24" height="24" viewBox="0 0 24 24" fill="none" xmlns="http://www.w3.org/2000/svg">
<path d="M6.30756 8.04823C7.2828 8.04823 8.07338 7.25765 8.07338 6.28242C8.07338 5.30718 7.2828 4.5166 6.30756 4.5166C5.33233 4.5166 4.54175 5.30718 4.54175 6.28242C4.54175 7.25765 5.33233 8.04823 6.30756 8.04823Z" fill="#4F4F4F"/>
<path d="M6.89612 17.467V11.581C6.89612 10.7104 7.16923 9.90346 7.63187 9.23716C7.58302 9.23421 7.53417 9.22656 7.48472 9.22656H5.1303C3.83184 9.22656 2.77588 10.2825 2.77588 11.581V15.1126H3.95309V19.2329H8.07333V17.467H6.89612Z" fill="#4F4F4F"/>
<path d="M18.0798 8.04823C19.055 8.04823 19.8456 7.25765 19.8456 6.28242C19.8456 5.30718 19.055 4.5166 18.0798 4.5166C17.1045 4.5166 16.314 5.30718 16.314 6.28242C16.314 7.25765 17.1045 8.04823 18.0798 8.04823Z" fill="#4F4F4F"/>
<path d="M17.4912 17.467V11.581C17.4912 10.7104 17.2181 9.90346 16.7554 9.23716C16.8043 9.23421 16.8531 9.22656 16.9026 9.22656H19.257C20.5555 9.22656 21.6114 10.2825 21.6114 11.581V15.1126H20.4342V19.2329H16.314V17.467H17.4912Z" fill="#4F4F4F"/>
<path d="M13.3707 8.6377H11.0163C9.39348 8.6377 8.07324 9.95794 8.07324 11.5807V16.2896H9.83906V20.9984H14.5479V16.2896H16.3137V11.5807C16.3137 9.95794 14.9935 8.6377 13.3707 8.6377Z" fill="#4F4F4F"/>
<path d="M12.1935 7.4608C13.4938 7.4608 14.548 6.40669 14.548 5.10638C14.548 3.80606 13.4938 2.75195 12.1935 2.75195C10.8932 2.75195 9.83911 3.80606 9.83911 5.10638C9.83911 6.40669 10.8932 7.4608 12.1935 7.4608Z" fill="#4F4F4F"/>
</svg>
