<svg width="24" height="24" viewBox="0 0 24 24" fill="none" xmlns="http://www.w3.org/2000/svg">
<path fill-rule="evenodd" clip-rule="evenodd" d="M7.5 6.19824C6.67157 6.19824 6 6.86982 6 7.69824V18.5641C6 19.3926 6.67157 20.0641 7.5 20.0641H15.2846C16.113 20.0641 16.7846 19.3926 16.7846 18.5641V7.69824C16.7846 6.86982 16.113 6.19824 15.2846 6.19824H7.5ZM11.416 17.9998H10.6069L10.6107 17.1053C9.03817 16.9725 8.05344 16.1014 8 14.6366H9.39313C9.44275 15.3436 9.93511 15.742 10.6183 15.8514L10.6336 13.4881L10.2901 13.3983C9.00382 13.0584 8.20611 12.3983 8.20611 11.2498C8.20229 9.95688 9.23282 9.05844 10.6641 8.91L10.6679 7.99985H11.4771L11.4733 8.91C12.916 9.05063 13.8702 9.95688 13.8931 11.1991H12.5305C12.4695 10.6366 12.0763 10.2616 11.4656 10.1522L11.4504 12.3827L11.7023 12.4491C12.8779 12.7342 13.9962 13.367 14 14.7538C13.9962 16.0623 13.0573 16.9842 11.4198 17.1053L11.416 17.9998ZM11.4427 13.7069L11.4275 15.8514C12.126 15.7342 12.5802 15.3202 12.584 14.742C12.5802 14.1873 12.1374 13.9139 11.4427 13.7069ZM9.64122 11.16C9.63359 11.7147 10.1145 11.9998 10.6412 12.1717L10.6565 10.1522C10.0153 10.2655 9.64504 10.6561 9.64122 11.16Z" fill="#4F4F4F"/>
<path fill-rule="evenodd" clip-rule="evenodd" d="M8.25 4C8.25 3.58579 8.58579 3.25 9 3.25H17C18.5188 3.25 19.75 4.48122 19.75 6V16C19.75 16.4142 19.4142 16.75 19 16.75C18.5858 16.75 18.25 16.4142 18.25 16V6C18.25 5.30964 17.6904 4.75 17 4.75H9C8.58579 4.75 8.25 4.41421 8.25 4Z" fill="#4F4F4F"/>
</svg>
