<svg width="24" height="24" viewBox="0 0 24 24" fill="none" xmlns="http://www.w3.org/2000/svg">
<path d="M19.2727 8.6H14.7273V13.8H2.90909V16.4H3.81818C3.81818 17.0896 4.10552 17.7509 4.61698 18.2385C5.12844 18.7261 5.82214 19 6.54545 19C7.26877 19 7.96247 18.7261 8.47393 18.2385C8.98539 17.7509 9.27273 17.0896 9.27273 16.4H14.7273C14.7273 17.0896 15.0146 17.7509 15.5261 18.2385C16.0375 18.7261 16.7312 19 17.4545 19C18.1779 19 18.8716 18.7261 19.383 18.2385C19.8945 17.7509 20.1818 17.0896 20.1818 16.4H22V12.0667L19.2727 8.6ZM6.54545 17.7C6.1838 17.7 5.83695 17.563 5.58122 17.3192C5.32549 17.0754 5.18182 16.7448 5.18182 16.4C5.18182 16.0552 5.32549 15.7246 5.58122 15.4808C5.83695 15.237 6.1838 15.1 6.54545 15.1C6.90711 15.1 7.25396 15.237 7.50969 15.4808C7.76542 15.7246 7.90909 16.0552 7.90909 16.4C7.90909 16.7448 7.76542 17.0754 7.50969 17.3192C7.25396 17.563 6.90711 17.7 6.54545 17.7ZM17.4545 17.7C17.0929 17.7 16.746 17.563 16.4903 17.3192C16.2346 17.0754 16.0909 16.7448 16.0909 16.4C16.0909 16.0552 16.2346 15.7246 16.4903 15.4808C16.746 15.237 17.0929 15.1 17.4545 15.1C17.8162 15.1 18.163 15.237 18.4188 15.4808C18.6745 15.7246 18.8182 16.0552 18.8182 16.4C18.8182 16.7448 18.6745 17.0754 18.4188 17.3192C18.163 17.563 17.8162 17.7 17.4545 17.7ZM16.5455 12.0667V9.9H18.8182L20.6 12.0667H16.5455ZM17.4545 7.73333H13.8182V12.9333H3.81818L2.51818 8.6H2V6.86667H12.9091L13.8182 6H17.4545V7.73333Z" fill="#4F4F4F"/>
</svg>
