<svg width="14" height="14" viewBox="0 0 14 14" fill="none" xmlns="http://www.w3.org/2000/svg">
<path d="M6.99935 1.16699C4.74185 1.16699 2.91602 2.99283 2.91602 5.25033C2.91602 7.68283 5.49435 11.037 6.55602 12.3145C6.78935 12.5945 7.21518 12.5945 7.44852 12.3145C8.50435 11.037 11.0827 7.68283 11.0827 5.25033C11.0827 2.99283 9.25685 1.16699 6.99935 1.16699ZM6.99935 6.70866C6.19435 6.70866 5.54102 6.05533 5.54102 5.25033C5.54102 4.44533 6.19435 3.79199 6.99935 3.79199C7.80435 3.79199 8.45768 4.44533 8.45768 5.25033C8.45768 6.05533 7.80435 6.70866 6.99935 6.70866Z" fill="#828282"/>
</svg>
