<svg width="32" height="33" viewBox="0 0 32 33" fill="none" xmlns="http://www.w3.org/2000/svg">
<path fill-rule="evenodd" clip-rule="evenodd" d="M4 5.992L5.492 4.5L10.0889 7.7824C10.2824 7.92058 10.4402 8.10304 10.5489 8.31457C10.6577 8.52609 10.7143 8.76054 10.714 8.99838V9.10282C10.7138 9.29899 10.7524 9.49326 10.8274 9.67452C10.9024 9.85578 11.0124 10.0205 11.1512 10.1592L19.666 18.674L21.0297 18.2189C21.2925 18.1315 21.5745 18.119 21.8441 18.1827C22.1137 18.2465 22.3602 18.3841 22.556 18.58L27.5632 23.5872C27.8429 23.867 28 24.2464 28 24.642C28 25.0376 27.8429 25.4171 27.5632 25.6968L25.1968 28.0632C24.9171 28.3429 24.5376 28.5 24.142 28.5C23.7464 28.5 23.367 28.3429 23.0872 28.0632L18.08 23.056C17.8841 22.8602 17.7465 22.6137 17.6827 22.3441C17.619 22.0745 17.6315 21.7925 17.7189 21.5297L18.174 20.166L9.65916 11.6512C9.37942 11.3713 8.99998 11.2141 8.60431 11.214H8.49838C8.2608 11.214 8.02664 11.1573 7.8154 11.0486C7.60415 10.9398 7.42193 10.7822 7.28389 10.5889L4 5.992ZM20.9402 20.3838C20.8001 20.2438 20.6101 20.1651 20.412 20.1651C20.2139 20.1651 20.0239 20.2438 19.8838 20.3838C19.7438 20.5239 19.6651 20.7139 19.6651 20.912C19.6651 21.1101 19.7438 21.3001 19.8838 21.4402L24.3598 25.9162C24.4999 26.0563 24.6899 26.1349 24.888 26.1349C25.0861 26.1349 25.2761 26.0563 25.4162 25.9162C25.5563 25.7761 25.6349 25.5861 25.6349 25.388C25.6349 25.1899 25.5563 24.9999 25.4162 24.8598L20.9402 20.3838Z" fill="#7FD4BA"/>
<path fill-rule="evenodd" clip-rule="evenodd" d="M27.8481 7.83843C28.0516 8.60183 28.0506 9.40531 27.8453 10.1682C27.64 10.9311 27.2376 11.6267 26.6784 12.1849C26.1192 12.7432 25.4229 13.1446 24.6595 13.3488C23.8961 13.553 23.0923 13.5528 22.329 13.3484L12.8165 22.726C13.1 23.6853 13.0557 24.7116 12.6905 25.6428C12.3254 26.5741 11.6602 27.3571 10.8002 27.8682C9.94015 28.3794 8.93427 28.5894 7.94149 28.4652C6.94871 28.3409 6.02564 27.8895 5.31816 27.1822C4.61068 26.475 4.15913 25.5522 4.03486 24.5597C3.91058 23.5672 4.12068 22.5616 4.63195 21.7018C5.14321 20.8421 5.92649 20.1771 6.85801 19.8121C7.78952 19.447 8.81616 19.4027 9.77568 19.6861L19.1547 10.1765C18.9475 9.41275 18.9455 8.60792 19.1489 7.84318C19.3523 7.07845 19.7538 6.38086 20.313 5.82079C20.8721 5.26073 21.5692 4.858 22.3337 4.65324C23.0983 4.44848 23.9034 4.44893 24.6677 4.65454L21.4544 7.86692L22.0005 10.5034L24.6362 11.0493L27.8481 7.83843ZM7.79098 21.3643L8.50055 21.0014L9.20712 21.3643L10.0007 21.4033L10.4312 22.0707L11.0988 22.5011L11.1378 23.2944L11.4994 24.0008L11.1363 24.7072L11.0973 25.5005L10.4297 25.9309L9.9992 26.5983L9.20562 26.6373L8.49905 27.0002L7.79248 26.6373L6.99889 26.5983L6.56835 25.9309L5.90078 25.5005L5.86177 24.7072L5.49874 24.0008L5.86177 23.2944L5.90078 22.5011L6.56835 22.0707L6.99889 21.4033L7.79248 21.3643H7.79098Z" fill="#7FD4BA"/>
</svg>
